<svg width="371" height="373" viewBox="0 0 371 373" fill="none" xmlns="http://www.w3.org/2000/svg">
<g filter="url(#filter0_d_5013_6104)">
<g clip-path="url(#clip0_5013_6104)">
<rect x="4" y="3.92969" width="363" height="364" rx="15" fill="#1E1E1E"/>
<path d="M39.293 26.0312V38.9219H37.1055V26.0312H39.293ZM24.6055 34.7617C27.4668 33.7559 28.9316 31.2656 28.9219 28.7266V27.0078H31.168V28.7266C31.1582 31.1875 32.6035 33.5117 35.4062 34.4492L34.293 36.168C32.2812 35.4648 30.8457 34.0586 30.0645 32.252C29.2832 34.1855 27.8184 35.7285 25.7383 36.4805L24.6055 34.7617ZM27.6133 43.3164V37.6914H29.8008V41.5586H39.7812V43.3164H27.6133ZM47.2617 31.4023C47.2617 34.1367 48.3848 36.8906 50.8555 38.2188L49.6445 39.8203C48.0039 38.9512 46.8906 37.3984 46.2559 35.543C45.6309 37.5449 44.5176 39.2637 42.8672 40.2305L41.5977 38.5898C44.0977 37.1445 45.2012 34.1953 45.2109 31.4023V30.8555H42.2031V29.0977H45.2109V26.6367H47.2617V29.0977H50.2109V30.8555H47.2617V31.4023ZM49.1172 34.5859V32.7891H51.4219V26.3438H53.4727V42.8086H51.4219V34.5859H49.1172ZM54.9961 43.668V26.0117H57.0664V43.668H54.9961ZM78.1797 41.5586V43.3164H65.8945V38.2188H68.0625V41.5586H78.1797ZM63.9023 37.0273V35.2695H70.8555V32.6133H73.0039V35.2695H79.9961V37.0273H63.9023ZM64.8203 32.0078C68.4434 31.4707 70.8164 29.3516 70.8164 27.125V26.5H73.0234V27.125C73.0234 29.4297 75.3477 31.5098 79.0391 32.0078L78.1797 33.707C75.2988 33.2285 73.0234 31.8711 71.9102 29.9375C70.7969 31.8613 68.541 33.248 65.6797 33.707L64.8203 32.0078ZM87.4375 28.8242C87.4375 31.041 88.873 33.1406 91.5977 34L90.4258 35.6992C88.5215 35.0547 87.1543 33.7656 86.3828 32.125C85.6211 34 84.1953 35.4746 82.1641 36.1875L80.9922 34.4883C83.834 33.502 85.2598 31.1484 85.2695 28.6289V26.9492H87.4375V28.8242ZM83.3945 40.2891C83.3945 38.1992 85.6895 36.959 89.3711 36.9688C93.0234 36.959 95.2793 38.1992 95.2891 40.2891C95.2793 42.4277 93.0234 43.6484 89.3711 43.6484C85.6895 43.6484 83.3945 42.4277 83.3945 40.2891ZM85.5625 40.2891C85.5625 41.3828 86.9492 41.9297 89.3711 41.9297C91.7832 41.9297 93.1406 41.3828 93.1406 40.2891C93.1406 39.2539 91.7832 38.668 89.3711 38.668C86.9492 38.668 85.5625 39.2539 85.5625 40.2891ZM92.9453 36.5781V26.0117H95.1133V30.3086H97.5742V32.1055H95.1133V36.5781H92.9453ZM108.043 27.3008C109.635 27.3008 110.953 28.1895 111.744 29.7422H115.875V26.0117H118.023V43.6875H115.875V37.0078H111.9C111.129 38.7656 109.742 39.7812 108.043 39.7812C105.387 39.7812 103.502 37.3691 103.512 33.5312C103.502 29.7227 105.387 27.3008 108.043 27.3008ZM105.602 33.5312C105.592 36.2461 106.588 37.8184 108.043 37.8281C109.508 37.8184 110.494 36.2461 110.504 33.5312C110.494 30.8359 109.508 29.2539 108.043 29.2539C106.588 29.2539 105.592 30.8359 105.602 33.5312ZM112.359 31.5195C112.486 32.1348 112.555 32.8086 112.555 33.5312C112.555 34.1367 112.506 34.7129 112.408 35.25H115.875V31.5195H112.359ZM136.617 36.2852V38.0039H129.586V43.668H127.438V38.0039H120.484V36.2852H136.617ZM122.438 34.4492V26.7148H124.586V28.8828H132.477V26.7148H134.664V34.4492H122.438ZM124.586 32.6914H132.477V30.6016H124.586V32.6914Z" fill="white"/>
<g filter="url(#filter1_d_5013_6104)">
<path d="M24 164.93C24 156.645 30.7157 149.93 39 149.93H333C341.284 149.93 348 156.645 348 164.93V190.93C348 199.214 341.284 205.93 333 205.93H39C30.7157 205.93 24 199.214 24 190.93V164.93Z" fill="url(#paint0_linear_5013_6104)"/>
</g>
<path d="M92.7666 171.05V176.543H94.7441V177.715H92.7666V184.175H91.375V171.05H92.7666ZM82.3223 180.601C83.355 180.601 84.5562 180.601 85.8086 180.564V179.231C84.3291 179.011 83.3623 178.118 83.377 176.851C83.3623 175.371 84.644 174.397 86.5117 174.39C88.3721 174.397 89.6685 175.371 89.6758 176.851C89.6685 178.118 88.687 179.019 87.2002 179.231V180.513C88.3647 180.454 89.5366 180.359 90.6279 180.205L90.7158 181.23C87.874 181.736 84.8052 181.765 82.542 181.758L82.3223 180.601ZM82.5713 173.716V172.603H85.8086V171.079H87.2002V172.603H90.4375V173.716H82.5713ZM84.6807 176.851C84.6807 177.686 85.4131 178.206 86.5117 178.198C87.6104 178.206 88.3354 177.686 88.3428 176.851C88.3354 176.008 87.6104 175.474 86.5117 175.474C85.4131 175.474 84.6807 176.008 84.6807 176.851ZM99.9736 173.145C99.9663 174.866 101.182 176.47 103.138 177.114L102.391 178.213C100.955 177.708 99.8784 176.682 99.3071 175.386C98.7358 176.858 97.6226 178.015 96.0918 178.579L95.3447 177.466C97.3955 176.741 98.582 174.99 98.5967 173.027V171.738H99.9736V173.145ZM97.1172 181.714C97.1172 180.176 98.7944 179.275 101.526 179.282C104.222 179.275 105.877 180.176 105.877 181.714C105.877 183.267 104.222 184.153 101.526 184.146C98.7944 184.153 97.1172 183.267 97.1172 181.714ZM98.5088 181.714C98.5015 182.578 99.6294 183.047 101.526 183.062C103.409 183.047 104.522 182.578 104.515 181.714C104.522 180.879 103.409 180.381 101.526 180.381C99.6294 180.381 98.5015 180.879 98.5088 181.714ZM104.368 178.975V171.05H105.76V174.346H107.664V175.518H105.76V178.975H104.368Z" fill="white"/>
<circle cx="57" cy="177.93" r="13" fill="url(#paint1_linear_5013_6104)"/>
<path d="M53.9961 182.93L53.9814 181.963L57.5996 178.154C58.8521 176.821 59.4526 176.104 59.46 175.122C59.4526 174.031 58.5444 173.328 57.3506 173.32C56.0835 173.328 55.2925 174.126 55.2852 175.312H54.04C54.0254 173.438 55.4756 172.178 57.3945 172.178C59.3208 172.178 60.6831 173.474 60.6904 175.122C60.6831 176.309 60.1338 177.231 58.2588 179.165L55.8271 181.67V181.758H60.8809V182.93H53.9961Z" fill="black"/>
<g filter="url(#filter2_d_5013_6104)">
<path d="M24 377.93C24 369.645 30.7157 362.93 39 362.93H333C341.284 362.93 348 369.645 348 377.93V403.93C348 412.214 341.284 418.93 333 418.93H39C30.7157 418.93 24 412.214 24 403.93V377.93Z" fill="url(#paint2_linear_5013_6104)"/>
</g>
<g filter="url(#filter3_d_5013_6104)">
<path d="M24 235.93C24 227.645 30.7157 220.93 39 220.93H333C341.284 220.93 348 227.645 348 235.93V261.93C348 270.214 341.284 276.93 333 276.93H39C30.7157 276.93 24 270.214 24 261.93V235.93Z" fill="url(#paint3_linear_5013_6104)"/>
</g>
<path d="M89.2217 243.207V244.35H84.4463V246.884H88.958V247.997H84.4463V250.941C86.6362 250.927 88.2622 250.846 90.1592 250.531L90.291 251.659C88.2622 251.996 86.519 252.062 84.0947 252.069H83.04V243.207H89.2217ZM91.3164 255.175V242.05H92.708V247.221H94.8174V248.393H92.708V255.175H91.3164ZM105.76 242.05V245.404H107.664V246.547H105.76V249.96H104.368V242.05H105.76ZM95.96 249.125V242.87H97.3223V244.833H100.765V242.87H102.142V249.125H95.96ZM97.0879 251.747V250.619H105.76V255.175H104.368V251.747H97.0879ZM97.3223 248.012H100.765V245.932H97.3223V248.012ZM112.938 244.145C112.93 245.866 114.146 247.47 116.102 248.114L115.354 249.213C113.919 248.708 112.842 247.682 112.271 246.386C111.7 247.858 110.586 249.015 109.056 249.579L108.309 248.466C110.359 247.741 111.546 245.99 111.561 244.027V242.738H112.938V244.145ZM110.081 252.714C110.081 251.176 111.758 250.275 114.49 250.282C117.186 250.275 118.841 251.176 118.841 252.714C118.841 254.267 117.186 255.153 114.49 255.146C111.758 255.153 110.081 254.267 110.081 252.714ZM111.473 252.714C111.465 253.578 112.593 254.047 114.49 254.062C116.373 254.047 117.486 253.578 117.479 252.714C117.486 251.879 116.373 251.381 114.49 251.381C112.593 251.381 111.465 251.879 111.473 252.714ZM117.332 249.975V242.05H118.724V245.346H120.628V246.518H118.724V249.975H117.332Z" fill="white"/>
<circle cx="57" cy="248.93" r="13" fill="url(#paint4_linear_5013_6104)"/>
<path d="M56.6582 254.076C54.5488 254.076 53.0327 252.948 52.9668 251.264H54.2998C54.373 252.274 55.3765 252.904 56.6436 252.904C58.0425 252.904 59.0532 252.15 59.0605 251.044C59.0532 249.887 58.1304 249.074 56.4824 249.066H55.6182V247.909H56.4824C57.7715 247.909 58.6724 247.184 58.665 246.093C58.6724 245.031 57.896 244.328 56.6875 244.32C55.5522 244.328 54.5195 244.95 54.4609 245.99H53.1865C53.2524 244.306 54.8198 243.178 56.7021 243.178C58.7236 243.178 59.9541 244.503 59.9395 246.02C59.9541 247.228 59.251 248.107 58.1377 248.422V248.495C59.522 248.708 60.3569 249.696 60.3496 251.044C60.3569 252.787 58.7749 254.076 56.6582 254.076Z" fill="black"/>
<g filter="url(#filter4_d_5013_6104)">
<path d="M24 93.9297C24 85.6454 30.7157 78.9297 39 78.9297H333C341.284 78.9297 348 85.6454 348 93.9297V119.93C348 128.214 341.284 134.93 333 134.93H39C30.7157 134.93 24 128.214 24 119.93V93.9297Z" fill="url(#paint5_linear_5013_6104)"/>
</g>
<path d="M92.957 100.577V101.397C92.9424 102.225 92.9424 103.243 92.708 104.518L91.3311 104.4C91.5361 103.272 91.5654 102.438 91.5654 101.69H83.8896V100.577H92.957ZM82.498 106.29V105.191H87.2881V103.023H88.6504V105.191H94.4365V106.29H82.498ZM83.8896 108.502V107.374H92.9863V110.626H85.2959V111.93H93.3232V113.043H83.9043V109.659H91.6094V108.502H83.8896ZM100.105 102.027C100.105 103.514 101.307 105.001 103.255 105.587L102.596 106.686C101.102 106.224 99.9956 105.257 99.4243 104.049C98.8311 105.382 97.6738 106.488 96.1357 106.993L95.4473 105.895C97.4321 105.235 98.7139 103.617 98.7139 102.013V101.808H95.8574V100.68H102.933V101.808H100.105V102.027ZM97.791 108.517V107.403H106.375V110.685H99.2119V111.93H106.844V113.028H97.8203V109.63H104.998V108.517H97.791ZM102.552 104.034V102.906H104.998V100.05H106.375V106.803H104.998V104.034H102.552Z" fill="black"/>
<g filter="url(#filter5_d_5013_6104)">
<circle cx="57" cy="106.93" r="13" fill="url(#paint6_linear_5013_6104)"/>
</g>
<path d="M58.7461 101.324V111.93H57.4131V102.701H57.3545L54.7764 104.415V103.082L57.4131 101.324H58.7461Z" fill="white"/>
<g filter="url(#filter6_d_5013_6104)">
<path d="M24 306.93C24 298.645 30.7157 291.93 39 291.93H333C341.284 291.93 348 298.645 348 306.93V332.93C348 341.214 341.284 347.93 333 347.93H39C30.7157 347.93 24 341.214 24 332.93V306.93Z" fill="url(#paint7_linear_5013_6104)"/>
</g>
<path d="M87.0098 315.145C87.0024 316.866 88.2183 318.47 90.1738 319.114L89.4268 320.213C87.9912 319.708 86.9146 318.682 86.3433 317.386C85.772 318.858 84.6587 320.015 83.1279 320.579L82.3809 319.466C84.4316 318.741 85.6182 316.99 85.6328 315.027V313.738H87.0098V315.145ZM84.1533 323.714C84.1533 322.176 85.8306 321.275 88.5625 321.282C91.2578 321.275 92.9131 322.176 92.9131 323.714C92.9131 325.267 91.2578 326.153 88.5625 326.146C85.8306 326.153 84.1533 325.267 84.1533 323.714ZM85.5449 323.714C85.5376 324.578 86.6655 325.047 88.5625 325.062C90.4448 325.047 91.5581 324.578 91.5508 323.714C91.5581 322.879 90.4448 322.381 88.5625 322.381C86.6655 322.381 85.5376 322.879 85.5449 323.714ZM91.4043 320.975V313.05H92.7959V316.346H94.7002V317.518H92.7959V320.975H91.4043ZM106.404 313.05V326.204H105.013V319.378H102.303V318.25H105.013V313.05H106.404ZM95.4473 322.586C97.4321 321.67 98.7358 319.429 98.7285 317.269V316.404H95.8135V315.291H98.7432V313.313H100.135V315.291H102.977V316.404H100.105V317.269C100.105 319.341 101.446 321.473 103.46 322.366L102.684 323.436C101.182 322.776 100.025 321.399 99.439 319.751C98.8677 321.495 97.7178 322.959 96.209 323.655L95.4473 322.586Z" fill="white"/>
<circle cx="57" cy="319.93" r="13" fill="url(#paint8_linear_5013_6104)"/>
<path d="M52.7324 322.762V321.678L57.5078 314.324H59.1338V321.604H60.6133V322.762H59.1338V324.93H57.874V322.762H52.7324ZM54.1533 321.604H57.874V315.994H57.7422L54.1533 321.517V321.604Z" fill="black"/>
</g>
</g>
<defs>
<filter id="filter0_d_5013_6104" x="0" y="0.929688" width="371" height="372" filterUnits="userSpaceOnUse" color-interpolation-filters="sRGB">
<feFlood flood-opacity="0" result="BackgroundImageFix"/>
<feColorMatrix in="SourceAlpha" type="matrix" values="0 0 0 0 0 0 0 0 0 0 0 0 0 0 0 0 0 0 127 0" result="hardAlpha"/>
<feOffset dy="1"/>
<feGaussianBlur stdDeviation="2"/>
<feComposite in2="hardAlpha" operator="out"/>
<feColorMatrix type="matrix" values="0 0 0 0 0 0 0 0 0 0 0 0 0 0 0 0 0 0 0.35 0"/>
<feBlend mode="normal" in2="BackgroundImageFix" result="effect1_dropShadow_5013_6104"/>
<feBlend mode="normal" in="SourceGraphic" in2="effect1_dropShadow_5013_6104" result="shape"/>
</filter>
<filter id="filter1_d_5013_6104" x="-10.9" y="119.03" width="393.8" height="125.8" filterUnits="userSpaceOnUse" color-interpolation-filters="sRGB">
<feFlood flood-opacity="0" result="BackgroundImageFix"/>
<feColorMatrix in="SourceAlpha" type="matrix" values="0 0 0 0 0 0 0 0 0 0 0 0 0 0 0 0 0 0 127 0" result="hardAlpha"/>
<feOffset dy="4"/>
<feGaussianBlur stdDeviation="17.45"/>
<feComposite in2="hardAlpha" operator="out"/>
<feColorMatrix type="matrix" values="0 0 0 0 0 0 0 0 0 0 0 0 0 0 0 0 0 0 0.25 0"/>
<feBlend mode="normal" in2="BackgroundImageFix" result="effect1_dropShadow_5013_6104"/>
<feBlend mode="normal" in="SourceGraphic" in2="effect1_dropShadow_5013_6104" result="shape"/>
</filter>
<filter id="filter2_d_5013_6104" x="-10.9" y="332.03" width="393.8" height="125.8" filterUnits="userSpaceOnUse" color-interpolation-filters="sRGB">
<feFlood flood-opacity="0" result="BackgroundImageFix"/>
<feColorMatrix in="SourceAlpha" type="matrix" values="0 0 0 0 0 0 0 0 0 0 0 0 0 0 0 0 0 0 127 0" result="hardAlpha"/>
<feOffset dy="4"/>
<feGaussianBlur stdDeviation="17.45"/>
<feComposite in2="hardAlpha" operator="out"/>
<feColorMatrix type="matrix" values="0 0 0 0 0 0 0 0 0 0 0 0 0 0 0 0 0 0 0.25 0"/>
<feBlend mode="normal" in2="BackgroundImageFix" result="effect1_dropShadow_5013_6104"/>
<feBlend mode="normal" in="SourceGraphic" in2="effect1_dropShadow_5013_6104" result="shape"/>
</filter>
<filter id="filter3_d_5013_6104" x="-10.9" y="190.03" width="393.8" height="125.8" filterUnits="userSpaceOnUse" color-interpolation-filters="sRGB">
<feFlood flood-opacity="0" result="BackgroundImageFix"/>
<feColorMatrix in="SourceAlpha" type="matrix" values="0 0 0 0 0 0 0 0 0 0 0 0 0 0 0 0 0 0 127 0" result="hardAlpha"/>
<feOffset dy="4"/>
<feGaussianBlur stdDeviation="17.45"/>
<feComposite in2="hardAlpha" operator="out"/>
<feColorMatrix type="matrix" values="0 0 0 0 0 0 0 0 0 0 0 0 0 0 0 0 0 0 0.25 0"/>
<feBlend mode="normal" in2="BackgroundImageFix" result="effect1_dropShadow_5013_6104"/>
<feBlend mode="normal" in="SourceGraphic" in2="effect1_dropShadow_5013_6104" result="shape"/>
</filter>
<filter id="filter4_d_5013_6104" x="-10.9" y="48.0297" width="393.8" height="125.8" filterUnits="userSpaceOnUse" color-interpolation-filters="sRGB">
<feFlood flood-opacity="0" result="BackgroundImageFix"/>
<feColorMatrix in="SourceAlpha" type="matrix" values="0 0 0 0 0 0 0 0 0 0 0 0 0 0 0 0 0 0 127 0" result="hardAlpha"/>
<feOffset dy="4"/>
<feGaussianBlur stdDeviation="17.45"/>
<feComposite in2="hardAlpha" operator="out"/>
<feColorMatrix type="matrix" values="0 0 0 0 0 0 0 0 0 0 0 0 0 0 0 0 0 0 0.25 0"/>
<feBlend mode="normal" in2="BackgroundImageFix" result="effect1_dropShadow_5013_6104"/>
<feBlend mode="normal" in="SourceGraphic" in2="effect1_dropShadow_5013_6104" result="shape"/>
</filter>
<filter id="filter5_d_5013_6104" x="40" y="90.9297" width="34" height="34" filterUnits="userSpaceOnUse" color-interpolation-filters="sRGB">
<feFlood flood-opacity="0" result="BackgroundImageFix"/>
<feColorMatrix in="SourceAlpha" type="matrix" values="0 0 0 0 0 0 0 0 0 0 0 0 0 0 0 0 0 0 127 0" result="hardAlpha"/>
<feOffset dy="1"/>
<feGaussianBlur stdDeviation="2"/>
<feComposite in2="hardAlpha" operator="out"/>
<feColorMatrix type="matrix" values="0 0 0 0 0 0 0 0 0 0 0 0 0 0 0 0 0 0 0.25 0"/>
<feBlend mode="normal" in2="BackgroundImageFix" result="effect1_dropShadow_5013_6104"/>
<feBlend mode="normal" in="SourceGraphic" in2="effect1_dropShadow_5013_6104" result="shape"/>
</filter>
<filter id="filter6_d_5013_6104" x="-10.9" y="261.03" width="393.8" height="125.8" filterUnits="userSpaceOnUse" color-interpolation-filters="sRGB">
<feFlood flood-opacity="0" result="BackgroundImageFix"/>
<feColorMatrix in="SourceAlpha" type="matrix" values="0 0 0 0 0 0 0 0 0 0 0 0 0 0 0 0 0 0 127 0" result="hardAlpha"/>
<feOffset dy="4"/>
<feGaussianBlur stdDeviation="17.45"/>
<feComposite in2="hardAlpha" operator="out"/>
<feColorMatrix type="matrix" values="0 0 0 0 0 0 0 0 0 0 0 0 0 0 0 0 0 0 0.25 0"/>
<feBlend mode="normal" in2="BackgroundImageFix" result="effect1_dropShadow_5013_6104"/>
<feBlend mode="normal" in="SourceGraphic" in2="effect1_dropShadow_5013_6104" result="shape"/>
</filter>
<linearGradient id="paint0_linear_5013_6104" x1="186" y1="149.93" x2="186" y2="205.93" gradientUnits="userSpaceOnUse">
<stop stop-color="#0A0A0A"/>
<stop offset="1" stop-color="#0C0C0C"/>
</linearGradient>
<linearGradient id="paint1_linear_5013_6104" x1="57" y1="164.93" x2="57" y2="190.93" gradientUnits="userSpaceOnUse">
<stop stop-color="#D8FF0E"/>
<stop offset="1" stop-color="#E0FD48"/>
</linearGradient>
<linearGradient id="paint2_linear_5013_6104" x1="186" y1="362.93" x2="186" y2="418.93" gradientUnits="userSpaceOnUse">
<stop stop-color="#0A0A0A"/>
<stop offset="1" stop-color="#0C0C0C"/>
</linearGradient>
<linearGradient id="paint3_linear_5013_6104" x1="186" y1="220.93" x2="186" y2="276.93" gradientUnits="userSpaceOnUse">
<stop stop-color="#0A0A0A"/>
<stop offset="1" stop-color="#0C0C0C"/>
</linearGradient>
<linearGradient id="paint4_linear_5013_6104" x1="57" y1="235.93" x2="57" y2="261.93" gradientUnits="userSpaceOnUse">
<stop stop-color="#D8FF0E"/>
<stop offset="1" stop-color="#E0FD48"/>
</linearGradient>
<linearGradient id="paint5_linear_5013_6104" x1="186" y1="78.9297" x2="186" y2="134.93" gradientUnits="userSpaceOnUse">
<stop stop-color="#D8FF0E"/>
<stop offset="1" stop-color="#E0FD48"/>
</linearGradient>
<linearGradient id="paint6_linear_5013_6104" x1="57" y1="93.9297" x2="57" y2="119.93" gradientUnits="userSpaceOnUse">
<stop stop-color="#0A0A0A"/>
<stop offset="1" stop-color="#0C0C0C"/>
</linearGradient>
<linearGradient id="paint7_linear_5013_6104" x1="186" y1="291.93" x2="186" y2="347.93" gradientUnits="userSpaceOnUse">
<stop stop-color="#0A0A0A"/>
<stop offset="1" stop-color="#0C0C0C"/>
</linearGradient>
<linearGradient id="paint8_linear_5013_6104" x1="57" y1="306.93" x2="57" y2="332.93" gradientUnits="userSpaceOnUse">
<stop stop-color="#D8FF0E"/>
<stop offset="1" stop-color="#E0FD48"/>
</linearGradient>
<clipPath id="clip0_5013_6104">
<rect x="4" y="3.92969" width="363" height="364" rx="15" fill="white"/>
</clipPath>
</defs>
</svg>
