<svg width="433" height="434" viewBox="0 0 433 434" fill="none" xmlns="http://www.w3.org/2000/svg">
<g filter="url(#filter0_d_5013_6060)">
<g clip-path="url(#clip0_5013_6060)">
<rect x="35" y="30.9297" width="363" height="364" rx="15" fill="#1E1E1E"/>
<path d="M71.6406 60.6484V62.25H64.6875V63.5391H69.668V67.6797H59.6289V68.8906H70.1562V70.5117H57.5V66.1953H67.5391V65.1016H57.4805V63.5391H62.5391V62.25H55.625V60.6484H71.6406ZM56.3281 58.4414C59.8145 58.2656 61.8652 57.3281 62.3145 56.0781H57.168V54.457H62.5391V52.9727H64.6875V54.457H70.0977V56.0781H64.9121C65.3418 57.3281 67.3926 58.2656 70.918 58.4414L70.2734 60.0625C67.0996 59.8672 64.7266 59.0078 63.6133 57.582C62.5 59.0078 60.1367 59.8672 56.9336 60.0625L56.3281 58.4414ZM82.7734 54.3789V56.0391H72.9102V54.3789H76.8555V52.8164H79.0234V54.3789H82.7734ZM73.8281 59.6523C73.8184 57.8262 75.498 56.6445 77.9102 56.6445C80.3613 56.6445 82.041 57.8262 82.0508 59.6523C82.041 61.459 80.3613 62.6309 77.9102 62.6406C75.498 62.6309 73.8184 61.459 73.8281 59.6523ZM75.8594 59.6523C75.8496 60.5508 76.6992 61.0977 77.9102 61.0977C79.1309 61.0977 79.9902 60.5508 80 59.6523C79.9902 58.7539 79.1309 58.2168 77.9102 58.2266C76.6992 58.2168 75.8496 58.7539 75.8594 59.6523ZM76.0156 65.082V63.5H87.6562V67.6797H78.2031V68.8906H88.125V70.5117H76.0352V66.1953H85.4883V65.082H76.0156ZM82.8711 61.4492V59.7695H85.4883V58.2852H82.8906V56.6055H85.4883V53.0117H87.6562V62.7578H85.4883V61.4492H82.8711ZM99.7266 54.3008C101.318 54.3008 102.637 55.1895 103.428 56.7422H107.559V53.0117H109.707V70.6875H107.559V64.0078H103.584C102.812 65.7656 101.426 66.7812 99.7266 66.7812C97.0703 66.7812 95.1855 64.3691 95.1953 60.5312C95.1855 56.7227 97.0703 54.3008 99.7266 54.3008ZM97.2852 60.5312C97.2754 63.2461 98.2715 64.8184 99.7266 64.8281C101.191 64.8184 102.178 63.2461 102.188 60.5312C102.178 57.8359 101.191 56.2539 99.7266 56.2539C98.2715 56.2539 97.2754 57.8359 97.2852 60.5312ZM104.043 58.5195C104.17 59.1348 104.238 59.8086 104.238 60.5312C104.238 61.1367 104.189 61.7129 104.092 62.25H107.559V58.5195H104.043ZM128.301 63.2852V65.0039H121.27V70.668H119.121V65.0039H112.168V63.2852H128.301ZM114.121 61.4492V53.7148H116.27V55.8828H124.16V53.7148H126.348V61.4492H114.121ZM116.27 59.6914H124.16V57.6016H116.27V59.6914Z" fill="white"/>
<g filter="url(#filter1_d_5013_6060)">
<path d="M55 120.93C55 112.645 61.7157 105.93 70 105.93H364C372.284 105.93 379 112.645 379 120.93V146.93C379 155.214 372.284 161.93 364 161.93H70C61.7157 161.93 55 155.214 55 146.93V120.93Z" fill="url(#paint0_linear_5013_6060)"/>
</g>
<g filter="url(#filter2_d_5013_6060)">
<path d="M55 191.93C55 183.645 61.7157 176.93 70 176.93H364C372.284 176.93 379 183.645 379 191.93V217.93C379 226.214 372.284 232.93 364 232.93H70C61.7157 232.93 55 226.214 55 217.93V191.93Z" fill="url(#paint1_linear_5013_6060)"/>
</g>
<g filter="url(#filter3_d_5013_6060)">
<path d="M55 262.93C55 254.645 61.7157 247.93 70 247.93H364C372.284 247.93 379 254.645 379 262.93V288.93C379 297.214 372.284 303.93 364 303.93H70C61.7157 303.93 55 297.214 55 288.93V262.93Z" fill="url(#paint2_linear_5013_6060)"/>
</g>
<path d="M125.437 132.807V133.847H120.148V134.945H123.942V137.904H116.296V138.988H124.309V140.043H114.934V136.938H122.565V135.956H114.919V134.945H118.771V133.847H113.498V132.807H125.437ZM114.084 131.239C116.596 131.1 118.369 130.331 118.654 129.218H114.685V128.148H118.771V126.991H120.148V128.148H124.25V129.218H120.258C120.537 130.331 122.309 131.1 124.851 131.239L124.426 132.294C122.141 132.125 120.28 131.459 119.46 130.309C118.64 131.459 116.779 132.125 114.479 132.294L114.084 131.239ZM133.845 128.134V129.203H126.462V128.134H129.538V126.889H130.915V128.134H133.845ZM127.194 131.986C127.194 130.624 128.425 129.752 130.212 129.76C132.006 129.752 133.237 130.624 133.244 131.986C133.237 133.341 132.006 134.213 130.212 134.213C128.425 134.213 127.194 133.341 127.194 131.986ZM128.498 131.986C128.491 132.733 129.194 133.217 130.212 133.217C131.215 133.217 131.926 132.733 131.94 131.986C131.926 131.247 131.215 130.771 130.212 130.785C129.194 130.771 128.491 131.247 128.498 131.986ZM128.791 135.971V134.931H137.375V137.904H130.212V138.988H137.741V140.043H128.82V136.938H135.998V135.971H128.791ZM133.874 133.261V132.177H135.998V130.917H133.889V129.833H135.998V127.05H137.375V134.345H135.998V133.261H133.874ZM145.871 134.74V136.264H147.922V134.74H149.211V140.014H144.567V134.74H145.871ZM143.264 130.639C143.256 128.844 144.699 127.606 146.706 127.606C148.435 127.606 149.775 128.581 150.061 130.053H152.624V127.05H154.016V134.008H152.624V131.195H150.068C149.797 132.697 148.449 133.693 146.706 133.686C144.699 133.693 143.256 132.448 143.264 130.639ZM144.597 130.639C144.589 131.774 145.468 132.55 146.706 132.558C147.922 132.55 148.786 131.774 148.786 130.639C148.786 129.518 147.922 128.756 146.706 128.764C145.468 128.756 144.589 129.518 144.597 130.639ZM145.871 138.93H147.922V137.318H145.871V138.93ZM149.284 139.062C150.866 138.41 151.643 137.033 151.643 135.722V134.652H153.02V135.722C153.012 137.099 153.789 138.49 155.407 139.062L154.689 140.116C153.503 139.662 152.734 138.805 152.316 137.765C151.884 138.776 151.115 139.647 149.987 140.116L149.284 139.062ZM162.014 127.328C164.892 127.321 166.694 128.258 166.701 129.848C166.694 131.408 164.892 132.331 162.014 132.323C159.143 132.331 157.319 131.408 157.326 129.848C157.319 128.258 159.143 127.321 162.014 127.328ZM156.037 134.462V133.334H168.005V134.462H156.037ZM157.473 140.014V135.634H166.54V140.014H157.473ZM158.762 129.848C158.754 130.719 159.992 131.232 162.014 131.239C164.021 131.232 165.273 130.719 165.266 129.848C165.273 128.939 164.021 128.419 162.014 128.427C159.992 128.419 158.754 128.939 158.762 129.848ZM158.85 138.886H165.192V136.747H158.85V138.886Z" fill="black"/>
<path d="M125.656 199.969V201.111H123.796V202.781H125.656V203.953H123.796V205.828H122.404V198.05H123.796V199.969H125.656ZM113.688 201.946C113.674 200.108 115.168 198.812 117.175 198.812C119.189 198.812 120.661 200.108 120.676 201.946C120.661 203.799 119.189 205.081 117.175 205.081C115.168 205.081 113.674 203.799 113.688 201.946ZM115.051 201.946C115.036 203.125 115.944 203.909 117.175 203.895C118.405 203.909 119.306 203.125 119.313 201.946C119.306 200.774 118.405 200.005 117.175 199.998C115.944 200.005 115.036 200.774 115.051 201.946ZM115.124 207.542V206.414H123.796V211.175H122.404V207.542H115.124ZM136.76 198.064V202.283H138.664V203.44H136.76V207.879H135.368V198.064H136.76ZM126.462 200.716V199.588H129.685V198.05H131.076V199.588H134.284V200.716H126.462ZM127.18 203.821C127.172 202.32 128.469 201.338 130.373 201.346C132.255 201.338 133.552 202.32 133.552 203.821C133.552 205.308 132.255 206.275 130.373 206.282C128.469 206.275 127.172 205.308 127.18 203.821ZM128.439 210.896V207.103H129.831V209.769H137.316V210.896H128.439ZM128.527 203.821C128.513 204.678 129.26 205.206 130.373 205.198C131.486 205.206 132.233 204.678 132.248 203.821C132.233 202.957 131.486 202.422 130.373 202.415C129.26 202.422 128.513 202.957 128.527 203.821ZM155.026 203.807V204.847H149.738V205.945H153.532V208.904H145.886V209.988H153.898V211.043H144.523V207.938H152.155V206.956H144.509V205.945H148.361V204.847H143.088V203.807H155.026ZM143.674 202.239C146.186 202.1 147.958 201.331 148.244 200.218H144.274V199.148H148.361V197.991H149.738V199.148H153.84V200.218H149.848C150.126 201.331 151.899 202.1 154.44 202.239L154.016 203.294C151.73 203.125 149.87 202.459 149.05 201.309C148.229 202.459 146.369 203.125 144.069 203.294L143.674 202.239ZM163.435 199.134V200.203H156.052V199.134H159.128V197.889H160.505V199.134H163.435ZM156.784 202.986C156.784 201.624 158.015 200.752 159.802 200.76C161.596 200.752 162.827 201.624 162.834 202.986C162.827 204.341 161.596 205.213 159.802 205.213C158.015 205.213 156.784 204.341 156.784 202.986ZM158.088 202.986C158.081 203.733 158.784 204.217 159.802 204.217C160.805 204.217 161.516 203.733 161.53 202.986C161.516 202.247 160.805 201.771 159.802 201.785C158.784 201.771 158.081 202.247 158.088 202.986ZM158.381 206.971V205.931H166.965V208.904H159.802V209.988H167.331V211.043H158.41V207.938H165.588V206.971H158.381ZM163.464 204.261V203.177H165.588V201.917H163.479V200.833H165.588V198.05H166.965V205.345H165.588V204.261H163.464Z" fill="white"/>
<path d="M124.367 269.064V276.491H122.976V269.064H124.367ZM113.542 275.1C115.593 274.411 116.831 272.668 116.838 270.837V269.562H118.259V270.837C118.251 272.609 119.519 274.206 121.511 274.88L120.822 275.949C119.299 275.444 118.149 274.411 117.556 273.063C116.97 274.506 115.805 275.649 114.23 276.198L113.542 275.1ZM115.739 282.014V277.194H124.367V282.014H115.739ZM117.116 280.886H123.005V278.308H117.116V280.886ZM136.76 269.064V273.283H138.664V274.44H136.76V278.879H135.368V269.064H136.76ZM126.462 271.716V270.588H129.685V269.05H131.076V270.588H134.284V271.716H126.462ZM127.18 274.821C127.172 273.32 128.469 272.338 130.373 272.346C132.255 272.338 133.552 273.32 133.552 274.821C133.552 276.308 132.255 277.275 130.373 277.282C128.469 277.275 127.172 276.308 127.18 274.821ZM128.439 281.896V278.103H129.831V280.769H137.316V281.896H128.439ZM128.527 274.821C128.513 275.678 129.26 276.206 130.373 276.198C131.486 276.206 132.233 275.678 132.248 274.821C132.233 273.957 131.486 273.422 130.373 273.415C129.26 273.422 128.513 273.957 128.527 274.821ZM155.026 274.807V275.847H149.738V276.945H153.532V279.904H145.886V280.988H153.898V282.043H144.523V278.938H152.155V277.956H144.509V276.945H148.361V275.847H143.088V274.807H155.026ZM143.674 273.239C146.186 273.1 147.958 272.331 148.244 271.218H144.274V270.148H148.361V268.991H149.738V270.148H153.84V271.218H149.848C150.126 272.331 151.899 273.1 154.44 273.239L154.016 274.294C151.73 274.125 149.87 273.459 149.05 272.309C148.229 273.459 146.369 274.125 144.069 274.294L143.674 273.239ZM163.435 270.134V271.203H156.052V270.134H159.128V268.889H160.505V270.134H163.435ZM156.784 273.986C156.784 272.624 158.015 271.752 159.802 271.76C161.596 271.752 162.827 272.624 162.834 273.986C162.827 275.341 161.596 276.213 159.802 276.213C158.015 276.213 156.784 275.341 156.784 273.986ZM158.088 273.986C158.081 274.733 158.784 275.217 159.802 275.217C160.805 275.217 161.516 274.733 161.53 273.986C161.516 273.247 160.805 272.771 159.802 272.785C158.784 272.771 158.081 273.247 158.088 273.986ZM158.381 277.971V276.931H166.965V279.904H159.802V280.988H167.331V282.043H158.41V278.938H165.588V277.971H158.381ZM163.464 275.261V274.177H165.588V272.917H163.479V271.833H165.588V269.05H166.965V276.345H165.588V275.261H163.464Z" fill="white"/>
<circle cx="88" cy="204.93" r="13" fill="url(#paint3_linear_5013_6060)"/>
<path d="M84.9961 209.93L84.9814 208.963L88.5996 205.154C89.8521 203.821 90.4526 203.104 90.46 202.122C90.4526 201.031 89.5444 200.328 88.3506 200.32C87.0835 200.328 86.2925 201.126 86.2852 202.312H85.04C85.0254 200.438 86.4756 199.178 88.3945 199.178C90.3208 199.178 91.6831 200.474 91.6904 202.122C91.6831 203.309 91.1338 204.231 89.2588 206.165L86.8271 208.67V208.758H91.8809V209.93H84.9961Z" fill="black"/>
<circle cx="88" cy="275.93" r="13" fill="url(#paint4_linear_5013_6060)"/>
<path d="M87.6582 281.076C85.5488 281.076 84.0327 279.948 83.9668 278.264H85.2998C85.373 279.274 86.3765 279.904 87.6436 279.904C89.0425 279.904 90.0532 279.15 90.0605 278.044C90.0532 276.887 89.1304 276.074 87.4824 276.066H86.6182V274.909H87.4824C88.7715 274.909 89.6724 274.184 89.665 273.093C89.6724 272.031 88.896 271.328 87.6875 271.32C86.5522 271.328 85.5195 271.95 85.4609 272.99H84.1865C84.2524 271.306 85.8198 270.178 87.7021 270.178C89.7236 270.178 90.9541 271.503 90.9395 273.02C90.9541 274.228 90.251 275.107 89.1377 275.422V275.495C90.522 275.708 91.3569 276.696 91.3496 278.044C91.3569 279.787 89.7749 281.076 87.6582 281.076Z" fill="black"/>
<g filter="url(#filter4_d_5013_6060)">
<circle cx="88" cy="133.93" r="13" fill="url(#paint5_linear_5013_6060)"/>
</g>
<path d="M89.7461 128.324V138.93H88.4131V129.701H88.3545L85.7764 131.415V130.082L88.4131 128.324H89.7461Z" fill="white"/>
</g>
</g>
<defs>
<filter id="filter0_d_5013_6060" x="0.0999985" y="0.029686" width="432.8" height="433.8" filterUnits="userSpaceOnUse" color-interpolation-filters="sRGB">
<feFlood flood-opacity="0" result="BackgroundImageFix"/>
<feColorMatrix in="SourceAlpha" type="matrix" values="0 0 0 0 0 0 0 0 0 0 0 0 0 0 0 0 0 0 127 0" result="hardAlpha"/>
<feOffset dy="4"/>
<feGaussianBlur stdDeviation="17.45"/>
<feComposite in2="hardAlpha" operator="out"/>
<feColorMatrix type="matrix" values="0 0 0 0 0 0 0 0 0 0 0 0 0 0 0 0 0 0 0.25 0"/>
<feBlend mode="normal" in2="BackgroundImageFix" result="effect1_dropShadow_5013_6060"/>
<feBlend mode="normal" in="SourceGraphic" in2="effect1_dropShadow_5013_6060" result="shape"/>
</filter>
<filter id="filter1_d_5013_6060" x="20.1" y="75.0297" width="393.8" height="125.8" filterUnits="userSpaceOnUse" color-interpolation-filters="sRGB">
<feFlood flood-opacity="0" result="BackgroundImageFix"/>
<feColorMatrix in="SourceAlpha" type="matrix" values="0 0 0 0 0 0 0 0 0 0 0 0 0 0 0 0 0 0 127 0" result="hardAlpha"/>
<feOffset dy="4"/>
<feGaussianBlur stdDeviation="17.45"/>
<feComposite in2="hardAlpha" operator="out"/>
<feColorMatrix type="matrix" values="0 0 0 0 0 0 0 0 0 0 0 0 0 0 0 0 0 0 0.25 0"/>
<feBlend mode="normal" in2="BackgroundImageFix" result="effect1_dropShadow_5013_6060"/>
<feBlend mode="normal" in="SourceGraphic" in2="effect1_dropShadow_5013_6060" result="shape"/>
</filter>
<filter id="filter2_d_5013_6060" x="20.1" y="146.03" width="393.8" height="125.8" filterUnits="userSpaceOnUse" color-interpolation-filters="sRGB">
<feFlood flood-opacity="0" result="BackgroundImageFix"/>
<feColorMatrix in="SourceAlpha" type="matrix" values="0 0 0 0 0 0 0 0 0 0 0 0 0 0 0 0 0 0 127 0" result="hardAlpha"/>
<feOffset dy="4"/>
<feGaussianBlur stdDeviation="17.45"/>
<feComposite in2="hardAlpha" operator="out"/>
<feColorMatrix type="matrix" values="0 0 0 0 0 0 0 0 0 0 0 0 0 0 0 0 0 0 0.25 0"/>
<feBlend mode="normal" in2="BackgroundImageFix" result="effect1_dropShadow_5013_6060"/>
<feBlend mode="normal" in="SourceGraphic" in2="effect1_dropShadow_5013_6060" result="shape"/>
</filter>
<filter id="filter3_d_5013_6060" x="20.1" y="217.03" width="393.8" height="125.8" filterUnits="userSpaceOnUse" color-interpolation-filters="sRGB">
<feFlood flood-opacity="0" result="BackgroundImageFix"/>
<feColorMatrix in="SourceAlpha" type="matrix" values="0 0 0 0 0 0 0 0 0 0 0 0 0 0 0 0 0 0 127 0" result="hardAlpha"/>
<feOffset dy="4"/>
<feGaussianBlur stdDeviation="17.45"/>
<feComposite in2="hardAlpha" operator="out"/>
<feColorMatrix type="matrix" values="0 0 0 0 0 0 0 0 0 0 0 0 0 0 0 0 0 0 0.25 0"/>
<feBlend mode="normal" in2="BackgroundImageFix" result="effect1_dropShadow_5013_6060"/>
<feBlend mode="normal" in="SourceGraphic" in2="effect1_dropShadow_5013_6060" result="shape"/>
</filter>
<filter id="filter4_d_5013_6060" x="71" y="117.93" width="34" height="34" filterUnits="userSpaceOnUse" color-interpolation-filters="sRGB">
<feFlood flood-opacity="0" result="BackgroundImageFix"/>
<feColorMatrix in="SourceAlpha" type="matrix" values="0 0 0 0 0 0 0 0 0 0 0 0 0 0 0 0 0 0 127 0" result="hardAlpha"/>
<feOffset dy="1"/>
<feGaussianBlur stdDeviation="2"/>
<feComposite in2="hardAlpha" operator="out"/>
<feColorMatrix type="matrix" values="0 0 0 0 0 0 0 0 0 0 0 0 0 0 0 0 0 0 0.25 0"/>
<feBlend mode="normal" in2="BackgroundImageFix" result="effect1_dropShadow_5013_6060"/>
<feBlend mode="normal" in="SourceGraphic" in2="effect1_dropShadow_5013_6060" result="shape"/>
</filter>
<linearGradient id="paint0_linear_5013_6060" x1="217" y1="105.93" x2="217" y2="161.93" gradientUnits="userSpaceOnUse">
<stop stop-color="#D8FF0E"/>
<stop offset="1" stop-color="#E0FD48"/>
</linearGradient>
<linearGradient id="paint1_linear_5013_6060" x1="217" y1="176.93" x2="217" y2="232.93" gradientUnits="userSpaceOnUse">
<stop stop-color="#0A0A0A"/>
<stop offset="1" stop-color="#0C0C0C"/>
</linearGradient>
<linearGradient id="paint2_linear_5013_6060" x1="217" y1="247.93" x2="217" y2="303.93" gradientUnits="userSpaceOnUse">
<stop stop-color="#0A0A0A"/>
<stop offset="1" stop-color="#0C0C0C"/>
</linearGradient>
<linearGradient id="paint3_linear_5013_6060" x1="88" y1="191.93" x2="88" y2="217.93" gradientUnits="userSpaceOnUse">
<stop stop-color="#D8FF0E"/>
<stop offset="1" stop-color="#E0FD48"/>
</linearGradient>
<linearGradient id="paint4_linear_5013_6060" x1="88" y1="262.93" x2="88" y2="288.93" gradientUnits="userSpaceOnUse">
<stop stop-color="#D8FF0E"/>
<stop offset="1" stop-color="#E0FD48"/>
</linearGradient>
<linearGradient id="paint5_linear_5013_6060" x1="88" y1="120.93" x2="88" y2="146.93" gradientUnits="userSpaceOnUse">
<stop stop-color="#0A0A0A"/>
<stop offset="1" stop-color="#0C0C0C"/>
</linearGradient>
<clipPath id="clip0_5013_6060">
<rect x="35" y="30.9297" width="363" height="364" rx="15" fill="white"/>
</clipPath>
</defs>
</svg>
