<svg width="371" height="369" viewBox="0 0 371 369" fill="none" xmlns="http://www.w3.org/2000/svg">
<g filter="url(#filter0_d_5013_6164)">
<g clip-path="url(#clip0_5013_6164)">
<rect x="4" y="3.92969" width="363" height="360" rx="15" fill="#1E1E1E"/>
<path d="M39.8984 28.375V30.1328H25.3086V28.375H31.5391V26.2461H33.6875V28.375H39.8984ZM24.5859 41.7734V40.0156H31.5391V37.8477C28.4922 37.6133 26.6465 36.3828 26.6562 34.4297C26.6465 32.3008 28.9316 31.0312 32.6133 31.0312C36.2461 31.0312 38.5605 32.3008 38.5508 34.4297C38.5605 36.373 36.6953 37.6035 33.6875 37.8477V40.0156H40.7188V41.7734H24.5859ZM28.8828 34.4297C28.873 35.5625 30.2109 36.1387 32.6133 36.1484C34.9668 36.1387 36.3242 35.5625 36.3242 34.4297C36.3242 33.3164 34.9668 32.7402 32.6133 32.7305C30.2109 32.7402 28.873 33.3164 28.8828 34.4297ZM45.9531 37.7109V38.9609H53.7852V37.7109H55.9727V43.4531H43.8047V37.7109H45.9531ZM41.8711 36.9102V35.2109H57.9648V36.9102H41.8711ZM42.6719 28.9609V27.3203H48.8242V25.8164H50.9922V27.3203H57.0859V28.9609H42.6719ZM44.0391 31.9102C44.0391 30.2891 46.1191 29.459 49.8984 29.4492C53.6777 29.459 55.7676 30.2891 55.7773 31.9102C55.7676 33.5312 53.6777 34.3613 49.8984 34.3711C46.1191 34.3613 44.0391 33.5312 44.0391 31.9102ZM45.9531 41.832H53.7852V40.543H45.9531V41.832ZM46.3828 31.9102C46.3828 32.5938 47.5254 32.916 49.8984 32.9062C52.2715 32.916 53.4434 32.5938 53.4531 31.9102C53.4434 31.2461 52.2715 30.9336 49.8984 30.9141C47.5254 30.9336 46.3828 31.2461 46.3828 31.9102ZM70.1523 28.8242C70.1523 31.041 71.5879 33.1406 74.3125 34L73.1406 35.6992C71.2363 35.0547 69.8691 33.7656 69.0977 32.125C68.3359 34 66.9102 35.4746 64.8789 36.1875L63.707 34.4883C66.5488 33.502 67.9746 31.1484 67.9844 28.6289V26.9492H70.1523V28.8242ZM66.1094 40.2891C66.1094 38.1992 68.4043 36.959 72.0859 36.9688C75.7383 36.959 77.9941 38.1992 78.0039 40.2891C77.9941 42.4277 75.7383 43.6484 72.0859 43.6484C68.4043 43.6484 66.1094 42.4277 66.1094 40.2891ZM68.2773 40.2891C68.2773 41.3828 69.6641 41.9297 72.0859 41.9297C74.498 41.9297 75.8555 41.3828 75.8555 40.2891C75.8555 39.2539 74.498 38.668 72.0859 38.668C69.6641 38.668 68.2773 39.2539 68.2773 40.2891ZM75.6602 36.5781V26.0117H77.8281V30.3086H80.2891V32.1055H77.8281V36.5781H75.6602ZM88.9414 27.9258V29.6641H83.9023V32.5547H88.6289V34.2539H83.9023V37.6914C86.0898 37.6719 87.6035 37.5938 89.3906 37.3203L89.5664 39.0977C87.5059 39.4492 85.7773 39.5176 83.0234 39.5078H81.832V27.9258H88.9414ZM90.4648 42.8086V26.3242H92.5156V32.9453H94.332V26.0117H96.4219V43.668H94.332V34.7031H92.5156V42.8086H90.4648Z" fill="white"/>
<g filter="url(#filter1_d_5013_6164)">
<path d="M24 164.93C24 156.645 30.7157 149.93 39 149.93H333C341.284 149.93 348 156.645 348 164.93V190.93C348 199.214 341.284 205.93 333 205.93H39C30.7157 205.93 24 199.214 24 190.93V164.93Z" fill="url(#paint0_linear_5013_6164)"/>
</g>
<path d="M93.8506 172.896V174.023H83.0547V172.896H87.7715V171.24H89.1484V172.896H93.8506ZM82.4834 182.695V181.567H87.7715V179.832C85.4717 179.685 84.0728 178.777 84.0801 177.319C84.0728 175.737 85.75 174.807 88.46 174.814C91.1333 174.807 92.8325 175.737 92.8252 177.319C92.8325 178.777 91.4189 179.685 89.1484 179.832V181.567H94.4951V182.695H82.4834ZM85.501 177.319C85.4863 178.235 86.585 178.733 88.46 178.74C90.3057 178.733 91.4116 178.235 91.4043 177.319C91.4116 176.411 90.3057 175.913 88.46 175.913C86.585 175.913 85.4863 176.411 85.501 177.319ZM98.3037 179.736V180.806H104.515V179.736H105.906V184.014H96.9268V179.736H98.3037ZM95.4473 179.077V177.964H107.415V179.077H95.4473ZM96.0625 173.13V172.061H100.735V170.874H102.127V172.061H106.741V173.13H96.0625ZM97.1172 175.415C97.1099 174.199 98.6479 173.577 101.424 173.569C104.192 173.577 105.738 174.199 105.73 175.415C105.738 176.609 104.192 177.231 101.424 177.231C98.6479 177.231 97.1099 176.609 97.1172 175.415ZM98.3037 182.959H104.515V181.831H98.3037V182.959ZM98.6113 175.415C98.604 175.986 99.5635 176.294 101.424 176.294C103.27 176.294 104.251 175.986 104.251 175.415C104.251 174.836 103.27 174.536 101.424 174.521C99.5635 174.536 98.604 174.836 98.6113 175.415ZM122.547 171.826V172.734C122.532 173.745 122.532 175.012 122.195 176.675L120.789 176.514C121.133 174.99 121.155 173.899 121.155 172.939H113.479V171.826H122.547ZM112.088 178.638V177.51H116.878V174.873H118.24V177.51H124.026V178.638H112.088ZM113.567 183.896V179.897H114.959V182.769H122.869V183.896H113.567ZM135.35 171.064V175.005H137.269V176.177H135.35V180.718H133.958V171.064H135.35ZM125.564 173.042V171.899H131.541V175.767H126.971V177.598C129.249 177.598 130.86 177.502 132.771 177.173L132.918 178.315C130.889 178.667 129.153 178.733 126.634 178.74H125.579V174.697H130.179V173.042H125.564ZM127.103 183.896V179.971H128.509V182.769H135.936V183.896H127.103Z" fill="white"/>
<g filter="url(#filter2_d_5013_6164)">
<circle cx="57" cy="177.93" r="13" fill="url(#paint1_linear_5013_6164)"/>
</g>
<path d="M53.9961 182.93L53.9814 181.963L57.5996 178.154C58.8521 176.821 59.4526 176.104 59.46 175.122C59.4526 174.031 58.5444 173.328 57.3506 173.32C56.0835 173.328 55.2925 174.126 55.2852 175.312H54.04C54.0254 173.438 55.4756 172.178 57.3945 172.178C59.3208 172.178 60.6831 173.474 60.6904 175.122C60.6831 176.309 60.1338 177.231 58.2588 179.165L55.8271 181.67V181.758H60.8809V182.93H53.9961Z" fill="black"/>
<g filter="url(#filter3_d_5013_6164)">
<path d="M24 235.93C24 227.645 30.7157 220.93 39 220.93H333C341.284 220.93 348 227.645 348 235.93V261.93C348 270.214 341.284 276.93 333 276.93H39C30.7157 276.93 24 270.214 24 261.93V235.93Z" fill="url(#paint2_linear_5013_6164)"/>
</g>
<path d="M94.4805 249.579V250.707H89.1191V255.16H87.7568V250.707H82.4688V249.579H94.4805ZM83.9775 247.909V242.753H92.9717V247.909H83.9775ZM85.3398 246.825H91.5801V243.866H85.3398V246.825ZM106.814 243.896V245.023H96.0186V243.896H100.735V242.24H102.112V243.896H106.814ZM95.4473 253.695V252.567H100.735V250.832C98.4355 250.685 97.0366 249.777 97.0439 248.319C97.0366 246.737 98.7139 245.807 101.424 245.814C104.097 245.807 105.796 246.737 105.789 248.319C105.796 249.777 104.383 250.685 102.112 250.832V252.567H107.459V253.695H95.4473ZM98.4648 248.319C98.4502 249.235 99.5488 249.733 101.424 249.74C103.27 249.733 104.375 249.235 104.368 248.319C104.375 247.411 103.27 246.913 101.424 246.913C99.5488 246.913 98.4502 247.411 98.4648 248.319ZM111.268 250.736V251.806H117.479V250.736H118.87V255.014H109.891V250.736H111.268ZM108.411 250.077V248.964H120.379V250.077H108.411ZM109.026 244.13V243.061H113.699V241.874H115.091V243.061H119.705V244.13H109.026ZM110.081 246.415C110.074 245.199 111.612 244.577 114.388 244.569C117.156 244.577 118.702 245.199 118.694 246.415C118.702 247.609 117.156 248.231 114.388 248.231C111.612 248.231 110.074 247.609 110.081 246.415ZM111.268 253.959H117.479V252.831H111.268V253.959ZM111.575 246.415C111.568 246.986 112.527 247.294 114.388 247.294C116.233 247.294 117.215 246.986 117.215 246.415C117.215 245.836 116.233 245.536 114.388 245.521C112.527 245.536 111.568 245.836 111.575 246.415Z" fill="white"/>
<g filter="url(#filter4_d_5013_6164)">
<g filter="url(#filter5_d_5013_6164)">
<circle cx="57" cy="248.93" r="13" fill="url(#paint3_linear_5013_6164)"/>
</g>
<path d="M56.6582 254.076C54.5488 254.076 53.0327 252.948 52.9668 251.264H54.2998C54.373 252.274 55.3765 252.904 56.6436 252.904C58.0425 252.904 59.0532 252.15 59.0605 251.044C59.0532 249.887 58.1304 249.074 56.4824 249.066H55.6182V247.909H56.4824C57.7715 247.909 58.6724 247.184 58.665 246.093C58.6724 245.031 57.896 244.328 56.6875 244.32C55.5522 244.328 54.5195 244.95 54.4609 245.99H53.1865C53.2524 244.306 54.8198 243.178 56.7021 243.178C58.7236 243.178 59.9541 244.503 59.9395 246.02C59.9541 247.228 59.251 248.107 58.1377 248.422V248.495C59.522 248.708 60.3569 249.696 60.3496 251.044C60.3569 252.787 58.7749 254.076 56.6582 254.076Z" fill="black"/>
</g>
<g filter="url(#filter6_d_5013_6164)">
<g filter="url(#filter7_d_5013_6164)">
<path d="M24 93.9297C24 85.6454 30.7157 78.9297 39 78.9297H333C341.284 78.9297 348 85.6454 348 93.9297V119.93C348 128.214 341.284 134.93 333 134.93H39C30.7157 134.93 24 128.214 24 119.93V93.9297Z" fill="url(#paint4_linear_5013_6164)"/>
</g>
</g>
<path d="M93.8506 101.896V103.023H83.0547V101.896H87.7715V100.24H89.1484V101.896H93.8506ZM82.4834 111.695V110.567H87.7715V108.832C85.4717 108.685 84.0728 107.777 84.0801 106.319C84.0728 104.737 85.75 103.807 88.46 103.814C91.1333 103.807 92.8325 104.737 92.8252 106.319C92.8325 107.777 91.4189 108.685 89.1484 108.832V110.567H94.4951V111.695H82.4834ZM85.501 106.319C85.4863 107.235 86.585 107.733 88.46 107.74C90.3057 107.733 91.4116 107.235 91.4043 106.319C91.4116 105.411 90.3057 104.913 88.46 104.913C86.585 104.913 85.4863 105.411 85.501 106.319ZM98.3037 108.736V109.806H104.515V108.736H105.906V113.014H96.9268V108.736H98.3037ZM95.4473 108.077V106.964H107.415V108.077H95.4473ZM96.0625 102.13V101.061H100.735V99.874H102.127V101.061H106.741V102.13H96.0625ZM97.1172 104.415C97.1099 103.199 98.6479 102.577 101.424 102.569C104.192 102.577 105.738 103.199 105.73 104.415C105.738 105.609 104.192 106.231 101.424 106.231C98.6479 106.231 97.1099 105.609 97.1172 104.415ZM98.3037 111.959H104.515V110.831H98.3037V111.959ZM98.6113 104.415C98.604 104.986 99.5635 105.294 101.424 105.294C103.27 105.294 104.251 104.986 104.251 104.415C104.251 103.836 103.27 103.536 101.424 103.521C99.5635 103.536 98.604 103.836 98.6113 104.415ZM123.016 100.05V107.857H121.624V104.532H119.178V103.39H121.624V100.05H123.016ZM112.073 106.671C114.109 105.96 115.362 104.188 115.354 102.379V102.086H112.513V100.958H119.588V102.086H116.775V102.364C116.768 104.027 117.955 105.646 119.939 106.319L119.222 107.418C117.75 106.913 116.666 105.858 116.094 104.562C115.523 106.026 114.373 107.206 112.806 107.784L112.073 106.671ZM114.183 110.699C114.175 109.139 115.86 108.231 118.621 108.224C121.368 108.231 123.052 109.139 123.06 110.699C123.052 112.259 121.368 113.167 118.621 113.175C115.86 113.167 114.175 112.259 114.183 110.699ZM115.56 110.699C115.552 111.585 116.695 112.091 118.621 112.076C120.533 112.091 121.675 111.585 121.683 110.699C121.675 109.806 120.533 109.3 118.621 109.308C116.695 109.3 115.552 109.806 115.56 110.699ZM129.563 102.145C129.556 103.866 130.772 105.47 132.728 106.114L131.98 107.213C130.545 106.708 129.468 105.682 128.897 104.386C128.326 105.858 127.212 107.015 125.682 107.579L124.935 106.466C126.985 105.741 128.172 103.99 128.187 102.027V100.738H129.563V102.145ZM126.707 110.714C126.707 109.176 128.384 108.275 131.116 108.282C133.812 108.275 135.467 109.176 135.467 110.714C135.467 112.267 133.812 113.153 131.116 113.146C128.384 113.153 126.707 112.267 126.707 110.714ZM128.099 110.714C128.091 111.578 129.219 112.047 131.116 112.062C132.999 112.047 134.112 111.578 134.104 110.714C134.112 109.879 132.999 109.381 131.116 109.381C129.219 109.381 128.091 109.879 128.099 110.714ZM133.958 107.975V100.05H135.35V103.346H137.254V104.518H135.35V107.975H133.958Z" fill="black"/>
<g filter="url(#filter8_d_5013_6164)">
<circle cx="57" cy="106.93" r="13" fill="url(#paint5_linear_5013_6164)"/>
</g>
<path d="M58.7461 101.324V111.93H57.4131V102.701H57.3545L54.7764 104.415V103.082L57.4131 101.324H58.7461Z" fill="white"/>
</g>
</g>
<defs>
<filter id="filter0_d_5013_6164" x="0" y="0.929688" width="371" height="368" filterUnits="userSpaceOnUse" color-interpolation-filters="sRGB">
<feFlood flood-opacity="0" result="BackgroundImageFix"/>
<feColorMatrix in="SourceAlpha" type="matrix" values="0 0 0 0 0 0 0 0 0 0 0 0 0 0 0 0 0 0 127 0" result="hardAlpha"/>
<feOffset dy="1"/>
<feGaussianBlur stdDeviation="2"/>
<feComposite in2="hardAlpha" operator="out"/>
<feColorMatrix type="matrix" values="0 0 0 0 0 0 0 0 0 0 0 0 0 0 0 0 0 0 0.35 0"/>
<feBlend mode="normal" in2="BackgroundImageFix" result="effect1_dropShadow_5013_6164"/>
<feBlend mode="normal" in="SourceGraphic" in2="effect1_dropShadow_5013_6164" result="shape"/>
</filter>
<filter id="filter1_d_5013_6164" x="20" y="146.93" width="332" height="64" filterUnits="userSpaceOnUse" color-interpolation-filters="sRGB">
<feFlood flood-opacity="0" result="BackgroundImageFix"/>
<feColorMatrix in="SourceAlpha" type="matrix" values="0 0 0 0 0 0 0 0 0 0 0 0 0 0 0 0 0 0 127 0" result="hardAlpha"/>
<feOffset dy="1"/>
<feGaussianBlur stdDeviation="2"/>
<feComposite in2="hardAlpha" operator="out"/>
<feColorMatrix type="matrix" values="0 0 0 0 0 0 0 0 0 0 0 0 0 0 0 0 0 0 0.35 0"/>
<feBlend mode="normal" in2="BackgroundImageFix" result="effect1_dropShadow_5013_6164"/>
<feBlend mode="normal" in="SourceGraphic" in2="effect1_dropShadow_5013_6164" result="shape"/>
</filter>
<filter id="filter2_d_5013_6164" x="40" y="161.93" width="34" height="34" filterUnits="userSpaceOnUse" color-interpolation-filters="sRGB">
<feFlood flood-opacity="0" result="BackgroundImageFix"/>
<feColorMatrix in="SourceAlpha" type="matrix" values="0 0 0 0 0 0 0 0 0 0 0 0 0 0 0 0 0 0 127 0" result="hardAlpha"/>
<feOffset dy="1"/>
<feGaussianBlur stdDeviation="2"/>
<feComposite in2="hardAlpha" operator="out"/>
<feColorMatrix type="matrix" values="0 0 0 0 0 0 0 0 0 0 0 0 0 0 0 0 0 0 0.35 0"/>
<feBlend mode="normal" in2="BackgroundImageFix" result="effect1_dropShadow_5013_6164"/>
<feBlend mode="normal" in="SourceGraphic" in2="effect1_dropShadow_5013_6164" result="shape"/>
</filter>
<filter id="filter3_d_5013_6164" x="20" y="217.93" width="332" height="64" filterUnits="userSpaceOnUse" color-interpolation-filters="sRGB">
<feFlood flood-opacity="0" result="BackgroundImageFix"/>
<feColorMatrix in="SourceAlpha" type="matrix" values="0 0 0 0 0 0 0 0 0 0 0 0 0 0 0 0 0 0 127 0" result="hardAlpha"/>
<feOffset dy="1"/>
<feGaussianBlur stdDeviation="2"/>
<feComposite in2="hardAlpha" operator="out"/>
<feColorMatrix type="matrix" values="0 0 0 0 0 0 0 0 0 0 0 0 0 0 0 0 0 0 0.35 0"/>
<feBlend mode="normal" in2="BackgroundImageFix" result="effect1_dropShadow_5013_6164"/>
<feBlend mode="normal" in="SourceGraphic" in2="effect1_dropShadow_5013_6164" result="shape"/>
</filter>
<filter id="filter4_d_5013_6164" x="40" y="232.93" width="34" height="34" filterUnits="userSpaceOnUse" color-interpolation-filters="sRGB">
<feFlood flood-opacity="0" result="BackgroundImageFix"/>
<feColorMatrix in="SourceAlpha" type="matrix" values="0 0 0 0 0 0 0 0 0 0 0 0 0 0 0 0 0 0 127 0" result="hardAlpha"/>
<feOffset dy="1"/>
<feGaussianBlur stdDeviation="2"/>
<feComposite in2="hardAlpha" operator="out"/>
<feColorMatrix type="matrix" values="0 0 0 0 0 0 0 0 0 0 0 0 0 0 0 0 0 0 0.35 0"/>
<feBlend mode="normal" in2="BackgroundImageFix" result="effect1_dropShadow_5013_6164"/>
<feBlend mode="normal" in="SourceGraphic" in2="effect1_dropShadow_5013_6164" result="shape"/>
</filter>
<filter id="filter5_d_5013_6164" x="40" y="232.93" width="34" height="34" filterUnits="userSpaceOnUse" color-interpolation-filters="sRGB">
<feFlood flood-opacity="0" result="BackgroundImageFix"/>
<feColorMatrix in="SourceAlpha" type="matrix" values="0 0 0 0 0 0 0 0 0 0 0 0 0 0 0 0 0 0 127 0" result="hardAlpha"/>
<feOffset dy="1"/>
<feGaussianBlur stdDeviation="2"/>
<feComposite in2="hardAlpha" operator="out"/>
<feColorMatrix type="matrix" values="0 0 0 0 0 0 0 0 0 0 0 0 0 0 0 0 0 0 0.35 0"/>
<feBlend mode="normal" in2="BackgroundImageFix" result="effect1_dropShadow_5013_6164"/>
<feBlend mode="normal" in="SourceGraphic" in2="effect1_dropShadow_5013_6164" result="shape"/>
</filter>
<filter id="filter6_d_5013_6164" x="20" y="75.9297" width="332" height="64" filterUnits="userSpaceOnUse" color-interpolation-filters="sRGB">
<feFlood flood-opacity="0" result="BackgroundImageFix"/>
<feColorMatrix in="SourceAlpha" type="matrix" values="0 0 0 0 0 0 0 0 0 0 0 0 0 0 0 0 0 0 127 0" result="hardAlpha"/>
<feOffset dy="1"/>
<feGaussianBlur stdDeviation="2"/>
<feComposite in2="hardAlpha" operator="out"/>
<feColorMatrix type="matrix" values="0 0 0 0 0 0 0 0 0 0 0 0 0 0 0 0 0 0 0.35 0"/>
<feBlend mode="normal" in2="BackgroundImageFix" result="effect1_dropShadow_5013_6164"/>
<feBlend mode="normal" in="SourceGraphic" in2="effect1_dropShadow_5013_6164" result="shape"/>
</filter>
<filter id="filter7_d_5013_6164" x="-10.9" y="48.0297" width="393.8" height="125.8" filterUnits="userSpaceOnUse" color-interpolation-filters="sRGB">
<feFlood flood-opacity="0" result="BackgroundImageFix"/>
<feColorMatrix in="SourceAlpha" type="matrix" values="0 0 0 0 0 0 0 0 0 0 0 0 0 0 0 0 0 0 127 0" result="hardAlpha"/>
<feOffset dy="4"/>
<feGaussianBlur stdDeviation="17.45"/>
<feComposite in2="hardAlpha" operator="out"/>
<feColorMatrix type="matrix" values="0 0 0 0 0 0 0 0 0 0 0 0 0 0 0 0 0 0 0.25 0"/>
<feBlend mode="normal" in2="BackgroundImageFix" result="effect1_dropShadow_5013_6164"/>
<feBlend mode="normal" in="SourceGraphic" in2="effect1_dropShadow_5013_6164" result="shape"/>
</filter>
<filter id="filter8_d_5013_6164" x="40" y="90.9297" width="34" height="34" filterUnits="userSpaceOnUse" color-interpolation-filters="sRGB">
<feFlood flood-opacity="0" result="BackgroundImageFix"/>
<feColorMatrix in="SourceAlpha" type="matrix" values="0 0 0 0 0 0 0 0 0 0 0 0 0 0 0 0 0 0 127 0" result="hardAlpha"/>
<feOffset dy="1"/>
<feGaussianBlur stdDeviation="2"/>
<feComposite in2="hardAlpha" operator="out"/>
<feColorMatrix type="matrix" values="0 0 0 0 0 0 0 0 0 0 0 0 0 0 0 0 0 0 0.25 0"/>
<feBlend mode="normal" in2="BackgroundImageFix" result="effect1_dropShadow_5013_6164"/>
<feBlend mode="normal" in="SourceGraphic" in2="effect1_dropShadow_5013_6164" result="shape"/>
</filter>
<linearGradient id="paint0_linear_5013_6164" x1="186" y1="149.93" x2="186" y2="205.93" gradientUnits="userSpaceOnUse">
<stop stop-color="#0A0A0A"/>
<stop offset="1" stop-color="#0C0C0C"/>
</linearGradient>
<linearGradient id="paint1_linear_5013_6164" x1="57" y1="164.93" x2="57" y2="190.93" gradientUnits="userSpaceOnUse">
<stop stop-color="#D8FF0E"/>
<stop offset="1" stop-color="#E0FD48"/>
</linearGradient>
<linearGradient id="paint2_linear_5013_6164" x1="186" y1="220.93" x2="186" y2="276.93" gradientUnits="userSpaceOnUse">
<stop stop-color="#0A0A0A"/>
<stop offset="1" stop-color="#0C0C0C"/>
</linearGradient>
<linearGradient id="paint3_linear_5013_6164" x1="57" y1="235.93" x2="57" y2="261.93" gradientUnits="userSpaceOnUse">
<stop stop-color="#D8FF0E"/>
<stop offset="1" stop-color="#E0FD48"/>
</linearGradient>
<linearGradient id="paint4_linear_5013_6164" x1="186" y1="78.9297" x2="186" y2="134.93" gradientUnits="userSpaceOnUse">
<stop stop-color="#D8FF0E"/>
<stop offset="1" stop-color="#E0FD48"/>
</linearGradient>
<linearGradient id="paint5_linear_5013_6164" x1="57" y1="93.9297" x2="57" y2="119.93" gradientUnits="userSpaceOnUse">
<stop stop-color="#0A0A0A"/>
<stop offset="1" stop-color="#0C0C0C"/>
</linearGradient>
<clipPath id="clip0_5013_6164">
<rect x="4" y="3.92969" width="363" height="360" rx="15" fill="white"/>
</clipPath>
</defs>
</svg>
