<svg width="371" height="373" viewBox="0 0 371 373" fill="none" xmlns="http://www.w3.org/2000/svg">
<g filter="url(#filter0_d_5013_5989)">
<rect x="4" y="3.92969" width="363" height="364" rx="15" fill="#1E1E1E"/>
<path d="M39.6836 26.0312V36.5586H37.6133V32.1445H35.8555V36.4414H33.8242V26.3633H35.8555V30.4062H37.6133V26.0312H39.6836ZM25.2695 35.4062V27.5352H32.2227V35.4062H25.2695ZM27.3203 33.7461H30.2109V29.2148H27.3203V33.7461ZM27.5938 39.1367V37.3984H39.6836V43.668H37.5156V39.1367H27.5938ZM55.7969 26.0117V30.4258H58.2578V32.2031H55.7969V36.6367H53.6289V26.0117H55.7969ZM42.4766 35.6016V27.125H44.625V29.625H48.7461V27.125H50.8945V35.6016H42.4766ZM44.0391 39.1953V37.457H55.7969V43.668H53.6289V39.1953H44.0391ZM44.625 33.8828H48.7461V31.3242H44.625V33.8828ZM70.1523 28.8242C70.1523 31.041 71.5879 33.1406 74.3125 34L73.1406 35.6992C71.2363 35.0547 69.8691 33.7656 69.0977 32.125C68.3359 34 66.9102 35.4746 64.8789 36.1875L63.707 34.4883C66.5488 33.502 67.9746 31.1484 67.9844 28.6289V26.9492H70.1523V28.8242ZM66.1094 40.2891C66.1094 38.1992 68.4043 36.959 72.0859 36.9688C75.7383 36.959 77.9941 38.1992 78.0039 40.2891C77.9941 42.4277 75.7383 43.6484 72.0859 43.6484C68.4043 43.6484 66.1094 42.4277 66.1094 40.2891ZM68.2773 40.2891C68.2773 41.3828 69.6641 41.9297 72.0859 41.9297C74.498 41.9297 75.8555 41.3828 75.8555 40.2891C75.8555 39.2539 74.498 38.668 72.0859 38.668C69.6641 38.668 68.2773 39.2539 68.2773 40.2891ZM75.6602 36.5781V26.0117H77.8281V30.3086H80.2891V32.1055H77.8281V36.5781H75.6602ZM88.9414 27.9258V29.6641H83.9023V32.5547H88.6289V34.2539H83.9023V37.6914C86.0898 37.6719 87.6035 37.5938 89.3906 37.3203L89.5664 39.0977C87.5059 39.4492 85.7773 39.5176 83.0234 39.5078H81.832V27.9258H88.9414ZM90.4648 42.8086V26.3242H92.5156V32.9453H94.332V26.0117H96.4219V43.668H94.332V34.7031H92.5156V42.8086H90.4648Z" fill="white"/>
<g filter="url(#filter1_d_5013_5989)">
<path d="M24 93.9297C24 85.6454 30.7157 78.9297 39 78.9297H333C341.284 78.9297 348 85.6454 348 93.9297V119.93C348 128.214 341.284 134.93 333 134.93H39C30.7157 134.93 24 128.214 24 119.93V93.9297Z" fill="url(#paint0_linear_5013_5989)"/>
</g>
<g filter="url(#filter2_d_5013_5989)">
<path d="M24 164.93C24 156.645 30.7157 149.93 39 149.93H333C341.284 149.93 348 156.645 348 164.93V190.93C348 199.214 341.284 205.93 333 205.93H39C30.7157 205.93 24 199.214 24 190.93V164.93Z" fill="url(#paint1_linear_5013_5989)"/>
</g>
<g filter="url(#filter3_d_5013_5989)">
<path d="M24 235.93C24 227.645 30.7157 220.93 39 220.93H333C341.284 220.93 348 227.645 348 235.93V261.93C348 270.214 341.284 276.93 333 276.93H39C30.7157 276.93 24 270.214 24 261.93V235.93Z" fill="url(#paint2_linear_5013_5989)"/>
</g>
<g filter="url(#filter4_d_5013_5989)">
<path d="M24 306.93C24 298.645 30.7157 291.93 39 291.93H333C341.284 291.93 348 298.645 348 306.93V332.93C348 341.214 341.284 347.93 333 347.93H39C30.7157 347.93 24 341.214 24 332.93V306.93Z" fill="url(#paint3_linear_5013_5989)"/>
</g>
<path d="M93.6748 100.064V107.887H92.3564V104.503H90.8184V107.799H89.5293V100.299H90.8184V103.375H92.3564V100.064H93.6748ZM83.04 106.949V101.178H88.167V106.949H83.04ZM84.3438 105.88H86.8779V102.262H84.3438V105.88ZM84.7539 109.674V108.561H93.6748V113.175H92.2979V109.674H84.7539ZM105.76 100.05V103.404H107.664V104.547H105.76V107.96H104.368V100.05H105.76ZM95.96 107.125V100.87H97.3223V102.833H100.765V100.87H102.142V107.125H95.96ZM97.0879 109.747V108.619H105.76V113.175H104.368V109.747H97.0879ZM97.3223 106.012H100.765V103.932H97.3223V106.012ZM114.871 107.74V109.264H116.922V107.74H118.211V113.014H113.567V107.74H114.871ZM112.264 103.639C112.256 101.844 113.699 100.606 115.706 100.606C117.435 100.606 118.775 101.581 119.061 103.053H121.624V100.05H123.016V107.008H121.624V104.195H119.068C118.797 105.697 117.449 106.693 115.706 106.686C113.699 106.693 112.256 105.448 112.264 103.639ZM113.597 103.639C113.589 104.774 114.468 105.55 115.706 105.558C116.922 105.55 117.786 104.774 117.786 103.639C117.786 102.518 116.922 101.756 115.706 101.764C114.468 101.756 113.589 102.518 113.597 103.639ZM114.871 111.93H116.922V110.318H114.871V111.93ZM118.284 112.062C119.866 111.41 120.643 110.033 120.643 108.722V107.652H122.02V108.722C122.012 110.099 122.789 111.49 124.407 112.062L123.689 113.116C122.503 112.662 121.734 111.805 121.316 110.765C120.884 111.776 120.115 112.647 118.987 113.116L118.284 112.062ZM131.014 100.328C133.892 100.321 135.694 101.258 135.701 102.848C135.694 104.408 133.892 105.331 131.014 105.323C128.143 105.331 126.319 104.408 126.326 102.848C126.319 101.258 128.143 100.321 131.014 100.328ZM125.037 107.462V106.334H137.005V107.462H125.037ZM126.473 113.014V108.634H135.54V113.014H126.473ZM127.762 102.848C127.754 103.719 128.992 104.232 131.014 104.239C133.021 104.232 134.273 103.719 134.266 102.848C134.273 101.939 133.021 101.419 131.014 101.427C128.992 101.419 127.754 101.939 127.762 102.848ZM127.85 111.886H134.192V109.747H127.85V111.886Z" fill="white"/>
<path d="M93.4258 171.05V178.857H92.0342V175.532H89.5879V174.39H92.0342V171.05H93.4258ZM82.4834 177.671C84.5195 176.96 85.772 175.188 85.7646 173.379V173.086H82.9229V171.958H89.998V173.086H87.1855V173.364C87.1782 175.027 88.3647 176.646 90.3496 177.319L89.6318 178.418C88.1597 177.913 87.0757 176.858 86.5044 175.562C85.9331 177.026 84.7832 178.206 83.2158 178.784L82.4834 177.671ZM84.5928 181.699C84.5854 180.139 86.27 179.231 89.0312 179.224C91.7778 179.231 93.4624 180.139 93.4697 181.699C93.4624 183.259 91.7778 184.167 89.0312 184.175C86.27 184.167 84.5854 183.259 84.5928 181.699ZM85.9697 181.699C85.9624 182.585 87.105 183.091 89.0312 183.076C90.9429 183.091 92.0854 182.585 92.0928 181.699C92.0854 180.806 90.9429 180.3 89.0312 180.308C87.105 180.3 85.9624 180.806 85.9697 181.699ZM99.9736 173.145C99.9663 174.866 101.182 176.47 103.138 177.114L102.391 178.213C100.955 177.708 99.8784 176.682 99.3071 175.386C98.7358 176.858 97.6226 178.015 96.0918 178.579L95.3447 177.466C97.3955 176.741 98.582 174.99 98.5967 173.027V171.738H99.9736V173.145ZM97.1172 181.714C97.1172 180.176 98.7944 179.275 101.526 179.282C104.222 179.275 105.877 180.176 105.877 181.714C105.877 183.267 104.222 184.153 101.526 184.146C98.7944 184.153 97.1172 183.267 97.1172 181.714ZM98.5088 181.714C98.5015 182.578 99.6294 183.047 101.526 183.062C103.409 183.047 104.522 182.578 104.515 181.714C104.522 180.879 103.409 180.381 101.526 180.381C99.6294 180.381 98.5015 180.879 98.5088 181.714ZM104.368 178.975V171.05H105.76V174.346H107.664V175.518H105.76V178.975H104.368ZM123.265 171.064V178.887H121.946V175.503H120.408V178.799H119.119V171.299H120.408V174.375H121.946V171.064H123.265ZM112.63 177.949V172.178H117.757V177.949H112.63ZM113.934 176.88H116.468V173.262H113.934V176.88ZM114.344 180.674V179.561H123.265V184.175H121.888V180.674H114.344ZM135.35 171.05V174.404H137.254V175.547H135.35V178.96H133.958V171.05H135.35ZM125.55 178.125V171.87H126.912V173.833H130.354V171.87H131.731V178.125H125.55ZM126.678 180.747V179.619H135.35V184.175H133.958V180.747H126.678ZM126.912 177.012H130.354V174.932H126.912V177.012Z" fill="black"/>
<path d="M93.1182 242.05V247.089H94.7588V248.261H93.1182V255.175H91.7412V242.05H93.1182ZM82.7031 252.04V243.251H83.8604V246.532H85.252V243.251H86.4092V252.04H82.7031ZM83.8604 250.883H85.252V247.646H83.8604V250.883ZM87.0537 252.04V243.251H88.2109V246.532H89.5732V243.251H90.7305V252.04H87.0537ZM88.2109 250.883H89.5732V247.646H88.2109V250.883ZM107.444 249.257V250.385H95.4326V249.257H107.444ZM96.9414 243.544V242.445H105.936V245.814H98.3477V247.104H106.199V248.173H96.9707V244.804H104.544V243.544H96.9414ZM97 254.896V251.322H98.3916V253.769H106.214V254.896H97ZM123.265 242.064V249.887H121.946V246.503H120.408V249.799H119.119V242.299H120.408V245.375H121.946V242.064H123.265ZM112.63 248.949V243.178H117.757V248.949H112.63ZM113.934 247.88H116.468V244.262H113.934V247.88ZM114.344 251.674V250.561H123.265V255.175H121.888V251.674H114.344ZM135.35 242.05V245.404H137.254V246.547H135.35V249.96H133.958V242.05H135.35ZM125.55 249.125V242.87H126.912V244.833H130.354V242.87H131.731V249.125H125.55ZM126.678 251.747V250.619H135.35V255.175H133.958V251.747H126.678ZM126.912 248.012H130.354V245.932H126.912V248.012Z" fill="white"/>
<path d="M93.1328 318.938V320.081H83.9189V314.192H85.3105V318.938H93.1328ZM82.4834 324.446V323.274H94.4951V324.446H82.4834ZM106.316 313.064V322.718H104.939V313.064H106.316ZM96.1064 315.086V313.973H102.142V317.884H97.498V319.773C99.9077 319.759 101.556 319.686 103.504 319.334L103.65 320.477C101.585 320.835 99.8418 320.909 97.2344 320.916H96.1357V316.829H100.765V315.086H96.1064ZM97.6445 325.896V321.956H99.0361V324.769H106.683V325.896H97.6445ZM123.265 313.064V320.887H121.946V317.503H120.408V320.799H119.119V313.299H120.408V316.375H121.946V313.064H123.265ZM112.63 319.949V314.178H117.757V319.949H112.63ZM113.934 318.88H116.468V315.262H113.934V318.88ZM114.344 322.674V321.561H123.265V326.175H121.888V322.674H114.344ZM135.35 313.05V316.404H137.254V317.547H135.35V320.96H133.958V313.05H135.35ZM125.55 320.125V313.87H126.912V315.833H130.354V313.87H131.731V320.125H125.55ZM126.678 322.747V321.619H135.35V326.175H133.958V322.747H126.678ZM126.912 319.012H130.354V316.932H126.912V319.012Z" fill="white"/>
<g filter="url(#filter5_d_5013_5989)">
<circle cx="57" cy="177.93" r="13" fill="url(#paint4_linear_5013_5989)"/>
</g>
<path d="M53.9961 182.93L53.9814 181.963L57.5996 178.154C58.8521 176.821 59.4526 176.104 59.46 175.122C59.4526 174.031 58.5444 173.328 57.3506 173.32C56.0835 173.328 55.2925 174.126 55.2852 175.312H54.04C54.0254 173.438 55.4756 172.178 57.3945 172.178C59.3208 172.178 60.6831 173.474 60.6904 175.122C60.6831 176.309 60.1338 177.231 58.2588 179.165L55.8271 181.67V181.758H60.8809V182.93H53.9961Z" fill="white"/>
<circle cx="57" cy="248.93" r="13" fill="url(#paint5_linear_5013_5989)"/>
<path d="M56.6582 254.076C54.5488 254.076 53.0327 252.948 52.9668 251.264H54.2998C54.373 252.274 55.3765 252.904 56.6436 252.904C58.0425 252.904 59.0532 252.15 59.0605 251.044C59.0532 249.887 58.1304 249.074 56.4824 249.066H55.6182V247.909H56.4824C57.7715 247.909 58.6724 247.184 58.665 246.093C58.6724 245.031 57.896 244.328 56.6875 244.32C55.5522 244.328 54.5195 244.95 54.4609 245.99H53.1865C53.2524 244.306 54.8198 243.178 56.7021 243.178C58.7236 243.178 59.9541 244.503 59.9395 246.02C59.9541 247.228 59.251 248.107 58.1377 248.422V248.495C59.522 248.708 60.3569 249.696 60.3496 251.044C60.3569 252.787 58.7749 254.076 56.6582 254.076Z" fill="black"/>
<circle cx="57" cy="319.93" r="13" fill="url(#paint6_linear_5013_5989)"/>
<path d="M52.7324 322.762V321.678L57.5078 314.324H59.1338V321.604H60.6133V322.762H59.1338V324.93H57.874V322.762H52.7324ZM54.1533 321.604H57.874V315.994H57.7422L54.1533 321.517V321.604Z" fill="black"/>
<circle cx="57" cy="106.93" r="13" fill="url(#paint7_linear_5013_5989)"/>
<path d="M58.7461 101.324V111.93H57.4131V102.701H57.3545L54.7764 104.415V103.082L57.4131 101.324H58.7461Z" fill="black"/>
</g>
<defs>
<filter id="filter0_d_5013_5989" x="0" y="0.929688" width="371" height="372" filterUnits="userSpaceOnUse" color-interpolation-filters="sRGB">
<feFlood flood-opacity="0" result="BackgroundImageFix"/>
<feColorMatrix in="SourceAlpha" type="matrix" values="0 0 0 0 0 0 0 0 0 0 0 0 0 0 0 0 0 0 127 0" result="hardAlpha"/>
<feOffset dy="1"/>
<feGaussianBlur stdDeviation="2"/>
<feComposite in2="hardAlpha" operator="out"/>
<feColorMatrix type="matrix" values="0 0 0 0 0 0 0 0 0 0 0 0 0 0 0 0 0 0 0.35 0"/>
<feBlend mode="normal" in2="BackgroundImageFix" result="effect1_dropShadow_5013_5989"/>
<feBlend mode="normal" in="SourceGraphic" in2="effect1_dropShadow_5013_5989" result="shape"/>
</filter>
<filter id="filter1_d_5013_5989" x="20" y="75.9297" width="332" height="64" filterUnits="userSpaceOnUse" color-interpolation-filters="sRGB">
<feFlood flood-opacity="0" result="BackgroundImageFix"/>
<feColorMatrix in="SourceAlpha" type="matrix" values="0 0 0 0 0 0 0 0 0 0 0 0 0 0 0 0 0 0 127 0" result="hardAlpha"/>
<feOffset dy="1"/>
<feGaussianBlur stdDeviation="2"/>
<feComposite in2="hardAlpha" operator="out"/>
<feColorMatrix type="matrix" values="0 0 0 0 0 0 0 0 0 0 0 0 0 0 0 0 0 0 0.35 0"/>
<feBlend mode="normal" in2="BackgroundImageFix" result="effect1_dropShadow_5013_5989"/>
<feBlend mode="normal" in="SourceGraphic" in2="effect1_dropShadow_5013_5989" result="shape"/>
</filter>
<filter id="filter2_d_5013_5989" x="20" y="146.93" width="332" height="64" filterUnits="userSpaceOnUse" color-interpolation-filters="sRGB">
<feFlood flood-opacity="0" result="BackgroundImageFix"/>
<feColorMatrix in="SourceAlpha" type="matrix" values="0 0 0 0 0 0 0 0 0 0 0 0 0 0 0 0 0 0 127 0" result="hardAlpha"/>
<feOffset dy="1"/>
<feGaussianBlur stdDeviation="2"/>
<feComposite in2="hardAlpha" operator="out"/>
<feColorMatrix type="matrix" values="0 0 0 0 0 0 0 0 0 0 0 0 0 0 0 0 0 0 0.35 0"/>
<feBlend mode="normal" in2="BackgroundImageFix" result="effect1_dropShadow_5013_5989"/>
<feBlend mode="normal" in="SourceGraphic" in2="effect1_dropShadow_5013_5989" result="shape"/>
</filter>
<filter id="filter3_d_5013_5989" x="20" y="217.93" width="332" height="64" filterUnits="userSpaceOnUse" color-interpolation-filters="sRGB">
<feFlood flood-opacity="0" result="BackgroundImageFix"/>
<feColorMatrix in="SourceAlpha" type="matrix" values="0 0 0 0 0 0 0 0 0 0 0 0 0 0 0 0 0 0 127 0" result="hardAlpha"/>
<feOffset dy="1"/>
<feGaussianBlur stdDeviation="2"/>
<feComposite in2="hardAlpha" operator="out"/>
<feColorMatrix type="matrix" values="0 0 0 0 0 0 0 0 0 0 0 0 0 0 0 0 0 0 0.35 0"/>
<feBlend mode="normal" in2="BackgroundImageFix" result="effect1_dropShadow_5013_5989"/>
<feBlend mode="normal" in="SourceGraphic" in2="effect1_dropShadow_5013_5989" result="shape"/>
</filter>
<filter id="filter4_d_5013_5989" x="20" y="288.93" width="332" height="64" filterUnits="userSpaceOnUse" color-interpolation-filters="sRGB">
<feFlood flood-opacity="0" result="BackgroundImageFix"/>
<feColorMatrix in="SourceAlpha" type="matrix" values="0 0 0 0 0 0 0 0 0 0 0 0 0 0 0 0 0 0 127 0" result="hardAlpha"/>
<feOffset dy="1"/>
<feGaussianBlur stdDeviation="2"/>
<feComposite in2="hardAlpha" operator="out"/>
<feColorMatrix type="matrix" values="0 0 0 0 0 0 0 0 0 0 0 0 0 0 0 0 0 0 0.35 0"/>
<feBlend mode="normal" in2="BackgroundImageFix" result="effect1_dropShadow_5013_5989"/>
<feBlend mode="normal" in="SourceGraphic" in2="effect1_dropShadow_5013_5989" result="shape"/>
</filter>
<filter id="filter5_d_5013_5989" x="40" y="161.93" width="34" height="34" filterUnits="userSpaceOnUse" color-interpolation-filters="sRGB">
<feFlood flood-opacity="0" result="BackgroundImageFix"/>
<feColorMatrix in="SourceAlpha" type="matrix" values="0 0 0 0 0 0 0 0 0 0 0 0 0 0 0 0 0 0 127 0" result="hardAlpha"/>
<feOffset dy="1"/>
<feGaussianBlur stdDeviation="2"/>
<feComposite in2="hardAlpha" operator="out"/>
<feColorMatrix type="matrix" values="0 0 0 0 0 0 0 0 0 0 0 0 0 0 0 0 0 0 0.25 0"/>
<feBlend mode="normal" in2="BackgroundImageFix" result="effect1_dropShadow_5013_5989"/>
<feBlend mode="normal" in="SourceGraphic" in2="effect1_dropShadow_5013_5989" result="shape"/>
</filter>
<linearGradient id="paint0_linear_5013_5989" x1="186" y1="78.9297" x2="186" y2="134.93" gradientUnits="userSpaceOnUse">
<stop stop-color="#0A0A0A"/>
<stop offset="1" stop-color="#0C0C0C"/>
</linearGradient>
<linearGradient id="paint1_linear_5013_5989" x1="186" y1="149.93" x2="186" y2="205.93" gradientUnits="userSpaceOnUse">
<stop stop-color="#D8FF0E"/>
<stop offset="1" stop-color="#E0FD48"/>
</linearGradient>
<linearGradient id="paint2_linear_5013_5989" x1="186" y1="220.93" x2="186" y2="276.93" gradientUnits="userSpaceOnUse">
<stop stop-color="#0A0A0A"/>
<stop offset="1" stop-color="#0C0C0C"/>
</linearGradient>
<linearGradient id="paint3_linear_5013_5989" x1="186" y1="291.93" x2="186" y2="347.93" gradientUnits="userSpaceOnUse">
<stop stop-color="#0A0A0A"/>
<stop offset="1" stop-color="#0C0C0C"/>
</linearGradient>
<linearGradient id="paint4_linear_5013_5989" x1="57" y1="164.93" x2="57" y2="190.93" gradientUnits="userSpaceOnUse">
<stop stop-color="#0A0A0A"/>
<stop offset="1" stop-color="#0C0C0C"/>
</linearGradient>
<linearGradient id="paint5_linear_5013_5989" x1="57" y1="235.93" x2="57" y2="261.93" gradientUnits="userSpaceOnUse">
<stop stop-color="#D8FF0E"/>
<stop offset="1" stop-color="#E0FD48"/>
</linearGradient>
<linearGradient id="paint6_linear_5013_5989" x1="57" y1="306.93" x2="57" y2="332.93" gradientUnits="userSpaceOnUse">
<stop stop-color="#D8FF0E"/>
<stop offset="1" stop-color="#E0FD48"/>
</linearGradient>
<linearGradient id="paint7_linear_5013_5989" x1="57" y1="93.9297" x2="57" y2="119.93" gradientUnits="userSpaceOnUse">
<stop stop-color="#D8FF0E"/>
<stop offset="1" stop-color="#E0FD48"/>
</linearGradient>
</defs>
</svg>
