<svg width="371" height="369" viewBox="0 0 371 369" fill="none" xmlns="http://www.w3.org/2000/svg">
<g filter="url(#filter0_d_5013_5972)">
<rect x="4" y="3.92969" width="363" height="360" rx="15" fill="#1E1E1E"/>
<path d="M30.2891 27.1445C33.1113 27.1348 35.2012 28.9512 35.2109 31.5C35.2012 34.0586 33.1113 35.8652 30.2891 35.875C27.4863 35.8652 25.3379 34.0586 25.3477 31.5C25.3379 28.9512 27.4863 27.1348 30.2891 27.1445ZM24.6055 38.1016C27.7793 38.1113 32.1738 38.0723 35.9727 37.5352L36.168 39.332C32.2227 40.1035 28.0039 40.1328 24.8984 40.1328L24.6055 38.1016ZM27.8281 31.5C27.8184 32.9062 28.8828 33.7168 30.2891 33.707C31.7051 33.7168 32.7793 32.9062 32.7891 31.5C32.7793 30.1133 31.7051 29.293 30.2891 29.293C28.8828 29.293 27.8184 30.1133 27.8281 31.5ZM36.9883 43.7656V25.9531H39.4688V43.7656H36.9883ZM48.6289 28.4727C48.6094 30.6895 49.8789 32.8477 52.8086 33.7266L51.5586 35.6797C49.5371 35.0352 48.1309 33.7656 47.3398 32.1445C46.5391 33.8926 45.0938 35.2793 43.0039 35.9531L41.7539 34C44.7227 33.0527 46.0312 30.7383 46.0312 28.4727V26.7734H48.6289V28.4727ZM44.4688 39.3125V37.3203H56.6953V43.7266H54.1953V39.3125H44.4688ZM54.1953 36.5586V25.9531H56.6953V36.5586H54.1953ZM70.1914 28.7461C70.1816 30.9043 71.4414 32.9746 74.2539 33.8438L72.9258 35.7773C71.041 35.1523 69.7227 33.9414 68.9609 32.3887C68.1895 34.1758 66.8125 35.582 64.7812 36.2656L63.4336 34.3125C66.4023 33.3262 67.6719 30.9629 67.6914 28.5117V26.8906H70.1914V28.7461ZM65.8945 40.2891C65.8848 38.1309 68.2383 36.8516 71.9883 36.8516C75.6699 36.8516 77.9746 38.1309 77.9844 40.2891C77.9746 42.4668 75.6699 43.7363 71.9883 43.7266C68.2383 43.7363 65.8848 42.4668 65.8945 40.2891ZM68.3945 40.2891C68.375 41.2949 69.6543 41.7734 71.9883 41.7734C74.293 41.7734 75.5234 41.2949 75.5234 40.2891C75.5234 39.3223 74.293 38.8047 71.9883 38.8047C69.6543 38.8047 68.375 39.3223 68.3945 40.2891ZM75.3086 36.5V25.9531H77.8086V30.1133H80.2109V32.1836H77.8086V36.5H75.3086ZM88.8438 27.8086V29.7812H83.9805V32.457H88.4922V34.3711H83.9805V37.5742C85.9824 37.5547 87.4473 37.4863 89.1758 37.2422L89.3516 39.2734C87.3008 39.5957 85.5527 39.6641 82.8477 39.6641H81.5977V27.8086H88.8438ZM90.1328 42.9062V26.207H92.4766V32.8477H94.0195V25.9531H96.4023V43.7266H94.0195V34.8398H92.4766V42.9062H90.1328Z" fill="white"/>
<g filter="url(#filter1_d_5013_5972)">
<path d="M24 164.93C24 156.645 30.7157 149.93 39 149.93H333C341.284 149.93 348 156.645 348 164.93V190.93C348 199.214 341.284 205.93 333 205.93H39C30.7157 205.93 24 199.214 24 190.93V164.93Z" fill="url(#paint0_linear_5013_5972)"/>
</g>
<path d="M92.708 171.108V175.049H94.6709V176.016H92.708V180.674H91.5654V171.108H92.708ZM83.084 178.477V172.046H84.2119V174.243H88.0059V172.046H89.1484V178.477H83.084ZM84.2119 177.539H88.0059V175.151H84.2119V177.539ZM84.5635 183.838V179.736H85.6914V182.871H93.3086V183.838H84.5635ZM107.356 177.437V178.374H95.4912V177.437H107.356ZM96.8096 173.906C96.8096 172.361 98.5894 171.431 101.424 171.431C104.244 171.431 106.016 172.361 106.023 173.906C106.016 175.459 104.244 176.375 101.424 176.367C98.5894 176.375 96.8096 175.459 96.8096 173.906ZM96.9268 181.787C96.9194 180.3 98.5967 179.473 101.424 179.487C104.214 179.473 105.892 180.3 105.906 181.787C105.892 183.296 104.214 184.124 101.424 184.116C98.5967 184.124 96.9194 183.296 96.9268 181.787ZM97.9961 173.906C97.9888 174.88 99.3145 175.459 101.424 175.459C103.511 175.459 104.844 174.88 104.852 173.906C104.844 172.932 103.511 172.354 101.424 172.368C99.3145 172.354 97.9888 172.932 97.9961 173.906ZM98.0986 181.787C98.084 182.688 99.3364 183.208 101.424 183.193C103.489 183.208 104.742 182.688 104.749 181.787C104.742 180.879 103.489 180.359 101.424 180.366C99.3364 180.359 98.084 180.879 98.0986 181.787ZM114.812 178.74V180.366H117.186V178.74H118.255V183.94H113.729V178.74H114.812ZM112.425 174.668C112.417 172.888 113.824 171.68 115.809 171.68C117.559 171.68 118.885 172.668 119.134 174.17H121.858V171.094H123.016V177.993H121.858V175.122H119.141C118.914 176.66 117.574 177.671 115.809 177.671C113.824 177.671 112.417 176.455 112.425 174.668ZM113.523 174.668C113.523 175.862 114.468 176.711 115.809 176.719C117.12 176.711 118.064 175.862 118.064 174.668C118.064 173.481 117.12 172.646 115.809 172.646C114.468 172.646 113.523 173.481 113.523 174.668ZM114.812 183.032H117.186V181.245H114.812V183.032ZM118.431 183.164C119.998 182.512 120.826 181.084 120.833 179.766V178.652H121.976V179.766C121.961 181.135 122.789 182.578 124.378 183.164L123.777 184.043C122.576 183.567 121.792 182.644 121.39 181.567C120.979 182.629 120.181 183.552 119.031 184.043L118.431 183.164ZM131.116 171.387C133.951 171.387 135.708 172.302 135.716 173.862C135.708 175.4 133.951 176.301 131.116 176.294C128.282 176.301 126.502 175.4 126.502 173.862C126.502 172.302 128.282 171.387 131.116 171.387ZM125.184 178.374V177.422H137.049V178.374H125.184ZM126.634 183.94V179.663H135.599V183.94H126.634ZM127.688 173.862C127.681 174.807 129.007 175.378 131.116 175.386C133.204 175.378 134.537 174.807 134.544 173.862C134.537 172.888 133.204 172.31 131.116 172.31C129.007 172.31 127.681 172.888 127.688 173.862ZM127.776 183.003H134.471V180.586H127.776V183.003Z" fill="white"/>
<g filter="url(#filter2_d_5013_5972)">
<circle cx="57" cy="177.93" r="13" fill="url(#paint1_linear_5013_5972)"/>
</g>
<path d="M53.9961 182.93L53.9814 181.963L57.5996 178.154C58.8521 176.821 59.4526 176.104 59.46 175.122C59.4526 174.031 58.5444 173.328 57.3506 173.32C56.0835 173.328 55.2925 174.126 55.2852 175.312H54.04C54.0254 173.438 55.4756 172.178 57.3945 172.178C59.3208 172.178 60.6831 173.474 60.6904 175.122C60.6831 176.309 60.1338 177.231 58.2588 179.165L55.8271 181.67V181.758H60.8809V182.93H53.9961Z" fill="black"/>
<g filter="url(#filter3_d_5013_5972)">
<path d="M24 93.9297C24 85.6454 30.7157 78.9297 39 78.9297H333C341.284 78.9297 348 85.6454 348 93.9297V119.93C348 128.214 341.284 134.93 333 134.93H39C30.7157 134.93 24 128.214 24 119.93V93.9297Z" fill="url(#paint2_linear_5013_5972)"/>
</g>
<path d="M93.2646 100.094V106.861H92.1367V100.094H93.2646ZM82.7178 105.968C84.6587 105.323 86.0503 103.727 86.0576 101.939V101.793H83.0107V100.841H90.2178V101.793H87.2148V101.939C87.2222 103.631 88.6064 105.125 90.5693 105.704L89.998 106.598C88.46 106.114 87.2368 105.082 86.6582 103.749C86.0942 105.206 84.8491 106.341 83.2598 106.876L82.7178 105.968ZM84.8125 108.399V107.491H93.2793V110.597H85.9697V112.047H93.748V112.97H84.8418V109.732H92.1367V108.399H84.8125ZM107.4 106.759V107.711H102.098V110.377H100.955V107.711H95.4766V106.759H107.4ZM97 112.838V109.088H98.1572V111.871H106.067V112.838H97ZM97.0293 105.265V100.738H105.848V105.265H97.0293ZM98.1572 104.342H104.705V101.646H98.1572V104.342ZM119.617 100.094V113.116H118.504V100.094H119.617ZM108.616 105.719C108.624 102.95 109.722 101.2 111.414 101.192C112.996 101.2 114.065 102.723 114.212 105.177H115.896V100.372H116.995V112.457H115.896V106.129H114.219C114.109 108.663 113.018 110.252 111.414 110.245C109.722 110.252 108.624 108.487 108.616 105.719ZM109.7 105.719C109.686 107.828 110.359 109.161 111.414 109.146C112.476 109.161 113.15 107.828 113.143 105.719C113.15 103.602 112.476 102.276 111.414 102.276C110.359 102.276 109.686 103.602 109.7 105.719ZM135.364 100.108V104.049H137.327V105.016H135.364V109.674H134.222V100.108H135.364ZM125.74 107.477V101.046H126.868V103.243H130.662V101.046H131.805V107.477H125.74ZM126.868 106.539H130.662V104.151H126.868V106.539ZM127.22 112.838V108.736H128.348V111.871H135.965V112.838H127.22ZM150.013 106.437V107.374H138.147V106.437H150.013ZM139.466 102.906C139.466 101.361 141.246 100.431 144.08 100.431C146.9 100.431 148.672 101.361 148.68 102.906C148.672 104.459 146.9 105.375 144.08 105.367C141.246 105.375 139.466 104.459 139.466 102.906ZM139.583 110.787C139.576 109.3 141.253 108.473 144.08 108.487C146.871 108.473 148.548 109.3 148.562 110.787C148.548 112.296 146.871 113.124 144.08 113.116C141.253 113.124 139.576 112.296 139.583 110.787ZM140.652 102.906C140.645 103.88 141.971 104.459 144.08 104.459C146.167 104.459 147.5 103.88 147.508 102.906C147.5 101.932 146.167 101.354 144.08 101.368C141.971 101.354 140.645 101.932 140.652 102.906ZM140.755 110.787C140.74 111.688 141.993 112.208 144.08 112.193C146.146 112.208 147.398 111.688 147.405 110.787C147.398 109.879 146.146 109.359 144.08 109.366C141.993 109.359 140.74 109.879 140.755 110.787Z" fill="black"/>
<g filter="url(#filter4_d_5013_5972)">
<circle cx="57" cy="106.93" r="13" fill="url(#paint3_linear_5013_5972)"/>
<path d="M58.7461 101.324V111.93H57.4131V102.701H57.3545L54.7764 104.415V103.082L57.4131 101.324H58.7461Z" fill="white"/>
</g>
</g>
<defs>
<filter id="filter0_d_5013_5972" x="0" y="0.929688" width="371" height="368" filterUnits="userSpaceOnUse" color-interpolation-filters="sRGB">
<feFlood flood-opacity="0" result="BackgroundImageFix"/>
<feColorMatrix in="SourceAlpha" type="matrix" values="0 0 0 0 0 0 0 0 0 0 0 0 0 0 0 0 0 0 127 0" result="hardAlpha"/>
<feOffset dy="1"/>
<feGaussianBlur stdDeviation="2"/>
<feComposite in2="hardAlpha" operator="out"/>
<feColorMatrix type="matrix" values="0 0 0 0 0 0 0 0 0 0 0 0 0 0 0 0 0 0 0.35 0"/>
<feBlend mode="normal" in2="BackgroundImageFix" result="effect1_dropShadow_5013_5972"/>
<feBlend mode="normal" in="SourceGraphic" in2="effect1_dropShadow_5013_5972" result="shape"/>
</filter>
<filter id="filter1_d_5013_5972" x="20" y="146.93" width="332" height="64" filterUnits="userSpaceOnUse" color-interpolation-filters="sRGB">
<feFlood flood-opacity="0" result="BackgroundImageFix"/>
<feColorMatrix in="SourceAlpha" type="matrix" values="0 0 0 0 0 0 0 0 0 0 0 0 0 0 0 0 0 0 127 0" result="hardAlpha"/>
<feOffset dy="1"/>
<feGaussianBlur stdDeviation="2"/>
<feComposite in2="hardAlpha" operator="out"/>
<feColorMatrix type="matrix" values="0 0 0 0 0 0 0 0 0 0 0 0 0 0 0 0 0 0 0.35 0"/>
<feBlend mode="normal" in2="BackgroundImageFix" result="effect1_dropShadow_5013_5972"/>
<feBlend mode="normal" in="SourceGraphic" in2="effect1_dropShadow_5013_5972" result="shape"/>
</filter>
<filter id="filter2_d_5013_5972" x="40" y="161.93" width="34" height="34" filterUnits="userSpaceOnUse" color-interpolation-filters="sRGB">
<feFlood flood-opacity="0" result="BackgroundImageFix"/>
<feColorMatrix in="SourceAlpha" type="matrix" values="0 0 0 0 0 0 0 0 0 0 0 0 0 0 0 0 0 0 127 0" result="hardAlpha"/>
<feOffset dy="1"/>
<feGaussianBlur stdDeviation="2"/>
<feComposite in2="hardAlpha" operator="out"/>
<feColorMatrix type="matrix" values="0 0 0 0 0 0 0 0 0 0 0 0 0 0 0 0 0 0 0.35 0"/>
<feBlend mode="normal" in2="BackgroundImageFix" result="effect1_dropShadow_5013_5972"/>
<feBlend mode="normal" in="SourceGraphic" in2="effect1_dropShadow_5013_5972" result="shape"/>
</filter>
<filter id="filter3_d_5013_5972" x="20" y="75.9297" width="332" height="64" filterUnits="userSpaceOnUse" color-interpolation-filters="sRGB">
<feFlood flood-opacity="0" result="BackgroundImageFix"/>
<feColorMatrix in="SourceAlpha" type="matrix" values="0 0 0 0 0 0 0 0 0 0 0 0 0 0 0 0 0 0 127 0" result="hardAlpha"/>
<feOffset dy="1"/>
<feGaussianBlur stdDeviation="2"/>
<feComposite in2="hardAlpha" operator="out"/>
<feColorMatrix type="matrix" values="0 0 0 0 0 0 0 0 0 0 0 0 0 0 0 0 0 0 0.35 0"/>
<feBlend mode="normal" in2="BackgroundImageFix" result="effect1_dropShadow_5013_5972"/>
<feBlend mode="normal" in="SourceGraphic" in2="effect1_dropShadow_5013_5972" result="shape"/>
</filter>
<filter id="filter4_d_5013_5972" x="40" y="90.9297" width="34" height="34" filterUnits="userSpaceOnUse" color-interpolation-filters="sRGB">
<feFlood flood-opacity="0" result="BackgroundImageFix"/>
<feColorMatrix in="SourceAlpha" type="matrix" values="0 0 0 0 0 0 0 0 0 0 0 0 0 0 0 0 0 0 127 0" result="hardAlpha"/>
<feOffset dy="1"/>
<feGaussianBlur stdDeviation="2"/>
<feComposite in2="hardAlpha" operator="out"/>
<feColorMatrix type="matrix" values="0 0 0 0 0 0 0 0 0 0 0 0 0 0 0 0 0 0 0.25 0"/>
<feBlend mode="normal" in2="BackgroundImageFix" result="effect1_dropShadow_5013_5972"/>
<feBlend mode="normal" in="SourceGraphic" in2="effect1_dropShadow_5013_5972" result="shape"/>
</filter>
<linearGradient id="paint0_linear_5013_5972" x1="186" y1="149.93" x2="186" y2="205.93" gradientUnits="userSpaceOnUse">
<stop stop-color="#0A0A0A"/>
<stop offset="1" stop-color="#0C0C0C"/>
</linearGradient>
<linearGradient id="paint1_linear_5013_5972" x1="57" y1="164.93" x2="57" y2="190.93" gradientUnits="userSpaceOnUse">
<stop stop-color="#D8FF0E"/>
<stop offset="1" stop-color="#E0FD48"/>
</linearGradient>
<linearGradient id="paint2_linear_5013_5972" x1="186" y1="78.9297" x2="186" y2="134.93" gradientUnits="userSpaceOnUse">
<stop stop-color="#D8FF0E"/>
<stop offset="1" stop-color="#E0FD48"/>
</linearGradient>
<linearGradient id="paint3_linear_5013_5972" x1="57" y1="93.9297" x2="57" y2="119.93" gradientUnits="userSpaceOnUse">
<stop stop-color="#0A0A0A"/>
<stop offset="1" stop-color="#0C0C0C"/>
</linearGradient>
</defs>
</svg>
