<svg width="371" height="373" viewBox="0 0 371 373" fill="none" xmlns="http://www.w3.org/2000/svg">
<g filter="url(#filter0_d_5013_6080)">
<rect x="4" y="3.92969" width="363" height="364" rx="15" fill="#1E1E1E"/>
<path d="M40.6797 35.1914V36.9102H24.5469V35.1914H31.5195V33.8828H26.6172V26.4805H38.7461V28.1602H28.7852V29.3711H38.3164V30.9727H28.7852V32.2227H38.8828V33.8828H33.6875V35.1914H40.6797ZM26.4609 40.7578C26.4609 38.9121 28.6777 37.877 32.6133 37.8867C36.4902 37.877 38.7168 38.9121 38.7266 40.7578C38.7168 42.6523 36.4902 43.6484 32.6133 43.6484C28.6777 43.6484 26.4609 42.6523 26.4609 40.7578ZM28.6289 40.7578C28.6289 41.6172 29.957 42.0273 32.6133 42.0273C35.2207 42.0273 36.5391 41.6172 36.5586 40.7578C36.5391 39.918 35.2207 39.5078 32.6133 39.5078C29.957 39.5078 28.6289 39.918 28.6289 40.7578ZM57.9648 34.2344V35.9922H41.8711V34.2344H57.9648ZM42.6523 31.7344C45.9238 31.4121 48.0527 30.1035 48.3848 28.6289H43.3359V26.8516H56.5195V28.6289H51.4219C51.7441 30.084 53.8535 31.4121 57.2031 31.7344L56.4414 33.4531C53.2285 33.1211 50.8555 31.8418 49.8984 30.0547C48.9414 31.8418 46.5977 33.1211 43.3945 33.4531L42.6523 31.7344ZM43.7461 40.4062C43.7461 38.3555 46.0605 37.1641 49.8984 37.1641C53.707 37.1641 56.002 38.3555 56.0117 40.4062C56.002 42.4863 53.707 43.6484 49.8984 43.6484C46.0605 43.6484 43.7461 42.4863 43.7461 40.4062ZM45.9531 40.4062C45.9434 41.4316 47.3301 41.9395 49.8984 41.9492C52.4277 41.9395 53.8242 41.4316 53.8438 40.4062C53.8242 39.3809 52.4277 38.8633 49.8984 38.8633C47.3301 38.8633 45.9434 39.3809 45.9531 40.4062ZM73.1016 27.4766C73.0918 29.6934 75.582 31.9492 79.3516 32.4375L78.4922 34.1953C75.4941 33.7461 73.1113 32.2715 71.959 30.2793C70.8066 32.2715 68.4336 33.7461 65.4648 34.1953L64.6055 32.4375C68.3359 31.9492 70.8164 29.7129 70.8164 27.4766V26.5781H73.1016V27.4766ZM63.9023 37.5156V35.7188H79.9961V37.5156H72.9844V43.668H70.8359V37.5156H63.9023ZM95.8359 26.8125V28.5508H90.7188C90.9141 30.2207 93.0723 31.8027 96.4805 32.2031L95.6602 33.9219C92.4961 33.541 90.1621 32.1445 89.2148 30.2402C88.2676 32.1348 85.9531 33.541 82.7891 33.9219L81.9883 32.2031C85.3965 31.8027 87.5254 30.2109 87.7305 28.5508H82.6523V26.8125H95.8359ZM81.168 36.6562V34.8984H97.3008V36.6562H90.4844V39.8789H88.3359V36.6562H81.168ZM83.1211 43.3164V38.2578H85.2891V41.5586H95.5234V43.3164H83.1211Z" fill="white"/>
<g filter="url(#filter1_d_5013_6080)">
<path d="M24 235.93C24 227.645 30.7157 220.93 39 220.93H333C341.284 220.93 348 227.645 348 235.93V261.93C348 270.214 341.284 276.93 333 276.93H39C30.7157 276.93 24 270.214 24 261.93V235.93Z" fill="url(#paint0_linear_5013_6080)"/>
</g>
<path d="M93.3672 242.064V249.491H91.9756V242.064H93.3672ZM82.542 248.1C84.5928 247.411 85.8306 245.668 85.8379 243.837V242.562H87.2588V243.837C87.2515 245.609 88.5186 247.206 90.5107 247.88L89.8223 248.949C88.2988 248.444 87.1489 247.411 86.5557 246.063C85.9697 247.506 84.8052 248.649 83.2305 249.198L82.542 248.1ZM84.7393 255.014V250.194H93.3672V255.014H84.7393ZM86.1162 253.886H92.0049V251.308H86.1162V253.886ZM105.76 242.064V246.283H107.664V247.44H105.76V251.879H104.368V242.064H105.76ZM95.4619 244.716V243.588H98.6846V242.05H100.076V243.588H103.284V244.716H95.4619ZM96.1797 247.821C96.1724 246.32 97.4688 245.338 99.373 245.346C101.255 245.338 102.552 246.32 102.552 247.821C102.552 249.308 101.255 250.275 99.373 250.282C97.4688 250.275 96.1724 249.308 96.1797 247.821ZM97.4395 254.896V251.103H98.8311V253.769H106.316V254.896H97.4395ZM97.5273 247.821C97.5127 248.678 98.2598 249.206 99.373 249.198C100.486 249.206 101.233 248.678 101.248 247.821C101.233 246.957 100.486 246.422 99.373 246.415C98.2598 246.422 97.5127 246.957 97.5273 247.821ZM124.041 248.949V250.048H112.044V248.949H117.347V247.807H113.611V242.401H122.576V243.5H115.018V244.569H122.239V245.609H115.018V246.723H122.664V247.807H118.738V248.949H124.041ZM113.494 253.036C113.494 251.659 115.127 250.905 118.05 250.912C120.928 250.905 122.569 251.659 122.576 253.036C122.569 254.42 120.928 255.153 118.05 255.146C115.127 255.153 113.494 254.42 113.494 253.036ZM114.886 253.036C114.878 253.747 115.977 254.105 118.05 254.091C120.093 254.105 121.185 253.747 121.185 253.036C121.185 252.326 120.093 251.952 118.05 251.952C115.977 251.952 114.878 252.326 114.886 253.036ZM137.005 248.231V249.359H125.037V248.231H137.005ZM125.667 246.444C128.047 246.188 129.93 245.119 130.083 243.837H126.136V242.694H135.936V243.837H131.944C132.105 245.111 133.958 246.188 136.39 246.444L135.892 247.543C133.614 247.279 131.731 246.32 131.021 244.936C130.296 246.32 128.428 247.279 126.15 247.543L125.667 246.444ZM126.458 252.772C126.458 251.249 128.165 250.37 131.014 250.37C133.841 250.37 135.533 251.249 135.54 252.772C135.533 254.296 133.841 255.153 131.014 255.146C128.165 255.153 126.458 254.296 126.458 252.772ZM127.864 252.772C127.857 253.6 129.007 254.054 131.014 254.047C132.991 254.054 134.148 253.6 134.148 252.772C134.148 251.923 132.991 251.469 131.014 251.454C129.007 251.469 127.857 251.923 127.864 252.772Z" fill="white"/>
<g filter="url(#filter2_d_5013_6080)">
<path d="M24 164.93C24 156.645 30.7157 149.93 39 149.93H333C341.284 149.93 348 156.645 348 164.93V190.93C348 199.214 341.284 205.93 333 205.93H39C30.7157 205.93 24 199.214 24 190.93V164.93Z" fill="url(#paint1_linear_5013_6080)"/>
</g>
<path d="M94.6562 172.969V174.111H92.7959V175.781H94.6562V176.953H92.7959V178.828H91.4043V171.05H92.7959V172.969H94.6562ZM82.6885 174.946C82.6738 173.108 84.168 171.812 86.1748 171.812C88.189 171.812 89.6611 173.108 89.6758 174.946C89.6611 176.799 88.189 178.081 86.1748 178.081C84.168 178.081 82.6738 176.799 82.6885 174.946ZM84.0508 174.946C84.0361 176.125 84.9443 176.909 86.1748 176.895C87.4053 176.909 88.3062 176.125 88.3135 174.946C88.3062 173.774 87.4053 173.005 86.1748 172.998C84.9443 173.005 84.0361 173.774 84.0508 174.946ZM84.124 180.542V179.414H92.7959V184.175H91.4043V180.542H84.124ZM105.76 171.064V175.283H107.664V176.44H105.76V180.879H104.368V171.064H105.76ZM95.4619 173.716V172.588H98.6846V171.05H100.076V172.588H103.284V173.716H95.4619ZM96.1797 176.821C96.1724 175.32 97.4688 174.338 99.373 174.346C101.255 174.338 102.552 175.32 102.552 176.821C102.552 178.308 101.255 179.275 99.373 179.282C97.4688 179.275 96.1724 178.308 96.1797 176.821ZM97.4395 183.896V180.103H98.8311V182.769H106.316V183.896H97.4395ZM97.5273 176.821C97.5127 177.678 98.2598 178.206 99.373 178.198C100.486 178.206 101.233 177.678 101.248 176.821C101.233 175.957 100.486 175.422 99.373 175.415C98.2598 175.422 97.5127 175.957 97.5273 176.821ZM124.041 177.949V179.048H112.044V177.949H117.347V176.807H113.611V171.401H122.576V172.5H115.018V173.569H122.239V174.609H115.018V175.723H122.664V176.807H118.738V177.949H124.041ZM113.494 182.036C113.494 180.659 115.127 179.905 118.05 179.912C120.928 179.905 122.569 180.659 122.576 182.036C122.569 183.42 120.928 184.153 118.05 184.146C115.127 184.153 113.494 183.42 113.494 182.036ZM114.886 182.036C114.878 182.747 115.977 183.105 118.05 183.091C120.093 183.105 121.185 182.747 121.185 182.036C121.185 181.326 120.093 180.952 118.05 180.952C115.977 180.952 114.878 181.326 114.886 182.036ZM137.005 177.231V178.359H125.037V177.231H137.005ZM125.667 175.444C128.047 175.188 129.93 174.119 130.083 172.837H126.136V171.694H135.936V172.837H131.944C132.105 174.111 133.958 175.188 136.39 175.444L135.892 176.543C133.614 176.279 131.731 175.32 131.021 173.936C130.296 175.32 128.428 176.279 126.15 176.543L125.667 175.444ZM126.458 181.772C126.458 180.249 128.165 179.37 131.014 179.37C133.841 179.37 135.533 180.249 135.54 181.772C135.533 183.296 133.841 184.153 131.014 184.146C128.165 184.153 126.458 183.296 126.458 181.772ZM127.864 181.772C127.857 182.6 129.007 183.054 131.014 183.047C132.991 183.054 134.148 182.6 134.148 181.772C134.148 180.923 132.991 180.469 131.014 180.454C129.007 180.469 127.857 180.923 127.864 181.772Z" fill="black"/>
<g filter="url(#filter3_d_5013_6080)">
<circle cx="57" cy="177.93" r="13" fill="url(#paint2_linear_5013_6080)"/>
</g>
<path d="M53.9961 182.93L53.9814 181.963L57.5996 178.154C58.8521 176.821 59.4526 176.104 59.46 175.122C59.4526 174.031 58.5444 173.328 57.3506 173.32C56.0835 173.328 55.2925 174.126 55.2852 175.312H54.04C54.0254 173.438 55.4756 172.178 57.3945 172.178C59.3208 172.178 60.6831 173.474 60.6904 175.122C60.6831 176.309 60.1338 177.231 58.2588 179.165L55.8271 181.67V181.758H60.8809V182.93H53.9961Z" fill="white"/>
<circle cx="57" cy="248.93" r="13" fill="url(#paint3_linear_5013_6080)"/>
<path d="M56.6582 254.076C54.5488 254.076 53.0327 252.948 52.9668 251.264H54.2998C54.373 252.274 55.3765 252.904 56.6436 252.904C58.0425 252.904 59.0532 252.15 59.0605 251.044C59.0532 249.887 58.1304 249.074 56.4824 249.066H55.6182V247.909H56.4824C57.7715 247.909 58.6724 247.184 58.665 246.093C58.6724 245.031 57.896 244.328 56.6875 244.32C55.5522 244.328 54.5195 244.95 54.4609 245.99H53.1865C53.2524 244.306 54.8198 243.178 56.7021 243.178C58.7236 243.178 59.9541 244.503 59.9395 246.02C59.9541 247.228 59.251 248.107 58.1377 248.422V248.495C59.522 248.708 60.3569 249.696 60.3496 251.044C60.3569 252.787 58.7749 254.076 56.6582 254.076Z" fill="black"/>
<g filter="url(#filter4_d_5013_6080)">
<path d="M24 93.9297C24 85.6454 30.7157 78.9297 39 78.9297H333C341.284 78.9297 348 85.6454 348 93.9297V119.93C348 128.214 341.284 134.93 333 134.93H39C30.7157 134.93 24 128.214 24 119.93V93.9297Z" fill="url(#paint4_linear_5013_6080)"/>
</g>
<path d="M94.4512 106.949V108.048H82.4541V106.949H87.7568V105.807H84.0215V100.401H92.9863V101.5H85.4277V102.569H92.6494V103.609H85.4277V104.723H93.0742V105.807H89.1484V106.949H94.4512ZM83.9043 111.036C83.9043 109.659 85.5376 108.905 88.46 108.912C91.3384 108.905 92.979 109.659 92.9863 111.036C92.979 112.42 91.3384 113.153 88.46 113.146C85.5376 113.153 83.9043 112.42 83.9043 111.036ZM85.2959 111.036C85.2886 111.747 86.3872 112.105 88.46 112.091C90.5034 112.105 91.5947 111.747 91.5947 111.036C91.5947 110.326 90.5034 109.952 88.46 109.952C86.3872 109.952 85.2886 110.326 85.2959 111.036ZM107.415 106.231V107.359H95.4473V106.231H107.415ZM96.0771 104.444C98.4575 104.188 100.34 103.119 100.494 101.837H96.5459V100.694H106.346V101.837H102.354C102.515 103.111 104.368 104.188 106.8 104.444L106.302 105.543C104.024 105.279 102.142 104.32 101.431 102.936C100.706 104.32 98.8384 105.279 96.5605 105.543L96.0771 104.444ZM96.8682 110.772C96.8682 109.249 98.5747 108.37 101.424 108.37C104.251 108.37 105.943 109.249 105.95 110.772C105.943 112.296 104.251 113.153 101.424 113.146C98.5747 113.153 96.8682 112.296 96.8682 110.772ZM98.2744 110.772C98.2671 111.6 99.417 112.054 101.424 112.047C103.401 112.054 104.559 111.6 104.559 110.772C104.559 109.923 103.401 109.469 101.424 109.454C99.417 109.469 98.2671 109.923 98.2744 110.772ZM114.871 107.74V109.264H116.922V107.74H118.211V113.014H113.567V107.74H114.871ZM112.264 103.639C112.256 101.844 113.699 100.606 115.706 100.606C117.435 100.606 118.775 101.581 119.061 103.053H121.624V100.05H123.016V107.008H121.624V104.195H119.068C118.797 105.697 117.449 106.693 115.706 106.686C113.699 106.693 112.256 105.448 112.264 103.639ZM113.597 103.639C113.589 104.774 114.468 105.55 115.706 105.558C116.922 105.55 117.786 104.774 117.786 103.639C117.786 102.518 116.922 101.756 115.706 101.764C114.468 101.756 113.589 102.518 113.597 103.639ZM114.871 111.93H116.922V110.318H114.871V111.93ZM118.284 112.062C119.866 111.41 120.643 110.033 120.643 108.722V107.652H122.02V108.722C122.012 110.099 122.789 111.49 124.407 112.062L123.689 113.116C122.503 112.662 121.734 111.805 121.316 110.765C120.884 111.776 120.115 112.647 118.987 113.116L118.284 112.062ZM131.014 100.328C133.892 100.321 135.694 101.258 135.701 102.848C135.694 104.408 133.892 105.331 131.014 105.323C128.143 105.331 126.319 104.408 126.326 102.848C126.319 101.258 128.143 100.321 131.014 100.328ZM125.037 107.462V106.334H137.005V107.462H125.037ZM126.473 113.014V108.634H135.54V113.014H126.473ZM127.762 102.848C127.754 103.719 128.992 104.232 131.014 104.239C133.021 104.232 134.273 103.719 134.266 102.848C134.273 101.939 133.021 101.419 131.014 101.427C128.992 101.419 127.754 101.939 127.762 102.848ZM127.85 111.886H134.192V109.747H127.85V111.886Z" fill="white"/>
<circle cx="57" cy="106.93" r="13" fill="url(#paint5_linear_5013_6080)"/>
<path d="M58.7461 101.324V111.93H57.4131V102.701H57.3545L54.7764 104.415V103.082L57.4131 101.324H58.7461Z" fill="black"/>
</g>
<defs>
<filter id="filter0_d_5013_6080" x="0" y="0.929688" width="371" height="372" filterUnits="userSpaceOnUse" color-interpolation-filters="sRGB">
<feFlood flood-opacity="0" result="BackgroundImageFix"/>
<feColorMatrix in="SourceAlpha" type="matrix" values="0 0 0 0 0 0 0 0 0 0 0 0 0 0 0 0 0 0 127 0" result="hardAlpha"/>
<feOffset dy="1"/>
<feGaussianBlur stdDeviation="2"/>
<feComposite in2="hardAlpha" operator="out"/>
<feColorMatrix type="matrix" values="0 0 0 0 0 0 0 0 0 0 0 0 0 0 0 0 0 0 0.35 0"/>
<feBlend mode="normal" in2="BackgroundImageFix" result="effect1_dropShadow_5013_6080"/>
<feBlend mode="normal" in="SourceGraphic" in2="effect1_dropShadow_5013_6080" result="shape"/>
</filter>
<filter id="filter1_d_5013_6080" x="20" y="217.93" width="332" height="64" filterUnits="userSpaceOnUse" color-interpolation-filters="sRGB">
<feFlood flood-opacity="0" result="BackgroundImageFix"/>
<feColorMatrix in="SourceAlpha" type="matrix" values="0 0 0 0 0 0 0 0 0 0 0 0 0 0 0 0 0 0 127 0" result="hardAlpha"/>
<feOffset dy="1"/>
<feGaussianBlur stdDeviation="2"/>
<feComposite in2="hardAlpha" operator="out"/>
<feColorMatrix type="matrix" values="0 0 0 0 0 0 0 0 0 0 0 0 0 0 0 0 0 0 0.35 0"/>
<feBlend mode="normal" in2="BackgroundImageFix" result="effect1_dropShadow_5013_6080"/>
<feBlend mode="normal" in="SourceGraphic" in2="effect1_dropShadow_5013_6080" result="shape"/>
</filter>
<filter id="filter2_d_5013_6080" x="20" y="146.93" width="332" height="64" filterUnits="userSpaceOnUse" color-interpolation-filters="sRGB">
<feFlood flood-opacity="0" result="BackgroundImageFix"/>
<feColorMatrix in="SourceAlpha" type="matrix" values="0 0 0 0 0 0 0 0 0 0 0 0 0 0 0 0 0 0 127 0" result="hardAlpha"/>
<feOffset dy="1"/>
<feGaussianBlur stdDeviation="2"/>
<feComposite in2="hardAlpha" operator="out"/>
<feColorMatrix type="matrix" values="0 0 0 0 0 0 0 0 0 0 0 0 0 0 0 0 0 0 0.35 0"/>
<feBlend mode="normal" in2="BackgroundImageFix" result="effect1_dropShadow_5013_6080"/>
<feBlend mode="normal" in="SourceGraphic" in2="effect1_dropShadow_5013_6080" result="shape"/>
</filter>
<filter id="filter3_d_5013_6080" x="40" y="161.93" width="34" height="34" filterUnits="userSpaceOnUse" color-interpolation-filters="sRGB">
<feFlood flood-opacity="0" result="BackgroundImageFix"/>
<feColorMatrix in="SourceAlpha" type="matrix" values="0 0 0 0 0 0 0 0 0 0 0 0 0 0 0 0 0 0 127 0" result="hardAlpha"/>
<feOffset dy="1"/>
<feGaussianBlur stdDeviation="2"/>
<feComposite in2="hardAlpha" operator="out"/>
<feColorMatrix type="matrix" values="0 0 0 0 0 0 0 0 0 0 0 0 0 0 0 0 0 0 0.25 0"/>
<feBlend mode="normal" in2="BackgroundImageFix" result="effect1_dropShadow_5013_6080"/>
<feBlend mode="normal" in="SourceGraphic" in2="effect1_dropShadow_5013_6080" result="shape"/>
</filter>
<filter id="filter4_d_5013_6080" x="20" y="75.9297" width="332" height="64" filterUnits="userSpaceOnUse" color-interpolation-filters="sRGB">
<feFlood flood-opacity="0" result="BackgroundImageFix"/>
<feColorMatrix in="SourceAlpha" type="matrix" values="0 0 0 0 0 0 0 0 0 0 0 0 0 0 0 0 0 0 127 0" result="hardAlpha"/>
<feOffset dy="1"/>
<feGaussianBlur stdDeviation="2"/>
<feComposite in2="hardAlpha" operator="out"/>
<feColorMatrix type="matrix" values="0 0 0 0 0 0 0 0 0 0 0 0 0 0 0 0 0 0 0.35 0"/>
<feBlend mode="normal" in2="BackgroundImageFix" result="effect1_dropShadow_5013_6080"/>
<feBlend mode="normal" in="SourceGraphic" in2="effect1_dropShadow_5013_6080" result="shape"/>
</filter>
<linearGradient id="paint0_linear_5013_6080" x1="186" y1="220.93" x2="186" y2="276.93" gradientUnits="userSpaceOnUse">
<stop stop-color="#0A0A0A"/>
<stop offset="1" stop-color="#0C0C0C"/>
</linearGradient>
<linearGradient id="paint1_linear_5013_6080" x1="186" y1="149.93" x2="186" y2="205.93" gradientUnits="userSpaceOnUse">
<stop stop-color="#D8FF0E"/>
<stop offset="1" stop-color="#E0FD48"/>
</linearGradient>
<linearGradient id="paint2_linear_5013_6080" x1="57" y1="164.93" x2="57" y2="190.93" gradientUnits="userSpaceOnUse">
<stop stop-color="#0A0A0A"/>
<stop offset="1" stop-color="#0C0C0C"/>
</linearGradient>
<linearGradient id="paint3_linear_5013_6080" x1="57" y1="235.93" x2="57" y2="261.93" gradientUnits="userSpaceOnUse">
<stop stop-color="#D8FF0E"/>
<stop offset="1" stop-color="#E0FD48"/>
</linearGradient>
<linearGradient id="paint4_linear_5013_6080" x1="186" y1="78.9297" x2="186" y2="134.93" gradientUnits="userSpaceOnUse">
<stop stop-color="#0A0A0A"/>
<stop offset="1" stop-color="#0C0C0C"/>
</linearGradient>
<linearGradient id="paint5_linear_5013_6080" x1="57" y1="93.9297" x2="57" y2="119.93" gradientUnits="userSpaceOnUse">
<stop stop-color="#D8FF0E"/>
<stop offset="1" stop-color="#E0FD48"/>
</linearGradient>
</defs>
</svg>
