<svg width="687" height="458" viewBox="0 0 687 458" fill="none" xmlns="http://www.w3.org/2000/svg">
<g filter="url(#filter0_d_5907_13)">
<path d="M9.25391 37.9683C9.25391 20.852 23.1294 6.97656 40.2456 6.97656H647.684C664.8 6.97656 678.675 20.852 678.675 37.9683V180.53C678.675 197.647 664.8 211.522 647.684 211.522H40.2456C23.1294 211.522 9.25391 197.647 9.25391 180.53V37.9683Z" fill="url(#paint0_linear_5907_13)"/>
</g>
<path d="M312.973 98.8371V101.228C312.973 103.801 312.973 106.6 312.216 110.459H316.121V112.82H305.134V124.29H302.229V112.82H291.394V110.459H309.311C310.113 106.585 310.113 103.755 310.128 101.228V101.198H294.42V98.8371H312.973ZM324.171 112.608V115.998H336.973V112.608H339.788V123.927H321.326V112.608H324.171ZM318.179 110.399V108.068H336.323C336.973 104.966 337.004 102.666 337.004 100.683H321.296V98.3226H339.849V100.381C339.864 102.439 339.864 104.784 339.153 108.068H342.996V110.399H318.179ZM324.171 121.566H336.973V118.237H324.171V121.566ZM367.451 97.1726V117.027H364.575V97.1726H367.451ZM345.115 110.913C349.367 109.339 351.879 105.435 351.894 101.349V98.6556H354.83V101.349C354.815 105.314 357.327 108.946 361.519 110.399L360.036 112.699C356.903 111.533 354.588 109.233 353.377 106.298C352.182 109.445 349.836 111.957 346.658 113.183L345.115 110.913ZM349.715 123.685V115.15H352.621V121.355H368.268V123.685H349.715ZM393.691 99.7451V102.408C393.676 105.753 393.676 109.506 392.662 115.059L389.756 114.757C390.8 109.506 390.8 105.662 390.816 102.408V102.076H374.351V99.7451H393.691ZM371.748 120.598V118.207H381.161V108.643H384.006V118.207H396.475V120.598H371.748Z" fill="white"/>
<g filter="url(#filter1_d_5907_13)">
<path d="M9.25391 273.5C9.25391 256.383 23.1294 242.508 40.2456 242.508H647.684C664.8 242.508 678.675 256.383 678.675 273.5V416.062C678.675 433.178 664.8 447.053 647.684 447.053H40.2456C23.1294 447.053 9.25391 433.178 9.25391 416.062V273.5Z" fill="#0A0A0A"/>
</g>
<path d="M312.973 334.368V336.759C312.973 339.332 312.973 342.131 312.216 345.99H316.121V348.351H305.134V359.822H302.229V348.351H291.394V345.99H309.311C310.113 342.116 310.113 339.287 310.128 336.759V336.729H294.42V334.368H312.973ZM342.996 354.041V356.402H318.179V354.041H329.135V347.625H332.01V354.041H342.996ZM319.329 346.384C324.368 345.536 329.044 341.768 329.044 337.607V337.365H320.237V335.004H340.847V337.365H332.04V337.607C332.04 341.768 336.746 345.461 341.907 346.263L340.757 348.533C336.368 347.715 332.328 345.173 330.557 341.602C328.817 345.219 324.807 347.806 320.509 348.654L319.329 346.384ZM367.451 332.704V352.558H364.575V332.704H367.451ZM345.115 346.444C349.367 344.87 351.879 340.966 351.894 336.88V334.187H354.83V336.88C354.815 340.845 357.327 344.477 361.519 345.93L360.036 348.23C356.903 347.065 354.588 344.765 353.377 341.829C352.182 344.976 349.836 347.488 346.658 348.714L345.115 346.444ZM349.715 359.216V350.681H352.621V356.886H368.268V359.216H349.715ZM393.691 335.276V337.94C393.676 341.284 393.676 345.037 392.662 350.591L389.756 350.288C390.8 345.037 390.8 341.193 390.816 337.94V337.607H374.351V335.276H393.691ZM371.748 356.129V353.738H381.161V344.174H384.006V353.738H396.475V356.129H371.748Z" fill="white"/>
<defs>
<filter id="filter0_d_5907_13" x="0.989444" y="0.778216" width="685.951" height="221.076" filterUnits="userSpaceOnUse" color-interpolation-filters="sRGB">
<feFlood flood-opacity="0" result="BackgroundImageFix"/>
<feColorMatrix in="SourceAlpha" type="matrix" values="0 0 0 0 0 0 0 0 0 0 0 0 0 0 0 0 0 0 127 0" result="hardAlpha"/>
<feOffset dy="2.06612"/>
<feGaussianBlur stdDeviation="4.13223"/>
<feComposite in2="hardAlpha" operator="out"/>
<feColorMatrix type="matrix" values="0 0 0 0 0 0 0 0 0 0 0 0 0 0 0 0 0 0 0.35 0"/>
<feBlend mode="normal" in2="BackgroundImageFix" result="effect1_dropShadow_5907_13"/>
<feBlend mode="normal" in="SourceGraphic" in2="effect1_dropShadow_5907_13" result="shape"/>
</filter>
<filter id="filter1_d_5907_13" x="0.989444" y="236.309" width="685.951" height="221.076" filterUnits="userSpaceOnUse" color-interpolation-filters="sRGB">
<feFlood flood-opacity="0" result="BackgroundImageFix"/>
<feColorMatrix in="SourceAlpha" type="matrix" values="0 0 0 0 0 0 0 0 0 0 0 0 0 0 0 0 0 0 127 0" result="hardAlpha"/>
<feOffset dy="2.06612"/>
<feGaussianBlur stdDeviation="4.13223"/>
<feComposite in2="hardAlpha" operator="out"/>
<feColorMatrix type="matrix" values="0 0 0 0 0 0 0 0 0 0 0 0 0 0 0 0 0 0 0.35 0"/>
<feBlend mode="normal" in2="BackgroundImageFix" result="effect1_dropShadow_5907_13"/>
<feBlend mode="normal" in="SourceGraphic" in2="effect1_dropShadow_5907_13" result="shape"/>
</filter>
<linearGradient id="paint0_linear_5907_13" x1="343.965" y1="6.97656" x2="343.965" y2="211.522" gradientUnits="userSpaceOnUse">
<stop stop-color="#0177FF"/>
<stop offset="1" stop-color="#1A84FF"/>
</linearGradient>
</defs>
</svg>
