<svg width="537" height="527" viewBox="0 0 537 527" fill="none" xmlns="http://www.w3.org/2000/svg">
<g filter="url(#filter0_d_5013_6201)">
<path d="M6.14844 26.6188C6.14844 14.6402 15.859 4.92969 27.8375 4.92969H509.334C521.313 4.92969 531.023 14.6402 531.023 26.6187V497.994C531.023 509.973 521.313 519.683 509.334 519.683H27.8375C15.859 519.683 6.14844 509.973 6.14844 497.994V26.6188Z" fill="#101010"/>
</g>
<g filter="url(#filter1_d_5013_6201)">
<path d="M35.0703 89.6187C35.0703 77.6402 44.7808 67.9297 56.7594 67.9297H481.865C493.843 67.9297 503.554 77.6402 503.554 89.6187V127.213C503.554 139.192 493.843 148.902 481.865 148.902H56.7594C44.7808 148.902 35.0703 139.192 35.0703 127.213V89.6187Z" fill="white"/>
</g>
<path d="M79.6024 100.674V104.635H82.3559V106.308H79.6024V110.269H77.5902V100.674H79.6024ZM64.9877 105.567C64.9665 103.057 67.0952 101.341 69.9651 101.331C72.8457 101.341 74.9426 103.057 74.9426 105.567C74.9426 108.055 72.8457 109.803 69.9651 109.803C67.0952 109.803 64.9665 108.055 64.9877 105.567ZM66.9363 105.567C66.9257 107.113 68.2177 108.193 69.9651 108.193C71.7126 108.193 72.994 107.113 72.994 105.567C72.994 104.021 71.7126 102.972 69.9651 102.983C68.2177 102.972 66.9257 104.021 66.9363 105.567ZM67.3387 112.705V111.137H79.6024V115.945H69.3509V117.809H80.259V119.419H67.3811V114.441H77.6114V112.705H67.3387ZM90.7858 102.707V109.464H85.9778V113.361C88.0429 113.351 90.0127 113.266 92.3532 112.853L92.5226 114.505C89.8856 114.982 87.7252 115.035 85.3423 115.056H84.0291V107.854H88.8583V104.338H84.008V102.707H90.7858ZM91.6754 109.019V107.388H93.9205V101.098H95.8268V118.678H93.9205V109.019H91.6754ZM97.7966 119.652V100.674H99.7241V119.652H97.7966ZM119.549 115.67V117.322H102.181V115.67H119.549ZM104.257 103.703V102.072H117.431V108.003H106.29V110.777H117.876V112.387H104.299V106.372H115.44V103.703H104.257ZM136.706 100.674V119.652H134.672V100.674H136.706ZM121.117 114.569C126.158 112.165 128.625 108.744 129.017 104.317H122.027V102.707H131.05C131.05 108.267 128.689 113.075 122.176 116.199L121.117 114.569Z" fill="black"/>
<g filter="url(#filter2_d_5013_6201)">
<path d="M35.0703 192.275C35.0703 180.296 44.7808 170.586 56.7594 170.586H481.865C493.843 170.586 503.554 180.296 503.554 192.275V229.869C503.554 241.848 493.843 251.558 481.865 251.558H56.7594C44.7808 251.558 35.0703 241.848 35.0703 229.869V192.275Z" fill="url(#paint0_linear_5013_6201)"/>
</g>
<path d="M81.9958 213.01V214.641H64.6912V213.01H72.3374V210.955H66.9575V203.775H68.9485V205.83H77.7385V203.775H79.7506V210.955H74.3284V213.01H81.9958ZM66.6186 217.945V216.335H79.8777V222.308H77.8444V217.945H66.6186ZM68.9485 209.346H77.7385V207.333H68.9485V209.346ZM100.741 212.586V214.217H83.4361V212.586H87.5875V210.034C86.1154 209.441 85.2894 208.488 85.3 207.228C85.2894 204.972 87.9052 203.659 92.0778 203.669C96.2398 203.659 98.8451 204.972 98.8556 207.228C98.8451 208.488 98.019 209.441 96.5469 210.045V212.586H100.741ZM85.4906 218.877C85.4906 216.706 87.9476 215.509 92.0778 215.509C96.1551 215.509 98.6121 216.706 98.6227 218.877C98.6121 221.069 96.1551 222.266 92.0778 222.266C87.9476 222.266 85.4906 221.069 85.4906 218.877ZM87.3757 207.228C87.3651 208.498 89.1231 209.208 92.0778 209.218C95.0113 209.208 96.7905 208.498 96.7799 207.228C96.7905 205.957 95.0113 205.226 92.0778 205.215C89.1231 205.226 87.3651 205.957 87.3757 207.228ZM87.524 218.877C87.5134 220.063 89.1761 220.741 92.0778 220.72C94.9372 220.741 96.6105 220.063 96.6105 218.877C96.6105 217.712 94.9372 217.055 92.0778 217.055C89.1761 217.055 87.5134 217.712 87.524 218.877ZM89.6209 212.586H94.556V210.563C93.8146 210.68 92.978 210.744 92.0778 210.744C91.1882 210.744 90.3622 210.68 89.6209 210.574V212.586ZM119.782 206.105V207.757H117.092V210.172H119.782V211.866H117.092V214.577H115.08V203.33H117.092V206.105H119.782ZM102.478 208.964C102.456 206.306 104.617 204.432 107.519 204.432C110.431 204.432 112.56 206.306 112.581 208.964C112.56 211.644 110.431 213.497 107.519 213.497C104.617 213.497 102.456 211.644 102.478 208.964ZM104.447 208.964C104.426 210.669 105.739 211.803 107.519 211.781C109.298 211.803 110.6 210.669 110.611 208.964C110.6 207.27 109.298 206.158 107.519 206.147C105.739 206.158 104.426 207.27 104.447 208.964ZM104.553 217.055V215.424H117.092V222.308H115.08V217.055H104.553Z" fill="#F4F4F4"/>
<g filter="url(#filter3_d_5013_6201)">
<path d="M35.0703 294.947C35.0703 282.968 44.7808 273.258 56.7594 273.258H481.865C493.843 273.258 503.554 282.968 503.554 294.947V332.541C503.554 344.52 493.843 354.23 481.865 354.23H56.7594C44.7808 354.23 35.0703 344.52 35.0703 332.541V294.947Z" fill="white"/>
</g>
<path d="M80.4284 306.015V316.818H78.4163V306.015H80.4284ZM65.0724 311.459C65.083 308.78 67.2222 306.958 70.1346 306.969C73.0364 306.958 75.1756 308.78 75.1756 311.459C75.1756 314.064 73.0364 315.907 70.1346 315.907C67.2222 315.907 65.083 314.064 65.0724 311.459ZM67.0422 311.459C67.0316 313.09 68.3342 314.212 70.1346 314.212C71.9138 314.212 73.2058 313.09 73.2058 311.459C73.2058 309.775 71.9138 308.652 70.1346 308.663C68.3342 308.652 67.0316 309.775 67.0422 311.459ZM67.953 324.739V317.771H80.4284V324.739H67.953ZM69.944 323.108H78.4586V319.381H69.944V323.108ZM99.1734 306.015V319.91H97.1612V306.015H99.1734ZM83.542 315.632C86.5179 314.53 88.2759 311.798 88.2865 308.938V307.053H90.341V308.938C90.3304 311.713 92.0884 314.255 95.0219 315.271L93.9841 316.881C91.7919 316.066 90.1716 314.456 89.3243 312.401C88.4877 314.604 86.8462 316.362 84.6222 317.22L83.542 315.632ZM86.7615 324.57V318.597H88.7948V322.939H99.7452V324.57H86.7615ZM107.328 307.413C109.065 307.424 110.484 308.409 111.32 310.125H116.012V305.994H118.003V325.015H116.012V317.728H111.458C110.643 319.635 109.16 320.747 107.328 320.736C104.5 320.747 102.499 318.163 102.52 314.064C102.499 310.008 104.5 307.424 107.328 307.413ZM104.426 314.064C104.437 317.082 105.612 318.936 107.328 318.936C109.044 318.936 110.219 317.082 110.23 314.064C110.219 311.088 109.044 309.224 107.328 309.214C105.612 309.224 104.437 311.088 104.426 314.064ZM111.892 311.777C112.041 312.476 112.136 313.238 112.136 314.064C112.136 314.784 112.072 315.452 111.945 316.076H116.012V311.777H111.892ZM138.273 317.157V318.745H130.521V324.972H128.551V318.745H120.905V317.157H138.273ZM123.065 314.996V306.757H125.056V309.235H134.079V306.757H136.091V314.996H123.065ZM125.056 313.386H134.079V310.845H125.056V313.386Z" fill="black"/>
<g filter="url(#filter4_d_5013_6201)">
<path d="M35.0703 397.603C35.0703 385.625 44.7808 375.914 56.7594 375.914H481.865C493.843 375.914 503.554 385.625 503.554 397.603V435.197C503.554 447.176 493.843 456.887 481.865 456.887H56.7594C44.7808 456.887 35.0703 447.176 35.0703 435.197V397.603Z" fill="white"/>
</g>
<path d="M80.4072 408.658V418.465H78.4163V408.658H80.4072ZM64.903 416.961C67.8471 416.05 69.6792 413.763 69.6898 411.306H65.4325V409.675H75.8957V411.306H71.7231C71.7231 413.625 73.5341 415.765 76.4888 416.601L75.5145 418.147C73.2693 417.48 71.5961 416.05 70.7382 414.229C69.9016 416.241 68.1648 417.819 65.8349 418.55L64.903 416.961ZM67.953 420.88V419.333H80.4284V424.036H69.9651V425.878H81.0638V427.446H68.0165V422.574H78.4374V420.88H67.953ZM98.3685 408.658V415.161H101.08V416.834H98.3685V423.485H96.3563V408.658H98.3685ZM83.309 419.799C84.7705 419.799 86.4755 419.799 88.2653 419.736V418.412C86.1049 418.158 84.7281 417.12 84.7493 415.563C84.7281 413.721 86.5391 412.619 89.2608 412.64C91.9825 412.619 93.7617 413.721 93.7723 415.563C93.7617 417.12 92.4167 418.158 90.2775 418.402V419.641C91.9719 419.545 93.6875 419.386 95.2761 419.143L95.4455 420.562C91.4 421.324 86.8356 421.377 83.5208 421.409L83.309 419.799ZM83.7962 411.899V410.416H88.2653V408.595H90.2775V410.416H94.7466V411.899H83.7962ZM86.1049 427.234V422.489H88.117V425.603H99.0463V427.234H86.1049ZM86.6556 415.563C86.6556 416.485 87.6405 417.067 89.2608 417.067C90.8599 417.067 91.8554 416.485 91.8448 415.563C91.8554 414.578 90.8599 414.007 89.2608 414.017C87.6405 414.007 86.6556 414.578 86.6556 415.563Z" fill="black"/>
<path d="M414.611 200.687V203.088H400.349V200.687H406.054V198.428H409.188V200.687H414.611ZM401.676 208.312C401.662 205.672 404.091 203.963 407.579 203.963C411.123 203.963 413.552 205.672 413.566 208.312C413.552 210.924 411.123 212.619 407.579 212.633C404.091 212.619 401.662 210.924 401.676 208.312ZM404.613 208.312C404.599 209.611 405.828 210.402 407.579 210.402C409.344 210.402 410.586 209.611 410.6 208.312C410.586 207.013 409.344 206.236 407.579 206.251C405.828 206.236 404.599 207.013 404.613 208.312ZM404.839 216.163V213.876H421.671V219.919H408.002V221.67H422.349V224.014H404.868V217.773H418.536V216.163H404.839ZM414.752 210.91V208.482H418.536V206.335H414.78V203.907H418.536V198.71H421.671V212.802H418.536V210.91H414.752ZM432.459 199.925C436.384 199.939 439.265 202.396 439.293 205.912C439.265 209.484 436.384 211.941 432.459 211.927C428.519 211.941 425.596 209.484 425.625 205.912C425.596 202.396 428.519 199.939 432.459 199.925ZM428.675 205.912C428.675 207.987 430.256 209.286 432.459 209.301C434.634 209.286 436.215 207.987 436.215 205.912C436.215 203.85 434.634 202.523 432.459 202.551C430.256 202.523 428.675 203.85 428.675 205.912ZM428.872 223.929V213.678H432.007V216.333H442.287V213.678H445.422V223.929H428.872ZM432.007 221.388H442.287V218.761H432.007V221.388ZM442.287 212.548V198.71H445.422V204.245H448.98V206.844H445.422V212.548H442.287ZM473.888 202.269V204.81H470.415V207.747H473.888V210.374H470.415V213.791H467.28V198.71H470.415V202.269H473.888ZM450.561 206.307C450.547 202.72 453.513 200.15 457.452 200.179C461.378 200.15 464.315 202.72 464.343 206.307C464.315 209.95 461.378 212.478 457.452 212.492C453.513 212.478 450.547 209.95 450.561 206.307ZM453.414 217.434V214.892H470.415V224.24H467.28V217.434H453.414ZM453.64 206.307C453.626 208.482 455.249 209.823 457.452 209.809C459.627 209.823 461.251 208.482 461.265 206.307C461.251 204.175 459.627 202.847 457.452 202.833C455.249 202.847 453.626 204.175 453.64 206.307Z" fill="#F4F4F4"/>
<g filter="url(#filter5_d_5013_6201)">
<circle cx="458.011" cy="107.691" r="14.4594" stroke="url(#paint1_linear_5013_6201)" stroke-width="4.33781"/>
<path d="M458.009 96.8516C455.864 96.8516 453.767 97.4876 451.984 98.6792C450.2 99.8708 448.81 101.564 447.99 103.546C447.169 105.528 446.954 107.708 447.372 109.812C447.791 111.915 448.824 113.848 450.34 115.364C451.857 116.881 453.789 117.914 455.893 118.332C457.997 118.751 460.177 118.536 462.159 117.715C464.14 116.894 465.834 115.504 467.025 113.721C468.217 111.938 468.853 109.841 468.853 107.696C468.85 104.821 467.707 102.064 465.673 100.031C463.64 97.9981 460.884 96.8546 458.009 96.8516ZM461.936 110.443C462.013 110.52 462.075 110.612 462.116 110.713C462.158 110.815 462.18 110.923 462.18 111.033C462.18 111.142 462.158 111.251 462.116 111.352C462.075 111.454 462.013 111.546 461.936 111.623C461.858 111.701 461.766 111.762 461.665 111.804C461.564 111.846 461.455 111.868 461.345 111.868C461.236 111.868 461.127 111.846 461.026 111.804C460.925 111.762 460.833 111.701 460.755 111.623L458.009 108.875L455.262 111.623C455.185 111.701 455.092 111.762 454.991 111.804C454.89 111.846 454.781 111.868 454.672 111.868C454.562 111.868 454.454 111.846 454.352 111.804C454.251 111.762 454.159 111.701 454.082 111.623C454.004 111.546 453.943 111.454 453.901 111.352C453.859 111.251 453.837 111.142 453.837 111.033C453.837 110.923 453.859 110.815 453.901 110.713C453.943 110.612 454.004 110.52 454.082 110.443L456.829 107.696L454.082 104.95C453.925 104.793 453.837 104.581 453.837 104.359C453.837 104.138 453.925 103.926 454.082 103.769C454.238 103.613 454.45 103.525 454.672 103.525C454.893 103.525 455.105 103.613 455.262 103.769L458.009 106.517L460.755 103.769C460.833 103.692 460.925 103.63 461.026 103.588C461.127 103.546 461.236 103.525 461.345 103.525C461.455 103.525 461.564 103.546 461.665 103.588C461.766 103.63 461.858 103.692 461.936 103.769C462.013 103.847 462.075 103.939 462.116 104.04C462.158 104.141 462.18 104.25 462.18 104.359C462.18 104.469 462.158 104.577 462.116 104.679C462.075 104.78 462.013 104.872 461.936 104.95L459.188 107.696L461.936 110.443Z" fill="url(#paint2_linear_5013_6201)"/>
</g>
<circle cx="458.011" cy="314.464" r="14.4594" stroke="url(#paint3_linear_5013_6201)" stroke-width="4.33781"/>
<path d="M458.009 303.617C455.864 303.617 453.767 304.253 451.984 305.445C450.2 306.636 448.81 308.33 447.99 310.312C447.169 312.293 446.954 314.474 447.372 316.577C447.791 318.681 448.824 320.613 450.34 322.13C451.857 323.647 453.789 324.679 455.893 325.098C457.997 325.516 460.177 325.302 462.159 324.481C464.14 323.66 465.834 322.27 467.025 320.487C468.217 318.703 468.853 316.607 468.853 314.462C468.85 311.586 467.707 308.83 465.673 306.797C463.64 304.764 460.884 303.62 458.009 303.617ZM461.936 317.208C462.013 317.286 462.075 317.378 462.116 317.479C462.158 317.58 462.18 317.689 462.18 317.798C462.18 317.908 462.158 318.017 462.116 318.118C462.075 318.219 462.013 318.311 461.936 318.389C461.858 318.466 461.766 318.528 461.665 318.57C461.564 318.612 461.455 318.633 461.345 318.633C461.236 318.633 461.127 318.612 461.026 318.57C460.925 318.528 460.833 318.466 460.755 318.389L458.009 315.641L455.262 318.389C455.185 318.466 455.092 318.528 454.991 318.57C454.89 318.612 454.781 318.633 454.672 318.633C454.562 318.633 454.454 318.612 454.352 318.57C454.251 318.528 454.159 318.466 454.082 318.389C454.004 318.311 453.943 318.219 453.901 318.118C453.859 318.017 453.837 317.908 453.837 317.798C453.837 317.689 453.859 317.58 453.901 317.479C453.943 317.378 454.004 317.286 454.082 317.208L456.829 314.462L454.082 311.715C453.925 311.559 453.837 311.346 453.837 311.125C453.837 310.904 453.925 310.691 454.082 310.535C454.238 310.378 454.45 310.29 454.672 310.29C454.893 310.29 455.105 310.378 455.262 310.535L458.009 313.282L460.755 310.535C460.833 310.457 460.925 310.396 461.026 310.354C461.127 310.312 461.236 310.29 461.345 310.29C461.455 310.29 461.564 310.312 461.665 310.354C461.766 310.396 461.858 310.457 461.936 310.535C462.013 310.612 462.075 310.704 462.116 310.806C462.158 310.907 462.18 311.015 462.18 311.125C462.18 311.235 462.158 311.343 462.116 311.444C462.075 311.546 462.013 311.638 461.936 311.715L459.188 314.462L461.936 317.208Z" fill="url(#paint4_linear_5013_6201)"/>
<circle cx="458.011" cy="417.12" r="14.4594" stroke="url(#paint5_linear_5013_6201)" stroke-width="4.33781"/>
<path d="M458.009 406.273C455.864 406.273 453.767 406.909 451.984 408.101C450.2 409.293 448.81 410.986 447.99 412.968C447.169 414.95 446.954 417.13 447.372 419.234C447.791 421.337 448.824 423.27 450.34 424.786C451.857 426.303 453.789 427.336 455.893 427.754C457.997 428.173 460.177 427.958 462.159 427.137C464.14 426.316 465.834 424.926 467.025 423.143C468.217 421.359 468.853 419.263 468.853 417.118C468.85 414.243 467.707 411.486 465.673 409.453C463.64 407.42 460.884 406.276 458.009 406.273ZM461.936 419.865C462.013 419.942 462.075 420.034 462.116 420.135C462.158 420.237 462.18 420.345 462.18 420.455C462.18 420.564 462.158 420.673 462.116 420.774C462.075 420.875 462.013 420.967 461.936 421.045C461.858 421.122 461.766 421.184 461.665 421.226C461.564 421.268 461.455 421.289 461.345 421.289C461.236 421.289 461.127 421.268 461.026 421.226C460.925 421.184 460.833 421.122 460.755 421.045L458.009 418.297L455.262 421.045C455.185 421.122 455.092 421.184 454.991 421.226C454.89 421.268 454.781 421.289 454.672 421.289C454.562 421.289 454.454 421.268 454.352 421.226C454.251 421.184 454.159 421.122 454.082 421.045C454.004 420.967 453.943 420.875 453.901 420.774C453.859 420.673 453.837 420.564 453.837 420.455C453.837 420.345 453.859 420.237 453.901 420.135C453.943 420.034 454.004 419.942 454.082 419.865L456.829 417.118L454.082 414.371C453.925 414.215 453.837 414.003 453.837 413.781C453.837 413.56 453.925 413.348 454.082 413.191C454.238 413.034 454.45 412.947 454.672 412.947C454.893 412.947 455.105 413.034 455.262 413.191L458.009 415.939L460.755 413.191C460.833 413.113 460.925 413.052 461.026 413.01C461.127 412.968 461.236 412.947 461.345 412.947C461.455 412.947 461.564 412.968 461.665 413.01C461.766 413.052 461.858 413.113 461.936 413.191C462.013 413.268 462.075 413.361 462.116 413.462C462.158 413.563 462.18 413.672 462.18 413.781C462.18 413.891 462.158 413.999 462.116 414.101C462.075 414.202 462.013 414.294 461.936 414.371L459.188 417.118L461.936 419.865Z" fill="url(#paint6_linear_5013_6201)"/>
<defs>
<filter id="filter0_d_5013_6201" x="0.364691" y="0.591877" width="536.442" height="526.317" filterUnits="userSpaceOnUse" color-interpolation-filters="sRGB">
<feFlood flood-opacity="0" result="BackgroundImageFix"/>
<feColorMatrix in="SourceAlpha" type="matrix" values="0 0 0 0 0 0 0 0 0 0 0 0 0 0 0 0 0 0 127 0" result="hardAlpha"/>
<feOffset dy="1.44594"/>
<feGaussianBlur stdDeviation="2.89187"/>
<feComposite in2="hardAlpha" operator="out"/>
<feColorMatrix type="matrix" values="0 0 0 0 0 0 0 0 0 0 0 0 0 0 0 0 0 0 0.35 0"/>
<feBlend mode="normal" in2="BackgroundImageFix" result="effect1_dropShadow_5013_6201"/>
<feBlend mode="normal" in="SourceGraphic" in2="effect1_dropShadow_5013_6201" result="shape"/>
</filter>
<filter id="filter1_d_5013_6201" x="29.2866" y="63.5919" width="480.052" height="92.5362" filterUnits="userSpaceOnUse" color-interpolation-filters="sRGB">
<feFlood flood-opacity="0" result="BackgroundImageFix"/>
<feColorMatrix in="SourceAlpha" type="matrix" values="0 0 0 0 0 0 0 0 0 0 0 0 0 0 0 0 0 0 127 0" result="hardAlpha"/>
<feOffset dy="1.44594"/>
<feGaussianBlur stdDeviation="2.89187"/>
<feComposite in2="hardAlpha" operator="out"/>
<feColorMatrix type="matrix" values="0 0 0 0 0 0 0 0 0 0 0 0 0 0 0 0 0 0 0.35 0"/>
<feBlend mode="normal" in2="BackgroundImageFix" result="effect1_dropShadow_5013_6201"/>
<feBlend mode="normal" in="SourceGraphic" in2="effect1_dropShadow_5013_6201" result="shape"/>
</filter>
<filter id="filter2_d_5013_6201" x="29.2866" y="166.248" width="480.052" height="92.5362" filterUnits="userSpaceOnUse" color-interpolation-filters="sRGB">
<feFlood flood-opacity="0" result="BackgroundImageFix"/>
<feColorMatrix in="SourceAlpha" type="matrix" values="0 0 0 0 0 0 0 0 0 0 0 0 0 0 0 0 0 0 127 0" result="hardAlpha"/>
<feOffset dy="1.44594"/>
<feGaussianBlur stdDeviation="2.89187"/>
<feComposite in2="hardAlpha" operator="out"/>
<feColorMatrix type="matrix" values="0 0 0 0 0 0 0 0 0 0 0 0 0 0 0 0 0 0 0.35 0"/>
<feBlend mode="normal" in2="BackgroundImageFix" result="effect1_dropShadow_5013_6201"/>
<feBlend mode="normal" in="SourceGraphic" in2="effect1_dropShadow_5013_6201" result="shape"/>
</filter>
<filter id="filter3_d_5013_6201" x="29.2866" y="268.92" width="480.052" height="92.5362" filterUnits="userSpaceOnUse" color-interpolation-filters="sRGB">
<feFlood flood-opacity="0" result="BackgroundImageFix"/>
<feColorMatrix in="SourceAlpha" type="matrix" values="0 0 0 0 0 0 0 0 0 0 0 0 0 0 0 0 0 0 127 0" result="hardAlpha"/>
<feOffset dy="1.44594"/>
<feGaussianBlur stdDeviation="2.89187"/>
<feComposite in2="hardAlpha" operator="out"/>
<feColorMatrix type="matrix" values="0 0 0 0 0 0 0 0 0 0 0 0 0 0 0 0 0 0 0.35 0"/>
<feBlend mode="normal" in2="BackgroundImageFix" result="effect1_dropShadow_5013_6201"/>
<feBlend mode="normal" in="SourceGraphic" in2="effect1_dropShadow_5013_6201" result="shape"/>
</filter>
<filter id="filter4_d_5013_6201" x="29.2866" y="371.576" width="480.052" height="92.5362" filterUnits="userSpaceOnUse" color-interpolation-filters="sRGB">
<feFlood flood-opacity="0" result="BackgroundImageFix"/>
<feColorMatrix in="SourceAlpha" type="matrix" values="0 0 0 0 0 0 0 0 0 0 0 0 0 0 0 0 0 0 127 0" result="hardAlpha"/>
<feOffset dy="1.44594"/>
<feGaussianBlur stdDeviation="2.89187"/>
<feComposite in2="hardAlpha" operator="out"/>
<feColorMatrix type="matrix" values="0 0 0 0 0 0 0 0 0 0 0 0 0 0 0 0 0 0 0.35 0"/>
<feBlend mode="normal" in2="BackgroundImageFix" result="effect1_dropShadow_5013_6201"/>
<feBlend mode="normal" in="SourceGraphic" in2="effect1_dropShadow_5013_6201" result="shape"/>
</filter>
<filter id="filter5_d_5013_6201" x="435.599" y="86.7247" width="44.8253" height="44.8253" filterUnits="userSpaceOnUse" color-interpolation-filters="sRGB">
<feFlood flood-opacity="0" result="BackgroundImageFix"/>
<feColorMatrix in="SourceAlpha" type="matrix" values="0 0 0 0 0 0 0 0 0 0 0 0 0 0 0 0 0 0 127 0" result="hardAlpha"/>
<feOffset dy="1.44594"/>
<feGaussianBlur stdDeviation="2.89187"/>
<feComposite in2="hardAlpha" operator="out"/>
<feColorMatrix type="matrix" values="0 0 0 0 0 0 0 0 0 0 0 0 0 0 0 0 0 0 0.35 0"/>
<feBlend mode="normal" in2="BackgroundImageFix" result="effect1_dropShadow_5013_6201"/>
<feBlend mode="normal" in="SourceGraphic" in2="effect1_dropShadow_5013_6201" result="shape"/>
</filter>
<linearGradient id="paint0_linear_5013_6201" x1="269.312" y1="170.586" x2="269.312" y2="251.558" gradientUnits="userSpaceOnUse">
<stop stop-color="#FF3E3E"/>
<stop offset="1" stop-color="#FF4B4B"/>
</linearGradient>
<linearGradient id="paint1_linear_5013_6201" x1="458.011" y1="91.0625" x2="458.011" y2="124.319" gradientUnits="userSpaceOnUse">
<stop stop-color="#FF3E3E"/>
<stop offset="1" stop-color="#FF4B4B"/>
</linearGradient>
<linearGradient id="paint2_linear_5013_6201" x1="458.009" y1="96.8516" x2="458.009" y2="118.541" gradientUnits="userSpaceOnUse">
<stop stop-color="#FF3E3E"/>
<stop offset="1" stop-color="#FF4B4B"/>
</linearGradient>
<linearGradient id="paint3_linear_5013_6201" x1="458.011" y1="297.836" x2="458.011" y2="331.092" gradientUnits="userSpaceOnUse">
<stop stop-color="#FF3E3E"/>
<stop offset="1" stop-color="#FF4B4B"/>
</linearGradient>
<linearGradient id="paint4_linear_5013_6201" x1="458.009" y1="303.617" x2="458.009" y2="325.306" gradientUnits="userSpaceOnUse">
<stop stop-color="#FF3E3E"/>
<stop offset="1" stop-color="#FF4B4B"/>
</linearGradient>
<linearGradient id="paint5_linear_5013_6201" x1="458.011" y1="400.492" x2="458.011" y2="433.749" gradientUnits="userSpaceOnUse">
<stop stop-color="#FF3E3E"/>
<stop offset="1" stop-color="#FF4B4B"/>
</linearGradient>
<linearGradient id="paint6_linear_5013_6201" x1="458.009" y1="406.273" x2="458.009" y2="427.962" gradientUnits="userSpaceOnUse">
<stop stop-color="#FF3E3E"/>
<stop offset="1" stop-color="#FF4B4B"/>
</linearGradient>
</defs>
</svg>
