<svg width="614" height="686" viewBox="0 0 614 686" fill="none" xmlns="http://www.w3.org/2000/svg">
<path d="M110.272 2.42969H506.481C528.447 2.42969 546.253 20.2361 546.253 42.2015V592.492C546.253 614.458 528.447 632.264 506.481 632.264H110.272C88.3065 632.264 70.5 614.458 70.5 592.492V42.2015C70.5 20.2361 88.3064 2.42969 110.272 2.42969Z" fill="url(#paint0_linear_5013_6326)" stroke="#FF3F3F" stroke-width="3"/>
<path d="M323.264 128.033V177.044H316.331V128.033H323.264ZM283.765 148.884C283.738 138.217 289.193 131.473 296.716 131.473C304.079 131.473 309.56 138.217 309.56 148.884C309.56 159.632 304.079 166.35 296.716 166.35C289.193 166.35 283.738 159.632 283.765 148.884ZM290.375 148.884C290.348 156.166 292.901 160.143 296.716 160.116C300.424 160.143 302.923 156.166 302.95 148.884C302.923 141.629 300.424 137.653 296.716 137.653C292.901 137.653 290.348 141.629 290.375 148.884ZM348.36 139.104C348.387 148.293 352.095 157.241 360.236 160.761L356.045 166.242C350.617 163.609 346.963 158.719 344.921 152.673C342.825 159.095 339.063 164.361 333.474 167.102L329.175 161.513C337.558 157.724 341.374 148.293 341.428 139.104V131.795H348.36V139.104ZM354.755 148.938V143.403H364.374V128.033H371.145V177.044H364.374V148.938H354.755ZM418.651 128.087V165.329H411.826V156.085H405.216V150.658H411.826V145.767H405.216V140.232H411.826V128.087H418.651ZM377.54 138.62V133.192H388.073V127.98H394.898V133.192H404.732V138.62H377.54ZM379.959 149.959C379.905 144.316 384.768 140.34 391.405 140.34C398.123 140.34 402.959 144.316 403.013 149.959C402.959 155.602 398.123 159.525 391.405 159.525C384.768 159.525 379.905 155.602 379.959 149.959ZM386.085 176.076V162.158H393.017V170.595H419.672V176.076H386.085ZM386.354 149.959C386.327 152.78 388.423 154.312 391.405 154.312C394.361 154.312 396.537 152.78 396.564 149.959C396.537 147.218 394.361 145.687 391.405 145.66C388.423 145.687 386.327 147.218 386.354 149.959Z" fill="white"/>
<path d="M306.11 77.2146V98.4954H302.499V77.2146H306.11ZM281.863 91.6275C286.587 89.967 289.005 85.8559 288.989 81.6643V78.8268H292.697V81.6643C292.681 85.727 295.067 89.5639 299.694 91.1116L297.856 93.9491C294.535 92.7883 292.165 90.4668 290.875 87.4842C289.585 90.6763 287.167 93.2236 283.733 94.465L281.863 91.6275ZM286.828 105.75V96.4641H290.44V102.848H306.916V105.75H286.828ZM334.162 79.8586V82.6638C334.13 86.2912 334.13 90.3378 333.001 96.4318L329.39 96.0449C330.535 90.37 330.535 86.2267 330.551 82.7283H313.139V79.8586H334.162ZM310.366 102.558V99.6239H320.168V89.4995H323.715V99.6239H336.935V102.558H310.366ZM349.349 85.469C349.333 89.967 352.041 95.0937 356.636 97.2379L354.637 100.075C351.348 98.5277 348.913 95.4 347.608 91.7565C346.286 95.7547 343.738 99.1725 340.385 100.785L338.289 97.9795C342.932 95.7708 345.754 90.3217 345.77 85.469V83.0185H339.418V80.0521H355.443V83.0185H349.349V85.469ZM358.151 106.331V77.1824H361.73V88.5321H366.212V91.5308H361.73V106.331H358.151Z" fill="white"/>
<path d="M466.623 145.113V164.11H463.727V145.113H466.623ZM441.156 161.552V147.107H444.128V159.031C449.658 158.994 454.604 158.618 459.927 157.489L460.379 159.972C454.717 161.119 449.639 161.514 443.865 161.552H441.156ZM444.918 178.103V165.652H466.623V178.103H444.918ZM447.814 175.696H463.727V168.022H447.814V175.696Z" fill="white"/>
<g filter="url(#filter0_d_5013_6326)">
<circle cx="168.056" cy="121.997" r="68.7864" fill="black"/>
<path d="M141.823 101.901C154.815 103.596 164.721 96.017 168.05 92.0156V153.751C144.002 140.597 140.545 113.704 141.823 101.901Z" fill="white"/>
<path d="M194.275 102.011C181.282 103.705 171.376 96.1264 168.048 92.125V153.86C192.096 140.706 195.553 113.813 194.275 102.011Z" fill="white"/>
</g>
<g filter="url(#filter1_d_5013_6326)">
<path d="M96.5117 295.338C96.5117 277.103 111.294 262.32 129.529 262.32H484.467C502.702 262.32 517.484 277.103 517.484 295.338V369.627C517.484 387.862 502.702 402.644 484.467 402.644H129.529C111.294 402.644 96.5117 387.862 96.5117 369.627V295.338Z" fill="#0A0A0A"/>
</g>
<path d="M159.688 335.809V338.292H133.345V335.809H159.688ZM134.732 331.875C139.971 331.311 144.115 328.957 144.453 326.136H135.764V323.621H157.335V326.136H148.548C148.903 328.941 152.982 331.311 158.334 331.875L157.238 334.293C152.224 333.713 148.081 331.601 146.517 328.554C144.921 331.601 140.81 333.713 135.796 334.293L134.732 331.875ZM136.473 345.804C136.473 342.451 140.229 340.516 146.501 340.516C152.724 340.516 156.448 342.451 156.464 345.804C156.448 349.158 152.724 351.044 146.501 351.028C140.229 351.044 136.473 349.158 136.473 345.804ZM139.568 345.804C139.552 347.626 142.083 348.626 146.501 348.61C150.854 348.626 153.401 347.626 153.401 345.804C153.401 343.934 150.854 342.935 146.501 342.902C142.083 342.935 139.552 343.934 139.568 345.804ZM171.844 326.813C171.828 330.601 174.504 334.132 178.809 335.551L177.164 337.969C174.004 336.857 171.635 334.6 170.377 331.746C169.12 334.987 166.669 337.534 163.3 338.775L161.655 336.325C166.169 334.729 168.781 330.876 168.813 326.555V323.717H171.844V326.813ZM165.557 345.675C165.557 342.29 169.249 340.307 175.262 340.323C181.195 340.307 184.838 342.29 184.838 345.675C184.838 349.093 181.195 351.044 175.262 351.028C169.249 351.044 165.557 349.093 165.557 345.675ZM168.62 345.675C168.604 347.578 171.086 348.61 175.262 348.642C179.405 348.61 181.856 347.578 181.84 345.675C181.856 343.837 179.405 342.741 175.262 342.741C171.086 342.741 168.604 343.837 168.62 345.675ZM181.517 339.646V322.202H184.58V329.457H188.772V332.036H184.58V339.646H181.517Z" fill="white"/>
<path d="M329.278 320.256C333.575 320.256 336.788 323.784 337.417 329.513H342.936V318.021H347.337V349.877H342.936V333.076H337.469C336.998 339.188 333.714 342.926 329.278 342.926C324.458 342.926 321 338.56 321.035 331.574C321 324.64 324.458 320.256 329.278 320.256ZM325.296 331.574C325.279 336.307 326.903 338.892 329.278 338.874C331.671 338.892 333.26 336.307 333.26 331.574C333.26 326.858 331.671 324.273 329.278 324.273C326.903 324.273 325.279 326.858 325.296 331.574ZM379.648 317.986V349.772H375.352V333.704H372.872V348.41H368.715V318.545H372.872V330.107H375.352V317.986H379.648ZM350.9 340.376C354.131 335.73 355.249 331.189 355.511 325.286H352.053V321.723H359.318C359.301 329.495 358.445 336.307 354.393 342.367L350.9 340.376ZM358.375 342.332C361.903 337.093 362.794 331.678 362.969 325.286H360.262V321.723H366.864C366.846 329.792 366.165 337.634 361.903 344.218L358.375 342.332ZM386.425 320.885V328.255H388.66V320.885H392.293V342.402H382.827V320.885H386.425ZM386.425 338.804H388.66V331.713H386.425V338.804ZM393.76 342.402V320.885H397.358V328.255H399.663V320.885H403.226V325.566H405.741V318.021H410.003V349.807H405.741V337.337H403.226V342.402H393.76ZM397.358 338.804H399.663V331.713H397.358V338.804ZM403.226 333.739H405.741V329.198H403.226V333.739ZM446.994 319.208V321.094C446.977 322.998 446.977 325.531 446.435 328.674L442.034 328.325C442.401 326.055 442.506 324.256 442.541 322.701H424.813V319.208H446.994ZM421.565 333.425V329.967H432.393V325.286H436.795V329.967H450.417V333.425H421.565ZM424.778 338.944V335.416H446.994V343.904H429.25V346.14H447.867V349.563H424.813V340.9H442.593V338.944H424.778ZM470.572 319.243V322.806H464.25C464.355 325.985 466.66 329.321 471.515 330.7L469.455 334.228C465.892 333.198 463.429 331.085 462.014 328.447C460.565 331.381 457.98 333.792 454.295 334.892L452.129 331.434C457.107 329.827 459.604 326.177 459.779 322.806H453.352V319.243H470.572ZM458.032 338.944V335.416H479.2V344.009H462.538V346.035H480.143V349.493H458.067V340.76H474.764V338.944H458.032ZM469.769 328.081V324.553H474.764V318.021H479.2V334.193H474.764V328.081H469.769Z" fill="white"/>
<g filter="url(#filter2_d_5013_6326)">
<path d="M96.5117 463.182C96.5117 444.946 111.294 430.164 129.529 430.164H484.467C502.702 430.164 517.484 444.946 517.484 463.182V537.471C517.484 555.706 502.702 570.488 484.467 570.488H129.529C111.294 570.488 96.5117 555.706 96.5117 537.471V463.182Z" fill="#0A0A0A"/>
</g>
<path d="M156.754 503.362V505.813H148.016V512.874H159.785V515.389H133.345V512.874H144.985V505.813H136.634V492.271H156.496V494.753H139.697V503.362H156.754ZM172.005 496.301C172.005 499.703 174.617 502.927 179.034 504.168L177.584 506.619C174.279 505.619 171.812 503.507 170.538 500.831C169.265 503.765 166.75 506.055 163.364 507.135L161.849 504.749C166.266 503.411 168.974 499.993 168.974 496.301V495.882H162.687V493.431H168.974V489.949H172.038V493.431H178.293V495.882H172.005V496.301ZM165.492 511.584V509.102H184.58V518.968H181.517V511.584H165.492ZM181.517 507.715V490.046H184.58V497.559H188.772V500.17H184.58V507.715H181.517ZM223.337 490.046V518.936H220.403V490.046H223.337ZM198.8 502.524C198.8 496.269 201.25 492.351 205.023 492.367C207.489 492.351 209.392 493.996 210.424 496.849H214.631V490.594H217.533V517.517H214.631V508.199H210.44C209.392 511.069 207.489 512.729 205.023 512.713C201.25 512.729 198.8 508.795 198.8 502.524ZM201.605 502.524C201.589 507.119 202.879 509.827 205.023 509.811C207.151 509.827 208.505 507.119 208.505 502.524C208.505 497.913 207.151 495.221 205.023 495.237C202.879 495.221 201.589 497.913 201.605 502.524ZM211.069 499.332C211.23 500.315 211.31 501.379 211.31 502.524C211.31 503.653 211.23 504.717 211.069 505.684H214.631V499.332H211.069ZM251.099 490.046V507.232H248.036V499.912H242.651V497.397H248.036V490.046H251.099ZM227.013 504.62C231.495 503.056 234.252 499.155 234.236 495.172V494.528H227.98V492.045H243.554V494.528H237.363V495.14C237.347 498.8 239.959 502.363 244.328 503.846L242.748 506.264C239.507 505.152 237.121 502.83 235.864 499.977C234.606 503.201 232.075 505.797 228.625 507.07L227.013 504.62ZM231.656 513.487C231.64 510.053 235.348 508.054 241.426 508.038C247.472 508.054 251.18 510.053 251.196 513.487C251.18 516.921 247.472 518.92 241.426 518.936C235.348 518.92 231.64 516.921 231.656 513.487ZM234.687 513.487C234.671 515.438 237.186 516.55 241.426 516.518C245.634 516.55 248.149 515.438 248.165 513.487C248.149 511.52 245.634 510.408 241.426 510.424C237.186 510.408 234.671 511.52 234.687 513.487ZM274.218 497.397C274.185 502.669 277.378 507.989 281.859 509.972L280.021 512.391C276.7 510.811 274.073 507.57 272.718 503.62C271.38 507.86 268.72 511.343 265.254 513.035L263.384 510.456C267.93 508.441 271.122 502.911 271.122 497.397V492.464H274.218V497.397ZM284.471 519.001V490.046H287.534V519.001H284.471ZM314.845 490.046V498.59H319.036V501.138H314.845V511.036H311.749V490.046H314.845ZM292.113 505.426C298.884 503.395 303.076 499.541 303.672 494.786H293.338V492.238H307.009C307.009 499.816 301.85 505.313 293.403 507.876L292.113 505.426ZM296.498 518.323V508.876H299.593V515.841H316.038V518.323H296.498Z" fill="white"/>
<path d="M409.122 487.227V489.881C409.105 492.344 409.105 495.051 408.249 498.369L403.848 497.845C404.564 494.999 404.651 492.885 404.686 490.755H386.941V487.227H409.122ZM383.693 503.155V499.592H394.521V494.317H398.922V499.592H412.545V503.155H383.693ZM387.011 517.302V505.74H409.017V509.233H391.517V513.739H409.437V517.302H387.011ZM448.699 500.081V503.609H439.477V510.386H451.877V514.018H422.78V510.386H435.041V503.609H426.203V488.1H448.454V491.663H430.674V500.081H448.699ZM465.395 492.711C465.413 495.994 467.683 499.417 472.871 500.78L470.81 504.308C467.194 503.33 464.679 501.234 463.23 498.614C461.832 501.496 459.3 503.766 455.58 504.832L453.449 501.339C458.601 499.941 460.959 496.274 460.959 492.711H454.567V489.183H460.959V485.76H465.465V489.183H471.823V492.711H465.395ZM457.501 510.211V506.648H478.914V517.686H474.442V510.211H457.501ZM474.442 505.356V485.864H478.914V493.689H483.21V497.426H478.914V505.356H474.442Z" fill="white"/>
<defs>
<filter id="filter0_d_5013_6326" x="88.2637" y="44.9566" width="159.586" height="159.582" filterUnits="userSpaceOnUse" color-interpolation-filters="sRGB">
<feFlood flood-opacity="0" result="BackgroundImageFix"/>
<feColorMatrix in="SourceAlpha" type="matrix" values="0 0 0 0 0 0 0 0 0 0 0 0 0 0 0 0 0 0 127 0" result="hardAlpha"/>
<feOffset dy="2.75145"/>
<feGaussianBlur stdDeviation="5.50291"/>
<feComposite in2="hardAlpha" operator="out"/>
<feColorMatrix type="matrix" values="0 0 0 0 0 0 0 0 0 0 0 0 0 0 0 0 0 0 0.35 0"/>
<feBlend mode="normal" in2="BackgroundImageFix" result="effect1_dropShadow_5013_6326"/>
<feBlend mode="normal" in="SourceGraphic" in2="effect1_dropShadow_5013_6326" result="shape"/>
</filter>
<filter id="filter1_d_5013_6326" x="85.5059" y="254.066" width="442.984" height="162.332" filterUnits="userSpaceOnUse" color-interpolation-filters="sRGB">
<feFlood flood-opacity="0" result="BackgroundImageFix"/>
<feColorMatrix in="SourceAlpha" type="matrix" values="0 0 0 0 0 0 0 0 0 0 0 0 0 0 0 0 0 0 127 0" result="hardAlpha"/>
<feOffset dy="2.75145"/>
<feGaussianBlur stdDeviation="5.50291"/>
<feComposite in2="hardAlpha" operator="out"/>
<feColorMatrix type="matrix" values="0 0 0 0 0 0 0 0 0 0 0 0 0 0 0 0 0 0 0.35 0"/>
<feBlend mode="normal" in2="BackgroundImageFix" result="effect1_dropShadow_5013_6326"/>
<feBlend mode="normal" in="SourceGraphic" in2="effect1_dropShadow_5013_6326" result="shape"/>
</filter>
<filter id="filter2_d_5013_6326" x="0.485954" y="345.144" width="613.024" height="332.372" filterUnits="userSpaceOnUse" color-interpolation-filters="sRGB">
<feFlood flood-opacity="0" result="BackgroundImageFix"/>
<feColorMatrix in="SourceAlpha" type="matrix" values="0 0 0 0 0 0 0 0 0 0 0 0 0 0 0 0 0 0 127 0" result="hardAlpha"/>
<feOffset dy="11.0058"/>
<feGaussianBlur stdDeviation="48.0129"/>
<feComposite in2="hardAlpha" operator="out"/>
<feColorMatrix type="matrix" values="0 0 0 0 0 0 0 0 0 0 0 0 0 0 0 0 0 0 0.25 0"/>
<feBlend mode="normal" in2="BackgroundImageFix" result="effect1_dropShadow_5013_6326"/>
<feBlend mode="normal" in="SourceGraphic" in2="effect1_dropShadow_5013_6326" result="shape"/>
</filter>
<linearGradient id="paint0_linear_5013_6326" x1="308.377" y1="0.929687" x2="308.377" y2="633.764" gradientUnits="userSpaceOnUse">
<stop stop-color="#FF3E3E"/>
<stop offset="1" stop-color="#FF4B4B"/>
</linearGradient>
</defs>
</svg>
