<svg width="614" height="686" viewBox="0 0 614 686" fill="none" xmlns="http://www.w3.org/2000/svg">
<path d="M517.169 2.42969H120.959C97.3371 2.42969 78.1875 21.5793 78.1875 45.2015V595.492C78.1875 619.115 97.3371 638.264 120.959 638.264H517.169C540.791 638.264 559.941 619.115 559.941 595.492V45.2015C559.941 21.5793 540.791 2.42969 517.169 2.42969Z" fill="#1E1E1E" stroke="#FF3F3F" stroke-width="3"/>
<mask id="path-2-outside-1_5013_6344" maskUnits="userSpaceOnUse" x="291.551" y="128.992" width="140" height="52" fill="black">
<rect fill="white" x="291.551" y="128.992" width="140" height="52"/>
<path d="M337.927 158.011V163.492H318.904V179.936H312.133V163.492H293.324V158.011H337.927ZM295.527 149.788C305.415 148.579 310.897 143.796 311.622 138.987H297.354V133.613H333.951V138.987H319.683C320.382 143.796 325.782 148.579 335.832 149.788L333.36 155.162C324.761 154.007 318.608 150.353 315.652 145.328C312.67 150.353 306.571 154.007 298.053 155.162L295.527 149.788ZM382.101 131.087V168.329H375.276V159.085H368.666V153.658H375.276V148.767H368.666V143.232H375.276V131.087H382.101ZM340.991 141.62V136.192H351.524V130.98H358.348V136.192H368.183V141.62H340.991ZM343.409 152.959C343.355 147.316 348.219 143.34 354.855 143.34C361.573 143.34 366.409 147.316 366.463 152.959C366.409 158.602 361.573 162.525 354.855 162.525C348.219 162.525 343.355 158.602 343.409 152.959ZM349.535 179.076V165.158H356.468V173.595H383.122V179.076H349.535ZM349.804 152.959C349.777 155.78 351.873 157.312 354.855 157.312C357.811 157.312 359.987 155.78 360.014 152.959C359.987 150.218 357.811 148.687 354.855 148.66C351.873 148.687 349.777 150.218 349.804 152.959ZM406.768 138.664C406.741 144.764 410.153 150.675 417.892 153.12L414.237 158.548C408.998 156.775 405.397 153.255 403.328 148.821C401.179 153.658 397.336 157.446 391.828 159.408L388.12 153.926C396.315 151.32 399.808 144.925 399.835 138.234V133.559H406.768V138.664ZM396.073 167.791V162.363H429.661V179.936H422.836V167.791H396.073ZM413.646 145.758V140.115H422.836V131.033H429.661V160.16H422.836V145.758H413.646Z"/>
</mask>
<path d="M337.927 158.011V163.492H318.904V179.936H312.133V163.492H293.324V158.011H337.927ZM295.527 149.788C305.415 148.579 310.897 143.796 311.622 138.987H297.354V133.613H333.951V138.987H319.683C320.382 143.796 325.782 148.579 335.832 149.788L333.36 155.162C324.761 154.007 318.608 150.353 315.652 145.328C312.67 150.353 306.571 154.007 298.053 155.162L295.527 149.788ZM382.101 131.087V168.329H375.276V159.085H368.666V153.658H375.276V148.767H368.666V143.232H375.276V131.087H382.101ZM340.991 141.62V136.192H351.524V130.98H358.348V136.192H368.183V141.62H340.991ZM343.409 152.959C343.355 147.316 348.219 143.34 354.855 143.34C361.573 143.34 366.409 147.316 366.463 152.959C366.409 158.602 361.573 162.525 354.855 162.525C348.219 162.525 343.355 158.602 343.409 152.959ZM349.535 179.076V165.158H356.468V173.595H383.122V179.076H349.535ZM349.804 152.959C349.777 155.78 351.873 157.312 354.855 157.312C357.811 157.312 359.987 155.78 360.014 152.959C359.987 150.218 357.811 148.687 354.855 148.66C351.873 148.687 349.777 150.218 349.804 152.959ZM406.768 138.664C406.741 144.764 410.153 150.675 417.892 153.12L414.237 158.548C408.998 156.775 405.397 153.255 403.328 148.821C401.179 153.658 397.336 157.446 391.828 159.408L388.12 153.926C396.315 151.32 399.808 144.925 399.835 138.234V133.559H406.768V138.664ZM396.073 167.791V162.363H429.661V179.936H422.836V167.791H396.073ZM413.646 145.758V140.115H422.836V131.033H429.661V160.16H422.836V145.758H413.646Z" fill="white"/>
<path d="M337.927 158.011H338.927V157.011H337.927V158.011ZM337.927 163.492V164.492H338.927V163.492H337.927ZM318.904 163.492V162.492H317.904V163.492H318.904ZM318.904 179.936V180.936H319.904V179.936H318.904ZM312.133 179.936H311.133V180.936H312.133V179.936ZM312.133 163.492H313.133V162.492H312.133V163.492ZM293.324 163.492H292.324V164.492H293.324V163.492ZM293.324 158.011V157.011H292.324V158.011H293.324ZM295.527 149.788L295.406 148.796L294.034 148.964L294.622 150.214L295.527 149.788ZM311.622 138.987L312.611 139.136L312.784 137.987H311.622V138.987ZM297.354 138.987H296.354V139.987H297.354V138.987ZM297.354 133.613V132.613H296.354V133.613H297.354ZM333.951 133.613H334.951V132.613H333.951V133.613ZM333.951 138.987V139.987H334.951V138.987H333.951ZM319.683 138.987V137.987H318.527L318.693 139.131L319.683 138.987ZM335.832 149.788L336.74 150.206L337.314 148.96L335.951 148.796L335.832 149.788ZM333.36 155.162L333.226 156.153L333.959 156.252L334.268 155.58L333.36 155.162ZM315.652 145.328L316.514 144.821L315.656 143.362L314.793 144.818L315.652 145.328ZM298.053 155.162L297.148 155.588L297.46 156.252L298.187 156.153L298.053 155.162ZM336.927 158.011V163.492H338.927V158.011H336.927ZM337.927 162.492H318.904V164.492H337.927V162.492ZM317.904 163.492V179.936H319.904V163.492H317.904ZM318.904 178.936H312.133V180.936H318.904V178.936ZM313.133 179.936V163.492H311.133V179.936H313.133ZM312.133 162.492H293.324V164.492H312.133V162.492ZM294.324 163.492V158.011H292.324V163.492H294.324ZM293.324 159.011H337.927V157.011H293.324V159.011ZM295.648 150.781C305.717 149.55 311.786 144.607 312.611 139.136L310.633 138.838C310.008 142.986 305.113 147.609 295.406 148.796L295.648 150.781ZM311.622 137.987H297.354V139.987H311.622V137.987ZM298.354 138.987V133.613H296.354V138.987H298.354ZM297.354 134.613H333.951V132.613H297.354V134.613ZM332.951 133.613V138.987H334.951V133.613H332.951ZM333.951 137.987H319.683V139.987H333.951V137.987ZM318.693 139.131C319.489 144.607 325.482 149.55 335.712 150.781L335.951 148.796C326.083 147.608 321.274 142.986 320.673 138.843L318.693 139.131ZM334.923 149.371L332.451 154.744L334.268 155.58L336.74 150.206L334.923 149.371ZM333.493 154.171C325.086 153.042 319.264 149.496 316.514 144.821L314.791 145.835C317.952 151.209 324.437 154.972 333.226 156.153L333.493 154.171ZM314.793 144.818C312.013 149.5 306.24 153.043 297.918 154.171L298.187 156.153C306.902 154.971 313.327 151.206 316.512 145.839L314.793 144.818ZM298.958 154.737L296.432 149.363L294.622 150.214L297.148 155.588L298.958 154.737ZM382.101 131.087H383.101V130.087H382.101V131.087ZM382.101 168.329V169.329H383.101V168.329H382.101ZM375.276 168.329H374.276V169.329H375.276V168.329ZM375.276 159.085H376.276V158.085H375.276V159.085ZM368.666 159.085H367.666V160.085H368.666V159.085ZM368.666 153.658V152.658H367.666V153.658H368.666ZM375.276 153.658V154.658H376.276V153.658H375.276ZM375.276 148.767H376.276V147.767H375.276V148.767ZM368.666 148.767H367.666V149.767H368.666V148.767ZM368.666 143.232V142.232H367.666V143.232H368.666ZM375.276 143.232V144.232H376.276V143.232H375.276ZM375.276 131.087V130.087H374.276V131.087H375.276ZM340.991 141.62H339.991V142.62H340.991V141.62ZM340.991 136.192V135.192H339.991V136.192H340.991ZM351.524 136.192V137.192H352.524V136.192H351.524ZM351.524 130.98V129.98H350.524V130.98H351.524ZM358.348 130.98H359.348V129.98H358.348V130.98ZM358.348 136.192H357.348V137.192H358.348V136.192ZM368.183 136.192H369.183V135.192H368.183V136.192ZM368.183 141.62V142.62H369.183V141.62H368.183ZM343.409 152.959L344.409 152.969L344.409 152.959L344.409 152.95L343.409 152.959ZM366.463 152.959L367.463 152.969L367.463 152.959L367.463 152.95L366.463 152.959ZM349.535 179.076H348.535V180.076H349.535V179.076ZM349.535 165.158V164.158H348.535V165.158H349.535ZM356.468 165.158H357.468V164.158H356.468V165.158ZM356.468 173.595H355.468V174.595H356.468V173.595ZM383.122 173.595H384.122V172.595H383.122V173.595ZM383.122 179.076V180.076H384.122V179.076H383.122ZM349.804 152.959L350.804 152.969L350.804 152.959L350.804 152.949L349.804 152.959ZM360.014 152.959L361.014 152.969L361.014 152.959L361.014 152.949L360.014 152.959ZM354.855 148.66L354.864 147.66L354.855 147.66L354.846 147.66L354.855 148.66ZM381.101 131.087V168.329H383.101V131.087H381.101ZM382.101 167.329H375.276V169.329H382.101V167.329ZM376.276 168.329V159.085H374.276V168.329H376.276ZM375.276 158.085H368.666V160.085H375.276V158.085ZM369.666 159.085V153.658H367.666V159.085H369.666ZM368.666 154.658H375.276V152.658H368.666V154.658ZM376.276 153.658V148.767H374.276V153.658H376.276ZM375.276 147.767H368.666V149.767H375.276V147.767ZM369.666 148.767V143.232H367.666V148.767H369.666ZM368.666 144.232H375.276V142.232H368.666V144.232ZM376.276 143.232V131.087H374.276V143.232H376.276ZM375.276 132.087H382.101V130.087H375.276V132.087ZM341.991 141.62V136.192H339.991V141.62H341.991ZM340.991 137.192H351.524V135.192H340.991V137.192ZM352.524 136.192V130.98H350.524V136.192H352.524ZM351.524 131.98H358.348V129.98H351.524V131.98ZM357.348 130.98V136.192H359.348V130.98H357.348ZM358.348 137.192H368.183V135.192H358.348V137.192ZM367.183 136.192V141.62H369.183V136.192H367.183ZM368.183 140.62H340.991V142.62H368.183V140.62ZM344.409 152.95C344.362 148.035 348.586 144.34 354.855 144.34V142.34C347.851 142.34 342.348 146.598 342.409 152.969L344.409 152.95ZM354.855 144.34C361.2 144.34 365.416 148.035 365.463 152.969L367.463 152.95C367.403 146.598 361.945 142.34 354.855 142.34V144.34ZM365.463 152.95C365.416 157.876 361.208 161.525 354.855 161.525V163.525C361.938 163.525 367.402 159.327 367.463 152.969L365.463 152.95ZM354.855 161.525C348.578 161.525 344.362 157.877 344.409 152.969L342.409 152.95C342.348 159.326 347.859 163.525 354.855 163.525V161.525ZM350.535 179.076V165.158H348.535V179.076H350.535ZM349.535 166.158H356.468V164.158H349.535V166.158ZM355.468 165.158V173.595H357.468V165.158H355.468ZM356.468 174.595H383.122V172.595H356.468V174.595ZM382.122 173.595V179.076H384.122V173.595H382.122ZM383.122 178.076H349.535V180.076H383.122V178.076ZM348.804 152.95C348.788 154.633 349.417 156.02 350.565 156.966C351.687 157.889 353.205 158.312 354.855 158.312V156.312C353.523 156.312 352.502 155.969 351.837 155.421C351.198 154.896 350.793 154.106 350.804 152.969L348.804 152.95ZM354.855 158.312C356.494 158.312 358.019 157.888 359.159 156.974C360.324 156.039 360.998 154.66 361.014 152.969L359.014 152.95C359.004 154.079 358.576 154.877 357.907 155.413C357.214 155.97 356.172 156.312 354.855 156.312V158.312ZM361.014 152.949C360.998 151.288 360.316 149.932 359.155 149.009C358.02 148.106 356.501 147.675 354.864 147.66L354.846 149.66C356.165 149.672 357.213 150.02 357.911 150.575C358.584 151.109 359.004 151.889 359.014 152.969L361.014 152.949ZM354.846 147.66C353.199 147.675 351.686 148.105 350.569 149.017C349.424 149.951 348.788 151.315 348.804 152.969L350.804 152.949C350.793 151.862 351.191 151.091 351.833 150.567C352.503 150.021 353.53 149.672 354.864 149.66L354.846 147.66ZM406.768 138.664L407.768 138.669V138.664H406.768ZM417.892 153.12L418.721 153.679L419.468 152.57L418.193 152.167L417.892 153.12ZM414.237 158.548L413.917 159.495L414.64 159.74L415.067 159.106L414.237 158.548ZM403.328 148.821L404.234 148.398L403.306 146.409L402.414 148.415L403.328 148.821ZM391.828 159.408L391 159.968L391.434 160.61L392.163 160.35L391.828 159.408ZM388.12 153.926L387.817 152.973L386.542 153.379L387.292 154.487L388.12 153.926ZM399.835 138.234L400.835 138.238V138.234H399.835ZM399.835 133.559V132.559H398.835V133.559H399.835ZM406.768 133.559H407.768V132.559H406.768V133.559ZM396.073 167.791H395.073V168.791H396.073V167.791ZM396.073 162.363V161.363H395.073V162.363H396.073ZM429.661 162.363H430.661V161.363H429.661V162.363ZM429.661 179.936V180.936H430.661V179.936H429.661ZM422.836 179.936H421.836V180.936H422.836V179.936ZM422.836 167.791H423.836V166.791H422.836V167.791ZM413.646 145.758H412.646V146.758H413.646V145.758ZM413.646 140.115V139.115H412.646V140.115H413.646ZM422.836 140.115V141.115H423.836V140.115H422.836ZM422.836 131.033V130.033H421.836V131.033H422.836ZM429.661 131.033H430.661V130.033H429.661V131.033ZM429.661 160.16V161.16H430.661V160.16H429.661ZM422.836 160.16H421.836V161.16H422.836V160.16ZM422.836 145.758H423.836V144.758H422.836V145.758ZM405.768 138.66C405.739 145.18 409.418 151.492 417.59 154.074L418.193 152.167C410.888 149.859 407.743 144.348 407.768 138.669L405.768 138.66ZM417.062 152.562L413.408 157.989L415.067 159.106L418.721 153.679L417.062 152.562ZM414.558 157.601C409.59 155.919 406.194 152.597 404.234 148.398L402.422 149.244C404.6 153.912 408.405 157.63 413.917 159.495L414.558 157.601ZM402.414 148.415C400.373 153.009 396.735 156.599 391.493 158.466L392.163 160.35C397.937 158.294 401.984 154.307 404.242 149.227L402.414 148.415ZM392.656 158.847L388.948 153.366L387.292 154.487L391 159.968L392.656 158.847ZM388.423 154.879C397.079 152.127 400.807 145.312 400.835 138.238L398.835 138.23C398.81 144.538 395.552 150.513 387.817 152.973L388.423 154.879ZM400.835 138.234V133.559H398.835V138.234H400.835ZM399.835 134.559H406.768V132.559H399.835V134.559ZM405.768 133.559V138.664H407.768V133.559H405.768ZM397.073 167.791V162.363H395.073V167.791H397.073ZM396.073 163.363H429.661V161.363H396.073V163.363ZM428.661 162.363V179.936H430.661V162.363H428.661ZM429.661 178.936H422.836V180.936H429.661V178.936ZM423.836 179.936V167.791H421.836V179.936H423.836ZM422.836 166.791H396.073V168.791H422.836V166.791ZM414.646 145.758V140.115H412.646V145.758H414.646ZM413.646 141.115H422.836V139.115H413.646V141.115ZM423.836 140.115V131.033H421.836V140.115H423.836ZM422.836 132.033H429.661V130.033H422.836V132.033ZM428.661 131.033V160.16H430.661V131.033H428.661ZM429.661 159.16H422.836V161.16H429.661V159.16ZM423.836 160.16V145.758H421.836V160.16H423.836ZM422.836 144.758H413.646V146.758H422.836V144.758Z" fill="black" mask="url(#path-2-outside-1_5013_6344)"/>
<mask id="path-4-outside-2_5013_6344" maskUnits="userSpaceOnUse" x="290.551" y="78.4609" width="88" height="32" fill="black">
<rect fill="white" x="290.551" y="78.4609" width="88" height="32"/>
<path d="M316.798 80.2146V101.495H313.186V80.2146H316.798ZM292.55 94.6275C297.274 92.967 299.692 88.8559 299.676 84.6643V81.8268H303.384V84.6643C303.368 88.727 305.754 92.5639 310.381 94.1116L308.543 96.9491C305.222 95.7883 302.852 93.4668 301.562 90.4842C300.273 93.6763 297.854 96.2236 294.42 97.465L292.55 94.6275ZM297.516 108.75V99.4641H301.127V105.848H317.604V108.75H297.516ZM344.849 82.8586V85.6638C344.817 89.2912 344.817 93.3378 343.689 99.4318L340.077 99.0449C341.222 93.37 341.222 89.2267 341.238 85.7283H323.827V82.8586H344.849ZM321.054 105.558V102.624H330.856V92.4995H334.403V102.624H347.622V105.558H321.054ZM360.036 88.469C360.02 92.967 362.729 98.0937 367.323 100.238L365.324 103.075C362.035 101.528 359.601 98.4 358.295 94.7565C356.973 98.7547 354.426 102.173 351.072 103.785L348.977 100.98C353.62 98.7708 356.441 93.3217 356.457 88.469V86.0185H350.105V83.0521H366.13V86.0185H360.036V88.469ZM368.839 109.331V80.1824H372.418V91.5321H376.9V94.5308H372.418V109.331H368.839Z"/>
</mask>
<path d="M316.798 80.2146V101.495H313.186V80.2146H316.798ZM292.55 94.6275C297.274 92.967 299.692 88.8559 299.676 84.6643V81.8268H303.384V84.6643C303.368 88.727 305.754 92.5639 310.381 94.1116L308.543 96.9491C305.222 95.7883 302.852 93.4668 301.562 90.4842C300.273 93.6763 297.854 96.2236 294.42 97.465L292.55 94.6275ZM297.516 108.75V99.4641H301.127V105.848H317.604V108.75H297.516ZM344.849 82.8586V85.6638C344.817 89.2912 344.817 93.3378 343.689 99.4318L340.077 99.0449C341.222 93.37 341.222 89.2267 341.238 85.7283H323.827V82.8586H344.849ZM321.054 105.558V102.624H330.856V92.4995H334.403V102.624H347.622V105.558H321.054ZM360.036 88.469C360.02 92.967 362.729 98.0937 367.323 100.238L365.324 103.075C362.035 101.528 359.601 98.4 358.295 94.7565C356.973 98.7547 354.426 102.173 351.072 103.785L348.977 100.98C353.62 98.7708 356.441 93.3217 356.457 88.469V86.0185H350.105V83.0521H366.13V86.0185H360.036V88.469ZM368.839 109.331V80.1824H372.418V91.5321H376.9V94.5308H372.418V109.331H368.839Z" fill="white"/>
<path d="M316.798 80.2146H317.798V79.2146H316.798V80.2146ZM316.798 101.495V102.495H317.798V101.495H316.798ZM313.186 101.495H312.186V102.495H313.186V101.495ZM313.186 80.2146V79.2146H312.186V80.2146H313.186ZM292.55 94.6275L292.219 93.6841L291.011 94.1088L291.715 95.1778L292.55 94.6275ZM299.676 84.6643L298.676 84.6643L298.676 84.6681L299.676 84.6643ZM299.676 81.8268V80.8268H298.676V81.8268H299.676ZM303.384 81.8268H304.384V80.8268H303.384V81.8268ZM303.384 84.6643L304.384 84.6682V84.6643H303.384ZM310.381 94.1116L311.22 94.6553L311.922 93.5725L310.698 93.1633L310.381 94.1116ZM308.543 96.9491L308.213 97.8931L308.955 98.1524L309.382 97.4927L308.543 96.9491ZM301.562 90.4842L302.48 90.0873L301.531 87.8924L300.635 90.1096L301.562 90.4842ZM294.42 97.465L293.586 98.0153L294.019 98.6734L294.76 98.4054L294.42 97.465ZM297.516 108.75H296.516V109.75H297.516V108.75ZM297.516 99.4641V98.4641H296.516V99.4641H297.516ZM301.127 99.4641H302.127V98.4641H301.127V99.4641ZM301.127 105.848H300.127V106.848H301.127V105.848ZM317.604 105.848H318.604V104.848H317.604V105.848ZM317.604 108.75V109.75H318.604V108.75H317.604ZM315.798 80.2146V101.495H317.798V80.2146H315.798ZM316.798 100.495H313.186V102.495H316.798V100.495ZM314.186 101.495V80.2146H312.186V101.495H314.186ZM313.186 81.2146H316.798V79.2146H313.186V81.2146ZM292.882 95.5709C298.036 93.7592 300.694 89.2472 300.676 84.6604L298.676 84.6681C298.691 88.4647 296.512 92.1748 292.219 93.6841L292.882 95.5709ZM300.676 84.6643V81.8268H298.676V84.6643H300.676ZM299.676 82.8268H303.384V80.8268H299.676V82.8268ZM302.384 81.8268V84.6643H304.384V81.8268H302.384ZM302.384 84.6603C302.366 89.1428 305.017 93.3717 310.064 95.06L310.698 93.1633C306.492 91.7561 304.37 88.3111 304.384 84.6682L302.384 84.6603ZM309.542 93.568L307.704 96.4054L309.382 97.4927L311.22 94.6553L309.542 93.568ZM308.873 96.0051C305.822 94.9388 303.662 92.8199 302.48 90.0873L300.645 90.8811C302.042 94.1137 304.622 96.6378 308.213 97.8931L308.873 96.0051ZM300.635 90.1096C299.443 93.0615 297.224 95.388 294.08 96.5245L294.76 98.4054C298.484 97.0592 301.103 94.2912 302.49 90.8588L300.635 90.1096ZM295.255 96.9147L293.385 94.0772L291.715 95.1778L293.586 98.0153L295.255 96.9147ZM298.516 108.75V99.4641H296.516V108.75H298.516ZM297.516 100.464H301.127V98.4641H297.516V100.464ZM300.127 99.4641V105.848H302.127V99.4641H300.127ZM301.127 106.848H317.604V104.848H301.127V106.848ZM316.604 105.848V108.75H318.604V105.848H316.604ZM317.604 107.75H297.516V109.75H317.604V107.75ZM344.849 82.8586H345.849V81.8586H344.849V82.8586ZM344.849 85.6638L345.849 85.6727V85.6638H344.849ZM343.689 99.4318L343.582 100.426L344.503 100.525L344.672 99.6139L343.689 99.4318ZM340.077 99.0449L339.097 98.8472L338.88 99.9224L339.971 100.039L340.077 99.0449ZM341.238 85.7283L342.238 85.7329L342.243 84.7283H341.238V85.7283ZM323.827 85.7283H322.827V86.7283H323.827V85.7283ZM323.827 82.8586V81.8586H322.827V82.8586H323.827ZM321.054 105.558H320.054V106.558H321.054V105.558ZM321.054 102.624V101.624H320.054V102.624H321.054ZM330.856 102.624V103.624H331.856V102.624H330.856ZM330.856 92.4995V91.4995H329.856V92.4995H330.856ZM334.403 92.4995H335.403V91.4995H334.403V92.4995ZM334.403 102.624H333.403V103.624H334.403V102.624ZM347.622 102.624H348.622V101.624H347.622V102.624ZM347.622 105.558V106.558H348.622V105.558H347.622ZM343.849 82.8586V85.6638H345.849V82.8586H343.849ZM343.85 85.6549C343.817 89.2729 343.817 93.2463 342.705 99.2497L344.672 99.6139C345.817 93.4292 345.817 89.3095 345.849 85.6727L343.85 85.6549ZM343.795 98.4375L340.184 98.0506L339.971 100.039L343.582 100.426L343.795 98.4375ZM341.058 99.2426C342.223 93.4661 342.222 89.2401 342.238 85.7329L340.238 85.7237C340.222 89.2133 340.221 93.274 339.097 98.8472L341.058 99.2426ZM341.238 84.7283H323.827V86.7283H341.238V84.7283ZM324.827 85.7283V82.8586H322.827V85.7283H324.827ZM323.827 83.8586H344.849V81.8586H323.827V83.8586ZM322.054 105.558V102.624H320.054V105.558H322.054ZM321.054 103.624H330.856V101.624H321.054V103.624ZM331.856 102.624V92.4995H329.856V102.624H331.856ZM330.856 93.4995H334.403V91.4995H330.856V93.4995ZM333.403 92.4995V102.624H335.403V92.4995H333.403ZM334.403 103.624H347.622V101.624H334.403V103.624ZM346.622 102.624V105.558H348.622V102.624H346.622ZM347.622 104.558H321.054V106.558H347.622V104.558ZM360.036 88.469L361.036 88.4726V88.469H360.036ZM367.323 100.238L368.141 100.814L368.829 99.8371L367.746 99.3317L367.323 100.238ZM365.324 103.075L364.898 103.98L365.658 104.338L366.142 103.651L365.324 103.075ZM358.295 94.7565L359.236 94.4191L358.257 91.6863L357.346 94.4426L358.295 94.7565ZM351.072 103.785L350.271 104.383L350.764 105.043L351.506 104.686L351.072 103.785ZM348.977 100.98L348.547 100.076L347.445 100.601L348.176 101.578L348.977 100.98ZM356.457 88.469L357.457 88.4723V88.469H356.457ZM356.457 86.0185H357.457V85.0185H356.457V86.0185ZM350.105 86.0185H349.105V87.0185H350.105V86.0185ZM350.105 83.0521V82.0521H349.105V83.0521H350.105ZM366.13 83.0521H367.13V82.0521H366.13V83.0521ZM366.13 86.0185V87.0185H367.13V86.0185H366.13ZM360.036 86.0185V85.0185H359.036V86.0185H360.036ZM368.839 109.331H367.839V110.331H368.839V109.331ZM368.839 80.1824V79.1824H367.839V80.1824H368.839ZM372.418 80.1824H373.418V79.1824H372.418V80.1824ZM372.418 91.5321H371.418V92.5321H372.418V91.5321ZM376.9 91.5321H377.9V90.5321H376.9V91.5321ZM376.9 94.5308V95.5308H377.9V94.5308H376.9ZM372.418 94.5308V93.5308H371.418V94.5308H372.418ZM372.418 109.331V110.331H373.418V109.331H372.418ZM359.036 88.4654C359.019 93.3029 361.909 98.8148 366.9 101.144L367.746 99.3317C363.548 97.3727 361.021 92.6311 361.036 88.4726L359.036 88.4654ZM366.506 99.662L364.507 102.499L366.142 103.651L368.141 100.814L366.506 99.662ZM365.75 102.171C362.759 100.763 360.477 97.8795 359.236 94.4191L357.354 95.0939C358.725 98.9205 361.312 102.292 364.898 103.98L365.75 102.171ZM357.346 94.4426C356.082 98.2643 353.68 101.421 350.639 102.883L351.506 104.686C355.171 102.924 357.864 99.2451 359.245 95.0704L357.346 94.4426ZM351.874 103.186L349.778 100.381L348.176 101.578L350.271 104.383L351.874 103.186ZM349.406 101.883C354.457 99.4797 357.44 93.6375 357.457 88.4723L355.457 88.4657C355.442 93.0059 352.782 98.0619 348.547 100.076L349.406 101.883ZM357.457 88.469V86.0185H355.457V88.469H357.457ZM356.457 85.0185H350.105V87.0185H356.457V85.0185ZM351.105 86.0185V83.0521H349.105V86.0185H351.105ZM350.105 84.0521H366.13V82.0521H350.105V84.0521ZM365.13 83.0521V86.0185H367.13V83.0521H365.13ZM366.13 85.0185H360.036V87.0185H366.13V85.0185ZM359.036 86.0185V88.469H361.036V86.0185H359.036ZM369.839 109.331V80.1824H367.839V109.331H369.839ZM368.839 81.1824H372.418V79.1824H368.839V81.1824ZM371.418 80.1824V91.5321H373.418V80.1824H371.418ZM372.418 92.5321H376.9V90.5321H372.418V92.5321ZM375.9 91.5321V94.5308H377.9V91.5321H375.9ZM376.9 93.5308H372.418V95.5308H376.9V93.5308ZM371.418 94.5308V109.331H373.418V94.5308H371.418ZM372.418 108.331H368.839V110.331H372.418V108.331Z" fill="black" mask="url(#path-4-outside-2_5013_6344)"/>
<mask id="path-6-outside-3_5013_6344" maskUnits="userSpaceOnUse" x="450.383" y="146.508" width="28" height="36" fill="black">
<rect fill="white" x="450.383" y="146.508" width="28" height="36"/>
<path d="M477.311 148.113V167.11H474.414V148.113H477.311ZM451.844 164.552V150.107H454.815V162.031C460.345 161.994 465.292 161.618 470.615 160.489L471.066 162.972C465.405 164.119 460.326 164.514 454.552 164.552H451.844ZM455.605 181.103V168.652H477.311V181.103H455.605ZM458.502 178.696H474.414V171.022H458.502V178.696Z"/>
</mask>
<path d="M477.311 148.113V167.11H474.414V148.113H477.311ZM451.844 164.552V150.107H454.815V162.031C460.345 161.994 465.292 161.618 470.615 160.489L471.066 162.972C465.405 164.119 460.326 164.514 454.552 164.552H451.844ZM455.605 181.103V168.652H477.311V181.103H455.605ZM458.502 178.696H474.414V171.022H458.502V178.696Z" fill="white"/>
<path d="M477.311 148.113H478.311V147.113H477.311V148.113ZM477.311 167.11V168.11H478.311V167.11H477.311ZM474.414 167.11H473.414V168.11H474.414V167.11ZM474.414 148.113V147.113H473.414V148.113H474.414ZM451.844 164.552H450.844V165.552H451.844V164.552ZM451.844 150.107V149.107H450.844V150.107H451.844ZM454.815 150.107H455.815V149.107H454.815V150.107ZM454.815 162.031H453.815V163.038L454.822 163.031L454.815 162.031ZM470.615 160.489L471.599 160.31L471.414 159.297L470.407 159.511L470.615 160.489ZM471.066 162.972L471.265 163.952L472.225 163.757L472.05 162.793L471.066 162.972ZM454.552 164.552V165.552L454.559 165.552L454.552 164.552ZM455.605 181.103H454.605V182.103H455.605V181.103ZM455.605 168.652V167.652H454.605V168.652H455.605ZM477.311 168.652H478.311V167.652H477.311V168.652ZM477.311 181.103V182.103H478.311V181.103H477.311ZM458.502 178.696H457.502V179.696H458.502V178.696ZM474.414 178.696V179.696H475.414V178.696H474.414ZM474.414 171.022H475.414V170.022H474.414V171.022ZM458.502 171.022V170.022H457.502V171.022H458.502ZM476.311 148.113V167.11H478.311V148.113H476.311ZM477.311 166.11H474.414V168.11H477.311V166.11ZM475.414 167.11V148.113H473.414V167.11H475.414ZM474.414 149.113H477.311V147.113H474.414V149.113ZM452.844 164.552V150.107H450.844V164.552H452.844ZM451.844 151.107H454.815V149.107H451.844V151.107ZM453.815 150.107V162.031H455.815V150.107H453.815ZM454.822 163.031C460.397 162.993 465.414 162.614 470.822 161.467L470.407 159.511C465.169 160.621 460.294 160.994 454.809 161.031L454.822 163.031ZM469.631 160.668L470.082 163.151L472.05 162.793L471.599 160.31L469.631 160.668ZM470.868 161.992C465.284 163.123 460.272 163.514 454.546 163.552L454.559 165.552C460.38 165.514 465.525 165.115 471.265 163.952L470.868 161.992ZM454.552 163.552H451.844V165.552H454.552V163.552ZM456.605 181.103V168.652H454.605V181.103H456.605ZM455.605 169.652H477.311V167.652H455.605V169.652ZM476.311 168.652V181.103H478.311V168.652H476.311ZM477.311 180.103H455.605V182.103H477.311V180.103ZM458.502 179.696H474.414V177.696H458.502V179.696ZM475.414 178.696V171.022H473.414V178.696H475.414ZM474.414 170.022H458.502V172.022H474.414V170.022ZM457.502 171.022V178.696H459.502V171.022H457.502Z" fill="black" mask="url(#path-6-outside-3_5013_6344)"/>
<g filter="url(#filter0_d_5013_6344)">
<circle cx="178.743" cy="124.997" r="68.2864" fill="black" stroke="black"/>
<path d="M152.51 104.901C165.503 106.596 175.409 99.017 178.738 95.0156V156.751C154.689 143.597 151.232 116.704 152.51 104.901Z" fill="white"/>
<path d="M204.962 105.011C191.97 106.705 182.064 99.1264 178.735 95.125V156.86C202.784 143.706 206.24 116.813 204.962 105.011Z" fill="white"/>
</g>
<g filter="url(#filter1_d_5013_6344)">
<path d="M96.1953 298.338C96.1953 280.103 110.978 265.32 129.213 265.32H506.162C524.397 265.32 539.179 280.103 539.179 298.338V372.627C539.179 390.862 524.397 405.644 506.162 405.644H129.213C110.978 405.644 96.1953 390.862 96.1953 372.627V298.338Z" fill="#0A0A0A"/>
<path d="M129.213 265.82H506.162C524.121 265.82 538.679 280.379 538.679 298.338V372.627C538.679 390.586 524.121 405.144 506.162 405.144H129.213C111.254 405.144 96.6953 390.586 96.6953 372.627V298.338C96.6953 280.379 111.254 265.82 129.213 265.82Z" stroke="black"/>
</g>
<mask id="path-13-outside-4_5013_6344" maskUnits="userSpaceOnUse" x="126.461" y="323.352" width="58" height="32" fill="black">
<rect fill="white" x="126.461" y="323.352" width="58" height="32"/>
<path d="M153.868 338.809V341.292H127.525V338.809H153.868ZM128.911 334.875C134.151 334.311 138.294 331.957 138.633 329.136H129.943V326.621H151.514V329.136H142.728C143.083 331.941 147.161 334.311 152.514 334.875L151.417 337.293C146.404 336.713 142.26 334.601 140.696 331.554C139.1 334.601 134.989 336.713 129.975 337.293L128.911 334.875ZM130.653 348.804C130.653 345.451 134.409 343.516 140.68 343.516C146.903 343.516 150.628 345.451 150.644 348.804C150.628 352.158 146.903 354.044 140.68 354.028C134.409 354.044 130.653 352.158 130.653 348.804ZM133.748 348.804C133.732 350.626 136.263 351.626 140.68 351.61C145.033 351.626 147.581 350.626 147.581 348.804C147.581 346.934 145.033 345.935 140.68 345.902C136.263 345.935 133.732 346.934 133.748 348.804ZM166.024 329.813C166.008 333.601 168.684 337.132 172.988 338.551L171.344 340.969C168.184 339.857 165.814 337.6 164.557 334.746C163.299 337.987 160.849 340.534 157.479 341.775L155.835 339.325C160.349 337.729 162.961 333.876 162.993 329.555V326.717H166.024V329.813ZM159.736 348.675C159.736 345.29 163.428 343.307 169.442 343.323C175.374 343.307 179.018 345.29 179.018 348.675C179.018 352.093 175.374 354.044 169.442 354.028C163.428 354.044 159.736 352.093 159.736 348.675ZM162.799 348.675C162.783 350.578 165.266 351.61 169.442 351.642C173.585 351.61 176.035 350.578 176.019 348.675C176.035 346.837 173.585 345.741 169.442 345.741C165.266 345.741 162.783 346.837 162.799 348.675ZM175.697 342.646V325.202H178.76V332.457H182.952V335.036H178.76V342.646H175.697Z"/>
</mask>
<path d="M153.868 338.809V341.292H127.525V338.809H153.868ZM128.911 334.875C134.151 334.311 138.294 331.957 138.633 329.136H129.943V326.621H151.514V329.136H142.728C143.083 331.941 147.161 334.311 152.514 334.875L151.417 337.293C146.404 336.713 142.26 334.601 140.696 331.554C139.1 334.601 134.989 336.713 129.975 337.293L128.911 334.875ZM130.653 348.804C130.653 345.451 134.409 343.516 140.68 343.516C146.903 343.516 150.628 345.451 150.644 348.804C150.628 352.158 146.903 354.044 140.68 354.028C134.409 354.044 130.653 352.158 130.653 348.804ZM133.748 348.804C133.732 350.626 136.263 351.626 140.68 351.61C145.033 351.626 147.581 350.626 147.581 348.804C147.581 346.934 145.033 345.935 140.68 345.902C136.263 345.935 133.732 346.934 133.748 348.804ZM166.024 329.813C166.008 333.601 168.684 337.132 172.988 338.551L171.344 340.969C168.184 339.857 165.814 337.6 164.557 334.746C163.299 337.987 160.849 340.534 157.479 341.775L155.835 339.325C160.349 337.729 162.961 333.876 162.993 329.555V326.717H166.024V329.813ZM159.736 348.675C159.736 345.29 163.428 343.307 169.442 343.323C175.374 343.307 179.018 345.29 179.018 348.675C179.018 352.093 175.374 354.044 169.442 354.028C163.428 354.044 159.736 352.093 159.736 348.675ZM162.799 348.675C162.783 350.578 165.266 351.61 169.442 351.642C173.585 351.61 176.035 350.578 176.019 348.675C176.035 346.837 173.585 345.741 169.442 345.741C165.266 345.741 162.783 346.837 162.799 348.675ZM175.697 342.646V325.202H178.76V332.457H182.952V335.036H178.76V342.646H175.697Z" fill="white"/>
<path d="M153.868 338.809H154.868V337.809H153.868V338.809ZM153.868 341.292V342.292H154.868V341.292H153.868ZM127.525 341.292H126.525V342.292H127.525V341.292ZM127.525 338.809V337.809H126.525V338.809H127.525ZM128.911 334.875L128.804 333.881L127.446 334.027L127.996 335.278L128.911 334.875ZM138.633 329.136L139.626 329.255L139.76 328.136H138.633V329.136ZM129.943 329.136H128.943V330.136H129.943V329.136ZM129.943 326.621V325.621H128.943V326.621H129.943ZM151.514 326.621H152.514V325.621H151.514V326.621ZM151.514 329.136V330.136H152.514V329.136H151.514ZM142.728 329.136V328.136H141.593L141.736 329.261L142.728 329.136ZM152.514 334.875L153.425 335.288L153.997 334.026L152.619 333.881L152.514 334.875ZM151.417 337.293L151.303 338.287L152.027 338.371L152.328 337.706L151.417 337.293ZM140.696 331.554L141.586 331.097L140.706 329.382L139.811 331.09L140.696 331.554ZM129.975 337.293L129.06 337.696L129.357 338.372L130.09 338.287L129.975 337.293ZM150.644 348.804L151.644 348.809L151.644 348.8L150.644 348.804ZM140.68 354.028L140.683 353.028L140.678 353.028L140.68 354.028ZM133.748 348.804L134.748 348.813L134.748 348.804L134.748 348.796L133.748 348.804ZM140.68 351.61L140.684 350.609L140.677 350.61L140.68 351.61ZM140.68 345.902L140.688 344.902L140.68 344.902L140.673 344.902L140.68 345.902ZM152.868 338.809V341.292H154.868V338.809H152.868ZM153.868 340.292H127.525V342.292H153.868V340.292ZM128.525 341.292V338.809H126.525V341.292H128.525ZM127.525 339.809H153.868V337.809H127.525V339.809ZM129.019 335.869C131.746 335.576 134.234 334.813 136.114 333.715C137.961 332.637 139.402 331.121 139.626 329.255L137.64 329.017C137.525 329.972 136.725 331.043 135.106 331.988C133.519 332.914 131.316 333.61 128.804 333.881L129.019 335.869ZM138.633 328.136H129.943V330.136H138.633V328.136ZM130.943 329.136V326.621H128.943V329.136H130.943ZM129.943 327.621H151.514V325.621H129.943V327.621ZM150.514 326.621V329.136H152.514V326.621H150.514ZM151.514 328.136H142.728V330.136H151.514V328.136ZM141.736 329.261C141.97 331.111 143.391 332.626 145.242 333.709C147.123 334.809 149.625 335.576 152.409 335.87L152.619 333.881C150.05 333.61 147.836 332.909 146.252 331.983C144.636 331.038 143.841 329.965 143.72 329.01L141.736 329.261ZM151.603 334.462L150.507 336.88L152.328 337.706L153.425 335.288L151.603 334.462ZM151.532 336.3C146.65 335.735 142.924 333.705 141.586 331.097L139.807 332.011C141.596 335.498 146.157 337.691 151.303 338.287L151.532 336.3ZM139.811 331.09C138.44 333.707 134.736 335.736 129.861 336.3L130.09 338.287C135.243 337.69 139.761 335.495 141.582 332.018L139.811 331.09ZM130.891 336.891L129.827 334.472L127.996 335.278L129.06 337.696L130.891 336.891ZM131.653 348.804C131.653 347.588 132.299 346.564 133.779 345.789C135.3 344.992 137.624 344.516 140.68 344.516V342.516C137.465 342.516 134.775 343.009 132.851 344.017C130.884 345.047 129.653 346.668 129.653 348.804H131.653ZM140.68 344.516C143.712 344.516 146.014 344.991 147.523 345.787C148.989 346.561 149.638 347.586 149.644 348.809L151.644 348.8C151.633 346.669 150.412 345.05 148.456 344.018C146.543 343.009 143.872 342.516 140.68 342.516V344.516ZM149.644 348.8C149.638 350.02 148.993 351.032 147.529 351.792C146.02 352.576 143.717 353.036 140.683 353.028L140.678 355.028C143.867 355.036 146.537 354.561 148.451 353.567C150.408 352.55 151.633 350.942 151.644 348.809L149.644 348.8ZM140.678 353.028C137.619 353.036 135.294 352.575 133.773 351.791C132.296 351.029 131.653 350.018 131.653 348.804H129.653C129.653 350.944 130.888 352.553 132.856 353.568C134.781 354.561 137.471 355.036 140.683 355.028L140.678 353.028ZM132.748 348.795C132.735 350.302 133.819 351.277 135.179 351.824C136.537 352.37 138.424 352.618 140.684 352.61L140.677 350.61C138.52 350.617 136.932 350.373 135.925 349.968C134.918 349.564 134.745 349.129 134.748 348.813L132.748 348.795ZM140.677 352.61C142.906 352.618 144.781 352.37 146.136 351.824C147.49 351.278 148.581 350.307 148.581 348.804H146.581C146.581 349.123 146.397 349.563 145.389 349.969C144.383 350.374 142.807 350.617 140.684 350.61L140.677 352.61ZM148.581 348.804C148.581 347.289 147.506 346.302 146.144 345.74C144.789 345.18 142.915 344.919 140.688 344.902L140.673 346.902C142.799 346.918 144.374 347.173 145.381 347.588C146.381 348.002 146.581 348.449 146.581 348.804H148.581ZM140.673 344.902C138.416 344.919 136.528 345.18 135.17 345.74C133.803 346.303 132.735 347.295 132.748 348.813L134.748 348.796C134.745 348.444 134.934 348 135.933 347.589C136.941 347.173 138.528 346.918 140.688 346.902L140.673 344.902ZM166.024 329.813L167.024 329.817V329.813H166.024ZM172.988 338.551L173.815 339.113L174.561 338.016L173.301 337.601L172.988 338.551ZM171.344 340.969L171.012 341.912L171.738 342.168L172.171 341.531L171.344 340.969ZM164.557 334.746L165.472 334.343L164.498 332.133L163.624 334.384L164.557 334.746ZM157.479 341.775L156.649 342.332L157.087 342.985L157.825 342.714L157.479 341.775ZM155.835 339.325L155.502 338.382L154.286 338.812L155.005 339.882L155.835 339.325ZM162.993 329.555L163.993 329.562V329.555H162.993ZM162.993 326.717V325.717H161.993V326.717H162.993ZM166.024 326.717H167.024V325.717H166.024V326.717ZM169.442 343.323L169.439 344.323L169.444 344.323L169.442 343.323ZM169.442 354.028L169.444 353.028L169.439 353.028L169.442 354.028ZM162.799 348.675L163.799 348.684L163.8 348.675L163.799 348.667L162.799 348.675ZM169.442 351.642L169.434 352.642L169.442 352.642L169.449 352.642L169.442 351.642ZM176.019 348.675L175.019 348.667L175.019 348.675L175.019 348.684L176.019 348.675ZM175.697 342.646H174.697V343.646H175.697V342.646ZM175.697 325.202V324.202H174.697V325.202H175.697ZM178.76 325.202H179.76V324.202H178.76V325.202ZM178.76 332.457H177.76V333.457H178.76V332.457ZM182.952 332.457H183.952V331.457H182.952V332.457ZM182.952 335.036V336.036H183.952V335.036H182.952ZM178.76 335.036V334.036H177.76V335.036H178.76ZM178.76 342.646V343.646H179.76V342.646H178.76ZM165.024 329.809C165.006 334.098 168.027 337.969 172.675 339.501L173.301 337.601C169.341 336.296 167.01 333.105 167.024 329.817L165.024 329.809ZM172.162 337.989L170.517 340.407L172.171 341.531L173.815 339.113L172.162 337.989ZM171.676 340.026C168.777 339.005 166.618 336.943 165.472 334.343L163.642 335.149C165.011 338.256 167.592 340.708 171.012 341.912L171.676 340.026ZM163.624 334.384C162.465 337.373 160.219 339.7 157.134 340.837L157.825 342.714C161.479 341.367 164.134 338.6 165.489 335.108L163.624 334.384ZM158.31 341.218L156.665 338.767L155.005 339.882L156.649 342.332L158.31 341.218ZM156.168 340.267C161.075 338.533 163.957 334.309 163.993 329.562L161.993 329.547C161.964 333.442 159.623 336.925 155.502 338.382L156.168 340.267ZM163.993 329.555V326.717H161.993V329.555H163.993ZM162.993 327.717H166.024V325.717H162.993V327.717ZM165.024 326.717V329.813H167.024V326.717H165.024ZM160.736 348.675C160.736 347.425 161.386 346.382 162.814 345.601C164.283 344.796 166.52 344.315 169.439 344.323L169.444 342.323C166.35 342.315 163.734 342.817 161.854 343.846C159.932 344.898 158.736 346.54 158.736 348.675H160.736ZM169.444 344.323C172.321 344.315 174.524 344.796 175.969 345.598C177.373 346.377 178.018 347.418 178.018 348.675H180.018C180.018 346.547 178.842 344.904 176.94 343.849C175.08 342.817 172.495 342.315 169.439 342.323L169.444 344.323ZM178.018 348.675C178.018 349.951 177.371 350.991 175.971 351.764C174.526 352.562 172.324 353.036 169.444 353.028L169.439 355.028C172.492 355.036 175.078 354.542 176.938 353.515C178.844 352.462 180.018 350.818 180.018 348.675H178.018ZM169.439 353.028C166.518 353.036 164.281 352.562 162.813 351.761C161.388 350.985 160.736 349.944 160.736 348.675H158.736C158.736 350.824 159.93 352.468 161.855 353.517C163.736 354.543 166.352 355.036 169.444 355.028L169.439 353.028ZM161.8 348.667C161.787 350.174 162.808 351.189 164.147 351.776C165.469 352.355 167.29 352.625 169.434 352.642L169.449 350.642C167.418 350.626 165.91 350.365 164.95 349.944C164.008 349.531 163.796 349.079 163.799 348.684L161.8 348.667ZM169.449 352.642C171.578 352.625 173.385 352.355 174.695 351.774C176.027 351.184 177.032 350.168 177.019 348.667L175.019 348.684C175.023 349.086 174.811 349.536 173.885 349.945C172.939 350.365 171.449 350.626 169.434 350.642L169.449 352.642ZM177.019 348.684C177.032 347.208 176.018 346.195 174.698 345.606C173.387 345.021 171.579 344.741 169.442 344.741V346.741C171.448 346.741 172.937 347.01 173.883 347.432C174.82 347.85 175.023 348.304 175.019 348.667L177.019 348.684ZM169.442 344.741C167.289 344.741 165.466 345.02 164.145 345.604C162.818 346.19 161.787 347.202 161.8 348.684L163.799 348.667C163.796 348.311 163.999 347.855 164.953 347.434C165.912 347.01 167.419 346.741 169.442 346.741V344.741ZM176.697 342.646V325.202H174.697V342.646H176.697ZM175.697 326.202H178.76V324.202H175.697V326.202ZM177.76 325.202V332.457H179.76V325.202H177.76ZM178.76 333.457H182.952V331.457H178.76V333.457ZM181.952 332.457V335.036H183.952V332.457H181.952ZM182.952 334.036H178.76V336.036H182.952V334.036ZM177.76 335.036V342.646H179.76V335.036H177.76ZM178.76 341.646H175.697V343.646H178.76V341.646Z" fill="black" mask="url(#path-13-outside-4_5013_6344)"/>
<mask id="path-15-outside-5_5013_6344" maskUnits="userSpaceOnUse" x="384.102" y="319.594" width="124" height="35" fill="black">
<rect fill="white" x="384.102" y="319.594" width="124" height="35"/>
<path d="M413.182 341.595V352.842H408.746V345.227H391.351V341.595H413.182ZM386.181 336.844C391.298 335.342 393.656 331.709 393.656 328.007V327.867H387.264V324.374H393.656V320.881H398.162V324.374H404.519V327.867H398.092V328.007C398.11 331.447 400.433 334.871 405.567 336.25L403.576 339.778C399.926 338.765 397.394 336.669 395.944 333.997C394.547 336.914 392.014 339.202 388.277 340.267L386.181 336.844ZM403.332 333.281V329.648H408.746V321.021H413.182V340.302H408.746V333.281H403.332ZM446.296 340.058V343.69H433.966V352.842H429.565V343.69H417.304V340.058H446.296ZM418.771 334.853C425.373 334.12 428.953 331.011 429.495 328.181H419.924V324.688H429.565V321.055H433.966V324.688H443.642V328.181H434.106C434.595 330.976 438.175 334.12 444.759 334.853L443.153 338.346C437.756 337.735 433.861 335.517 431.8 332.635C429.722 335.552 425.81 337.735 420.378 338.346L418.771 334.853ZM473.717 322.208V324.094C473.699 325.998 473.699 328.531 473.158 331.674L468.757 331.325C469.124 329.055 469.228 327.256 469.263 325.701H451.536V322.208H473.717ZM448.287 336.425V332.967H459.116V328.286H463.517V332.967H477.14V336.425H448.287ZM451.501 341.944V338.416H473.717V346.904H455.972V349.14H474.59V352.563H451.536V343.9H469.316V341.944H451.501ZM497.295 322.243V325.806H490.973C491.077 328.985 493.383 332.321 498.238 333.7L496.177 337.228C492.614 336.198 490.152 334.085 488.737 331.447C487.287 334.381 484.703 336.792 481.017 337.892L478.852 334.434C483.829 332.827 486.327 329.177 486.501 325.806H480.074V322.243H497.295ZM484.755 341.944V338.416H505.923V347.009H489.261V349.035H506.866V352.493H484.79V343.76H501.487V341.944H484.755ZM496.492 331.081V327.553H501.487V321.021H505.923V337.193H501.487V331.081H496.492Z"/>
</mask>
<path d="M413.182 341.595V352.842H408.746V345.227H391.351V341.595H413.182ZM386.181 336.844C391.298 335.342 393.656 331.709 393.656 328.007V327.867H387.264V324.374H393.656V320.881H398.162V324.374H404.519V327.867H398.092V328.007C398.11 331.447 400.433 334.871 405.567 336.25L403.576 339.778C399.926 338.765 397.394 336.669 395.944 333.997C394.547 336.914 392.014 339.202 388.277 340.267L386.181 336.844ZM403.332 333.281V329.648H408.746V321.021H413.182V340.302H408.746V333.281H403.332ZM446.296 340.058V343.69H433.966V352.842H429.565V343.69H417.304V340.058H446.296ZM418.771 334.853C425.373 334.12 428.953 331.011 429.495 328.181H419.924V324.688H429.565V321.055H433.966V324.688H443.642V328.181H434.106C434.595 330.976 438.175 334.12 444.759 334.853L443.153 338.346C437.756 337.735 433.861 335.517 431.8 332.635C429.722 335.552 425.81 337.735 420.378 338.346L418.771 334.853ZM473.717 322.208V324.094C473.699 325.998 473.699 328.531 473.158 331.674L468.757 331.325C469.124 329.055 469.228 327.256 469.263 325.701H451.536V322.208H473.717ZM448.287 336.425V332.967H459.116V328.286H463.517V332.967H477.14V336.425H448.287ZM451.501 341.944V338.416H473.717V346.904H455.972V349.14H474.59V352.563H451.536V343.9H469.316V341.944H451.501ZM497.295 322.243V325.806H490.973C491.077 328.985 493.383 332.321 498.238 333.7L496.177 337.228C492.614 336.198 490.152 334.085 488.737 331.447C487.287 334.381 484.703 336.792 481.017 337.892L478.852 334.434C483.829 332.827 486.327 329.177 486.501 325.806H480.074V322.243H497.295ZM484.755 341.944V338.416H505.923V347.009H489.261V349.035H506.866V352.493H484.79V343.76H501.487V341.944H484.755ZM496.492 331.081V327.553H501.487V321.021H505.923V337.193H501.487V331.081H496.492Z" fill="white"/>
<path d="M413.182 341.595H414.182V340.595H413.182V341.595ZM413.182 352.842V353.842H414.182V352.842H413.182ZM408.746 352.842H407.746V353.842H408.746V352.842ZM408.746 345.227H409.746V344.227H408.746V345.227ZM391.351 345.227H390.351V346.227H391.351V345.227ZM391.351 341.595V340.595H390.351V341.595H391.351ZM386.181 336.844L385.899 335.885L384.646 336.252L385.328 337.366L386.181 336.844ZM393.656 327.867H394.656V326.867H393.656V327.867ZM387.264 327.867H386.264V328.867H387.264V327.867ZM387.264 324.374V323.374H386.264V324.374H387.264ZM393.656 324.374V325.374H394.656V324.374H393.656ZM393.656 320.881V319.881H392.656V320.881H393.656ZM398.162 320.881H399.162V319.881H398.162V320.881ZM398.162 324.374H397.162V325.374H398.162V324.374ZM404.519 324.374H405.519V323.374H404.519V324.374ZM404.519 327.867V328.867H405.519V327.867H404.519ZM398.092 327.867V326.867H397.092V327.867H398.092ZM398.092 328.007H397.092L397.092 328.012L398.092 328.007ZM405.567 336.25L406.438 336.742L407.072 335.619L405.827 335.285L405.567 336.25ZM403.576 339.778L403.309 340.742L404.063 340.951L404.447 340.27L403.576 339.778ZM395.944 333.997L396.823 333.52L395.889 331.798L395.042 333.565L395.944 333.997ZM388.277 340.267L387.424 340.789L387.82 341.437L388.551 341.229L388.277 340.267ZM403.332 333.281H402.332V334.281H403.332V333.281ZM403.332 329.648V328.648H402.332V329.648H403.332ZM408.746 329.648V330.648H409.746V329.648H408.746ZM408.746 321.021V320.021H407.746V321.021H408.746ZM413.182 321.021H414.182V320.021H413.182V321.021ZM413.182 340.302V341.302H414.182V340.302H413.182ZM408.746 340.302H407.746V341.302H408.746V340.302ZM408.746 333.281H409.746V332.281H408.746V333.281ZM412.182 341.595V352.842H414.182V341.595H412.182ZM413.182 351.842H408.746V353.842H413.182V351.842ZM409.746 352.842V345.227H407.746V352.842H409.746ZM408.746 344.227H391.351V346.227H408.746V344.227ZM392.351 345.227V341.595H390.351V345.227H392.351ZM391.351 342.595H413.182V340.595H391.351V342.595ZM386.463 337.804C391.965 336.189 394.656 332.194 394.656 328.007H392.656C392.656 331.224 390.631 334.496 385.899 335.885L386.463 337.804ZM394.656 328.007V327.867H392.656V328.007H394.656ZM393.656 326.867H387.264V328.867H393.656V326.867ZM388.264 327.867V324.374H386.264V327.867H388.264ZM387.264 325.374H393.656V323.374H387.264V325.374ZM394.656 324.374V320.881H392.656V324.374H394.656ZM393.656 321.881H398.162V319.881H393.656V321.881ZM397.162 320.881V324.374H399.162V320.881H397.162ZM398.162 325.374H404.519V323.374H398.162V325.374ZM403.519 324.374V327.867H405.519V324.374H403.519ZM404.519 326.867H398.092V328.867H404.519V326.867ZM397.092 327.867V328.007H399.092V327.867H397.092ZM397.092 328.012C397.112 331.971 399.808 335.738 405.308 337.216L405.827 335.285C401.057 334.003 399.107 330.924 399.092 328.002L397.092 328.012ZM404.696 335.759L402.705 339.287L404.447 340.27L406.438 336.742L404.696 335.759ZM403.844 338.815C400.437 337.869 398.134 335.938 396.823 333.52L395.065 334.474C396.653 337.401 399.416 339.661 403.309 340.742L403.844 338.815ZM395.042 333.565C393.77 336.22 391.469 338.318 388.003 339.306L388.551 341.229C392.56 340.086 395.323 337.608 396.846 334.429L395.042 333.565ZM389.13 339.745L387.034 336.322L385.328 337.366L387.424 340.789L389.13 339.745ZM404.332 333.281V329.648H402.332V333.281H404.332ZM403.332 330.648H408.746V328.648H403.332V330.648ZM409.746 329.648V321.021H407.746V329.648H409.746ZM408.746 322.021H413.182V320.021H408.746V322.021ZM412.182 321.021V340.302H414.182V321.021H412.182ZM413.182 339.302H408.746V341.302H413.182V339.302ZM409.746 340.302V333.281H407.746V340.302H409.746ZM408.746 332.281H403.332V334.281H408.746V332.281ZM446.296 340.058H447.296V339.058H446.296V340.058ZM446.296 343.69V344.69H447.296V343.69H446.296ZM433.966 343.69V342.69H432.966V343.69H433.966ZM433.966 352.842V353.842H434.966V352.842H433.966ZM429.565 352.842H428.565V353.842H429.565V352.842ZM429.565 343.69H430.565V342.69H429.565V343.69ZM417.304 343.69H416.304V344.69H417.304V343.69ZM417.304 340.058V339.058H416.304V340.058H417.304ZM418.771 334.853L418.661 333.859L417.284 334.012L417.863 335.271L418.771 334.853ZM429.495 328.181L430.477 328.369L430.704 327.181H429.495V328.181ZM419.924 328.181H418.924V329.181H419.924V328.181ZM419.924 324.688V323.688H418.924V324.688H419.924ZM429.565 324.688V325.688H430.565V324.688H429.565ZM429.565 321.055V320.055H428.565V321.055H429.565ZM433.966 321.055H434.966V320.055H433.966V321.055ZM433.966 324.688H432.966V325.688H433.966V324.688ZM443.642 324.688H444.642V323.688H443.642V324.688ZM443.642 328.181V329.181H444.642V328.181H443.642ZM434.106 328.181V327.181H432.915L433.121 328.354L434.106 328.181ZM444.759 334.853L445.668 335.271L446.247 334.013L444.87 333.859L444.759 334.853ZM443.153 338.346L443.04 339.34L443.759 339.421L444.061 338.764L443.153 338.346ZM431.8 332.635L432.614 332.053L431.799 330.914L430.986 332.055L431.8 332.635ZM420.378 338.346L419.469 338.764L419.771 339.421L420.49 339.34L420.378 338.346ZM445.296 340.058V343.69H447.296V340.058H445.296ZM446.296 342.69H433.966V344.69H446.296V342.69ZM432.966 343.69V352.842H434.966V343.69H432.966ZM433.966 351.842H429.565V353.842H433.966V351.842ZM430.565 352.842V343.69H428.565V352.842H430.565ZM429.565 342.69H417.304V344.69H429.565V342.69ZM418.304 343.69V340.058H416.304V343.69H418.304ZM417.304 341.058H446.296V339.058H417.304V341.058ZM418.882 335.847C425.655 335.094 429.812 331.843 430.477 328.369L428.513 327.993C428.095 330.178 425.091 333.145 418.661 333.859L418.882 335.847ZM429.495 327.181H419.924V329.181H429.495V327.181ZM420.924 328.181V324.688H418.924V328.181H420.924ZM419.924 325.688H429.565V323.688H419.924V325.688ZM430.565 324.688V321.055H428.565V324.688H430.565ZM429.565 322.055H433.966V320.055H429.565V322.055ZM432.966 321.055V324.688H434.966V321.055H432.966ZM433.966 325.688H443.642V323.688H433.966V325.688ZM442.642 324.688V328.181H444.642V324.688H442.642ZM443.642 327.181H434.106V329.181H443.642V327.181ZM433.121 328.354C433.425 330.091 434.652 331.785 436.579 333.113C438.519 334.451 441.225 335.465 444.649 335.847L444.87 333.859C441.71 333.507 439.333 332.583 437.714 331.467C436.083 330.342 435.276 329.066 435.091 328.009L433.121 328.354ZM443.851 334.435L442.244 337.928L444.061 338.764L445.668 335.271L443.851 334.435ZM443.265 337.352C438.07 336.764 434.468 334.647 432.614 332.053L430.987 333.217C433.254 336.387 437.441 338.706 443.04 339.34L443.265 337.352ZM430.986 332.055C429.117 334.677 425.503 336.763 420.266 337.352L420.49 339.34C426.117 338.707 430.327 336.426 432.615 333.215L430.986 332.055ZM421.286 337.928L419.68 334.435L417.863 335.271L419.469 338.764L421.286 337.928ZM473.717 322.208H474.717V321.208H473.717V322.208ZM473.717 324.094L474.717 324.104V324.094H473.717ZM473.158 331.674L473.079 332.671L473.989 332.743L474.143 331.844L473.158 331.674ZM468.757 331.325L467.77 331.166L467.597 332.236L468.678 332.322L468.757 331.325ZM469.263 325.701L470.263 325.724L470.286 324.701H469.263V325.701ZM451.536 325.701H450.536V326.701H451.536V325.701ZM451.536 322.208V321.208H450.536V322.208H451.536ZM448.287 336.425H447.287V337.425H448.287V336.425ZM448.287 332.967V331.967H447.287V332.967H448.287ZM459.116 332.967V333.967H460.116V332.967H459.116ZM459.116 328.286V327.286H458.116V328.286H459.116ZM463.517 328.286H464.517V327.286H463.517V328.286ZM463.517 332.967H462.517V333.967H463.517V332.967ZM477.14 332.967H478.14V331.967H477.14V332.967ZM477.14 336.425V337.425H478.14V336.425H477.14ZM451.501 341.944H450.501V342.944H451.501V341.944ZM451.501 338.416V337.416H450.501V338.416H451.501ZM473.717 338.416H474.717V337.416H473.717V338.416ZM473.717 346.904V347.904H474.717V346.904H473.717ZM455.972 346.904V345.904H454.972V346.904H455.972ZM455.972 349.14H454.972V350.14H455.972V349.14ZM474.59 349.14H475.59V348.14H474.59V349.14ZM474.59 352.563V353.563H475.59V352.563H474.59ZM451.536 352.563H450.536V353.563H451.536V352.563ZM451.536 343.9V342.9H450.536V343.9H451.536ZM469.316 343.9V344.9H470.316V343.9H469.316ZM469.316 341.944H470.316V340.944H469.316V341.944ZM472.717 322.208V324.094H474.717V322.208H472.717ZM472.717 324.085C472.699 325.991 472.699 328.45 472.173 331.505L474.143 331.844C474.7 328.611 474.699 326.005 474.717 324.104L472.717 324.085ZM473.237 330.678L468.836 330.328L468.678 332.322L473.079 332.671L473.237 330.678ZM469.744 331.485C470.12 329.157 470.227 327.311 470.263 325.724L468.263 325.679C468.229 327.2 468.127 328.952 467.77 331.166L469.744 331.485ZM469.263 324.701H451.536V326.701H469.263V324.701ZM452.536 325.701V322.208H450.536V325.701H452.536ZM451.536 323.208H473.717V321.208H451.536V323.208ZM449.287 336.425V332.967H447.287V336.425H449.287ZM448.287 333.967H459.116V331.967H448.287V333.967ZM460.116 332.967V328.286H458.116V332.967H460.116ZM459.116 329.286H463.517V327.286H459.116V329.286ZM462.517 328.286V332.967H464.517V328.286H462.517ZM463.517 333.967H477.14V331.967H463.517V333.967ZM476.14 332.967V336.425H478.14V332.967H476.14ZM477.14 335.425H448.287V337.425H477.14V335.425ZM452.501 341.944V338.416H450.501V341.944H452.501ZM451.501 339.416H473.717V337.416H451.501V339.416ZM472.717 338.416V346.904H474.717V338.416H472.717ZM473.717 345.904H455.972V347.904H473.717V345.904ZM454.972 346.904V349.14H456.972V346.904H454.972ZM455.972 350.14H474.59V348.14H455.972V350.14ZM473.59 349.14V352.563H475.59V349.14H473.59ZM474.59 351.563H451.536V353.563H474.59V351.563ZM452.536 352.563V343.9H450.536V352.563H452.536ZM451.536 344.9H469.316V342.9H451.536V344.9ZM470.316 343.9V341.944H468.316V343.9H470.316ZM469.316 340.944H451.501V342.944H469.316V340.944ZM497.295 322.243H498.295V321.243H497.295V322.243ZM497.295 325.806V326.806H498.295V325.806H497.295ZM490.973 325.806V324.806H489.939L489.973 325.839L490.973 325.806ZM498.238 333.7L499.102 334.205L499.752 333.091L498.512 332.738L498.238 333.7ZM496.177 337.228L495.899 338.189L496.648 338.405L497.041 337.733L496.177 337.228ZM488.737 331.447L489.618 330.975L488.7 329.264L487.84 331.004L488.737 331.447ZM481.017 337.892L480.17 338.423L480.574 339.068L481.303 338.85L481.017 337.892ZM478.852 334.434L478.544 333.482L477.323 333.877L478.004 334.965L478.852 334.434ZM486.501 325.806L487.5 325.858L487.555 324.806H486.501V325.806ZM480.074 325.806H479.074V326.806H480.074V325.806ZM480.074 322.243V321.243H479.074V322.243H480.074ZM484.755 341.944H483.755V342.944H484.755V341.944ZM484.755 338.416V337.416H483.755V338.416H484.755ZM505.923 338.416H506.923V337.416H505.923V338.416ZM505.923 347.009V348.009H506.923V347.009H505.923ZM489.261 347.009V346.009H488.261V347.009H489.261ZM489.261 349.035H488.261V350.035H489.261V349.035ZM506.866 349.035H507.866V348.035H506.866V349.035ZM506.866 352.493V353.493H507.866V352.493H506.866ZM484.79 352.493H483.79V353.493H484.79V352.493ZM484.79 343.76V342.76H483.79V343.76H484.79ZM501.487 343.76V344.76H502.487V343.76H501.487ZM501.487 341.944H502.487V340.944H501.487V341.944ZM496.492 331.081H495.492V332.081H496.492V331.081ZM496.492 327.553V326.553H495.492V327.553H496.492ZM501.487 327.553V328.553H502.487V327.553H501.487ZM501.487 321.021V320.021H500.487V321.021H501.487ZM505.923 321.021H506.923V320.021H505.923V321.021ZM505.923 337.193V338.193H506.923V337.193H505.923ZM501.487 337.193H500.487V338.193H501.487V337.193ZM501.487 331.081H502.487V330.081H501.487V331.081ZM496.295 322.243V325.806H498.295V322.243H496.295ZM497.295 324.806H490.973V326.806H497.295V324.806ZM489.973 325.839C490.094 329.52 492.76 333.183 497.965 334.662L498.512 332.738C494.005 331.458 492.06 328.449 491.972 325.773L489.973 325.839ZM497.375 333.196L495.314 336.724L497.041 337.733L499.102 334.205L497.375 333.196ZM496.455 336.268C493.141 335.309 490.901 333.366 489.618 330.975L487.856 331.92C489.402 334.803 492.088 337.087 495.899 338.189L496.455 336.268ZM487.84 331.004C486.508 333.701 484.138 335.917 480.731 336.934L481.303 338.85C485.267 337.667 488.067 335.062 489.634 331.89L487.84 331.004ZM481.865 337.361L479.699 333.903L478.004 334.965L480.17 338.423L481.865 337.361ZM479.159 335.386C484.475 333.669 487.301 329.699 487.5 325.858L485.503 325.754C485.353 328.655 483.183 331.985 478.544 333.482L479.159 335.386ZM486.501 324.806H480.074V326.806H486.501V324.806ZM481.074 325.806V322.243H479.074V325.806H481.074ZM480.074 323.243H497.295V321.243H480.074V323.243ZM485.755 341.944V338.416H483.755V341.944H485.755ZM484.755 339.416H505.923V337.416H484.755V339.416ZM504.923 338.416V347.009H506.923V338.416H504.923ZM505.923 346.009H489.261V348.009H505.923V346.009ZM488.261 347.009V349.035H490.261V347.009H488.261ZM489.261 350.035H506.866V348.035H489.261V350.035ZM505.866 349.035V352.493H507.866V349.035H505.866ZM506.866 351.493H484.79V353.493H506.866V351.493ZM485.79 352.493V343.76H483.79V352.493H485.79ZM484.79 344.76H501.487V342.76H484.79V344.76ZM502.487 343.76V341.944H500.487V343.76H502.487ZM501.487 340.944H484.755V342.944H501.487V340.944ZM497.492 331.081V327.553H495.492V331.081H497.492ZM496.492 328.553H501.487V326.553H496.492V328.553ZM502.487 327.553V321.021H500.487V327.553H502.487ZM501.487 322.021H505.923V320.021H501.487V322.021ZM504.923 321.021V337.193H506.923V321.021H504.923ZM505.923 336.193H501.487V338.193H505.923V336.193ZM502.487 337.193V331.081H500.487V337.193H502.487ZM501.487 330.081H496.492V332.081H501.487V330.081Z" fill="black" mask="url(#path-15-outside-5_5013_6344)"/>
<g filter="url(#filter2_d_5013_6344)">
<path d="M96.1953 466.182C96.1953 447.946 110.978 433.164 129.213 433.164H506.162C524.397 433.164 539.179 447.946 539.179 466.182V540.471C539.179 558.706 524.397 573.488 506.162 573.488H129.213C110.978 573.488 96.1953 558.706 96.1953 540.471V466.182Z" fill="#0A0A0A"/>
<path d="M129.213 433.664H506.162C524.121 433.664 538.679 448.223 538.679 466.182V540.471C538.679 558.43 524.121 572.988 506.162 572.988H129.213C111.254 572.988 96.6953 558.43 96.6953 540.471V466.182C96.6953 448.223 111.254 433.664 129.213 433.664Z" stroke="black"/>
</g>
<mask id="path-19-outside-6_5013_6344" maskUnits="userSpaceOnUse" x="126.461" y="491.195" width="188" height="32" fill="black">
<rect fill="white" x="126.461" y="491.195" width="188" height="32"/>
<path d="M150.934 506.362V508.813H142.196V515.874H153.965V518.389H127.525V515.874H139.165V508.813H130.814V495.271H150.676V497.753H133.877V506.362H150.934ZM166.185 499.301C166.185 502.703 168.797 505.927 173.214 507.168L171.763 509.619C168.458 508.619 165.992 506.507 164.718 503.831C163.444 506.765 160.929 509.055 157.544 510.135L156.028 507.749C160.446 506.411 163.154 502.993 163.154 499.301V498.882H156.867V496.431H163.154V492.949H166.217V496.431H172.473V498.882H166.185V499.301ZM159.672 514.584V512.102H178.76V521.968H175.697V514.584H159.672ZM175.697 510.715V493.046H178.76V500.559H182.952V503.17H178.76V510.715H175.697ZM217.517 493.046V521.936H214.583V493.046H217.517ZM192.98 505.524C192.98 499.269 195.43 495.351 199.203 495.367C201.669 495.351 203.572 496.996 204.603 499.849H208.811V493.594H211.713V520.517H208.811V511.199H204.619C203.572 514.069 201.669 515.729 199.203 515.713C195.43 515.729 192.98 511.795 192.98 505.524ZM195.785 505.524C195.769 510.119 197.058 512.827 199.203 512.811C201.331 512.827 202.685 510.119 202.685 505.524C202.685 500.913 201.331 498.221 199.203 498.237C197.058 498.221 195.769 500.913 195.785 505.524ZM205.248 502.332C205.409 503.315 205.49 504.379 205.49 505.524C205.49 506.653 205.409 507.717 205.248 508.684H208.811V502.332H205.248ZM245.279 493.046V510.232H242.215V502.912H236.831V500.397H242.215V493.046H245.279ZM221.193 507.62C225.675 506.056 228.431 502.155 228.415 498.172V497.528H222.16V495.045H237.734V497.528H231.543V498.14C231.527 501.8 234.138 505.363 238.507 506.846L236.928 509.264C233.687 508.152 231.301 505.83 230.044 502.977C228.786 506.201 226.255 508.797 222.805 510.07L221.193 507.62ZM225.836 516.487C225.82 513.053 229.528 511.054 235.606 511.038C241.651 511.054 245.359 513.053 245.375 516.487C245.359 519.921 241.651 521.92 235.606 521.936C229.528 521.92 225.82 519.921 225.836 516.487ZM228.867 516.487C228.851 518.438 231.366 519.55 235.606 519.518C239.813 519.55 242.328 518.438 242.344 516.487C242.328 514.52 239.813 513.408 235.606 513.424C231.366 513.408 228.851 514.52 228.867 516.487ZM268.397 500.397C268.365 505.669 271.557 510.989 276.039 512.972L274.201 515.391C270.88 513.811 268.252 510.57 266.898 506.62C265.56 510.86 262.9 514.343 259.434 516.035L257.563 513.456C262.11 511.441 265.302 505.911 265.302 500.397V495.464H268.397V500.397ZM278.651 522.001V493.046H281.714V522.001H278.651ZM309.024 493.046V501.59H313.216V504.138H309.024V514.036H305.929V493.046H309.024ZM286.293 508.426C293.064 506.395 297.255 502.541 297.852 497.786H287.518V495.238H301.189C301.189 502.816 296.03 508.313 287.582 510.876L286.293 508.426ZM290.678 521.323V511.876H293.773V518.841H310.217V521.323H290.678Z"/>
</mask>
<path d="M150.934 506.362V508.813H142.196V515.874H153.965V518.389H127.525V515.874H139.165V508.813H130.814V495.271H150.676V497.753H133.877V506.362H150.934ZM166.185 499.301C166.185 502.703 168.797 505.927 173.214 507.168L171.763 509.619C168.458 508.619 165.992 506.507 164.718 503.831C163.444 506.765 160.929 509.055 157.544 510.135L156.028 507.749C160.446 506.411 163.154 502.993 163.154 499.301V498.882H156.867V496.431H163.154V492.949H166.217V496.431H172.473V498.882H166.185V499.301ZM159.672 514.584V512.102H178.76V521.968H175.697V514.584H159.672ZM175.697 510.715V493.046H178.76V500.559H182.952V503.17H178.76V510.715H175.697ZM217.517 493.046V521.936H214.583V493.046H217.517ZM192.98 505.524C192.98 499.269 195.43 495.351 199.203 495.367C201.669 495.351 203.572 496.996 204.603 499.849H208.811V493.594H211.713V520.517H208.811V511.199H204.619C203.572 514.069 201.669 515.729 199.203 515.713C195.43 515.729 192.98 511.795 192.98 505.524ZM195.785 505.524C195.769 510.119 197.058 512.827 199.203 512.811C201.331 512.827 202.685 510.119 202.685 505.524C202.685 500.913 201.331 498.221 199.203 498.237C197.058 498.221 195.769 500.913 195.785 505.524ZM205.248 502.332C205.409 503.315 205.49 504.379 205.49 505.524C205.49 506.653 205.409 507.717 205.248 508.684H208.811V502.332H205.248ZM245.279 493.046V510.232H242.215V502.912H236.831V500.397H242.215V493.046H245.279ZM221.193 507.62C225.675 506.056 228.431 502.155 228.415 498.172V497.528H222.16V495.045H237.734V497.528H231.543V498.14C231.527 501.8 234.138 505.363 238.507 506.846L236.928 509.264C233.687 508.152 231.301 505.83 230.044 502.977C228.786 506.201 226.255 508.797 222.805 510.07L221.193 507.62ZM225.836 516.487C225.82 513.053 229.528 511.054 235.606 511.038C241.651 511.054 245.359 513.053 245.375 516.487C245.359 519.921 241.651 521.92 235.606 521.936C229.528 521.92 225.82 519.921 225.836 516.487ZM228.867 516.487C228.851 518.438 231.366 519.55 235.606 519.518C239.813 519.55 242.328 518.438 242.344 516.487C242.328 514.52 239.813 513.408 235.606 513.424C231.366 513.408 228.851 514.52 228.867 516.487ZM268.397 500.397C268.365 505.669 271.557 510.989 276.039 512.972L274.201 515.391C270.88 513.811 268.252 510.57 266.898 506.62C265.56 510.86 262.9 514.343 259.434 516.035L257.563 513.456C262.11 511.441 265.302 505.911 265.302 500.397V495.464H268.397V500.397ZM278.651 522.001V493.046H281.714V522.001H278.651ZM309.024 493.046V501.59H313.216V504.138H309.024V514.036H305.929V493.046H309.024ZM286.293 508.426C293.064 506.395 297.255 502.541 297.852 497.786H287.518V495.238H301.189C301.189 502.816 296.03 508.313 287.582 510.876L286.293 508.426ZM290.678 521.323V511.876H293.773V518.841H310.217V521.323H290.678Z" fill="white"/>
<path d="M150.934 506.362H151.934V505.362H150.934V506.362ZM150.934 508.813V509.813H151.934V508.813H150.934ZM142.196 508.813V507.813H141.196V508.813H142.196ZM142.196 515.874H141.196V516.874H142.196V515.874ZM153.965 515.874H154.965V514.874H153.965V515.874ZM153.965 518.389V519.389H154.965V518.389H153.965ZM127.525 518.389H126.525V519.389H127.525V518.389ZM127.525 515.874V514.874H126.525V515.874H127.525ZM139.165 515.874V516.874H140.165V515.874H139.165ZM139.165 508.813H140.165V507.813H139.165V508.813ZM130.814 508.813H129.814V509.813H130.814V508.813ZM130.814 495.271V494.271H129.814V495.271H130.814ZM150.676 495.271H151.676V494.271H150.676V495.271ZM150.676 497.753V498.753H151.676V497.753H150.676ZM133.877 497.753V496.753H132.877V497.753H133.877ZM133.877 506.362H132.877V507.362H133.877V506.362ZM149.934 506.362V508.813H151.934V506.362H149.934ZM150.934 507.813H142.196V509.813H150.934V507.813ZM141.196 508.813V515.874H143.196V508.813H141.196ZM142.196 516.874H153.965V514.874H142.196V516.874ZM152.965 515.874V518.389H154.965V515.874H152.965ZM153.965 517.389H127.525V519.389H153.965V517.389ZM128.525 518.389V515.874H126.525V518.389H128.525ZM127.525 516.874H139.165V514.874H127.525V516.874ZM140.165 515.874V508.813H138.165V515.874H140.165ZM139.165 507.813H130.814V509.813H139.165V507.813ZM131.814 508.813V495.271H129.814V508.813H131.814ZM130.814 496.271H150.676V494.271H130.814V496.271ZM149.676 495.271V497.753H151.676V495.271H149.676ZM150.676 496.753H133.877V498.753H150.676V496.753ZM132.877 497.753V506.362H134.877V497.753H132.877ZM133.877 507.362H150.934V505.362H133.877V507.362ZM173.214 507.168L174.075 507.678L174.738 506.558L173.485 506.206L173.214 507.168ZM171.763 509.619L171.474 510.576L172.224 510.803L172.624 510.128L171.763 509.619ZM164.718 503.831L165.621 503.402L164.676 501.416L163.801 503.433L164.718 503.831ZM157.544 510.135L156.7 510.671L157.113 511.322L157.848 511.088L157.544 510.135ZM156.028 507.749L155.738 506.792L154.478 507.174L155.184 508.285L156.028 507.749ZM163.154 498.882H164.154V497.882H163.154V498.882ZM156.867 498.882H155.867V499.882H156.867V498.882ZM156.867 496.431V495.431H155.867V496.431H156.867ZM163.154 496.431V497.431H164.154V496.431H163.154ZM163.154 492.949V491.949H162.154V492.949H163.154ZM166.217 492.949H167.217V491.949H166.217V492.949ZM166.217 496.431H165.217V497.431H166.217V496.431ZM172.473 496.431H173.473V495.431H172.473V496.431ZM172.473 498.882V499.882H173.473V498.882H172.473ZM166.185 498.882V497.882H165.185V498.882H166.185ZM159.672 514.584H158.672V515.584H159.672V514.584ZM159.672 512.102V511.102H158.672V512.102H159.672ZM178.76 512.102H179.76V511.102H178.76V512.102ZM178.76 521.968V522.968H179.76V521.968H178.76ZM175.697 521.968H174.697V522.968H175.697V521.968ZM175.697 514.584H176.697V513.584H175.697V514.584ZM175.697 510.715H174.697V511.715H175.697V510.715ZM175.697 493.046V492.046H174.697V493.046H175.697ZM178.76 493.046H179.76V492.046H178.76V493.046ZM178.76 500.559H177.76V501.559H178.76V500.559ZM182.952 500.559H183.952V499.559H182.952V500.559ZM182.952 503.17V504.17H183.952V503.17H182.952ZM178.76 503.17V502.17H177.76V503.17H178.76ZM178.76 510.715V511.715H179.76V510.715H178.76ZM165.185 499.301C165.185 503.258 168.208 506.8 172.944 508.131L173.485 506.206C169.386 505.054 167.185 502.147 167.185 499.301H165.185ZM172.354 506.659L170.903 509.109L172.624 510.128L174.075 507.678L172.354 506.659ZM172.053 508.662C168.993 507.736 166.763 505.801 165.621 503.402L163.815 504.261C165.22 507.214 167.923 509.502 171.474 510.576L172.053 508.662ZM163.801 503.433C162.647 506.09 160.364 508.185 157.24 509.182L157.848 511.088C161.495 509.924 164.241 507.441 165.635 504.229L163.801 503.433ZM158.388 509.599L156.872 507.213L155.184 508.285L156.7 510.671L158.388 509.599ZM156.318 508.706C161.069 507.267 164.154 503.519 164.154 499.301H162.154C162.154 502.466 159.823 505.555 155.738 506.792L156.318 508.706ZM164.154 499.301V498.882H162.154V499.301H164.154ZM163.154 497.882H156.867V499.882H163.154V497.882ZM157.867 498.882V496.431H155.867V498.882H157.867ZM156.867 497.431H163.154V495.431H156.867V497.431ZM164.154 496.431V492.949H162.154V496.431H164.154ZM163.154 493.949H166.217V491.949H163.154V493.949ZM165.217 492.949V496.431H167.217V492.949H165.217ZM166.217 497.431H172.473V495.431H166.217V497.431ZM171.473 496.431V498.882H173.473V496.431H171.473ZM172.473 497.882H166.185V499.882H172.473V497.882ZM165.185 498.882V499.301H167.185V498.882H165.185ZM160.672 514.584V512.102H158.672V514.584H160.672ZM159.672 513.102H178.76V511.102H159.672V513.102ZM177.76 512.102V521.968H179.76V512.102H177.76ZM178.76 520.968H175.697V522.968H178.76V520.968ZM176.697 521.968V514.584H174.697V521.968H176.697ZM175.697 513.584H159.672V515.584H175.697V513.584ZM176.697 510.715V493.046H174.697V510.715H176.697ZM175.697 494.046H178.76V492.046H175.697V494.046ZM177.76 493.046V500.559H179.76V493.046H177.76ZM178.76 501.559H182.952V499.559H178.76V501.559ZM181.952 500.559V503.17H183.952V500.559H181.952ZM182.952 502.17H178.76V504.17H182.952V502.17ZM177.76 503.17V510.715H179.76V503.17H177.76ZM178.76 509.715H175.697V511.715H178.76V509.715ZM217.517 493.046H218.517V492.046H217.517V493.046ZM217.517 521.936V522.936H218.517V521.936H217.517ZM214.583 521.936H213.583V522.936H214.583V521.936ZM214.583 493.046V492.046H213.583V493.046H214.583ZM199.203 495.367L199.198 496.367L199.209 496.367L199.203 495.367ZM204.603 499.849L203.663 500.189L203.902 500.849H204.603V499.849ZM208.811 499.849V500.849H209.811V499.849H208.811ZM208.811 493.594V492.594H207.811V493.594H208.811ZM211.713 493.594H212.713V492.594H211.713V493.594ZM211.713 520.517V521.517H212.713V520.517H211.713ZM208.811 520.517H207.811V521.517H208.811V520.517ZM208.811 511.199H209.811V510.199H208.811V511.199ZM204.619 511.199V510.199H203.92L203.68 510.856L204.619 511.199ZM199.203 515.713L199.209 514.713L199.198 514.713L199.203 515.713ZM195.785 505.524L196.785 505.528L196.785 505.521L195.785 505.524ZM199.203 512.811L199.21 511.811L199.203 511.811L199.195 511.811L199.203 512.811ZM199.203 498.237L199.195 499.237L199.203 499.237L199.21 499.237L199.203 498.237ZM205.248 502.332V501.332H204.071L204.261 502.494L205.248 502.332ZM205.248 508.684L204.262 508.519L204.068 509.684H205.248V508.684ZM208.811 508.684V509.684H209.811V508.684H208.811ZM208.811 502.332H209.811V501.332H208.811V502.332ZM216.517 493.046V521.936H218.517V493.046H216.517ZM217.517 520.936H214.583V522.936H217.517V520.936ZM215.583 521.936V493.046H213.583V521.936H215.583ZM214.583 494.046H217.517V492.046H214.583V494.046ZM193.98 505.524C193.98 502.509 194.573 500.168 195.528 498.619C196.462 497.103 197.719 496.361 199.198 496.367L199.207 494.367C196.914 494.357 195.059 495.567 193.825 497.569C192.611 499.539 191.98 502.284 191.98 505.524H193.98ZM199.209 496.367C201.116 496.355 202.722 497.588 203.663 500.189L205.544 499.509C204.421 496.403 202.223 494.348 199.196 494.367L199.209 496.367ZM204.603 500.849H208.811V498.849H204.603V500.849ZM209.811 499.849V493.594H207.811V499.849H209.811ZM208.811 494.594H211.713V492.594H208.811V494.594ZM210.713 493.594V520.517H212.713V493.594H210.713ZM211.713 519.517H208.811V521.517H211.713V519.517ZM209.811 520.517V511.199H207.811V520.517H209.811ZM208.811 510.199H204.619V512.199H208.811V510.199ZM203.68 510.856C202.721 513.482 201.111 514.725 199.209 514.713L199.196 516.713C202.227 516.733 204.422 514.655 205.559 511.542L203.68 510.856ZM199.198 514.713C197.721 514.719 196.464 513.976 195.528 512.453C194.573 510.897 193.98 508.548 193.98 505.524H191.98C191.98 508.772 192.611 511.525 193.824 513.5C195.057 515.508 196.912 516.723 199.207 516.713L199.198 514.713ZM194.785 505.521C194.776 507.889 195.101 509.883 195.779 511.323C196.467 512.784 197.613 513.823 199.21 513.811L199.195 511.811C198.648 511.815 198.077 511.508 197.588 510.471C197.089 509.411 196.777 507.754 196.785 505.528L194.785 505.521ZM199.195 513.811C200.781 513.823 201.937 512.788 202.642 511.332C203.338 509.893 203.685 507.898 203.685 505.524H201.685C201.685 507.745 201.354 509.401 200.842 510.461C200.337 511.504 199.752 511.815 199.21 511.811L199.195 513.811ZM203.685 505.524C203.685 503.143 203.338 501.147 202.642 499.709C201.936 498.253 200.778 497.225 199.195 497.237L199.21 499.237C199.755 499.233 200.338 499.543 200.842 500.582C201.354 501.639 201.685 503.295 201.685 505.524H203.685ZM199.21 497.237C197.615 497.225 196.468 498.257 195.779 499.719C195.101 501.157 194.776 503.151 194.785 505.528L196.785 505.521C196.777 503.286 197.089 501.629 197.588 500.572C198.075 499.538 198.646 499.233 199.195 499.237L199.21 497.237ZM204.261 502.494C204.413 503.416 204.49 504.426 204.49 505.524H206.49C206.49 504.333 206.406 503.214 206.235 502.17L204.261 502.494ZM204.49 505.524C204.49 506.606 204.413 507.615 204.262 508.519L206.235 508.848C206.406 507.819 206.49 506.699 206.49 505.524H204.49ZM205.248 509.684H208.811V507.684H205.248V509.684ZM209.811 508.684V502.332H207.811V508.684H209.811ZM208.811 501.332H205.248V503.332H208.811V501.332ZM245.279 493.046H246.279V492.046H245.279V493.046ZM245.279 510.232V511.232H246.279V510.232H245.279ZM242.215 510.232H241.215V511.232H242.215V510.232ZM242.215 502.912H243.215V501.912H242.215V502.912ZM236.831 502.912H235.831V503.912H236.831V502.912ZM236.831 500.397V499.397H235.831V500.397H236.831ZM242.215 500.397V501.397H243.215V500.397H242.215ZM242.215 493.046V492.046H241.215V493.046H242.215ZM221.193 507.62L220.863 506.676L219.652 507.098L220.357 508.169L221.193 507.62ZM228.415 498.172H227.415L227.415 498.177L228.415 498.172ZM228.415 497.528H229.415V496.528H228.415V497.528ZM222.16 497.528H221.16V498.528H222.16V497.528ZM222.16 495.045V494.045H221.16V495.045H222.16ZM237.734 495.045H238.734V494.045H237.734V495.045ZM237.734 497.528V498.528H238.734V497.528H237.734ZM231.543 497.528V496.528H230.543V497.528H231.543ZM231.543 498.14L232.543 498.145V498.14H231.543ZM238.507 506.846L239.345 507.393L240.05 506.314L238.829 505.899L238.507 506.846ZM236.928 509.264L236.603 510.21L237.339 510.463L237.765 509.811L236.928 509.264ZM230.044 502.977L230.959 502.574L229.987 500.369L229.112 502.613L230.044 502.977ZM222.805 510.07L221.969 510.62L222.406 511.284L223.151 511.008L222.805 510.07ZM225.836 516.487L226.836 516.492L226.836 516.482L225.836 516.487ZM235.606 511.038L235.608 510.038L235.603 510.038L235.606 511.038ZM245.375 516.487L246.375 516.492L246.375 516.482L245.375 516.487ZM235.606 521.936L235.603 522.936L235.608 522.936L235.606 521.936ZM228.867 516.487L229.867 516.495L229.867 516.487L229.867 516.479L228.867 516.487ZM235.606 519.518L235.613 518.518L235.606 518.518L235.598 518.518L235.606 519.518ZM242.344 516.487L243.344 516.495L243.345 516.487L243.344 516.479L242.344 516.487ZM235.606 513.424L235.602 514.424L235.609 514.424L235.606 513.424ZM244.279 493.046V510.232H246.279V493.046H244.279ZM245.279 509.232H242.215V511.232H245.279V509.232ZM243.215 510.232V502.912H241.215V510.232H243.215ZM242.215 501.912H236.831V503.912H242.215V501.912ZM237.831 502.912V500.397H235.831V502.912H237.831ZM236.831 501.397H242.215V499.397H236.831V501.397ZM243.215 500.397V493.046H241.215V500.397H243.215ZM242.215 494.046H245.279V492.046H242.215V494.046ZM221.522 508.564C226.365 506.874 229.433 502.62 229.415 498.168L227.415 498.177C227.429 501.689 224.984 505.238 220.863 506.676L221.522 508.564ZM229.415 498.172V497.528H227.415V498.172H229.415ZM228.415 496.528H222.16V498.528H228.415V496.528ZM223.16 497.528V495.045H221.16V497.528H223.16ZM222.16 496.045H237.734V494.045H222.16V496.045ZM236.734 495.045V497.528H238.734V495.045H236.734ZM237.734 496.528H231.543V498.528H237.734V496.528ZM230.543 497.528V498.14H232.543V497.528H230.543ZM230.543 498.136C230.525 502.294 233.479 506.195 238.186 507.793L238.829 505.899C234.798 504.531 232.529 501.305 232.543 498.145L230.543 498.136ZM237.67 506.299L236.09 508.717L237.765 509.811L239.345 507.393L237.67 506.299ZM237.252 508.318C234.283 507.299 232.107 505.179 230.959 502.574L229.128 503.38C230.495 506.482 233.091 509.005 236.603 510.21L237.252 508.318ZM229.112 502.613C227.956 505.578 225.633 507.96 222.459 509.132L223.151 511.008C226.876 509.633 229.616 506.824 230.975 503.34L229.112 502.613ZM223.64 509.521L222.028 507.07L220.357 508.169L221.969 510.62L223.64 509.521ZM226.836 516.482C226.83 515.206 227.483 514.149 228.919 513.356C230.398 512.538 232.655 512.046 235.608 512.038L235.603 510.038C232.478 510.046 229.842 510.561 227.952 511.605C226.018 512.674 224.826 514.334 224.836 516.492L226.836 516.482ZM235.603 512.038C238.539 512.046 240.788 512.538 242.268 513.356C243.706 514.151 244.369 515.211 244.375 516.492L246.375 516.482C246.365 514.329 245.167 512.673 243.235 511.605C241.346 510.561 238.718 510.046 235.608 510.038L235.603 512.038ZM244.375 516.482C244.369 517.763 243.706 518.823 242.268 519.618C240.788 520.436 238.539 520.928 235.603 520.936L235.608 522.936C238.718 522.928 241.346 522.413 243.235 521.368C245.167 520.301 246.365 518.645 246.375 516.492L244.375 516.482ZM235.608 520.936C232.655 520.928 230.398 520.435 228.919 519.618C227.483 518.824 226.83 517.768 226.836 516.492L224.836 516.482C224.826 518.64 226.018 520.3 227.952 521.368C229.842 522.413 232.478 522.928 235.603 522.936L235.608 520.936ZM227.867 516.479C227.854 517.997 228.868 519.048 230.231 519.659C231.575 520.26 233.428 520.534 235.613 520.518L235.598 518.518C233.543 518.533 232.018 518.267 231.049 517.833C230.099 517.408 229.863 516.927 229.867 516.495L227.867 516.479ZM235.598 520.518C237.768 520.534 239.612 520.26 240.956 519.659C242.317 519.049 243.332 518.005 243.344 516.495L241.345 516.479C241.341 516.92 241.09 517.407 240.138 517.833C239.168 518.268 237.651 518.533 235.613 518.518L235.598 520.518ZM243.344 516.479C243.332 514.965 242.322 513.915 240.958 513.3C239.615 512.694 237.771 512.415 235.602 512.424L235.609 514.424C237.648 514.416 239.165 514.685 240.136 515.123C241.085 515.552 241.341 516.042 241.345 516.495L243.344 516.479ZM235.609 512.424C233.425 512.415 231.573 512.694 230.229 513.3C228.863 513.916 227.854 514.972 227.867 516.495L229.867 516.479C229.863 516.035 230.103 515.551 231.051 515.123C232.021 514.686 233.546 514.416 235.602 514.424L235.609 512.424ZM268.397 500.397L269.397 500.403V500.397H268.397ZM276.039 512.972L276.835 513.577L277.601 512.57L276.444 512.058L276.039 512.972ZM274.201 515.391L273.772 516.294L274.506 516.643L274.997 515.996L274.201 515.391ZM266.898 506.62L267.844 506.296L266.859 503.422L265.944 506.319L266.898 506.62ZM259.434 516.035L258.624 516.622L259.117 517.303L259.872 516.934L259.434 516.035ZM257.563 513.456L257.158 512.542L256.029 513.042L256.754 514.043L257.563 513.456ZM265.302 495.464V494.464H264.302V495.464H265.302ZM268.397 495.464H269.397V494.464H268.397V495.464ZM278.651 522.001H277.651V523.001H278.651V522.001ZM278.651 493.046V492.046H277.651V493.046H278.651ZM281.714 493.046H282.714V492.046H281.714V493.046ZM281.714 522.001V523.001H282.714V522.001H281.714ZM267.397 500.391C267.363 506.013 270.746 511.724 275.634 513.887L276.444 512.058C272.368 510.255 269.367 505.326 269.397 500.403L267.397 500.391ZM275.243 512.367L273.405 514.785L274.997 515.996L276.835 513.577L275.243 512.367ZM274.631 514.488C271.6 513.046 269.129 510.045 267.844 506.296L265.952 506.945C267.375 511.095 270.161 514.576 273.772 516.294L274.631 514.488ZM265.944 506.319C264.668 510.364 262.158 513.592 258.995 515.137L259.872 516.934C263.641 515.093 266.452 511.356 267.852 506.921L265.944 506.319ZM260.243 515.448L258.373 512.869L256.754 514.043L258.624 516.622L260.243 515.448ZM257.969 514.37C262.94 512.167 266.302 506.232 266.302 500.397H264.302C264.302 505.59 261.28 510.715 257.158 512.542L257.969 514.37ZM266.302 500.397V495.464H264.302V500.397H266.302ZM265.302 496.464H268.397V494.464H265.302V496.464ZM267.397 495.464V500.397H269.397V495.464H267.397ZM279.651 522.001V493.046H277.651V522.001H279.651ZM278.651 494.046H281.714V492.046H278.651V494.046ZM280.714 493.046V522.001H282.714V493.046H280.714ZM281.714 521.001H278.651V523.001H281.714V521.001ZM309.024 493.046H310.024V492.046H309.024V493.046ZM309.024 501.59H308.024V502.59H309.024V501.59ZM313.216 501.59H314.216V500.59H313.216V501.59ZM313.216 504.138V505.138H314.216V504.138H313.216ZM309.024 504.138V503.138H308.024V504.138H309.024ZM309.024 514.036V515.036H310.024V514.036H309.024ZM305.929 514.036H304.929V515.036H305.929V514.036ZM305.929 493.046V492.046H304.929V493.046H305.929ZM286.293 508.426L286.005 507.468L284.842 507.817L285.408 508.892L286.293 508.426ZM297.852 497.786L298.844 497.91L298.985 496.786H297.852V497.786ZM287.518 497.786H286.518V498.786H287.518V497.786ZM287.518 495.238V494.238H286.518V495.238H287.518ZM301.189 495.238H302.189V494.238H301.189V495.238ZM287.582 510.876L286.697 511.342L287.082 512.073L287.873 511.833L287.582 510.876ZM290.678 521.323H289.678V522.323H290.678V521.323ZM290.678 511.876V510.876H289.678V511.876H290.678ZM293.773 511.876H294.773V510.876H293.773V511.876ZM293.773 518.841H292.773V519.841H293.773V518.841ZM310.217 518.841H311.217V517.841H310.217V518.841ZM310.217 521.323V522.323H311.217V521.323H310.217ZM308.024 493.046V501.59H310.024V493.046H308.024ZM309.024 502.59H313.216V500.59H309.024V502.59ZM312.216 501.59V504.138H314.216V501.59H312.216ZM313.216 503.138H309.024V505.138H313.216V503.138ZM308.024 504.138V514.036H310.024V504.138H308.024ZM309.024 513.036H305.929V515.036H309.024V513.036ZM306.929 514.036V493.046H304.929V514.036H306.929ZM305.929 494.046H309.024V492.046H305.929V494.046ZM286.58 509.384C293.522 507.301 298.176 503.237 298.844 497.91L296.86 497.661C296.335 501.846 292.605 505.488 286.005 507.468L286.58 509.384ZM297.852 496.786H287.518V498.786H297.852V496.786ZM288.518 497.786V495.238H286.518V497.786H288.518ZM287.518 496.238H301.189V494.238H287.518V496.238ZM300.189 495.238C300.189 502.238 295.466 507.439 287.292 509.92L287.873 511.833C296.594 509.187 302.189 503.393 302.189 495.238H300.189ZM288.467 510.411L287.177 507.96L285.408 508.892L286.697 511.342L288.467 510.411ZM291.678 521.323V511.876H289.678V521.323H291.678ZM290.678 512.876H293.773V510.876H290.678V512.876ZM292.773 511.876V518.841H294.773V511.876H292.773ZM293.773 519.841H310.217V517.841H293.773V519.841ZM309.217 518.841V521.323H311.217V518.841H309.217ZM310.217 520.323H290.678V522.323H310.217V520.323Z" fill="black" mask="url(#path-19-outside-6_5013_6344)"/>
<mask id="path-21-outside-7_5013_6344" maskUnits="userSpaceOnUse" x="397.102" y="485.438" width="112" height="41" fill="black">
<rect fill="white" x="397.102" y="485.438" width="112" height="41"/>
<path d="M399.857 486.769H425.512C432.347 486.769 434.922 489.444 434.922 494.941V497.318C434.922 500.042 433.931 502.172 432 503.608C434.179 504.995 435.17 507.174 435.17 509.997V512.869C435.17 518.119 432.941 521.438 426.403 521.438H399.857C399.114 521.438 398.768 521.091 398.768 520.348V515.94C398.768 515.197 399.114 514.851 399.857 514.851H424.175C426.75 514.851 427.84 513.91 427.84 511.78V509.947C427.84 507.917 426.8 506.778 423.531 506.778H400.155C399.412 506.778 399.015 506.431 399.015 505.688V502.172C399.015 501.429 399.412 501.082 400.155 501.082H423.531C426.8 501.082 427.79 500.042 427.79 498.111V496.377C427.79 494.297 426.701 493.356 424.076 493.356H399.857C399.114 493.356 398.768 493.009 398.768 492.267V487.859C398.768 487.116 399.114 486.769 399.857 486.769ZM468.036 509.177V512.67H456.055V517.805H451.654V512.67H438.939V509.177H468.036ZM442.362 524.092V515.29H446.763V520.529H464.823V524.092H442.362ZM442.677 506.941V493.877H447.078V497.196H459.828V493.877H464.264V506.941H442.677ZM447.078 503.413H459.828V500.514H447.078V503.413ZM505.621 496.148V499.746H479.528V496.148H490.392V492.829H494.828V496.148H505.621ZM478.131 517.036V513.403H507.228V517.036H494.828V524.686H490.392V517.036H478.131ZM481.659 506.417C481.642 502.889 485.746 500.968 492.627 500.968C499.456 500.968 503.578 502.889 503.596 506.417C503.578 509.928 499.456 511.849 492.627 511.867C485.746 511.849 481.642 509.928 481.659 506.417ZM486.27 506.417C486.27 507.867 488.366 508.548 492.627 508.548C496.836 508.548 498.95 507.867 498.95 506.417C498.95 504.968 496.836 504.269 492.627 504.252C488.366 504.269 486.27 504.968 486.27 506.417Z"/>
</mask>
<path d="M399.857 486.769H425.512C432.347 486.769 434.922 489.444 434.922 494.941V497.318C434.922 500.042 433.931 502.172 432 503.608C434.179 504.995 435.17 507.174 435.17 509.997V512.869C435.17 518.119 432.941 521.438 426.403 521.438H399.857C399.114 521.438 398.768 521.091 398.768 520.348V515.94C398.768 515.197 399.114 514.851 399.857 514.851H424.175C426.75 514.851 427.84 513.91 427.84 511.78V509.947C427.84 507.917 426.8 506.778 423.531 506.778H400.155C399.412 506.778 399.015 506.431 399.015 505.688V502.172C399.015 501.429 399.412 501.082 400.155 501.082H423.531C426.8 501.082 427.79 500.042 427.79 498.111V496.377C427.79 494.297 426.701 493.356 424.076 493.356H399.857C399.114 493.356 398.768 493.009 398.768 492.267V487.859C398.768 487.116 399.114 486.769 399.857 486.769ZM468.036 509.177V512.67H456.055V517.805H451.654V512.67H438.939V509.177H468.036ZM442.362 524.092V515.29H446.763V520.529H464.823V524.092H442.362ZM442.677 506.941V493.877H447.078V497.196H459.828V493.877H464.264V506.941H442.677ZM447.078 503.413H459.828V500.514H447.078V503.413ZM505.621 496.148V499.746H479.528V496.148H490.392V492.829H494.828V496.148H505.621ZM478.131 517.036V513.403H507.228V517.036H494.828V524.686H490.392V517.036H478.131ZM481.659 506.417C481.642 502.889 485.746 500.968 492.627 500.968C499.456 500.968 503.578 502.889 503.596 506.417C503.578 509.928 499.456 511.849 492.627 511.867C485.746 511.849 481.642 509.928 481.659 506.417ZM486.27 506.417C486.27 507.867 488.366 508.548 492.627 508.548C496.836 508.548 498.95 507.867 498.95 506.417C498.95 504.968 496.836 504.269 492.627 504.252C488.366 504.269 486.27 504.968 486.27 506.417Z" fill="white"/>
<path d="M432 503.608L431.403 502.806L430.238 503.672L431.463 504.452L432 503.608ZM399.857 487.769H425.512V485.769H399.857V487.769ZM425.512 487.769C428.833 487.769 430.883 488.425 432.109 489.535C433.31 490.622 433.922 492.331 433.922 494.941H435.922C435.922 492.054 435.246 489.676 433.451 488.052C431.681 486.45 429.025 485.769 425.512 485.769V487.769ZM433.922 494.941V497.318H435.922V494.941H433.922ZM433.922 497.318C433.922 499.773 433.045 501.585 431.403 502.806L432.597 504.411C434.817 502.759 435.922 500.311 435.922 497.318H433.922ZM431.463 504.452C433.292 505.616 434.17 507.436 434.17 509.997H436.17C436.17 506.912 435.066 504.374 432.537 502.764L431.463 504.452ZM434.17 509.997V512.869H436.17V509.997H434.17ZM434.17 512.869C434.17 515.377 433.634 517.222 432.504 518.443C431.388 519.649 429.515 520.438 426.403 520.438V522.438C429.829 522.438 432.339 521.566 433.972 519.801C435.591 518.051 436.17 515.611 436.17 512.869H434.17ZM426.403 520.438H399.857V522.438H426.403V520.438ZM399.857 520.438C399.746 520.438 399.693 520.424 399.68 520.42C399.675 520.418 399.681 520.42 399.694 520.427C399.708 520.435 399.724 520.447 399.741 520.464C399.758 520.481 399.77 520.498 399.778 520.511C399.786 520.524 399.787 520.53 399.785 520.525C399.781 520.512 399.768 520.46 399.768 520.348H397.768C397.768 520.856 397.885 521.437 398.327 521.878C398.769 522.32 399.349 522.438 399.857 522.438V520.438ZM399.768 520.348V515.94H397.768V520.348H399.768ZM399.768 515.94C399.768 515.828 399.781 515.776 399.785 515.763C399.787 515.758 399.786 515.764 399.778 515.777C399.77 515.79 399.758 515.807 399.741 515.824C399.724 515.841 399.708 515.853 399.694 515.861C399.681 515.868 399.675 515.87 399.68 515.868C399.693 515.864 399.746 515.851 399.857 515.851V513.851C399.349 513.851 398.769 513.968 398.327 514.41C397.885 514.851 397.768 515.432 397.768 515.94H399.768ZM399.857 515.851H424.175V513.851H399.857V515.851ZM424.175 515.851C425.547 515.851 426.754 515.607 427.618 514.878C428.522 514.115 428.84 513.007 428.84 511.78H426.84C426.84 512.683 426.612 513.11 426.328 513.35C426.003 513.624 425.378 513.851 424.175 513.851V515.851ZM428.84 511.78V509.947H426.84V511.78H428.84ZM428.84 509.947C428.84 508.765 428.531 507.622 427.538 506.822C426.601 506.068 425.241 505.778 423.531 505.778V507.778C425.09 507.778 425.884 508.057 426.284 508.38C426.628 508.657 426.84 509.099 426.84 509.947H428.84ZM423.531 505.778H400.155V507.778H423.531V505.778ZM400.155 505.778C400.043 505.778 399.984 505.764 399.961 505.757C399.941 505.751 399.96 505.754 399.99 505.781C400.02 505.81 400.031 505.837 400.031 505.837C400.029 505.831 400.015 505.788 400.015 505.688H398.015C398.015 506.231 398.163 506.812 398.623 507.242C399.071 507.66 399.645 507.778 400.155 507.778V505.778ZM400.015 505.688V502.172H398.015V505.688H400.015ZM400.015 502.172C400.015 502.072 400.029 502.029 400.031 502.023C400.031 502.023 400.02 502.05 399.99 502.079C399.96 502.106 399.941 502.109 399.961 502.103C399.984 502.096 400.043 502.082 400.155 502.082V500.082C399.645 500.082 399.071 500.2 398.623 500.618C398.163 501.048 398.015 501.629 398.015 502.172H400.015ZM400.155 502.082H423.531V500.082H400.155V502.082ZM423.531 502.082C425.225 502.082 426.568 501.822 427.493 501.115C428.491 500.353 428.79 499.247 428.79 498.111H426.79C426.79 498.906 426.594 499.286 426.279 499.526C425.892 499.822 425.106 500.082 423.531 500.082V502.082ZM428.79 498.111V496.377H426.79V498.111H428.79ZM428.79 496.377C428.79 495.168 428.468 494.07 427.553 493.315C426.685 492.599 425.47 492.356 424.076 492.356V494.356C425.306 494.356 425.949 494.584 426.281 494.858C426.567 495.094 426.79 495.506 426.79 496.377H428.79ZM424.076 492.356H399.857V494.356H424.076V492.356ZM399.857 492.356C399.746 492.356 399.693 492.343 399.68 492.339C399.675 492.337 399.681 492.338 399.694 492.346C399.708 492.354 399.724 492.366 399.741 492.383C399.758 492.4 399.77 492.416 399.778 492.43C399.786 492.443 399.787 492.449 399.785 492.444C399.781 492.431 399.768 492.378 399.768 492.267H397.768C397.768 492.775 397.885 493.355 398.327 493.797C398.769 494.239 399.349 494.356 399.857 494.356V492.356ZM399.768 492.267V487.859H397.768V492.267H399.768ZM399.768 487.859C399.768 487.747 399.781 487.694 399.785 487.682C399.787 487.677 399.786 487.683 399.778 487.696C399.77 487.709 399.758 487.726 399.741 487.742C399.724 487.759 399.708 487.772 399.694 487.779C399.681 487.787 399.675 487.788 399.68 487.787C399.693 487.783 399.746 487.769 399.857 487.769V485.769C399.349 485.769 398.769 485.887 398.327 486.328C397.885 486.77 397.768 487.351 397.768 487.859H399.768ZM468.036 509.177H469.036V508.177H468.036V509.177ZM468.036 512.67V513.67H469.036V512.67H468.036ZM456.055 512.67V511.67H455.055V512.67H456.055ZM456.055 517.805V518.805H457.055V517.805H456.055ZM451.654 517.805H450.654V518.805H451.654V517.805ZM451.654 512.67H452.654V511.67H451.654V512.67ZM438.939 512.67H437.939V513.67H438.939V512.67ZM438.939 509.177V508.177H437.939V509.177H438.939ZM442.362 524.092H441.362V525.092H442.362V524.092ZM442.362 515.29V514.29H441.362V515.29H442.362ZM446.763 515.29H447.763V514.29H446.763V515.29ZM446.763 520.529H445.763V521.529H446.763V520.529ZM464.823 520.529H465.823V519.529H464.823V520.529ZM464.823 524.092V525.092H465.823V524.092H464.823ZM442.677 506.941H441.677V507.941H442.677V506.941ZM442.677 493.877V492.877H441.677V493.877H442.677ZM447.078 493.877H448.078V492.877H447.078V493.877ZM447.078 497.196H446.078V498.196H447.078V497.196ZM459.828 497.196V498.196H460.828V497.196H459.828ZM459.828 493.877V492.877H458.828V493.877H459.828ZM464.264 493.877H465.264V492.877H464.264V493.877ZM464.264 506.941V507.941H465.264V506.941H464.264ZM447.078 503.413H446.078V504.413H447.078V503.413ZM459.828 503.413V504.413H460.828V503.413H459.828ZM459.828 500.514H460.828V499.514H459.828V500.514ZM447.078 500.514V499.514H446.078V500.514H447.078ZM467.036 509.177V512.67H469.036V509.177H467.036ZM468.036 511.67H456.055V513.67H468.036V511.67ZM455.055 512.67V517.805H457.055V512.67H455.055ZM456.055 516.805H451.654V518.805H456.055V516.805ZM452.654 517.805V512.67H450.654V517.805H452.654ZM451.654 511.67H438.939V513.67H451.654V511.67ZM439.939 512.67V509.177H437.939V512.67H439.939ZM438.939 510.177H468.036V508.177H438.939V510.177ZM443.362 524.092V515.29H441.362V524.092H443.362ZM442.362 516.29H446.763V514.29H442.362V516.29ZM445.763 515.29V520.529H447.763V515.29H445.763ZM446.763 521.529H464.823V519.529H446.763V521.529ZM463.823 520.529V524.092H465.823V520.529H463.823ZM464.823 523.092H442.362V525.092H464.823V523.092ZM443.677 506.941V493.877H441.677V506.941H443.677ZM442.677 494.877H447.078V492.877H442.677V494.877ZM446.078 493.877V497.196H448.078V493.877H446.078ZM447.078 498.196H459.828V496.196H447.078V498.196ZM460.828 497.196V493.877H458.828V497.196H460.828ZM459.828 494.877H464.264V492.877H459.828V494.877ZM463.264 493.877V506.941H465.264V493.877H463.264ZM464.264 505.941H442.677V507.941H464.264V505.941ZM447.078 504.413H459.828V502.413H447.078V504.413ZM460.828 503.413V500.514H458.828V503.413H460.828ZM459.828 499.514H447.078V501.514H459.828V499.514ZM446.078 500.514V503.413H448.078V500.514H446.078ZM505.621 496.148H506.621V495.148H505.621V496.148ZM505.621 499.746V500.746H506.621V499.746H505.621ZM479.528 499.746H478.528V500.746H479.528V499.746ZM479.528 496.148V495.148H478.528V496.148H479.528ZM490.392 496.148V497.148H491.392V496.148H490.392ZM490.392 492.829V491.829H489.392V492.829H490.392ZM494.828 492.829H495.828V491.829H494.828V492.829ZM494.828 496.148H493.828V497.148H494.828V496.148ZM478.131 517.036H477.131V518.036H478.131V517.036ZM478.131 513.403V512.403H477.131V513.403H478.131ZM507.228 513.403H508.228V512.403H507.228V513.403ZM507.228 517.036V518.036H508.228V517.036H507.228ZM494.828 517.036V516.036H493.828V517.036H494.828ZM494.828 524.686V525.686H495.828V524.686H494.828ZM490.392 524.686H489.392V525.686H490.392V524.686ZM490.392 517.036H491.392V516.036H490.392V517.036ZM481.659 506.417L482.659 506.422L482.659 506.412L481.659 506.417ZM503.596 506.417L504.596 506.422L504.596 506.412L503.596 506.417ZM492.627 511.867L492.625 512.867L492.63 512.867L492.627 511.867ZM492.627 504.252L492.631 503.252L492.623 503.252L492.627 504.252ZM504.621 496.148V499.746H506.621V496.148H504.621ZM505.621 498.746H479.528V500.746H505.621V498.746ZM480.528 499.746V496.148H478.528V499.746H480.528ZM479.528 497.148H490.392V495.148H479.528V497.148ZM491.392 496.148V492.829H489.392V496.148H491.392ZM490.392 493.829H494.828V491.829H490.392V493.829ZM493.828 492.829V496.148H495.828V492.829H493.828ZM494.828 497.148H505.621V495.148H494.828V497.148ZM479.131 517.036V513.403H477.131V517.036H479.131ZM478.131 514.403H507.228V512.403H478.131V514.403ZM506.228 513.403V517.036H508.228V513.403H506.228ZM507.228 516.036H494.828V518.036H507.228V516.036ZM493.828 517.036V524.686H495.828V517.036H493.828ZM494.828 523.686H490.392V525.686H494.828V523.686ZM491.392 524.686V517.036H489.392V524.686H491.392ZM490.392 516.036H478.131V518.036H490.392V516.036ZM482.659 506.412C482.653 505.138 483.35 504.073 484.995 503.268C486.683 502.443 489.254 501.968 492.627 501.968V499.968C489.119 499.968 486.197 500.454 484.117 501.471C481.995 502.509 480.648 504.169 480.659 506.422L482.659 506.412ZM492.627 501.968C495.973 501.968 498.536 502.443 500.227 503.268C501.878 504.075 502.589 505.145 502.596 506.422L504.596 506.412C504.584 504.162 503.226 502.507 501.105 501.471C499.023 500.454 496.111 499.968 492.627 499.968V501.968ZM502.596 506.412C502.589 507.679 501.881 508.746 500.227 509.553C498.535 510.38 495.97 510.858 492.625 510.867L492.63 512.867C496.113 512.858 499.024 512.367 501.105 511.35C503.223 510.316 504.584 508.666 504.596 506.422L502.596 506.412ZM492.63 510.867C489.257 510.858 486.684 510.379 484.995 509.553C483.347 508.747 482.653 507.686 482.659 506.422L480.659 506.412C480.648 508.659 481.997 510.314 484.117 511.35C486.196 512.367 489.117 512.858 492.625 512.867L492.63 510.867ZM485.27 506.417C485.27 507.052 485.511 507.615 485.951 508.063C486.366 508.485 486.924 508.772 487.535 508.975C488.75 509.379 490.471 509.548 492.627 509.548V507.548C490.522 507.548 489.065 507.376 488.166 507.077C487.721 506.929 487.488 506.774 487.377 506.661C487.291 506.573 487.27 506.508 487.27 506.417H485.27ZM492.627 509.548C494.758 509.548 496.471 509.379 497.683 508.975C498.293 508.772 498.851 508.485 499.266 508.064C499.706 507.617 499.95 507.054 499.95 506.417H497.95C497.95 506.506 497.929 506.571 497.842 506.66C497.729 506.774 497.495 506.929 497.051 507.078C496.154 507.377 494.706 507.548 492.627 507.548V509.548ZM499.95 506.417C499.95 505.781 499.706 505.218 499.268 504.77C498.855 504.348 498.298 504.058 497.688 503.851C496.476 503.439 494.763 503.261 492.631 503.252L492.623 505.252C494.7 505.26 496.149 505.44 497.045 505.744C497.49 505.895 497.725 506.053 497.839 506.169C497.929 506.261 497.95 506.329 497.95 506.417H499.95ZM492.623 503.252C490.466 503.261 488.744 503.439 487.53 503.85C486.918 504.057 486.362 504.348 485.948 504.772C485.511 505.22 485.27 505.783 485.27 506.417H487.27C487.27 506.327 487.291 506.259 487.38 506.168C487.492 506.053 487.726 505.895 488.171 505.745C489.07 505.44 490.527 505.26 492.631 505.252L492.623 503.252Z" fill="black" mask="url(#path-21-outside-7_5013_6344)"/>
<defs>
<filter id="filter0_d_5013_6344" x="98.9512" y="47.9566" width="159.586" height="159.582" filterUnits="userSpaceOnUse" color-interpolation-filters="sRGB">
<feFlood flood-opacity="0" result="BackgroundImageFix"/>
<feColorMatrix in="SourceAlpha" type="matrix" values="0 0 0 0 0 0 0 0 0 0 0 0 0 0 0 0 0 0 127 0" result="hardAlpha"/>
<feOffset dy="2.75145"/>
<feGaussianBlur stdDeviation="5.50291"/>
<feComposite in2="hardAlpha" operator="out"/>
<feColorMatrix type="matrix" values="0 0 0 0 0 0 0 0 0 0 0 0 0 0 0 0 0 0 0.35 0"/>
<feBlend mode="normal" in2="BackgroundImageFix" result="effect1_dropShadow_5013_6344"/>
<feBlend mode="normal" in="SourceGraphic" in2="effect1_dropShadow_5013_6344" result="shape"/>
</filter>
<filter id="filter1_d_5013_6344" x="85.1895" y="257.066" width="464.996" height="162.332" filterUnits="userSpaceOnUse" color-interpolation-filters="sRGB">
<feFlood flood-opacity="0" result="BackgroundImageFix"/>
<feColorMatrix in="SourceAlpha" type="matrix" values="0 0 0 0 0 0 0 0 0 0 0 0 0 0 0 0 0 0 127 0" result="hardAlpha"/>
<feOffset dy="2.75145"/>
<feGaussianBlur stdDeviation="5.50291"/>
<feComposite in2="hardAlpha" operator="out"/>
<feColorMatrix type="matrix" values="0 0 0 0 0 0 0 0 0 0 0 0 0 0 0 0 0 0 0.35 0"/>
<feBlend mode="normal" in2="BackgroundImageFix" result="effect1_dropShadow_5013_6344"/>
<feBlend mode="normal" in="SourceGraphic" in2="effect1_dropShadow_5013_6344" result="shape"/>
</filter>
<filter id="filter2_d_5013_6344" x="0.169548" y="348.144" width="635.036" height="332.372" filterUnits="userSpaceOnUse" color-interpolation-filters="sRGB">
<feFlood flood-opacity="0" result="BackgroundImageFix"/>
<feColorMatrix in="SourceAlpha" type="matrix" values="0 0 0 0 0 0 0 0 0 0 0 0 0 0 0 0 0 0 127 0" result="hardAlpha"/>
<feOffset dy="11.0058"/>
<feGaussianBlur stdDeviation="48.0129"/>
<feComposite in2="hardAlpha" operator="out"/>
<feColorMatrix type="matrix" values="0 0 0 0 0 0 0 0 0 0 0 0 0 0 0 0 0 0 0.25 0"/>
<feBlend mode="normal" in2="BackgroundImageFix" result="effect1_dropShadow_5013_6344"/>
<feBlend mode="normal" in="SourceGraphic" in2="effect1_dropShadow_5013_6344" result="shape"/>
</filter>
</defs>
</svg>
