<svg width="614" height="686" viewBox="0 0 614 686" fill="none" xmlns="http://www.w3.org/2000/svg">
<path d="M506.044 2.42969H109.834C86.2121 2.42969 67.0625 21.5793 67.0625 45.2015V595.492C67.0625 619.115 86.2121 638.264 109.834 638.264H506.044C529.666 638.264 548.816 619.115 548.816 595.492V45.2015C548.816 21.5793 529.666 2.42969 506.044 2.42969Z" fill="#1E1E1E" stroke="#FF3F3F" stroke-width="3"/>
<path d="M308.155 133.882C308.155 146.779 299.718 155.592 285.101 159.354L282.467 154.034C293.484 151.213 299.718 145.785 300.793 139.202H285.316V133.882H308.155ZM290.528 179.345V160.375H323.148V179.345H290.528ZM297.353 173.971H316.431V165.749H297.353V173.971ZM316.27 158.387V131.087H323.148V158.387H316.27ZM368.343 131.033V150.165H375.544V155.807H368.343V179.936H361.572V131.033H368.343ZM329.489 143.823V138.342H340.56V131.786H347.438V138.342H358.24V143.823H329.489ZM331.478 158.226C331.451 151.401 336.771 146.537 343.999 146.564C351.12 146.537 356.467 151.401 356.467 158.226C356.467 165.05 351.12 169.86 343.999 169.887C336.771 169.86 331.451 165.05 331.478 158.226ZM338.034 158.226C338.034 162.014 340.533 164.271 343.999 164.244C347.411 164.271 349.91 162.014 349.91 158.226C349.91 154.464 347.411 152.153 343.999 152.099C340.533 152.153 338.034 154.464 338.034 158.226ZM421.921 156.022V161.504H377.317V156.022H421.921ZM381.778 142.534C381.778 136.3 388.845 132.484 399.619 132.538C410.313 132.484 417.38 136.3 417.407 142.534C417.38 148.794 410.313 152.637 399.619 152.637C388.845 152.637 381.778 148.794 381.778 142.534ZM382.691 179.076V164.782H389.57V173.595H416.87V179.076H382.691ZM388.925 142.534C388.871 145.57 392.821 147.101 399.619 147.101C406.364 147.101 410.313 145.57 410.313 142.534C410.313 139.578 406.364 137.966 399.619 137.912C392.821 137.966 388.871 139.578 388.925 142.534Z" fill="white"/>
<path d="M305.673 80.2146V101.495H302.061V80.2146H305.673ZM281.425 94.6275C286.149 92.967 288.567 88.8559 288.551 84.6643V81.8268H292.259V84.6643C292.243 88.727 294.629 92.5639 299.256 94.1116L297.418 96.9491C294.097 95.7883 291.727 93.4668 290.437 90.4842C289.148 93.6763 286.729 96.2236 283.295 97.465L281.425 94.6275ZM286.391 108.75V99.4641H290.002V105.848H306.479V108.75H286.391ZM333.724 82.8586V85.6638C333.692 89.2912 333.692 93.3378 332.564 99.4318L328.952 99.0449C330.097 93.37 330.097 89.2267 330.113 85.7283H312.702V82.8586H333.724ZM309.929 105.558V102.624H319.731V92.4995H323.278V102.624H336.497V105.558H309.929ZM348.911 88.469C348.895 92.967 351.604 98.0937 356.198 100.238L354.199 103.075C350.91 101.528 348.476 98.4 347.17 94.7565C345.848 98.7547 343.301 102.173 339.947 103.785L337.852 100.98C342.495 98.7708 345.316 93.3217 345.332 88.469V86.0185H338.98V83.0521H355.005V86.0185H348.911V88.469ZM357.714 109.331V80.1824H361.293V91.5321H365.775V94.5308H361.293V109.331H357.714Z" fill="white"/>
<path d="M466.186 148.113V167.11H463.289V148.113H466.186ZM440.719 164.552V150.107H443.69V162.031C449.22 161.994 454.167 161.618 459.49 160.489L459.941 162.972C454.28 164.119 449.201 164.514 443.427 164.552H440.719ZM444.48 181.103V168.652H466.186V181.103H444.48ZM447.377 178.696H463.289V171.022H447.377V178.696Z" fill="white"/>
<g filter="url(#filter0_d_5013_6362)">
<circle cx="167.614" cy="124.989" r="68.7864" fill="black"/>
<path d="M141.381 104.894C154.374 106.588 164.28 99.0092 167.609 95.0078V156.743C143.56 143.589 140.104 116.696 141.381 104.894Z" fill="white"/>
<path d="M193.834 105.003C180.841 106.698 170.935 99.1185 167.606 95.1172V156.852C191.655 143.698 195.111 116.805 193.834 105.003Z" fill="white"/>
</g>
<g filter="url(#filter1_d_5013_6362)">
<path d="M96.0703 298.338C96.0703 280.103 110.853 265.32 129.088 265.32H484.025C502.26 265.32 517.043 280.103 517.043 298.338V372.627C517.043 390.862 502.26 405.644 484.025 405.644H129.088C110.853 405.644 96.0703 390.862 96.0703 372.627V298.338Z" fill="#0A0A0A"/>
</g>
<path d="M142.739 338.809V341.292H116.396V338.809H142.739ZM117.783 334.875C123.022 334.311 127.165 331.957 127.504 329.136H118.814V326.621H140.385V329.136H131.599C131.954 331.941 136.032 334.311 141.385 334.875L140.289 337.293C135.275 336.713 131.131 334.601 129.568 331.554C127.972 334.601 123.86 336.713 118.847 337.293L117.783 334.875ZM119.524 348.804C119.524 345.451 123.28 343.516 129.551 343.516C135.774 343.516 139.499 345.451 139.515 348.804C139.499 352.158 135.774 354.044 129.551 354.028C123.28 354.044 119.524 352.158 119.524 348.804ZM122.619 348.804C122.603 350.626 125.134 351.626 129.551 351.61C133.904 351.626 136.452 350.626 136.452 348.804C136.452 346.934 133.904 345.935 129.551 345.902C125.134 345.935 122.603 346.934 122.619 348.804ZM154.895 329.813C154.879 333.601 157.555 337.132 161.86 338.551L160.215 340.969C157.055 339.857 154.685 337.6 153.428 334.746C152.17 337.987 149.72 340.534 146.35 341.775L144.706 339.325C149.22 337.729 151.832 333.876 151.864 329.555V326.717H154.895V329.813ZM148.607 348.675C148.607 345.29 152.299 343.307 158.313 343.323C164.246 343.307 167.889 345.29 167.889 348.675C167.889 352.093 164.246 354.044 158.313 354.028C152.299 354.044 148.607 352.093 148.607 348.675ZM151.671 348.675C151.654 350.578 154.137 351.61 158.313 351.642C162.456 351.61 164.907 350.578 164.89 348.675C164.907 346.837 162.456 345.741 158.313 345.741C154.137 345.741 151.654 346.837 151.671 348.675ZM164.568 342.646V325.202H167.631V332.457H171.823V335.036H167.631V342.646H164.568Z" fill="white"/>
<path d="M421.746 323.64V327.273H411.196V332.513H421.291V336.006H411.196V342.014C415.737 341.961 419.458 341.769 423.702 341.106L424.121 344.703C419.265 345.437 414.934 345.577 409.38 345.577H406.69V323.64H421.746ZM426.042 352.807V321.021H430.513V333.072H435.194V336.809H430.513V352.807H426.042ZM461.566 321.021V328.81H465.863V332.408H461.566V340.128H457.095V321.021H461.566ZM437.29 338.451V323.012H441.726V327.238H448.223V323.012H452.694V338.451H437.29ZM440.154 345.053V341.525H461.566V352.807H457.095V345.053H440.154ZM441.726 334.923H448.223V330.696H441.726V334.923ZM478.857 326.016C478.84 329.875 481.093 333.578 486.123 335.132L483.747 338.591C480.376 337.473 478.019 335.307 476.656 332.53C475.277 335.726 472.814 338.241 469.181 339.464L466.771 335.971C472.08 334.207 474.351 329.98 474.386 325.596V322.697H478.857V326.016ZM471.172 346.66C471.155 342.8 475.364 340.512 482.071 340.512C488.655 340.512 492.777 342.8 492.794 346.66C492.777 350.554 488.655 352.825 482.071 352.807C475.364 352.825 471.155 350.554 471.172 346.66ZM475.643 346.66C475.608 348.459 477.896 349.314 482.071 349.314C486.192 349.314 488.393 348.459 488.393 346.66C488.393 344.931 486.192 344.005 482.071 344.005C477.896 344.005 475.608 344.931 475.643 346.66ZM488.009 339.883V321.021H492.48V328.461H496.776V332.163H492.48V339.883H488.009Z" fill="white"/>
<g filter="url(#filter2_d_5013_6362)">
<path d="M96.0703 466.166C96.0703 447.931 110.853 433.148 129.088 433.148H484.025C502.26 433.148 517.043 447.931 517.043 466.166V540.455C517.043 558.69 502.26 573.473 484.025 573.473H129.088C110.853 573.473 96.0703 558.69 96.0703 540.455V466.166Z" fill="#0A0A0A"/>
</g>
<path d="M139.805 506.347V508.797H131.067V515.859H142.836V518.374H116.396V515.859H128.036V508.797H119.685V495.255H139.547V497.738H122.748V506.347H139.805ZM155.056 499.285C155.056 502.687 157.668 505.911 162.085 507.153L160.634 509.603C157.329 508.604 154.863 506.492 153.589 503.816C152.315 506.75 149.8 509.039 146.415 510.119L144.899 507.733C149.317 506.395 152.025 502.977 152.025 499.285V498.866H145.738V496.416H152.025V492.933H155.088V496.416H161.344V498.866H155.056V499.285ZM148.543 514.569V512.086H167.631V521.953H164.568V514.569H148.543ZM164.568 510.7V493.03H167.631V500.543H171.823V503.155H167.631V510.7H164.568ZM206.388 493.03V521.92H203.454V493.03H206.388ZM181.851 505.508C181.851 499.253 184.301 495.336 188.074 495.352C190.54 495.336 192.443 496.98 193.474 499.834H197.682V493.578H200.584V520.502H197.682V511.183H193.491C192.443 514.053 190.54 515.713 188.074 515.697C184.301 515.713 181.851 511.78 181.851 505.508ZM184.656 505.508C184.64 510.103 185.929 512.812 188.074 512.795C190.202 512.812 191.556 510.103 191.556 505.508C191.556 500.898 190.202 498.205 188.074 498.221C185.929 498.205 184.64 500.898 184.656 505.508ZM194.119 502.316C194.281 503.3 194.361 504.364 194.361 505.508C194.361 506.637 194.281 507.701 194.119 508.668H197.682V502.316H194.119ZM234.15 493.03V510.216H231.087V502.897H225.702V500.382H231.087V493.03H234.15ZM210.064 507.604C214.546 506.04 217.302 502.139 217.286 498.157V497.512H211.031V495.029H226.605V497.512H220.414V498.125C220.398 501.784 223.01 505.347 227.379 506.83L225.799 509.249C222.558 508.136 220.172 505.815 218.915 502.961C217.657 506.186 215.126 508.781 211.676 510.055L210.064 507.604ZM214.707 516.471C214.691 513.037 218.399 511.038 224.477 511.022C230.522 511.038 234.23 513.037 234.246 516.471C234.23 519.905 230.522 521.904 224.477 521.92C218.399 521.904 214.691 519.905 214.707 516.471ZM217.738 516.471C217.722 518.422 220.237 519.534 224.477 519.502C228.684 519.534 231.199 518.422 231.216 516.471C231.199 514.504 228.684 513.392 224.477 513.408C220.237 513.392 217.722 514.504 217.738 516.471ZM257.268 500.382C257.236 505.653 260.428 510.974 264.91 512.957L263.072 515.375C259.751 513.795 257.123 510.555 255.769 506.605C254.431 510.845 251.771 514.327 248.305 516.02L246.435 513.44C250.981 511.425 254.173 505.895 254.173 500.382V495.448H257.268V500.382ZM267.522 521.985V493.03H270.585V521.985H267.522ZM297.895 493.03V501.575H302.087V504.122H297.895V514.021H294.8V493.03H297.895ZM275.164 508.41C281.935 506.379 286.126 502.526 286.723 497.77H276.389V495.223H290.06C290.06 502.8 284.901 508.297 276.453 510.861L275.164 508.41ZM279.549 521.308V511.86H282.644V518.825H299.088V521.308H279.549Z" fill="white"/>
<path d="M368.256 486.754H374.843C378.112 486.754 379.4 488.091 379.4 490.963V520.332C379.4 521.075 379.053 521.422 378.31 521.422H373.209C372.466 521.422 372.119 521.075 372.119 520.332V494.381C372.119 493.687 371.822 493.341 371.079 493.341H368.256C367.514 493.341 367.117 492.994 367.117 492.251V487.843C367.117 487.1 367.514 486.754 368.256 486.754ZM399.452 486.754H410.893C420.897 486.754 424.76 490.319 424.76 499.828V508.347C424.76 517.856 420.897 521.422 410.893 521.422H399.452C389.448 521.422 385.585 517.856 385.585 508.347V499.828C385.585 490.319 389.448 486.754 399.452 486.754ZM392.915 500.126V508.05C392.915 513.3 394.351 514.835 399.452 514.835H410.893C415.994 514.835 417.43 513.3 417.43 508.05V500.126C417.43 494.876 415.994 493.341 410.893 493.341H399.452C394.351 493.341 392.915 494.876 392.915 500.126ZM457.649 509.161V512.654H445.668V517.789H441.267V512.654H428.552V509.161H457.649ZM431.975 524.077V515.274H436.377V520.514H454.436V524.077H431.975ZM432.29 506.926V493.862H436.691V497.18H449.441V493.862H453.877V506.926H432.29ZM436.691 503.398H449.441V500.498H436.691V503.398ZM495.235 496.132V499.73H469.142V496.132H480.005V492.814H484.441V496.132H495.235ZM467.744 517.021V513.388H496.842V517.021H484.441V524.67H480.005V517.021H467.744ZM471.272 506.402C471.255 502.874 475.359 500.953 482.241 500.953C489.07 500.953 493.191 502.874 493.209 506.402C493.191 509.912 489.07 511.833 482.241 511.851C475.359 511.833 471.255 509.912 471.272 506.402ZM475.883 506.402C475.883 507.851 477.979 508.532 482.241 508.532C486.45 508.532 488.563 507.851 488.563 506.402C488.563 504.952 486.45 504.253 482.241 504.236C477.979 504.253 475.883 504.952 475.883 506.402Z" fill="white"/>
<defs>
<filter id="filter0_d_5013_6362" x="87.8223" y="47.9488" width="159.586" height="159.582" filterUnits="userSpaceOnUse" color-interpolation-filters="sRGB">
<feFlood flood-opacity="0" result="BackgroundImageFix"/>
<feColorMatrix in="SourceAlpha" type="matrix" values="0 0 0 0 0 0 0 0 0 0 0 0 0 0 0 0 0 0 127 0" result="hardAlpha"/>
<feOffset dy="2.75145"/>
<feGaussianBlur stdDeviation="5.50291"/>
<feComposite in2="hardAlpha" operator="out"/>
<feColorMatrix type="matrix" values="0 0 0 0 0 0 0 0 0 0 0 0 0 0 0 0 0 0 0.35 0"/>
<feBlend mode="normal" in2="BackgroundImageFix" result="effect1_dropShadow_5013_6362"/>
<feBlend mode="normal" in="SourceGraphic" in2="effect1_dropShadow_5013_6362" result="shape"/>
</filter>
<filter id="filter1_d_5013_6362" x="0.044548" y="180.3" width="613.024" height="332.372" filterUnits="userSpaceOnUse" color-interpolation-filters="sRGB">
<feFlood flood-opacity="0" result="BackgroundImageFix"/>
<feColorMatrix in="SourceAlpha" type="matrix" values="0 0 0 0 0 0 0 0 0 0 0 0 0 0 0 0 0 0 127 0" result="hardAlpha"/>
<feOffset dy="11.0058"/>
<feGaussianBlur stdDeviation="48.0129"/>
<feComposite in2="hardAlpha" operator="out"/>
<feColorMatrix type="matrix" values="0 0 0 0 0 0 0 0 0 0 0 0 0 0 0 0 0 0 0.25 0"/>
<feBlend mode="normal" in2="BackgroundImageFix" result="effect1_dropShadow_5013_6362"/>
<feBlend mode="normal" in="SourceGraphic" in2="effect1_dropShadow_5013_6362" result="shape"/>
</filter>
<filter id="filter2_d_5013_6362" x="0.044548" y="348.128" width="613.024" height="332.372" filterUnits="userSpaceOnUse" color-interpolation-filters="sRGB">
<feFlood flood-opacity="0" result="BackgroundImageFix"/>
<feColorMatrix in="SourceAlpha" type="matrix" values="0 0 0 0 0 0 0 0 0 0 0 0 0 0 0 0 0 0 127 0" result="hardAlpha"/>
<feOffset dy="11.0058"/>
<feGaussianBlur stdDeviation="48.0129"/>
<feComposite in2="hardAlpha" operator="out"/>
<feColorMatrix type="matrix" values="0 0 0 0 0 0 0 0 0 0 0 0 0 0 0 0 0 0 0.25 0"/>
<feBlend mode="normal" in2="BackgroundImageFix" result="effect1_dropShadow_5013_6362"/>
<feBlend mode="normal" in="SourceGraphic" in2="effect1_dropShadow_5013_6362" result="shape"/>
</filter>
</defs>
</svg>
