<svg width="614" height="686" viewBox="0 0 614 686" fill="none" xmlns="http://www.w3.org/2000/svg">
<path d="M121.272 1.5H517.481C539.447 1.5 557.253 19.3064 557.253 41.2718V591.563C557.253 613.528 539.447 631.335 517.481 631.335H121.272C99.3065 631.335 81.5 613.528 81.5 591.563V41.2718C81.5 19.3064 99.3064 1.5 121.272 1.5Z" fill="#1E1E1E" stroke="#FF3F3F" stroke-width="3"/>
<path d="M313.251 153.543V160.906C317.282 160.664 321.312 160.288 325.128 159.723L325.665 164.721C314.81 166.79 303.202 166.898 294.657 166.925L293.851 161.389C297.532 161.389 301.858 161.363 306.426 161.228V153.543H313.251ZM294.819 149.889C302.208 147.928 305.808 143.36 306.265 138.389H296.377V132.854H306.426V127.534H313.251V132.854H323.354V138.389H313.359C313.815 143.118 317.47 147.552 324.859 149.352L321.742 154.672C316.019 153.221 312.069 150.05 309.839 145.993C307.716 150.265 303.82 153.57 298.043 155.048L294.819 149.889ZM327.922 176.114V127.104H334.747V176.114H327.922ZM367.582 131.027V154.618H343.668V131.027H367.582ZM349.364 174.932V158.702H356.296V169.397H383.435V174.932H349.364ZM350.439 149.191H360.757V136.454H350.439V149.191ZM375.266 161.927V127.157H382.145V161.927H375.266ZM401.921 130.543C409.391 130.543 414.792 137.287 414.819 147.955C414.792 158.702 409.391 165.42 401.921 165.42C394.424 165.42 388.997 158.702 389.024 147.955C388.997 137.287 394.424 130.543 401.921 130.543ZM395.634 147.955C395.634 155.236 398.186 159.213 401.921 159.186C405.737 159.213 408.235 155.236 408.262 147.955C408.235 140.7 405.737 136.723 401.921 136.723C398.186 136.723 395.634 140.7 395.634 147.955ZM420.461 176.007V127.104H427.34V145.536H434.541V151.233H427.34V176.007H420.461Z" fill="white"/>
<path d="M317.11 76.285V97.5657H313.499V76.285H317.11ZM292.863 90.6978C297.587 89.0373 300.005 84.9262 299.989 80.7346V77.8971H303.697V80.7346C303.681 84.7973 306.067 88.6343 310.694 90.1819L308.856 93.0194C305.535 91.8586 303.165 89.5371 301.875 86.5545C300.585 89.7467 298.167 92.2939 294.733 93.5353L292.863 90.6978ZM297.828 104.821V95.5344H301.44V101.919H317.916V104.821H297.828ZM345.162 78.9289V81.7341C345.13 85.3615 345.13 89.4081 344.001 95.5021L340.39 95.1152C341.535 89.4403 341.535 85.297 341.551 81.7986H324.139V78.9289H345.162ZM321.366 101.628V98.6943H331.168V88.5698H334.715V98.6943H347.935V101.628H321.366ZM360.349 84.5393C360.333 89.0373 363.041 94.164 367.636 96.3082L365.637 99.1457C362.348 97.598 359.913 94.4703 358.608 90.8268C357.286 94.825 354.738 98.2428 351.385 99.855L349.289 97.0498C353.932 94.8411 356.754 89.392 356.77 84.5393V82.0888H350.418V79.1224H366.443V82.0888H360.349V84.5393ZM369.151 105.401V76.2527H372.73V87.6025H377.212V90.6011H372.73V105.401H369.151Z" fill="white"/>
<path d="M477.623 144.183V163.18H474.727V144.183H477.623ZM452.156 160.622V146.177H455.128V158.102C460.658 158.064 465.604 157.688 470.927 156.559L471.379 159.042C465.717 160.189 460.639 160.584 454.865 160.622H452.156ZM455.918 177.174V164.722H477.623V177.174H455.918ZM458.814 174.766H474.727V167.092H458.814V174.766Z" fill="white"/>
<g filter="url(#filter0_d_5013_6380)">
<circle cx="179.056" cy="121.06" r="68.7864" fill="black"/>
<path d="M152.823 100.964C165.815 102.659 175.721 95.0795 179.05 91.0781V152.813C155.002 139.659 151.545 112.766 152.823 100.964Z" fill="white"/>
<path d="M205.275 101.073C192.282 102.768 182.376 95.1889 179.048 91.1875V152.923C203.096 139.769 206.553 112.876 205.275 101.073Z" fill="white"/>
</g>
<g filter="url(#filter1_d_5013_6380)">
<path d="M96.5117 294.408C96.5117 276.173 111.294 261.391 129.529 261.391H506.478C524.713 261.391 539.496 276.173 539.496 294.408V368.697C539.496 386.932 524.713 401.715 506.478 401.715H129.529C111.294 401.715 96.5117 386.932 96.5117 368.697V294.408Z" fill="#0A0A0A"/>
</g>
<path d="M154.184 334.879V337.362H127.841V334.879H154.184ZM129.228 330.945C134.467 330.381 138.611 328.027 138.949 325.206H130.26V322.691H151.831V325.206H143.044C143.399 328.011 147.478 330.381 152.83 330.945L151.734 333.364C146.72 332.783 142.577 330.671 141.013 327.624C139.417 330.671 135.306 332.783 130.292 333.364L129.228 330.945ZM130.969 344.875C130.969 341.521 134.725 339.587 140.997 339.587C147.22 339.587 150.944 341.521 150.96 344.875C150.944 348.228 147.22 350.114 140.997 350.098C134.725 350.114 130.969 348.228 130.969 344.875ZM134.064 344.875C134.048 346.696 136.579 347.696 140.997 347.68C145.35 347.696 147.897 346.696 147.897 344.875C147.897 343.005 145.35 342.005 140.997 341.973C136.579 342.005 134.048 343.005 134.064 344.875ZM166.34 325.883C166.324 329.672 169 333.202 173.305 334.621L171.66 337.039C168.501 335.927 166.131 333.67 164.873 330.816C163.616 334.057 161.165 336.604 157.796 337.846L156.151 335.395C160.665 333.799 163.277 329.946 163.309 325.625V322.788H166.34V325.883ZM160.053 344.746C160.053 341.36 163.745 339.377 169.758 339.393C175.691 339.377 179.334 341.36 179.334 344.746C179.334 348.163 175.691 350.114 169.758 350.098C163.745 350.114 160.053 348.163 160.053 344.746ZM163.116 344.746C163.1 346.648 165.583 347.68 169.758 347.712C173.901 347.68 176.352 346.648 176.336 344.746C176.352 342.908 173.901 341.811 169.758 341.811C165.583 341.811 163.1 342.908 163.116 344.746ZM176.013 338.716V321.272H179.076V328.527H183.268V331.107H179.076V338.716H176.013Z" fill="white"/>
<path d="M370.492 317.091V323.413H374.789V327.116H370.492V332.984H366.021V317.091H370.492ZM345.098 330.19C352.608 328.758 356.241 325.527 356.799 321.841H346.705V318.244H361.795C361.795 326.749 356.363 331.884 346.739 333.858L345.098 330.19ZM349.394 337.735V334.207H370.492V342.974H353.83V345.035H371.4V348.563H349.464V339.656H366.056V337.735H349.394ZM402.803 317.091V348.948H398.297V317.091H402.803ZM377.758 341.507V319.606H382.229V327.36H389.075V319.606H393.477V341.507H377.758ZM382.229 337.909H389.075V330.819H382.229V337.909ZM411.186 319.955V327.326H413.422V319.955H417.055V341.472H407.588V319.955H411.186ZM411.186 337.875H413.422V330.784H411.186V337.875ZM418.522 341.472V319.955H422.12V327.326H424.425V319.955H427.988V324.636H430.503V317.091H434.764V348.878H430.503V336.407H427.988V341.472H418.522ZM422.12 337.875H424.425V330.784H422.12V337.875ZM427.988 332.81H430.503V328.269H427.988V332.81ZM471.756 318.278V320.165C471.738 322.068 471.738 324.601 471.197 327.745L466.796 327.395C467.163 325.125 467.267 323.326 467.302 321.772H449.575V318.278H471.756ZM446.326 332.495V329.037H457.155V324.356H461.556V329.037H475.179V332.495H446.326ZM449.54 338.014V334.486H471.756V342.974H454.011V345.21H472.629V348.633H449.575V339.97H467.355V338.014H449.54ZM495.334 318.313V321.876H489.012C489.116 325.055 491.422 328.391 496.277 329.771L494.216 333.299C490.653 332.268 488.191 330.155 486.776 327.518C485.326 330.452 482.742 332.862 479.056 333.962L476.891 330.504C481.868 328.897 484.366 325.247 484.541 321.876H478.113V318.313H495.334ZM482.794 338.014V334.486H503.962V343.079H487.3V345.105H504.905V348.563H482.829V339.831H499.526V338.014H482.794ZM494.531 327.151V323.623H499.526V317.091H503.962V333.264H499.526V327.151H494.531Z" fill="white"/>
<g filter="url(#filter2_d_5013_6380)">
<path d="M96.5117 462.236C96.5117 444.001 111.294 429.219 129.529 429.219H506.478C524.713 429.219 539.496 444.001 539.496 462.236V536.525C539.496 554.761 524.713 569.543 506.478 569.543H129.529C111.294 569.543 96.5117 554.761 96.5117 536.525V462.236Z" fill="#0A0A0A"/>
</g>
<path d="M151.25 502.417V504.868H142.512V511.929H154.281V514.444H127.841V511.929H139.481V504.868H131.13V491.325H150.992V493.808H134.193V502.417H151.25ZM166.501 495.356C166.501 498.757 169.113 501.982 173.531 503.223L172.08 505.674C168.775 504.674 166.308 502.562 165.034 499.886C163.761 502.82 161.246 505.109 157.86 506.19L156.345 503.804C160.762 502.465 163.471 499.048 163.471 495.356V494.937H157.183V492.486H163.471V489.004H166.534V492.486H172.789V494.937H166.501V495.356ZM159.988 510.639V508.156H179.076V518.023H176.013V510.639H159.988ZM176.013 506.77V489.1H179.076V496.613H183.268V499.225H179.076V506.77H176.013ZM217.833 489.1V517.991H214.899V489.1H217.833ZM193.296 501.579C193.296 495.323 195.746 491.406 199.519 491.422C201.986 491.406 203.888 493.05 204.92 495.904H209.128V489.649H212.029V516.572H209.128V507.254H204.936C203.888 510.123 201.986 511.784 199.519 511.768C195.746 511.784 193.296 507.85 193.296 501.579ZM196.101 501.579C196.085 506.173 197.375 508.882 199.519 508.866C201.647 508.882 203.001 506.173 203.001 501.579C203.001 496.968 201.647 494.276 199.519 494.292C197.375 494.276 196.085 496.968 196.101 501.579ZM205.565 498.387C205.726 499.37 205.806 500.434 205.806 501.579C205.806 502.707 205.726 503.771 205.565 504.739H209.128V498.387H205.565ZM245.595 489.1V506.286H242.532V498.967H237.147V496.452H242.532V489.1H245.595ZM221.509 503.675C225.991 502.111 228.748 498.209 228.732 494.227V493.582H222.476V491.1H238.05V493.582H231.859V494.195C231.843 497.855 234.455 501.417 238.824 502.901L237.244 505.319C234.003 504.207 231.617 501.885 230.36 499.031C229.102 502.256 226.571 504.851 223.121 506.125L221.509 503.675ZM226.152 512.542C226.136 509.108 229.844 507.108 235.922 507.092C241.968 507.108 245.676 509.108 245.692 512.542C245.676 515.975 241.968 517.975 235.922 517.991C229.844 517.975 226.136 515.975 226.152 512.542ZM229.183 512.542C229.167 514.492 231.682 515.605 235.922 515.572C240.13 515.605 242.645 514.492 242.661 512.542C242.645 510.575 240.13 509.462 235.922 509.478C231.682 509.462 229.167 510.575 229.183 512.542ZM268.714 496.452C268.681 501.724 271.874 507.044 276.355 509.027L274.518 511.445C271.196 509.865 268.569 506.625 267.214 502.675C265.876 506.915 263.216 510.397 259.75 512.09L257.88 509.511C262.426 507.495 265.618 501.966 265.618 496.452V491.519H268.714V496.452ZM278.967 518.055V489.1H282.03V518.055H278.967ZM309.341 489.1V497.645H313.532V500.192H309.341V510.091H306.245V489.1H309.341ZM286.609 504.481C293.38 502.449 297.572 498.596 298.168 493.84H287.834V491.293H301.505C301.505 498.87 296.346 504.368 287.899 506.931L286.609 504.481ZM290.994 517.378V507.931H294.089V514.895H310.534V517.378H290.994Z" fill="white"/>
<path d="M354.989 482.824H381.237C387.23 482.824 390.004 486.093 390.004 490.897V494.363C390.004 499.762 387.032 502.832 381.336 502.832H362.516C360.734 502.832 359.941 503.773 359.941 505.655V509.865C359.941 510.559 360.238 510.905 360.932 510.905H388.815C389.558 510.905 389.954 511.252 389.954 511.995V516.403C389.954 517.146 389.558 517.492 388.815 517.492H357.217C353.899 517.492 352.611 516.155 352.611 513.282V505.655C352.611 500.208 355.583 497.137 361.278 497.137H380.098C381.881 497.137 382.674 496.196 382.674 494.363V492.234C382.674 490.5 381.931 489.411 380.049 489.411H354.989C354.246 489.411 353.899 489.064 353.899 488.321V483.913C353.899 483.171 354.246 482.824 354.989 482.824ZM409.382 482.824H420.823C430.827 482.824 434.69 486.39 434.69 495.899V504.417C434.69 513.926 430.827 517.492 420.823 517.492H409.382C399.378 517.492 395.515 513.926 395.515 504.417V495.899C395.515 486.39 399.378 482.824 409.382 482.824ZM402.845 496.196V504.12C402.845 509.37 404.281 510.905 409.382 510.905H420.823C425.924 510.905 427.36 509.37 427.36 504.12V496.196C427.36 490.946 425.924 489.411 420.823 489.411H409.382C404.281 489.411 402.845 490.946 402.845 496.196ZM467.579 505.232V508.725H455.598V513.859H451.197V508.725H438.482V505.232H467.579ZM441.905 520.147V511.344H446.306V516.584H464.366V520.147H441.905ZM442.22 502.996V489.932H446.621V493.25H459.37V489.932H463.807V502.996H442.22ZM446.621 499.468H459.37V496.569H446.621V499.468ZM505.164 492.202V495.8H479.071V492.202H489.935V488.884H494.371V492.202H505.164ZM477.674 513.091V509.458H506.771V513.091H494.371V520.741H489.935V513.091H477.674ZM481.202 502.472C481.185 498.944 485.289 497.023 492.17 497.023C498.999 497.023 503.121 498.944 503.138 502.472C503.121 505.983 498.999 507.904 492.17 507.921C485.289 507.904 481.185 505.983 481.202 502.472ZM485.813 502.472C485.813 503.922 487.909 504.603 492.17 504.603C496.379 504.603 498.493 503.922 498.493 502.472C498.493 501.022 496.379 500.324 492.17 500.306C487.909 500.324 485.813 501.022 485.813 502.472Z" fill="white"/>
<defs>
<filter id="filter0_d_5013_6380" x="99.2637" y="44.0191" width="159.586" height="159.582" filterUnits="userSpaceOnUse" color-interpolation-filters="sRGB">
<feFlood flood-opacity="0" result="BackgroundImageFix"/>
<feColorMatrix in="SourceAlpha" type="matrix" values="0 0 0 0 0 0 0 0 0 0 0 0 0 0 0 0 0 0 127 0" result="hardAlpha"/>
<feOffset dy="2.75145"/>
<feGaussianBlur stdDeviation="5.50291"/>
<feComposite in2="hardAlpha" operator="out"/>
<feColorMatrix type="matrix" values="0 0 0 0 0 0 0 0 0 0 0 0 0 0 0 0 0 0 0.35 0"/>
<feBlend mode="normal" in2="BackgroundImageFix" result="effect1_dropShadow_5013_6380"/>
<feBlend mode="normal" in="SourceGraphic" in2="effect1_dropShadow_5013_6380" result="shape"/>
</filter>
<filter id="filter1_d_5013_6380" x="0.485954" y="176.371" width="635.036" height="332.372" filterUnits="userSpaceOnUse" color-interpolation-filters="sRGB">
<feFlood flood-opacity="0" result="BackgroundImageFix"/>
<feColorMatrix in="SourceAlpha" type="matrix" values="0 0 0 0 0 0 0 0 0 0 0 0 0 0 0 0 0 0 127 0" result="hardAlpha"/>
<feOffset dy="11.0058"/>
<feGaussianBlur stdDeviation="48.0129"/>
<feComposite in2="hardAlpha" operator="out"/>
<feColorMatrix type="matrix" values="0 0 0 0 0 0 0 0 0 0 0 0 0 0 0 0 0 0 0.25 0"/>
<feBlend mode="normal" in2="BackgroundImageFix" result="effect1_dropShadow_5013_6380"/>
<feBlend mode="normal" in="SourceGraphic" in2="effect1_dropShadow_5013_6380" result="shape"/>
</filter>
<filter id="filter2_d_5013_6380" x="0.485954" y="344.199" width="635.036" height="332.372" filterUnits="userSpaceOnUse" color-interpolation-filters="sRGB">
<feFlood flood-opacity="0" result="BackgroundImageFix"/>
<feColorMatrix in="SourceAlpha" type="matrix" values="0 0 0 0 0 0 0 0 0 0 0 0 0 0 0 0 0 0 127 0" result="hardAlpha"/>
<feOffset dy="11.0058"/>
<feGaussianBlur stdDeviation="48.0129"/>
<feComposite in2="hardAlpha" operator="out"/>
<feColorMatrix type="matrix" values="0 0 0 0 0 0 0 0 0 0 0 0 0 0 0 0 0 0 0.25 0"/>
<feBlend mode="normal" in2="BackgroundImageFix" result="effect1_dropShadow_5013_6380"/>
<feBlend mode="normal" in="SourceGraphic" in2="effect1_dropShadow_5013_6380" result="shape"/>
</filter>
</defs>
</svg>
