<svg width="385" height="354" viewBox="0 0 385 354" fill="none" xmlns="http://www.w3.org/2000/svg">
<path d="M371.356 276.909C380.857 257.379 385.519 235.884 384.954 214.21C384.39 192.536 378.615 171.308 368.11 152.29C357.606 133.272 342.674 117.013 324.555 104.863C306.437 92.7123 285.654 85.0221 263.935 82.4307C256.708 65.7776 246.201 50.7209 233.029 38.1424C219.857 25.5639 204.286 15.7164 187.226 9.1766C170.167 2.63677 151.962 -0.463927 133.678 0.0560801C115.395 0.576087 97.3993 4.70635 80.7462 12.205C64.0931 19.7036 49.1171 30.4199 36.695 43.7263C24.2729 57.0328 14.6544 72.6618 8.40295 89.6983C2.15146 106.735 -0.607444 124.836 0.287804 142.943C1.18305 161.049 5.71445 178.796 13.6167 195.145L1.12138 237.237C-0.275695 241.936 -0.36911 246.921 0.850964 251.668C2.07104 256.415 4.5595 260.748 8.05454 264.212C11.5496 267.676 15.922 270.142 20.7118 271.351C25.5016 272.561 30.5317 272.468 35.2728 271.083L77.743 258.7C91.3801 265.193 106.001 269.423 121.021 271.22C128.318 288.165 139.007 303.468 152.441 316.204C165.876 328.939 181.776 338.842 199.181 345.315C216.587 351.787 235.136 354.694 253.707 353.86C272.278 353.027 290.486 348.469 307.23 340.463L349.7 352.847C354.439 354.23 359.467 354.322 364.255 353.114C369.043 351.905 373.413 349.44 376.908 345.979C380.402 342.518 382.891 338.187 384.113 333.443C385.335 328.698 385.244 323.715 383.851 319.017L371.356 276.909ZM343.427 279.413L357.486 326.717L309.774 312.8C306.326 311.81 302.626 312.195 299.461 313.873C274.141 327.273 244.542 330.341 216.972 322.424C189.402 314.507 166.043 296.232 151.872 271.492C170.699 269.545 188.917 263.762 205.382 254.508C221.848 245.253 236.206 232.726 247.556 217.713C258.906 202.699 267.002 185.523 271.338 167.261C275.674 149 276.155 130.047 272.752 111.593C289.155 115.425 304.451 122.942 317.458 133.562C330.466 144.183 340.837 157.623 347.771 172.846C354.706 188.07 358.018 204.669 357.452 221.362C356.887 238.055 352.458 254.396 344.509 269.124C342.798 272.28 342.409 275.976 343.427 279.413Z" fill="url(#paint0_linear_4191_960)"/>
<defs>
<linearGradient id="paint0_linear_4191_960" x1="192.5" y1="0" x2="192.5" y2="354" gradientUnits="userSpaceOnUse">
<stop stop-color="#0177FF"/>
<stop offset="1" stop-color="#1A84FF"/>
</linearGradient>
</defs>
</svg>
