<svg width="357" height="394" viewBox="0 0 357 394" fill="none" xmlns="http://www.w3.org/2000/svg">
<path d="M356.865 159.067V234.813C356.865 242.849 353.973 250.555 348.825 256.237C343.676 261.919 336.694 265.112 329.414 265.112H240.197V363.582C240.197 371.617 237.305 379.324 232.157 385.006C227.009 390.688 220.027 393.88 212.746 393.88H144.118C136.838 393.88 129.856 390.688 124.708 385.006C119.56 379.324 116.667 371.617 116.667 363.582V265.112H27.4511C20.1706 265.112 13.1883 261.919 8.04025 256.237C2.89216 250.555 0 242.849 0 234.813V159.067C0 151.031 2.89216 143.325 8.04025 137.643C13.1883 131.961 20.1706 128.768 27.4511 128.768H116.667V30.2985C116.667 22.2628 119.56 14.5563 124.708 8.87421C129.856 3.19215 136.838 0 144.118 0H212.746C220.027 0 227.009 3.19215 232.157 8.87421C237.305 14.5563 240.197 22.2628 240.197 30.2985V128.768H329.414C336.694 128.768 343.676 131.961 348.825 137.643C353.973 143.325 356.865 151.031 356.865 159.067Z" fill="#E0FD48"/>
</svg>
