<svg width="307" height="418" viewBox="0 0 307 418" fill="none" xmlns="http://www.w3.org/2000/svg">
<path fill-rule="evenodd" clip-rule="evenodd" d="M306.352 168.722C306.352 202.041 297.584 233.105 282.45 259.266L170.452 406.917C162.669 421.365 143.683 421.365 135.9 406.917L23.8976 259.258C8.76665 233.098 0 202.038 0 168.722C0 75.5392 68.5793 0 153.176 0C237.773 0 306.352 75.5392 306.352 168.722ZM153.165 212.345C191.618 212.345 222.79 181.172 222.79 142.719C222.79 104.266 191.618 73.0938 153.165 73.0938C114.711 73.0938 83.5391 104.266 83.5391 142.719C83.5391 181.172 114.711 212.345 153.165 212.345Z" fill="url(#paint0_linear_4191_936)"/>
<defs>
<linearGradient id="paint0_linear_4191_936" x1="153.176" y1="0" x2="153.176" y2="417.753" gradientUnits="userSpaceOnUse">
<stop stop-color="#FF3E3E"/>
<stop offset="1" stop-color="#FF4B4B"/>
</linearGradient>
</defs>
</svg>
