<svg width="258" height="424" viewBox="0 0 258 424" fill="none" xmlns="http://www.w3.org/2000/svg">
<path fill-rule="evenodd" clip-rule="evenodd" d="M204.448 81.133C204.448 125.941 170.491 162.266 128.604 162.266C86.717 162.266 52.7607 125.941 52.7607 81.133C52.7607 36.3245 86.717 0 128.604 0C170.491 0 204.448 36.3245 204.448 81.133ZM68.7047 162.266H46.1656C20.6691 162.266 0 184.376 0 211.651V373.917C0 401.192 20.669 423.302 46.1656 423.302H211.043C236.539 423.302 257.208 401.192 257.208 373.917V211.651C257.208 184.376 236.539 162.266 211.043 162.266H188.504C180.635 186.777 156.794 204.596 128.604 204.596C100.415 204.596 76.5737 186.777 68.7047 162.266ZM222.806 259.285C229.187 252.336 229.093 241.168 222.596 234.343C216.099 227.517 205.66 227.618 199.28 234.568L119.943 320.981L77.2888 277.764C70.6777 271.065 60.2421 271.368 53.9803 278.441C47.7185 285.513 48.0018 296.676 54.613 303.375L109.022 358.502L120.778 370.413L132.124 358.056L222.806 259.285Z" fill="#E0FD48"/>
</svg>
