<svg width="360" height="397" viewBox="0 0 360 397" fill="none" xmlns="http://www.w3.org/2000/svg">
<path d="M329.736 0H29.976C22.0259 0 14.4014 3.48316 8.77977 9.68323C3.15818 15.8833 0 24.2924 0 33.0606V363.667C0 372.435 3.15818 380.844 8.77977 387.044C14.4014 393.244 22.0259 396.727 29.976 396.727H329.736C337.686 396.727 345.311 393.244 350.932 387.044C356.554 380.844 359.712 372.435 359.712 363.667V33.0606C359.712 24.2924 356.554 15.8833 350.932 9.68323C345.311 3.48316 337.686 0 329.736 0ZM59.952 82.6515H299.76C303.735 82.6515 307.547 84.3931 310.358 87.4931C313.169 90.5932 314.748 94.7977 314.748 99.1818C314.748 103.566 313.169 107.77 310.358 110.871C307.547 113.971 303.735 115.712 299.76 115.712H59.952C55.977 115.712 52.1647 113.971 49.3539 110.871C46.5431 107.77 44.964 103.566 44.964 99.1818C44.964 94.7977 46.5431 90.5932 49.3539 87.4931C52.1647 84.3931 55.977 82.6515 59.952 82.6515ZM164.868 314.076H59.952C55.977 314.076 52.1647 312.334 49.3539 309.234C46.5431 306.134 44.964 301.93 44.964 297.546C44.964 293.161 46.5431 288.957 49.3539 285.857C52.1647 282.757 55.977 281.015 59.952 281.015H164.868C168.843 281.015 172.655 282.757 175.466 285.857C178.277 288.957 179.856 293.161 179.856 297.546C179.856 301.93 178.277 306.134 175.466 309.234C172.655 312.334 168.843 314.076 164.868 314.076ZM194.844 214.894H59.952C55.977 214.894 52.1647 213.152 49.3539 210.052C46.5431 206.952 44.964 202.748 44.964 198.364C44.964 193.98 46.5431 189.775 49.3539 186.675C52.1647 183.575 55.977 181.833 59.952 181.833H194.844C198.819 181.833 202.631 183.575 205.442 186.675C208.253 189.775 209.832 193.98 209.832 198.364C209.832 202.748 208.253 206.952 205.442 210.052C202.631 213.152 198.819 214.894 194.844 214.894ZM314.748 281.015H284.772V314.076C284.772 318.46 283.193 322.664 280.382 325.765C277.571 328.865 273.759 330.606 269.784 330.606C265.809 330.606 261.997 328.865 259.186 325.765C256.375 322.664 254.796 318.46 254.796 314.076V281.015H224.82C220.845 281.015 217.033 279.274 214.222 276.174C211.411 273.074 209.832 268.869 209.832 264.485C209.832 260.101 211.411 255.896 214.222 252.796C217.033 249.696 220.845 247.955 224.82 247.955H254.796V214.894C254.796 210.51 256.375 206.305 259.186 203.205C261.997 200.105 265.809 198.364 269.784 198.364C273.759 198.364 277.571 200.105 280.382 203.205C283.193 206.305 284.772 210.51 284.772 214.894V247.955H314.748C318.723 247.955 322.535 249.696 325.346 252.796C328.157 255.896 329.736 260.101 329.736 264.485C329.736 268.869 328.157 273.074 325.346 276.174C322.535 279.274 318.723 281.015 314.748 281.015Z" fill="url(#paint0_linear_4191_941)"/>
<defs>
<linearGradient id="paint0_linear_4191_941" x1="179.856" y1="0" x2="179.856" y2="396.727" gradientUnits="userSpaceOnUse">
<stop stop-color="#0177FF"/>
<stop offset="1" stop-color="#1A84FF"/>
</linearGradient>
</defs>
</svg>
