<svg width="354" height="394" viewBox="0 0 354 394" fill="none" xmlns="http://www.w3.org/2000/svg">
<path d="M323.646 0H29.4224C21.6191 0 14.1354 3.45816 8.61761 9.61373C3.09985 15.7693 0 24.118 0 32.8233V361.057C0 369.762 3.09985 378.111 8.61761 384.266C14.1354 390.422 21.6191 393.88 29.4224 393.88H323.646C331.449 393.88 338.933 390.422 344.451 384.266C349.969 378.111 353.068 369.762 353.068 361.057V32.8233C353.068 24.118 349.969 15.7693 344.451 9.61373C338.933 3.45816 331.449 0 323.646 0ZM107.281 168.917C108.648 167.391 110.27 166.181 112.056 165.355C113.842 164.529 115.756 164.104 117.689 164.104C119.623 164.104 121.537 164.529 123.323 165.355C125.109 166.181 126.731 167.391 128.098 168.917L161.823 206.561V82.0583C161.823 77.7057 163.373 73.5313 166.132 70.4535C168.891 67.3758 172.633 65.6467 176.534 65.6467C180.436 65.6467 184.178 67.3758 186.937 70.4535C189.695 73.5313 191.245 77.7057 191.245 82.0583V206.561L224.971 168.917C226.338 167.392 227.96 166.183 229.746 165.358C231.532 164.532 233.446 164.108 235.379 164.108C237.312 164.108 239.226 164.532 241.012 165.358C242.798 166.183 244.42 167.392 245.787 168.917C247.154 170.442 248.238 172.252 248.978 174.244C249.718 176.237 250.098 178.372 250.098 180.528C250.098 182.685 249.718 184.82 248.978 186.812C248.238 188.805 247.154 190.615 245.787 192.14L186.942 257.786C185.576 259.312 183.954 260.523 182.168 261.349C180.382 262.175 178.467 262.6 176.534 262.6C174.601 262.6 172.687 262.175 170.901 261.349C169.115 260.523 167.492 259.312 166.126 257.786L107.281 192.14C105.913 190.615 104.828 188.805 104.088 186.813C103.348 184.821 102.967 182.685 102.967 180.528C102.967 178.372 103.348 176.236 104.088 174.244C104.828 172.251 105.913 170.441 107.281 168.917ZM323.646 361.057H29.4224V278.998H82.1803L117.689 318.633C120.415 321.687 123.657 324.109 127.227 325.757C130.796 327.405 134.624 328.246 138.487 328.233H214.581C218.446 328.247 222.275 327.404 225.846 325.752C229.416 324.1 232.657 321.673 235.379 318.612L270.888 278.998H323.646V361.057Z" fill="url(#paint0_linear_4191_947)"/>
<defs>
<linearGradient id="paint0_linear_4191_947" x1="176.534" y1="0" x2="176.534" y2="393.88" gradientUnits="userSpaceOnUse">
<stop stop-color="#FF3E3E"/>
<stop offset="1" stop-color="#FF4B4B"/>
</linearGradient>
</defs>
</svg>
