<svg width="354" height="358" viewBox="0 0 354 358" fill="none" xmlns="http://www.w3.org/2000/svg">
<path fill-rule="evenodd" clip-rule="evenodd" d="M333.879 156.889C339.974 142.272 342.01 126.336 339.782 110.698C337.554 95.0611 331.14 80.2802 321.192 67.8578C311.245 55.4353 298.118 45.8141 283.145 39.9716C268.172 34.1291 251.888 32.2737 235.946 34.5938C226.067 22.1266 212.996 12.4425 198.061 6.52483C183.125 0.607135 166.858 -1.3334 150.909 0.900248C134.961 3.1339 119.9 9.4622 107.255 19.2426C94.6109 29.0229 84.8333 41.9071 78.9154 56.5868C62.9472 58.7281 47.8421 64.9726 35.1352 74.6856C22.4284 84.3986 12.5726 97.234 6.56942 111.887C0.566242 126.541 -1.37035 142.49 0.956441 158.114C3.28323 173.738 9.79046 188.48 19.8169 200.843C14.9241 212.589 12.6382 225.221 13.1109 237.9C13.5836 250.578 16.804 263.013 22.5585 274.379C28.3129 285.744 36.4697 295.78 46.487 303.821C56.5044 311.861 68.1532 317.722 80.6598 321.013C88.4119 323.092 96.4088 324.166 104.446 324.208C108.904 324.203 113.356 323.878 117.766 323.233C127.647 335.696 140.718 345.376 155.652 351.29C170.587 357.204 186.852 359.142 202.798 356.907C218.744 354.671 233.802 348.343 246.444 338.563C259.086 328.784 268.863 315.902 274.78 301.225C290.748 299.083 305.853 292.839 318.56 283.126C331.267 273.413 341.123 260.577 347.126 245.924C353.129 231.271 355.066 215.321 352.739 199.697C350.412 184.073 343.905 169.331 333.879 156.969V156.889ZM266.27 61.3623C282.705 65.6664 296.772 76.0918 305.471 90.4143C314.17 104.737 316.811 121.823 312.831 138.026C311.283 137.02 309.718 136.046 308.087 135.135L235.539 94.0243C233.556 92.9029 231.307 92.3125 229.018 92.3125C226.728 92.3125 224.479 92.9029 222.496 94.0243L150.763 134.608V105.093L216.79 67.751C224.198 63.5359 232.384 60.801 240.877 59.7044C249.37 58.6079 258.001 59.1713 266.27 61.3623ZM34.7668 113.27C43.0804 99.0693 56.672 88.5635 72.704 83.9462C72.5898 85.767 72.5083 87.5877 72.5083 89.4245V171.487C72.5078 173.73 73.1102 175.934 74.2549 177.877C75.3997 179.82 77.0464 181.433 79.0295 182.555L150.763 223.123L124.678 237.961L58.6507 200.539C43.6733 192.067 32.7445 178.113 28.2684 161.747C23.7924 145.381 26.1358 127.944 34.7831 113.27H34.7668ZM189.89 332.194C173.195 332.237 157.125 325.973 145.024 314.705C146.655 313.89 148.285 313.028 149.915 312.101L222.496 271.07C224.477 269.95 226.122 268.339 227.267 266.399C228.411 264.459 229.015 262.258 229.018 260.018V178.866L255.102 193.624V268.307C255.102 285.251 248.232 301.501 236.002 313.482C223.773 325.463 207.186 332.194 189.89 332.194ZM209.753 185.628V172.183C209.753 170.756 209.186 169.388 208.177 168.38C207.169 167.371 205.801 166.805 204.374 166.805H186.895V149.325C186.895 147.899 186.329 146.531 185.32 145.523C184.311 144.514 182.943 143.947 181.517 143.947H168.071C166.645 143.947 165.277 144.514 164.269 145.523C163.26 146.531 162.693 147.899 162.693 149.325V166.805H145.214C143.788 166.805 142.42 167.371 141.411 168.38C140.403 169.388 139.836 170.756 139.836 172.183V185.628C139.836 187.055 140.403 188.423 141.411 189.431C142.42 190.44 143.788 191.006 145.214 191.006H162.693V208.486C162.693 209.912 163.26 211.28 164.269 212.289C165.277 213.297 166.645 213.864 168.071 213.864H181.517C182.943 213.864 184.311 213.297 185.32 212.289C186.329 211.28 186.895 209.912 186.895 208.486V191.006H204.374C205.801 191.006 207.169 190.44 208.177 189.431C209.186 188.423 209.753 187.055 209.753 185.628Z" fill="url(#paint0_linear_4191_953)"/>
<defs>
<linearGradient id="paint0_linear_4191_953" x1="176.848" y1="0" x2="176.848" y2="357.808" gradientUnits="userSpaceOnUse">
<stop stop-color="#0177FF"/>
<stop offset="1" stop-color="#1A84FF"/>
</linearGradient>
</defs>
</svg>
