<svg width="375" height="246" viewBox="0 0 375 246" fill="none" xmlns="http://www.w3.org/2000/svg">
<path d="M356.586 174.89C353.282 179.045 348.707 182.043 343.537 183.443C338.367 184.843 332.876 184.571 327.876 182.665L251.336 155.944L250.883 155.775C247.056 154.269 243.666 151.854 241.017 148.747C238.368 145.64 236.542 141.936 235.7 137.966L226 92.2527C200.834 83.8173 173.526 83.8768 148.398 92.4218L139.182 137.782C138.369 141.796 136.55 145.547 133.891 148.694C131.231 151.841 127.815 154.286 123.952 155.806L123.499 155.975L46.9592 182.665C44.1181 183.767 41.0938 184.34 38.04 184.356C34.2387 184.363 30.4859 183.516 27.0672 181.881C23.6485 180.246 20.654 177.866 18.3114 174.921C-8.60248 140.778 -5.58774 95.4642 25.6374 64.7325C113.346 -21.5775 261.505 -21.5775 349.26 64.7325C380.486 95.4335 383.5 140.747 356.586 174.89ZM324.908 221.234H49.9896C46.6754 221.234 43.4969 222.529 41.1534 224.834C38.8098 227.139 37.4933 230.266 37.4933 233.526C37.4933 236.787 38.8098 239.913 41.1534 242.219C43.4969 244.524 46.6754 245.819 49.9896 245.819H324.908C328.223 245.819 331.401 244.524 333.745 242.219C336.088 239.913 337.405 236.787 337.405 233.526C337.405 230.266 336.088 227.139 333.745 224.834C331.401 222.529 328.223 221.234 324.908 221.234Z" fill="url(#paint0_linear_4191_963)"/>
<defs>
<linearGradient id="paint0_linear_4191_963" x1="187.449" y1="0" x2="187.449" y2="245.819" gradientUnits="userSpaceOnUse">
<stop stop-color="#FF3E3E"/>
<stop offset="1" stop-color="#FF4B4B"/>
</linearGradient>
</defs>
</svg>
