<svg width="329" height="397" viewBox="0 0 329 397" fill="none" xmlns="http://www.w3.org/2000/svg">
<path d="M229.798 382.035C229.798 385.932 228.417 389.669 225.959 392.424C223.502 395.179 220.169 396.727 216.693 396.727H111.857C108.382 396.727 105.049 395.179 102.591 392.424C100.134 389.669 98.753 385.932 98.753 382.035C98.753 378.138 100.134 374.401 102.591 371.646C105.049 368.891 108.382 367.343 111.857 367.343H216.693C220.169 367.343 223.502 368.891 225.959 371.646C228.417 374.401 229.798 378.138 229.798 382.035ZM327.082 81.429C312.354 49.1545 290.238 21.8494 263.001 2.31058C261.546 1.26831 259.921 0.558815 258.22 0.222867C256.52 -0.113081 254.776 -0.0688496 253.091 0.353015C251.406 0.77488 249.811 1.56606 248.4 2.68107C246.988 3.79609 245.787 5.21295 244.865 6.8502C243.943 8.48746 243.319 10.3128 243.029 12.2214C242.738 14.1299 242.787 16.084 243.173 17.9713C243.558 19.8586 244.272 21.6419 245.274 23.2186C246.276 24.7954 247.547 26.1345 249.012 27.1591C272.38 43.8257 291.313 67.2415 303.821 94.946C305.474 98.2947 308.227 100.788 311.495 101.896C314.763 103.003 318.287 102.637 321.317 100.876C324.348 99.1149 326.646 96.0973 327.723 92.4653C328.799 88.8334 328.569 84.8738 327.082 81.429ZM13.099 102.88C15.4998 102.879 17.8541 102.138 19.9051 100.739C21.9561 99.34 23.6248 97.336 24.7292 94.946C37.2374 67.2415 56.1703 43.8257 79.5386 27.1591C81.0038 26.1345 82.2741 24.7954 83.2762 23.2186C84.2783 21.6419 84.9926 19.8586 85.378 17.9713C85.7634 16.084 85.8123 14.1299 85.5218 12.2214C85.2314 10.3128 84.6074 8.48746 83.6857 6.8502C82.7639 5.21295 81.5627 3.79609 80.1509 2.68107C78.7392 1.56606 77.1448 0.77488 75.4594 0.353015C73.774 -0.0688496 72.0309 -0.113081 70.3302 0.222867C68.6295 0.558815 67.0049 1.26831 65.5496 2.31058C38.3123 21.8494 16.197 49.1545 1.46877 81.429C0.434132 83.6681 -0.0690596 86.1681 0.00761862 88.6884C0.0842968 91.2087 0.738263 93.6644 1.90658 95.8193C3.0749 97.9741 4.71824 99.7556 6.67845 100.992C8.63867 102.229 10.8498 102.879 13.099 102.88ZM295.32 176.342C295.32 137.375 281.513 100.005 256.938 72.451C232.362 44.8974 199.03 29.418 164.275 29.418C129.52 29.418 96.1884 44.8974 71.6128 72.451C47.0371 100.005 33.2307 137.375 33.2307 176.342C33.2307 224.606 25.4008 265.212 10.6091 293.771C8.28751 298.234 7.05674 303.305 7.04092 308.472C7.0251 313.639 8.22479 318.72 10.519 323.201C12.8132 327.682 16.1208 331.406 20.1083 333.997C24.0958 336.588 28.622 337.954 33.2307 337.958H295.32C299.926 337.948 304.448 336.577 308.431 333.983C312.414 331.39 315.717 327.665 318.007 323.185C320.297 318.705 321.494 313.627 321.477 308.463C321.46 303.299 320.229 298.231 317.909 293.771C303.15 265.194 295.32 224.588 295.32 176.342Z" fill="#E0FD48"/>
</svg>
