<svg width="393" height="118" viewBox="0 0 393 118" fill="none" xmlns="http://www.w3.org/2000/svg">
<g filter="url(#filter0_bd_2867_2532)">
<rect x="8" y="16.3164" width="378" height="77.3684" rx="38.6842" fill="#898989" fill-opacity="0.4"/>
</g>
<g filter="url(#filter1_d_2867_2532)">
<rect x="251.16" y="19.6328" width="130.421" height="70.7368" rx="35.3684" fill="url(#paint0_linear_2867_2532)"/>
</g>
<g filter="url(#filter2_d_2867_2532)">
<circle cx="47.7903" cy="55.0012" r="35.3684" fill="#26262E" fill-opacity="0.7" shape-rendering="crispEdges"/>
</g>
<g filter="url(#filter3_d_2867_2532)">
<circle cx="127.372" cy="55.0012" r="35.3684" fill="#26262E" fill-opacity="0.7" shape-rendering="crispEdges"/>
</g>
<g filter="url(#filter4_d_2867_2532)">
<circle cx="206.947" cy="55.0012" r="35.3684" fill="#26262E" fill-opacity="0.7" shape-rendering="crispEdges"/>
</g>
<path fill-rule="evenodd" clip-rule="evenodd" d="M345.656 45.0527L354.124 52.1163C354.686 52.533 355.051 53.2121 355.051 53.9791V64.9475L347.804 64.9475V60.1119C347.804 58.9674 346.902 58.0396 345.791 58.0396C344.679 58.0396 343.778 58.9674 343.778 60.1119V64.9475L336.262 64.9475V53.9791C336.262 53.2125 336.627 52.5337 337.188 52.1169L345.656 45.0527Z" fill="url(#paint1_linear_2867_2532)"/>
<path d="M281.218 59.0527V48.4473H282.829V53.0469H288.103V48.4473H289.714V59.0527H288.103V54.4238H282.829V59.0527H281.218ZM295.119 59.2139C292.863 59.2139 291.399 57.5732 291.399 55.1123C291.399 52.6367 292.863 50.9961 295.119 50.9961C297.361 50.9961 298.825 52.6367 298.825 55.1123C298.825 57.5732 297.361 59.2139 295.119 59.2139ZM295.119 57.9102C296.555 57.9102 297.243 56.6357 297.243 55.1123C297.243 53.5889 296.555 52.2852 295.119 52.2852C293.654 52.2852 292.966 53.5889 292.966 55.1123C292.966 56.6357 293.654 57.9102 295.119 57.9102ZM300.363 59.0527V51.0986H301.872V52.4023H301.96C302.297 51.5088 303.073 50.9961 304.128 50.9961C305.183 50.9961 305.93 51.5234 306.267 52.4023H306.355C306.736 51.5381 307.585 50.9961 308.742 50.9961C310.178 50.9961 311.203 51.9043 311.203 53.7207V59.0527H309.636V53.8672C309.636 52.7979 308.962 52.3438 308.142 52.3438C307.131 52.3438 306.56 53.0322 306.56 53.9844V59.0527H305.007V53.7793C305.007 52.915 304.406 52.3438 303.557 52.3438C302.678 52.3438 301.931 53.0762 301.931 54.1455V59.0527H300.363ZM316.521 59.2139C314.177 59.2139 312.741 57.6025 312.741 55.127C312.741 52.6807 314.206 50.9961 316.418 50.9961C318.235 50.9961 319.948 52.124 319.948 54.9951V55.5518H314.294C314.338 57.0605 315.224 57.9248 316.535 57.9248C317.429 57.9248 318 57.5439 318.264 57.0605H319.846C319.494 58.3496 318.264 59.2139 316.521 59.2139ZM314.309 54.3799H318.41C318.41 53.1641 317.634 52.2852 316.433 52.2852C315.18 52.2852 314.367 53.252 314.309 54.3799Z" fill="url(#paint2_linear_2867_2532)"/>
<path d="M119.664 62.5325L127.014 46.9676C127.375 46.2036 128.462 46.2036 128.822 46.9676L136.172 62.5325C136.567 63.3685 135.714 64.2465 134.867 63.8754L128.32 61.0058C128.064 60.8937 127.773 60.8937 127.517 61.0058L120.97 63.8754C120.123 64.2465 119.269 63.3685 119.664 62.5325Z" fill="#9D9D9D"/>
<path fill-rule="evenodd" clip-rule="evenodd" d="M51.9257 48.8659C51.9257 50.9718 50.3206 52.679 48.3407 52.679C46.3607 52.679 44.7556 50.9718 44.7556 48.8659C44.7556 46.7599 46.3607 45.0527 48.3407 45.0527C50.3206 45.0527 51.9257 46.7599 51.9257 48.8659ZM45.5093 52.679H44.4439C43.2387 52.679 42.2617 53.7182 42.2617 55.0001V62.6264C42.2617 63.9083 43.2387 64.9475 44.4439 64.9475H52.2374C53.4426 64.9475 54.4196 63.9083 54.4196 62.6264V55.0001C54.4196 53.7182 53.4426 52.679 52.2374 52.679H51.172C50.8001 53.8311 49.6731 54.6685 48.3407 54.6685C47.0082 54.6685 45.8813 53.8311 45.5093 52.679ZM52.7935 57.2388C53.0951 56.9122 53.0906 56.3874 52.7835 56.0666C52.4764 55.7458 51.983 55.7505 51.6814 56.0771L47.9312 60.1385L45.9151 58.1073C45.6026 57.7925 45.1093 57.8067 44.8133 58.1391C44.5173 58.4715 44.5307 58.9962 44.8432 59.311L47.4151 61.9019L47.9707 62.4617L48.507 61.8809L52.7935 57.2388Z" fill="#9D9D9D"/>
<path d="M215.564 53.7799C215.903 52.9672 216.016 52.0811 215.892 51.2117C215.769 50.3422 215.412 49.5204 214.859 48.8296C214.306 48.1389 213.576 47.604 212.743 47.2791C211.911 46.9543 211.005 46.8511 210.119 46.9801C209.57 46.2869 208.843 45.7485 208.013 45.4194C207.182 45.0904 206.278 44.9825 205.391 45.1067C204.504 45.2309 203.667 45.5828 202.964 46.1266C202.261 46.6704 201.717 47.3867 201.388 48.203C200.5 48.322 199.66 48.6692 198.954 49.2093C198.247 49.7493 197.699 50.463 197.365 51.2778C197.031 52.0925 196.924 52.9793 197.053 53.848C197.183 54.7168 197.544 55.5365 198.102 56.2238C197.83 56.877 197.703 57.5793 197.729 58.2842C197.755 58.9892 197.934 59.6806 198.254 60.3125C198.574 60.9445 199.028 61.5025 199.585 61.9496C200.142 62.3966 200.789 62.7225 201.485 62.9055C201.916 63.0211 202.36 63.0808 202.807 63.0831C203.055 63.0829 203.303 63.0648 203.548 63.0289C204.097 63.7219 204.824 64.2601 205.655 64.5889C206.485 64.9178 207.389 65.0255 208.276 64.9012C209.163 64.7769 210 64.4251 210.703 63.8813C211.406 63.3376 211.949 62.6213 212.278 61.8052C213.166 61.6862 214.006 61.3389 214.712 60.7989C215.419 60.2588 215.967 59.5452 216.301 58.7304C216.635 57.9157 216.742 57.0289 216.613 56.1601C216.483 55.2914 216.122 54.4717 215.564 53.7844V53.7799ZM208.283 55.8224L206.833 56.643L205.383 55.8224V54.1813L206.833 53.3608L208.283 54.1813V55.8224ZM211.805 48.4685C212.719 48.7078 213.501 49.2875 213.985 50.0838C214.468 50.8802 214.615 51.8302 214.394 52.7311C214.308 52.6752 214.221 52.621 214.13 52.5704L210.096 50.2845C209.986 50.2222 209.861 50.1894 209.734 50.1894C209.606 50.1894 209.481 50.2222 209.371 50.2845L205.383 52.5411V50.9L209.054 48.8237C209.466 48.5893 209.921 48.4373 210.393 48.3763C210.865 48.3153 211.345 48.3467 211.805 48.4685ZM198.933 51.3546C199.395 50.5651 200.151 49.9809 201.042 49.7242C201.036 49.8254 201.032 49.9267 201.032 50.0288V54.5916C201.032 54.7163 201.065 54.8389 201.129 54.9469C201.192 55.0549 201.284 55.1446 201.394 55.207L205.383 57.4627L203.932 58.2877L200.261 56.207C199.428 55.7359 198.821 54.96 198.572 54.0501C198.323 53.1401 198.453 52.1705 198.934 51.3546H198.933ZM207.558 63.5271C206.63 63.5296 205.736 63.1813 205.064 62.5547C205.154 62.5094 205.245 62.4615 205.336 62.41L209.371 60.1286C209.481 60.0663 209.573 59.9767 209.636 59.8689C209.7 59.761 209.734 59.6386 209.734 59.514V55.0019L211.184 55.8224V59.9749C211.184 60.917 210.802 61.8206 210.122 62.4867C209.442 63.1529 208.52 63.5271 207.558 63.5271Z" fill="#9D9D9D"/>
<rect x="205.004" y="53.0586" width="3.6588" height="3.6588" fill="#9D9D9D"/>
<path d="M208.665 54.6266V55.3742C208.665 55.4535 208.633 55.5295 208.577 55.5856C208.521 55.6417 208.445 55.6732 208.366 55.6732H207.394V56.6451C207.394 56.7244 207.362 56.8004 207.306 56.8565C207.25 56.9126 207.174 56.9441 207.095 56.9441H206.347C206.268 56.9441 206.192 56.9126 206.136 56.8565C206.08 56.8004 206.048 56.7244 206.048 56.6451V55.6732H205.076C204.997 55.6732 204.921 55.6417 204.865 55.5856C204.809 55.5295 204.777 55.4535 204.777 55.3742V54.6266C204.777 54.5473 204.809 54.4712 204.865 54.4151C204.921 54.3591 204.997 54.3275 205.076 54.3275H206.048V53.3557C206.048 53.2764 206.08 53.2003 206.136 53.1442C206.192 53.0881 206.268 53.0566 206.347 53.0566H207.095C207.174 53.0566 207.25 53.0881 207.306 53.1442C207.362 53.2003 207.394 53.2764 207.394 53.3557V54.3275H208.366C208.445 54.3275 208.521 54.3591 208.577 54.4151C208.633 54.4712 208.665 54.5473 208.665 54.6266Z" fill="#52573D"/>
<defs>
<filter id="filter0_bd_2867_2532" x="-12" y="0.316406" width="418" height="117.369" filterUnits="userSpaceOnUse" color-interpolation-filters="sRGB">
<feFlood flood-opacity="0" result="BackgroundImageFix"/>
<feGaussianBlur in="BackgroundImageFix" stdDeviation="7.5"/>
<feComposite in2="SourceAlpha" operator="in" result="effect1_backgroundBlur_2867_2532"/>
<feColorMatrix in="SourceAlpha" type="matrix" values="0 0 0 0 0 0 0 0 0 0 0 0 0 0 0 0 0 0 127 0" result="hardAlpha"/>
<feOffset dy="4"/>
<feGaussianBlur stdDeviation="10"/>
<feColorMatrix type="matrix" values="0 0 0 0 0 0 0 0 0 0 0 0 0 0 0 0 0 0 0.03 0"/>
<feBlend mode="normal" in2="effect1_backgroundBlur_2867_2532" result="effect2_dropShadow_2867_2532"/>
<feBlend mode="normal" in="SourceGraphic" in2="effect2_dropShadow_2867_2532" result="shape"/>
</filter>
<filter id="filter1_d_2867_2532" x="247.16" y="16.6328" width="138.422" height="78.7363" filterUnits="userSpaceOnUse" color-interpolation-filters="sRGB">
<feFlood flood-opacity="0" result="BackgroundImageFix"/>
<feColorMatrix in="SourceAlpha" type="matrix" values="0 0 0 0 0 0 0 0 0 0 0 0 0 0 0 0 0 0 127 0" result="hardAlpha"/>
<feOffset dy="1"/>
<feGaussianBlur stdDeviation="2"/>
<feComposite in2="hardAlpha" operator="out"/>
<feColorMatrix type="matrix" values="0 0 0 0 0 0 0 0 0 0 0 0 0 0 0 0 0 0 0.35 0"/>
<feBlend mode="normal" in2="BackgroundImageFix" result="effect1_dropShadow_2867_2532"/>
<feBlend mode="normal" in="SourceGraphic" in2="effect1_dropShadow_2867_2532" result="shape"/>
</filter>
<filter id="filter2_d_2867_2532" x="8.42188" y="16.6328" width="78.7383" height="78.7363" filterUnits="userSpaceOnUse" color-interpolation-filters="sRGB">
<feFlood flood-opacity="0" result="BackgroundImageFix"/>
<feColorMatrix in="SourceAlpha" type="matrix" values="0 0 0 0 0 0 0 0 0 0 0 0 0 0 0 0 0 0 127 0" result="hardAlpha"/>
<feOffset dy="1"/>
<feGaussianBlur stdDeviation="2"/>
<feComposite in2="hardAlpha" operator="out"/>
<feColorMatrix type="matrix" values="0 0 0 0 0 0 0 0 0 0 0 0 0 0 0 0 0 0 0.35 0"/>
<feBlend mode="normal" in2="BackgroundImageFix" result="effect1_dropShadow_2867_2532"/>
<feBlend mode="normal" in="SourceGraphic" in2="effect1_dropShadow_2867_2532" result="shape"/>
</filter>
<filter id="filter3_d_2867_2532" x="88.0039" y="16.6328" width="78.7383" height="78.7363" filterUnits="userSpaceOnUse" color-interpolation-filters="sRGB">
<feFlood flood-opacity="0" result="BackgroundImageFix"/>
<feColorMatrix in="SourceAlpha" type="matrix" values="0 0 0 0 0 0 0 0 0 0 0 0 0 0 0 0 0 0 127 0" result="hardAlpha"/>
<feOffset dy="1"/>
<feGaussianBlur stdDeviation="2"/>
<feComposite in2="hardAlpha" operator="out"/>
<feColorMatrix type="matrix" values="0 0 0 0 0 0 0 0 0 0 0 0 0 0 0 0 0 0 0.35 0"/>
<feBlend mode="normal" in2="BackgroundImageFix" result="effect1_dropShadow_2867_2532"/>
<feBlend mode="normal" in="SourceGraphic" in2="effect1_dropShadow_2867_2532" result="shape"/>
</filter>
<filter id="filter4_d_2867_2532" x="167.578" y="16.6328" width="78.7383" height="78.7363" filterUnits="userSpaceOnUse" color-interpolation-filters="sRGB">
<feFlood flood-opacity="0" result="BackgroundImageFix"/>
<feColorMatrix in="SourceAlpha" type="matrix" values="0 0 0 0 0 0 0 0 0 0 0 0 0 0 0 0 0 0 127 0" result="hardAlpha"/>
<feOffset dy="1"/>
<feGaussianBlur stdDeviation="2"/>
<feComposite in2="hardAlpha" operator="out"/>
<feColorMatrix type="matrix" values="0 0 0 0 0 0 0 0 0 0 0 0 0 0 0 0 0 0 0.35 0"/>
<feBlend mode="normal" in2="BackgroundImageFix" result="effect1_dropShadow_2867_2532"/>
<feBlend mode="normal" in="SourceGraphic" in2="effect1_dropShadow_2867_2532" result="shape"/>
</filter>
<linearGradient id="paint0_linear_2867_2532" x1="316.371" y1="19.6328" x2="316.371" y2="90.3696" gradientUnits="userSpaceOnUse">
<stop stop-color="#D8FF0E"/>
<stop offset="1" stop-color="#E0FD48"/>
</linearGradient>
<linearGradient id="paint1_linear_2867_2532" x1="345.656" y1="45.0527" x2="345.656" y2="64.9475" gradientUnits="userSpaceOnUse">
<stop stop-color="#0A0A0A"/>
<stop offset="1" stop-color="#0C0C0C"/>
</linearGradient>
<linearGradient id="paint2_linear_2867_2532" x1="300.341" y1="45.0527" x2="300.341" y2="64.9475" gradientUnits="userSpaceOnUse">
<stop stop-color="#0A0A0A"/>
<stop offset="1" stop-color="#0C0C0C"/>
</linearGradient>
</defs>
</svg>
