<svg width="296" height="500" viewBox="0 0 296 500" fill="none" xmlns="http://www.w3.org/2000/svg">
<g filter="url(#filter0_d_5928_16)">
<rect x="8.33203" y="170.07" width="278.669" height="321.63" rx="17.4168" fill="#606060" fill-opacity="0.5" shape-rendering="crispEdges"/>
</g>
<path d="M43.4573 194.9L43.4573 207.699L40.9899 207.699L40.9899 194.9L43.4573 194.9ZM28.7108 203.362C31.6505 202.379 32.9324 199.94 32.9324 197.56L32.9324 195.863L35.4961 195.863L35.4961 197.56C35.4769 199.883 36.7202 202.148 39.602 203.073L38.349 205C36.3636 204.345 35.0046 203.034 34.2239 201.367C33.4336 203.16 32.036 204.605 29.9831 205.309L28.7108 203.362ZM31.6987 212.113L31.6987 206.465L34.1853 206.465L34.1853 210.147L43.9199 210.147L43.9199 212.113L31.6987 212.113ZM60.2856 196.403L60.2856 198.061C60.276 200.258 60.276 202.726 59.5724 206.446L57.105 206.196C57.7797 202.88 57.8086 200.413 57.8182 198.35L47.4861 198.35L47.4861 196.403L60.2856 196.403ZM45.8283 210.282L45.8283 208.277L51.5534 208.277L51.5534 202.244L54.0015 202.244L54.0015 208.277L61.8277 208.277L61.8277 210.282L45.8283 210.282ZM69.3648 199.661C69.3551 202.331 70.7816 205.415 73.6634 206.755L72.2948 208.682C70.3382 207.786 68.9503 205.993 68.16 203.892C67.3793 206.205 65.9336 208.171 63.9096 209.126L62.4831 207.179C65.4035 205.82 66.8781 202.562 66.8974 199.661L66.8974 198.581L63.1771 198.581L63.1771 196.577L72.8924 196.577L72.8924 198.581L69.3648 198.581L69.3648 199.661ZM74.261 212.422L74.261 194.88L76.7284 194.88L76.7284 201.569L79.3114 201.569L79.3114 203.632L76.7284 203.632L76.7284 212.422L74.261 212.422ZM90.2219 195.613C92.9013 195.594 94.8482 197.126 94.8482 199.333C94.8482 201.521 92.9013 203.073 90.2219 203.054C87.5521 203.073 85.6052 201.521 85.6148 199.333C85.6052 197.126 87.5521 195.594 90.2219 195.613ZM84.5353 204.133C87.6485 204.123 92.0531 204.066 95.7927 203.497L95.947 205.309C94.5012 205.598 93.0169 205.781 91.5519 205.897L91.5519 211.901L89.1038 211.901L89.1038 206.041C87.5617 206.109 86.1064 206.118 84.8437 206.138L84.5353 204.133ZM87.9858 199.333C87.9762 200.432 88.9111 201.068 90.2219 201.049C91.5712 201.068 92.5158 200.432 92.5158 199.333C92.5158 198.215 91.5712 197.569 90.2219 197.579C88.9111 197.569 87.9762 198.215 87.9858 199.333ZM96.853 212.422L96.853 194.9L99.2818 194.9L99.2818 212.422L96.853 212.422ZM116.226 194.88L116.226 212.422L113.758 212.422L113.758 194.88L116.226 194.88ZM101.653 207.256C104.535 205.993 105.961 203.044 105.971 200.374L105.971 199.699L102.231 199.699L102.231 197.733L105.951 197.733L105.951 195.266L108.4 195.266L108.4 197.733L112.062 197.733L112.062 199.699L108.419 199.699L108.419 200.374C108.419 202.919 109.855 205.781 112.775 206.986L111.445 208.875C109.45 208.056 108.024 206.379 107.224 204.364C106.443 206.494 105.007 208.287 102.964 209.145L101.653 207.256Z" fill="white"/>
<g filter="url(#filter1_d_5928_16)">
<rect x="28.0703" y="244.383" width="236.869" height="225.257" rx="17.4168" fill="#1E1E1E"/>
</g>
<g filter="url(#filter2_b_5928_16)">
<rect x="50.2344" y="259.484" width="193.907" height="193.907" rx="96.9536" fill="#0A0A0A"/>
</g>
<g filter="url(#filter3_b_5928_16)">
<circle cx="147.212" cy="356.419" r="90.4262" stroke="url(#paint0_linear_5928_16)" stroke-width="1.39117"/>
</g>
<path d="M134.287 380.188V364.45H136.613V373.362H136.809L141.482 368.384H144.265L139.493 373.449L144.591 380.188H141.743L137.733 374.884L136.613 375.992V380.188H134.287ZM146.091 380.188V368.384H148.33V370.319H148.46C148.96 369.004 150.123 368.232 151.677 368.232C153.253 368.232 154.351 369.004 154.851 370.319H154.981C155.535 369.047 156.818 368.232 158.524 368.232C160.655 368.232 162.165 369.569 162.176 372.275V380.188H159.85V372.493C159.85 370.895 158.85 370.232 157.633 370.232C156.144 370.232 155.285 371.254 155.285 372.666V380.188H152.981V372.362C152.981 371.069 152.101 370.232 150.829 370.232C149.525 370.232 148.417 371.319 148.417 372.906V380.188H146.091Z" fill="white"/>
<path d="M141.315 396.39C139.843 397.854 138.926 399.782 138.722 401.844C138.518 403.906 139.039 405.975 140.195 407.697C141.352 409.42 143.073 410.689 145.064 411.29C147.055 411.891 149.194 411.786 151.116 410.994C153.038 410.202 154.626 408.771 155.608 406.944C156.589 405.117 156.904 403.007 156.498 400.974C156.091 398.942 154.989 397.113 153.38 395.8C151.771 394.486 149.755 393.768 147.675 393.768" stroke="white" stroke-width="1.30698" stroke-linecap="round"/>
<path d="M147.678 402.72L143.043 398.109" stroke="white" stroke-width="1.30698" stroke-linecap="round"/>
<path d="M156.02 402.719L154.167 402.719" stroke="white" stroke-width="1.30698" stroke-linecap="round"/>
<path d="M147.668 409.18V411.024" stroke="white" stroke-width="1.30698" stroke-linecap="round"/>
<path d="M141.18 402.719L139.327 402.719" stroke="white" stroke-width="1.30698" stroke-linecap="round"/>
<path d="M66.1046 361.649C63.719 361.782 61.8814 363.825 62.1334 366.201C63.7513 381.457 69.4135 396.035 78.5701 408.409C88.586 421.945 102.345 432.253 118.15 438.062C133.955 443.871 151.114 444.927 167.512 441.099C183.91 437.271 198.828 428.727 210.428 416.521C222.028 404.316 229.801 388.981 232.789 372.41C235.777 355.839 233.849 338.755 227.243 323.266C220.637 307.778 209.642 294.562 195.614 285.248C182.789 276.733 167.943 271.82 152.624 270.981C150.238 270.85 148.291 272.789 148.28 275.178C148.269 277.568 150.199 279.501 152.584 279.645C166.212 280.468 179.411 284.875 190.828 292.456C203.449 300.835 213.341 312.726 219.285 326.661C225.228 340.596 226.962 355.966 224.274 370.875C221.586 385.784 214.592 399.58 204.156 410.561C193.72 421.543 180.298 429.229 165.545 432.673C150.792 436.117 135.354 435.167 121.135 429.941C106.915 424.715 94.5364 415.441 85.5252 403.263C77.3734 392.246 72.3 379.289 70.7842 365.72C70.519 363.345 68.4901 361.517 66.1046 361.649Z" fill="url(#paint1_linear_5928_16)"/>
<path d="M100.375 341.126L122.432 326.08C124.039 325.009 125.11 324.619 127.301 324.619H130.174C132.998 324.619 134.41 325.642 134.41 329.586V345.605H138.403C139.133 345.605 139.474 345.995 139.474 346.725V350.669C139.474 351.399 139.133 351.74 138.403 351.74H134.41V357.632C134.41 358.362 134.069 358.703 133.339 358.703H128.323C127.593 358.703 127.204 358.362 127.204 357.632V351.74H101.592C99.4984 351.74 98.4759 350.523 98.4759 348.77V345.07C98.4759 343.268 98.8654 342.148 100.375 341.126ZM106.51 345.264C106.51 345.459 106.656 345.605 106.899 345.605H127.204V331.631C127.204 331.241 127.058 331.095 126.814 331.095H126.522C126.132 331.095 125.889 331.193 125.451 331.485L106.802 344.291C106.607 344.437 106.51 344.631 106.51 344.972V345.264ZM144.94 351.886H149.712C150.443 351.886 150.783 352.227 150.783 352.958V357.632C150.783 358.362 150.443 358.703 149.712 358.703H144.94C144.21 358.703 143.821 358.362 143.821 357.632V352.958C143.821 352.227 144.21 351.886 144.94 351.886ZM165.151 324.619H184.53C191.249 324.619 193.781 327.249 193.781 332.653V334.991C193.781 337.766 192.758 339.908 190.762 341.272C193.002 342.538 194.024 344.583 194.024 347.455V350.28C194.024 355.441 191.833 358.703 185.406 358.703H164.274C157.847 358.703 155.656 355.441 155.656 350.28V347.455C155.656 344.583 156.678 342.538 158.918 341.272C156.922 339.908 155.899 337.766 155.899 334.991V332.653C155.899 327.249 158.431 324.619 165.151 324.619ZM162.911 347.163V349.306C162.911 351.351 163.933 352.276 166.514 352.276H183.166C185.747 352.276 186.818 351.351 186.818 349.306V347.163C186.818 345.167 185.796 344.096 182.582 344.096H167.098C163.885 344.096 162.911 345.167 162.911 347.163ZM162.96 334.163V335.964C162.96 337.863 163.885 338.886 167.098 338.886H182.582C185.796 338.886 186.721 337.863 186.721 335.964V334.163C186.721 332.167 185.698 331.047 183.118 331.047H166.563C163.982 331.047 162.96 332.167 162.96 334.163Z" fill="white"/>
<g opacity="0.89" filter="url(#filter4_d_5928_16)">
<rect x="8.33203" y="8.66406" width="278.669" height="126.562" rx="17.4168" fill="#606060" fill-opacity="0.5" shape-rendering="crispEdges"/>
</g>
<path d="M101.682 57.3821H106.002V81.7656H101.648V71.7335H88.7939C87.6096 71.7335 86.4949 71.4549 85.5196 70.9324C83.1857 69.748 81.6182 67.3445 81.6182 64.5578V57.3821H85.9724V64.5578C85.9724 66.1253 87.2612 67.4142 88.8288 67.4142H101.682V57.3821ZM133.897 64.6623L133.862 64.7668C133.862 66.7175 133.095 68.494 131.841 69.7829C133.095 71.0717 133.862 72.8482 133.862 74.7989C133.862 78.7699 130.657 81.9746 126.686 81.9746H109.513V77.6204H126.686C128.254 77.6204 129.542 76.3316 129.542 74.7641C129.542 73.2314 128.358 71.9774 126.86 71.9077C126.825 71.9077 126.791 71.9077 126.756 71.9077H113.902V67.5535H126.756C126.791 67.5535 126.825 67.5535 126.86 67.5535C128.358 67.4838 129.577 66.2298 129.577 64.6972C129.577 63.1296 128.288 61.8408 126.721 61.8408H109.548V57.4866H126.721C130.692 57.4866 133.897 60.6913 133.897 64.6623ZM137.707 81.7656V63.2943H141.857V66.4239H142.095C142.86 64.3148 144.714 63.0562 147.163 63.0562C149.664 63.0562 151.467 64.3318 152.164 66.4239H152.368C153.167 64.3828 155.225 63.0562 157.913 63.0562C161.298 63.0562 163.679 65.2333 163.662 69.3493V81.7656H159.342V70.0297C159.342 67.7335 157.947 66.696 156.178 66.696C154.052 66.696 152.81 68.1417 152.81 70.2338V81.7656H148.592V69.8596C148.575 67.9376 147.316 66.696 145.462 66.696C143.592 66.696 142.061 68.2438 142.061 70.5399V81.7656H137.707ZM200.23 56.865V59.9946C200.23 63.8216 200.23 67.9376 199.108 73.9757L195.4 73.6015C196.454 67.9036 196.454 63.7195 196.454 59.9946V59.8926H177.847V56.865H200.23ZM175.023 80.8131V77.7176H181.317V67.9206H185.093V77.7176H189.005V67.9206H192.712V77.7176H203.054V80.8131H175.023ZM215.946 63.8045C215.946 68.3628 218.514 73.3294 223.26 75.5745L221.151 78.4319C217.817 76.9012 215.419 73.8396 214.126 70.2508C212.783 74.1288 210.248 77.3944 206.727 78.9762L204.652 76.0507C209.5 73.8736 212.204 68.635 212.204 63.8045V62.2057H205.639V59.1782H212.204V54.6879H215.98V59.1782H222.443V62.2057H215.946V63.8045ZM225.437 84.7932V54.0416H229.213V66.2198H233.941V69.3834H229.213V84.7932H225.437ZM263.332 78.0918V81.2213H235.234V78.0918H247.344V73.0912H238.568V63.0221H256.257V59.2122H238.5V56.1507H259.998V66.0157H242.343V69.9957H260.713V73.0912H251.086V78.0918H263.332Z" fill="white"/>
<path d="M193.779 109.383C195.268 109.383 196.312 110.27 196.317 111.577C196.312 112.884 195.268 113.771 193.779 113.771C192.289 113.771 191.241 112.884 191.241 111.577C191.241 110.27 192.289 109.383 193.779 109.383ZM190.724 115.427C192.499 115.438 194.935 115.427 197.059 115.105L197.113 115.621C194.919 116.024 192.558 116.03 190.832 116.03L190.724 115.427ZM191.907 111.577C191.902 112.507 192.687 113.174 193.779 113.169C194.865 113.174 195.65 112.507 195.65 111.577C195.65 110.647 194.865 109.985 193.779 109.985C192.687 109.985 191.902 110.647 191.907 111.577ZM197.715 118.17V108.673H198.393V118.17H197.715ZM207.534 108.673V111.416H209.018V111.997H207.534V114.771H206.857V108.673H207.534ZM200.189 113.47C200.947 113.47 201.845 113.47 202.781 113.438V112.481C201.549 112.384 200.748 111.728 200.748 110.76C200.748 109.727 201.689 109.055 203.092 109.05C204.485 109.055 205.437 109.727 205.437 110.76C205.437 111.712 204.647 112.368 203.458 112.475V113.406C204.394 113.363 205.346 113.282 206.222 113.147L206.276 113.664C204.238 114.013 201.942 114.045 200.275 114.04L200.189 113.47ZM201.393 110.76C201.388 111.475 202.076 111.97 203.092 111.964C204.098 111.97 204.792 111.475 204.803 110.76C204.792 110.061 204.098 109.588 203.092 109.588C202.076 109.588 201.388 110.061 201.393 110.76ZM201.436 116.492C201.436 115.444 202.592 114.852 204.523 114.847C206.443 114.852 207.604 115.444 207.61 116.492C207.604 117.525 206.443 118.127 204.523 118.127C202.592 118.127 201.436 117.525 201.436 116.492ZM202.103 116.492C202.092 117.164 203.028 117.578 204.523 117.578C205.996 117.578 206.932 117.164 206.943 116.492C206.932 115.809 205.996 115.39 204.523 115.395C203.028 115.39 202.092 115.809 202.103 116.492ZM219.752 108.673V110.889H221.214V111.47H219.752V113.535H219.074V108.673H219.752ZM212.395 113.19C214.794 112.62 216.294 111.378 216.429 109.749H212.804V109.168H217.171C217.171 111.513 215.396 113.088 212.664 113.76L212.395 113.19ZM213.772 114.546V113.976H219.752V116.234H214.46V117.503H220.117V118.062H213.794V115.686H219.074V114.546H213.772ZM226.775 109.631V115.729H222.451V109.631H226.775ZM223.129 115.159H226.119V110.179H223.129V115.159ZM228.99 118.17V108.673H229.668V118.17H228.99ZM236.884 109.534V117.32H236.11V110.33H236.067L234.228 111.545V110.76L236.088 109.534H236.884ZM247.392 116.363V116.944H238.702V116.363H242.681V114.449H239.82V111.609H245.596V109.975H239.788V109.405H246.263V112.179H240.487V113.879H246.488V114.449H243.359V116.363H247.392ZM253.813 117.428C252.463 117.417 251.097 116.508 251.102 113.739C251.097 111.174 252.065 109.426 253.931 109.426C255.254 109.426 256.157 110.265 256.329 111.48H255.566C255.42 110.695 254.856 110.109 253.931 110.115C252.587 110.109 251.823 111.319 251.823 113.438H251.909C252.302 112.749 253.065 112.319 253.931 112.319C255.286 112.319 256.415 113.384 256.415 114.857C256.415 116.277 255.383 117.439 253.813 117.428ZM251.952 114.9C252.033 115.944 252.785 116.745 253.813 116.75C254.877 116.745 255.668 115.901 255.673 114.857C255.668 113.83 254.883 112.997 253.823 112.997C252.732 112.997 251.893 113.9 251.952 114.9ZM257.824 117.32V116.761L260.459 113.911C261.454 112.819 261.868 112.282 261.879 111.545C261.868 110.685 261.169 110.098 260.244 110.104C259.26 110.098 258.62 110.749 258.62 111.663H257.889C257.889 110.351 258.9 109.426 260.266 109.426C261.615 109.426 262.589 110.351 262.589 111.545C262.589 112.416 262.191 113.072 260.846 114.492L258.91 116.578V116.632H262.825V117.32H257.824Z" fill="white"/>
<path opacity="0.6" fill-rule="evenodd" clip-rule="evenodd" d="M181.325 120.169C183.438 118.056 185.974 114.537 185.974 111.969C185.974 109.402 183.893 107.32 181.325 107.32C178.757 107.32 176.676 109.402 176.676 111.969C176.676 114.537 179.55 118.309 181.325 120.169ZM181.324 114.594C182.491 114.594 183.437 113.648 183.437 112.48C183.437 111.313 182.491 110.367 181.324 110.367C180.157 110.367 179.211 111.313 179.211 112.48C179.211 113.648 180.157 114.594 181.324 114.594Z" fill="url(#paint2_linear_5928_16)"/>
<path d="M48.3462 46.3374C47.4064 45.3976 45.8827 45.3976 44.9429 46.3374L29.6281 61.6522C28.6883 62.592 28.6883 64.1157 29.6281 65.0555C30.5679 65.9953 32.0916 65.9953 33.0314 65.0555L46.6445 51.4424L60.2577 65.0555C61.1975 65.9953 62.7212 65.9953 63.661 65.0555C64.6008 64.1157 64.6008 62.592 63.661 61.6522L48.3462 46.3374ZM49.051 87.9397V48.0391H44.238V87.9397H49.051Z" fill="url(#paint3_linear_5928_16)"/>
<defs>
<filter id="filter0_d_5928_16" x="0.351899" y="162.09" width="294.628" height="337.593" filterUnits="userSpaceOnUse" color-interpolation-filters="sRGB">
<feFlood flood-opacity="0" result="BackgroundImageFix"/>
<feColorMatrix in="SourceAlpha" type="matrix" values="0 0 0 0 0 0 0 0 0 0 0 0 0 0 0 0 0 0 127 0" result="hardAlpha"/>
<feOffset/>
<feGaussianBlur stdDeviation="3.99007"/>
<feComposite in2="hardAlpha" operator="out"/>
<feColorMatrix type="matrix" values="0 0 0 0 0 0 0 0 0 0 0 0 0 0 0 0 0 0 0.25 0"/>
<feBlend mode="normal" in2="BackgroundImageFix" result="effect1_dropShadow_5928_16"/>
<feBlend mode="normal" in="SourceGraphic" in2="effect1_dropShadow_5928_16" result="shape"/>
</filter>
<filter id="filter1_d_5928_16" x="20.0902" y="236.403" width="252.827" height="241.218" filterUnits="userSpaceOnUse" color-interpolation-filters="sRGB">
<feFlood flood-opacity="0" result="BackgroundImageFix"/>
<feColorMatrix in="SourceAlpha" type="matrix" values="0 0 0 0 0 0 0 0 0 0 0 0 0 0 0 0 0 0 127 0" result="hardAlpha"/>
<feOffset/>
<feGaussianBlur stdDeviation="3.99007"/>
<feComposite in2="hardAlpha" operator="out"/>
<feColorMatrix type="matrix" values="0 0 0 0 0 0 0 0 0 0 0 0 0 0 0 0 0 0 0.25 0"/>
<feBlend mode="normal" in2="BackgroundImageFix" result="effect1_dropShadow_5928_16"/>
<feBlend mode="normal" in="SourceGraphic" in2="effect1_dropShadow_5928_16" result="shape"/>
</filter>
<filter id="filter2_b_5928_16" x="46.5895" y="255.84" width="201.196" height="201.196" filterUnits="userSpaceOnUse" color-interpolation-filters="sRGB">
<feFlood flood-opacity="0" result="BackgroundImageFix"/>
<feGaussianBlur in="BackgroundImageFix" stdDeviation="1.82244"/>
<feComposite in2="SourceAlpha" operator="in" result="effect1_backgroundBlur_5928_16"/>
<feBlend mode="normal" in="SourceGraphic" in2="effect1_backgroundBlur_5928_16" result="shape"/>
</filter>
<filter id="filter3_b_5928_16" x="42.1781" y="251.385" width="210.066" height="210.066" filterUnits="userSpaceOnUse" color-interpolation-filters="sRGB">
<feFlood flood-opacity="0" result="BackgroundImageFix"/>
<feGaussianBlur in="BackgroundImageFix" stdDeviation="6.95586"/>
<feComposite in2="SourceAlpha" operator="in" result="effect1_backgroundBlur_5928_16"/>
<feBlend mode="normal" in="SourceGraphic" in2="effect1_backgroundBlur_5928_16" result="shape"/>
</filter>
<filter id="filter4_d_5928_16" x="0.204188" y="0.53622" width="294.924" height="142.818" filterUnits="userSpaceOnUse" color-interpolation-filters="sRGB">
<feFlood flood-opacity="0" result="BackgroundImageFix"/>
<feColorMatrix in="SourceAlpha" type="matrix" values="0 0 0 0 0 0 0 0 0 0 0 0 0 0 0 0 0 0 127 0" result="hardAlpha"/>
<feOffset/>
<feGaussianBlur stdDeviation="4.06392"/>
<feComposite in2="hardAlpha" operator="out"/>
<feColorMatrix type="matrix" values="0 0 0 0 0 0 0 0 0 0 0 0 0 0 0 0 0 0 0.3 0"/>
<feBlend mode="normal" in2="BackgroundImageFix" result="effect1_dropShadow_5928_16"/>
<feBlend mode="normal" in="SourceGraphic" in2="effect1_dropShadow_5928_16" result="shape"/>
</filter>
<linearGradient id="paint0_linear_5928_16" x1="147.212" y1="265.297" x2="147.212" y2="447.54" gradientUnits="userSpaceOnUse">
<stop stop-color="white" stop-opacity="0.38"/>
<stop offset="1" stop-color="#DFFD41"/>
</linearGradient>
<linearGradient id="paint1_linear_5928_16" x1="107.196" y1="443.357" x2="188.614" y2="270.852" gradientUnits="userSpaceOnUse">
<stop stop-color="#DAFE20"/>
<stop offset="0.48" stop-color="#DAFE20" stop-opacity="0.482836"/>
<stop offset="1" stop-color="white" stop-opacity="0"/>
</linearGradient>
<linearGradient id="paint2_linear_5928_16" x1="181.325" y1="107.32" x2="181.325" y2="120.169" gradientUnits="userSpaceOnUse">
<stop stop-color="#D8FF0E"/>
<stop offset="1" stop-color="#E0FD48"/>
</linearGradient>
<linearGradient id="paint3_linear_5928_16" x1="47.1445" y1="48.0391" x2="47.1445" y2="87.9397" gradientUnits="userSpaceOnUse">
<stop stop-color="#D8FF0E"/>
<stop offset="1" stop-color="#E0FD48"/>
</linearGradient>
</defs>
</svg>
