<svg width="731" height="488" viewBox="0 0 731 488" fill="none" xmlns="http://www.w3.org/2000/svg">
<path d="M489.731 456.984C455.946 456.984 428.457 429.503 428.457 395.728V242.827C428.457 206.714 399.169 177.435 363.045 177.435H218.274C184.489 177.435 157 149.955 157 116.18V-63.7446C157 -97.5193 184.489 -125 218.274 -125H398.269C432.054 -125 459.543 -97.5193 459.543 -63.7446V89.1569C459.543 125.269 488.831 154.548 524.955 154.548H669.742C703.527 154.548 731 182.029 731 215.804V395.745C731 429.519 703.511 457 669.742 457H489.747L489.731 456.984Z" fill="#101010"/>
<rect x="31.8672" y="180.739" width="50.5788" height="296.689" transform="rotate(-36.0535 31.8672 180.739)" />
<rect x="176.25" y="135.578" width="50.5788" height="296.689" transform="rotate(23.9465 176.25 135.578)" />
<rect x="287.531" y="238.08" width="50.5788" height="296.689" transform="rotate(83.9465 287.531 238.08)" />
</svg>
