<svg width="995" height="968" viewBox="0 0 995 968" fill="none" xmlns="http://www.w3.org/2000/svg">
<path d="M576.772 0.0319824C518.207 0.0319824 470.556 53.8131 470.556 119.912V419.147C470.556 489.82 419.787 547.121 357.169 547.121H106.215C47.6509 547.121 0 600.902 0 667V848.12C0 914.219 47.6509 968 106.215 968H418.228C476.793 968 524.444 914.219 524.444 848.12V719.885C524.444 649.212 575.213 591.911 637.831 591.911H888.813C947.377 591.911 995 538.13 995 472.032V295.956V119.88C995 53.781 947.349 0 888.813 0H576.8L576.772 0.0319824Z" fill="white"/>
</svg>
