<svg width="802" height="882" viewBox="0 0 802 882" fill="none" xmlns="http://www.w3.org/2000/svg">
<g filter="url(#filter0_d_6078_117)">
<path d="M65.1484 147.589C65.1484 132.253 77.5809 119.82 92.917 119.82H709.38C724.716 119.82 737.148 132.253 737.148 147.589V353.077C737.148 368.413 724.716 380.845 709.38 380.845H92.9171C77.5809 380.845 65.1484 368.413 65.1484 353.077V147.589Z" fill="#101010"/>
</g>
<path d="M254.823 163.184C254.823 171.861 249.146 177.791 239.312 180.322L237.54 176.743C244.952 174.844 249.146 171.192 249.869 166.763H239.456V163.184H254.823ZM242.963 193.772V181.009H264.911V193.772H242.963ZM247.555 190.157H260.391V184.625H247.555V190.157ZM260.283 179.671V161.303H264.911V179.671H260.283ZM281.471 167.776C281.489 170.704 284.038 173.687 289.353 174.754L287.328 178.261C283.459 177.448 280.766 175.567 279.247 173.109C277.783 175.821 275.035 177.9 271.021 178.803L269.069 175.296C274.384 174.067 276.879 170.957 276.879 167.776V167.667H270.262V164.015H276.879V161.123H281.543V164.015H288.124V167.667H281.471V167.776ZM275.179 183.07V179.563H297.09V188.385H279.844V190.41H298.067V193.953H275.215V185.022H292.499V183.07H275.179ZM287.256 172.621V168.969H292.499V161.267H297.09V178.37H292.499V172.621H287.256ZM318.821 163.834C318.803 167.721 322.78 172.006 330.319 172.946L328.511 176.67C322.762 175.839 318.55 173.181 316.398 169.62C314.229 173.163 310.035 175.839 304.358 176.67L302.514 172.946C309.999 172.006 313.958 167.721 313.976 163.834V162.244H318.821V163.834ZM301.357 182.925V179.165H331.367V182.925H318.568V194.17H314.012V182.925H301.357Z" fill="white"/>
<path d="M364.165 172.594V186.739H362.473V172.594H364.165ZM348.437 182.617C351.355 181.478 353.34 178.658 353.34 175.61V173.679H355.076V175.61C355.054 178.549 357.061 181.185 359.935 182.227L359.046 183.593C356.811 182.736 355.076 181.001 354.219 178.777C353.383 181.142 351.626 183.04 349.37 183.94L348.437 182.617ZM351.713 191.447V185.437H353.405V190.015H364.773V191.447H351.713ZM382.909 174.525V176.456C382.888 178.821 382.888 181.467 382.193 185.351L380.458 185.155C381.185 181.467 381.185 178.766 381.195 176.456V175.935H369.307V174.525H382.909ZM367.441 189.125V187.715H374.34V180.816H376.011V187.715H385.014V189.125H367.441ZM393.171 178.495C393.149 181.587 395.383 184.993 398.182 186.327L397.206 187.672C395.036 186.609 393.203 184.331 392.335 181.717C391.446 184.548 389.515 187.043 387.357 188.149L386.315 186.804C389.092 185.448 391.479 181.782 391.5 178.495V175.979H387.009V174.569H397.509V175.979H393.171V178.495ZM399.874 191.859V172.573H401.566V180.383H404.799V181.836H401.566V191.859H399.874Z" fill="white"/>
<g filter="url(#filter1_d_6078_117)">
<rect x="235.461" y="286.43" width="148.099" height="51.8347" rx="25.9174" fill="#0A0A0A"/>
</g>
<path d="M285.318 303.699V312.962H276.033V303.699H285.318ZM278.268 321.228V314.936H280.676V319.275H291.61V321.228H278.268ZM278.398 311.053H282.954V305.63H278.398V311.053ZM288.421 316.325V302.007H290.829V307.756H293.562V309.773H290.829V316.325H288.421ZM300.483 319.688V317.648L306.036 312.29C307.62 310.706 308.444 309.773 308.444 308.45C308.444 306.986 307.284 306.064 305.754 306.064C304.138 306.064 303.097 307.072 303.108 308.667H300.418C300.407 305.695 302.641 303.764 305.776 303.764C308.987 303.764 311.145 305.684 311.156 308.32C311.145 310.088 310.299 311.52 307.208 314.437L304.409 317.214V317.323H311.395V319.688H300.483ZM320.246 303.981V319.688H317.404V306.736H317.317L313.651 309.079V306.497L317.534 303.981H320.246ZM329.531 307.148C329.542 310.316 330.627 313.613 333.284 315.284L331.961 317.128C330.193 316.065 329.043 314.242 328.392 312.105C327.687 314.459 326.429 316.455 324.585 317.583L323.088 315.783C325.941 314.058 327.199 310.598 327.21 307.257V303.742H329.531V307.148ZM331.18 310.749V308.754H333.979V302.354H336.256V320.664H333.979V310.749H331.18ZM338.014 321.618V302.007H340.335V321.618H338.014Z" fill="white"/>
<g filter="url(#filter2_d_6078_117)">
<rect x="385.414" y="286.43" width="148.099" height="51.8347" rx="25.9174" fill="#0A0A0A"/>
</g>
<path d="M444.425 302.028V306.28H447.18V308.276H444.425V313.071H442.017V302.028H444.425ZM429.803 311.878V302.983H432.233V309.893C434.738 309.86 437.396 309.632 440.26 309.079L440.542 311.053C437.288 311.704 434.272 311.878 431.43 311.878H429.803ZM431.734 321.358V314.025H444.425V321.358H431.734ZM434.098 319.449H442.06V315.913H434.098V319.449ZM454.599 313.7C454.599 309.621 455.814 306.215 457.854 303.308H460.457C458.96 305.467 457.463 309.817 457.463 313.7C457.463 317.583 458.96 321.944 460.457 324.113H457.854C455.814 321.184 454.599 317.789 454.599 313.7ZM462.54 303.981H466.011L470.675 315.392H470.87L475.534 303.981H479.005V319.688H476.294V308.884H476.142L471.781 319.644H469.764L465.403 308.84H465.273V319.688H462.54V303.981ZM486.946 313.7C486.946 317.789 485.731 321.184 483.691 324.113H481.088C482.585 321.944 484.082 317.583 484.082 313.7C484.082 309.817 482.585 305.467 481.088 303.308H483.691C485.731 306.215 486.946 309.621 486.946 313.7Z" fill="white"/>
<g filter="url(#filter3_d_6078_117)">
<rect x="535.359" y="286.43" width="148.099" height="51.8347" rx="25.9174" fill="#0A0A0A"/>
</g>
<path d="M581.633 319.688V303.981H587.534C591.135 303.981 593.055 305.998 593.066 308.992C593.055 311.129 592.079 312.713 590.235 313.461L593.63 319.688H590.484L587.404 313.939H584.453V319.688H581.633ZM584.453 311.574H587.1C589.226 311.585 590.181 310.674 590.181 308.992C590.181 307.322 589.226 306.346 587.1 306.346H584.453V311.574ZM595.496 319.688V303.981H598.316V310.641H605.627V303.981H608.469V319.688H605.627V313.006H598.316V319.688H595.496ZM615.888 317.149V313.049H611.788V310.641H615.888V306.541H618.275V310.641H622.396V313.049H618.275V317.149H615.888ZM644.98 311.834C644.991 316.911 641.889 319.904 637.778 319.904C633.645 319.904 630.564 316.9 630.575 311.834C630.564 306.758 633.645 303.764 637.778 303.764C641.889 303.764 644.991 306.758 644.98 311.834ZM633.417 311.834C633.406 315.425 635.218 317.366 637.778 317.366C640.348 317.366 642.149 315.425 642.138 311.834C642.149 308.244 640.348 306.302 637.778 306.302C635.218 306.302 633.406 308.244 633.417 311.834Z" fill="white"/>
<path d="M287.515 231.765V247.547H276.153V231.765H287.515ZM278.675 245.459H284.966V233.799H278.675V245.459ZM291.583 253.649V229.351H294.159V238.87H298.064V241.039H294.159V253.649H291.583ZM320.634 248.551V250.747H298.397V248.551H308.159V243.371H300.349V241.337H303.983V233.69H300.295V231.602H318.6V233.69H314.885V241.337H318.518V243.371H310.708V248.551H320.634ZM306.532 241.337H312.363V233.69H306.532V241.337ZM340.898 230.87V233.012C340.898 235.317 340.898 237.826 340.22 241.283H343.718V243.398H333.875V253.676H331.271V243.398H321.563V241.283H337.617C338.335 237.812 338.335 235.276 338.349 233.012V232.985H324.275V230.87H340.898ZM362.987 231.168V241.744H351.625V231.168H362.987ZM353.767 248.985C353.767 246.11 356.913 244.374 361.93 244.374C366.892 244.374 369.984 246.11 369.984 248.985C369.984 251.927 366.892 253.635 361.93 253.649C356.913 253.635 353.767 251.927 353.767 248.985ZM354.147 239.656H360.465V233.229H354.147V239.656ZM356.343 248.985C356.33 250.666 358.418 251.561 361.93 251.588C365.414 251.561 367.475 250.666 367.462 248.985C367.475 247.371 365.414 246.449 361.93 246.435C358.418 246.449 356.33 247.371 356.343 248.985ZM367.19 243.615V229.351H369.767V235.236H373.292V237.351H369.767V243.615H367.19ZM394.045 229.378V247.791H391.468V245.459H386.587V243.642H391.468V229.378H394.045ZM373.733 240.47C378.221 240.429 384.282 240.388 389.462 239.737L389.624 241.581C387.55 241.934 385.367 242.151 383.225 242.3V247.032H380.648V242.436C378.289 242.53 376.025 242.53 374.059 242.53L373.733 240.47ZM375.632 234.585C375.618 232.009 378.072 230.3 381.679 230.3C385.231 230.3 387.699 232.009 387.699 234.585C387.699 237.175 385.231 238.815 381.679 238.815C378.086 238.815 375.618 237.175 375.632 234.585ZM377.096 253.134V246.002H379.645V251.045H394.641V253.134H377.096ZM378.072 234.585C378.059 236.022 379.523 236.917 381.679 236.917C383.753 236.917 385.245 236.022 385.258 234.585C385.245 233.134 383.753 232.199 381.679 232.226C379.523 232.199 378.059 233.134 378.072 234.585ZM419.245 248.578V250.747H397.008V248.578H406.798V244.32H399.72V236.592H413.984V233.175H399.666V231.06H416.533V238.653H402.269V242.205H417.102V244.32H409.347V248.578H419.245ZM434.419 231.71V251.344H431.409V234.693H431.3L426.609 237.758V234.91L431.49 231.71H434.419ZM446.033 231.71V251.344H443.023V234.693H442.914L438.223 237.758V234.91L443.104 231.71H446.033ZM469.497 229.351V241.717H466.921V229.351H469.497ZM449.728 240.117C455.803 238.842 458.975 236.117 459.369 232.551H451.003V230.436H462.202C462.189 236.809 458.026 240.592 450.677 242.205L449.728 240.117ZM453.525 244.835V242.802H469.497V248.903H456.155V251.371H470.311V253.405H453.606V246.978H466.921V244.835H453.525Z" fill="white"/>
<path fill-rule="evenodd" clip-rule="evenodd" d="M255.825 238.41C255.825 240.625 255.242 242.69 254.236 244.429L246.791 254.244C246.274 255.204 245.012 255.204 244.494 254.244L237.049 244.429C236.044 242.69 235.461 240.625 235.461 238.41C235.461 232.217 240.019 227.195 245.643 227.195C251.266 227.195 255.825 232.217 255.825 238.41ZM245.644 242.006C248.2 242.006 250.272 239.934 250.272 237.378C250.272 234.822 248.2 232.75 245.644 232.75C243.088 232.75 241.016 234.822 241.016 237.378C241.016 239.934 243.088 242.006 245.644 242.006Z" fill="#E0FD48"/>
<path d="M689.018 156.844L700.125 167.951L689.018 179.059" stroke="white" stroke-width="3.70248"/>
<g filter="url(#filter4_d_6078_117)">
<path d="M436.148 675.948C436.148 661.7 447.699 650.148 461.948 650.148H711.348C725.597 650.148 737.148 661.699 737.148 675.948V846.228C737.148 860.477 725.597 872.028 711.348 872.028H461.948C447.699 872.028 436.148 860.477 436.148 846.228V675.948Z" fill="url(#paint0_linear_6078_117)"/>
</g>
<path d="M496.38 701.74V705.133H487.512V711.65H499.438V715.144H471.454V711.65H483.245V705.133H474.746V690.217H496.145V693.644H479.046V701.74H496.38ZM512.438 694.652C512.455 697.809 514.639 701.102 519.627 702.412L517.645 705.805C514.168 704.864 511.75 702.848 510.355 700.329C509.012 703.1 506.576 705.284 502.998 706.309L500.949 702.949C505.904 701.605 508.172 698.078 508.172 694.652H502.024V691.259H508.172V687.966H512.505V691.259H518.62V694.652H512.438ZM504.846 711.482V708.055H525.439V718.671H521.139V711.482H504.846ZM521.139 706.812V688.067H525.439V695.592H529.571V699.187H525.439V706.812H521.139ZM565.348 688.067V718.638H561.25V688.067H565.348ZM539.112 701.303C539.112 694.467 541.715 690.234 545.763 690.251C548.316 690.234 550.332 691.914 551.457 694.853H555.069V688.504H559.1V717.227H555.069V707.753H551.474C550.332 710.726 548.333 712.423 545.763 712.423C541.715 712.423 539.112 708.173 539.112 701.303ZM543.009 701.303C542.975 706.006 543.966 708.324 545.763 708.291C547.527 708.324 548.602 706.006 548.619 701.303C548.602 696.617 547.527 694.282 545.763 694.282C543.966 694.282 542.975 696.617 543.009 701.303ZM552.314 698.28C552.448 699.22 552.516 700.228 552.516 701.303C552.516 702.361 552.448 703.369 552.331 704.293H555.069V698.28H552.314ZM594.34 688.067V706.208H590.073V698.985H585.303V695.525H590.073V688.067H594.34ZM568.372 702.848C573.377 701.169 575.662 697.171 575.763 693.341H569.615V689.915H586.21V693.341H580.13C580.214 696.902 582.397 700.497 587.151 702.076L585.034 705.435C581.675 704.343 579.34 702.126 578.013 699.388C576.67 702.496 574.217 704.998 570.589 706.241L568.372 702.848ZM573.377 712.792C573.377 709.08 577.375 706.896 583.892 706.88C590.426 706.896 594.424 709.08 594.441 712.792C594.424 716.504 590.426 718.671 583.892 718.671C577.375 718.671 573.377 716.504 573.377 712.792ZM577.644 712.792C577.644 714.539 579.844 715.412 583.892 715.412C587.957 715.412 590.157 714.539 590.174 712.792C590.157 711.029 587.957 710.155 583.892 710.172C579.844 710.155 577.644 711.029 577.644 712.792ZM610.196 694.987C610.179 700.598 612.732 706.225 617.923 708.425L615.403 711.852C611.909 710.273 609.491 707.216 608.096 703.436C606.719 707.568 604.216 710.894 600.488 712.591L597.901 709.03C603.242 706.779 605.846 700.917 605.863 694.987V690.419H610.196V694.987ZM619.569 718.705V688.067H623.902V718.705H619.569ZM652.289 688.067V696.634H656.421V700.161H652.289V709.97H647.955V688.067H652.289ZM627.833 703.587C634.686 701.689 638.566 698.145 639.238 693.845H629.177V690.352H643.958C643.941 698.616 638.784 704.394 629.613 706.98L627.833 703.587ZM632.402 718.1V707.72H636.735V714.673H653.33V718.1H632.402Z" fill="#0A0C18"/>
<g filter="url(#filter5_d_6078_117)">
<circle cx="683.302" cy="704.654" r="20.1069" fill="#0A0C18"/>
<path d="M675.059 695.031L672.703 697.387" stroke="#E0FD48" stroke-width="1.72" stroke-linecap="round"/>
<path d="M691.543 695.031L693.898 697.387" stroke="#E0FD48" stroke-width="1.72" stroke-linecap="round"/>
<path fill-rule="evenodd" clip-rule="evenodd" d="M683.305 713.875C688.509 713.875 692.727 709.657 692.727 704.453C692.727 699.25 688.509 695.031 683.305 695.031C678.101 695.031 673.883 699.25 673.883 704.453C673.883 709.657 678.101 713.875 683.305 713.875ZM687.005 702.582C687.599 701.841 687.478 700.758 686.737 700.165C685.995 699.571 684.913 699.692 684.319 700.433L682.949 702.146L680.728 700.666C679.937 700.139 678.869 700.352 678.342 701.143C677.815 701.933 678.029 703.001 678.819 703.528L682.025 705.665C682.953 706.283 684.199 706.09 684.896 705.219L687.005 702.582Z" fill="#E0FD48"/>
</g>
<g filter="url(#filter6_d_6078_117)">
<rect x="449.906" y="750.562" width="278.64" height="104.92" rx="25.8" fill="#0B0B0B"/>
</g>
<path d="M507.562 786.56H514.425C517.83 786.56 519.172 787.953 519.172 790.946V821.544C519.172 822.318 518.811 822.68 518.037 822.68H512.722C511.948 822.68 511.587 822.318 511.587 821.544V794.506C511.587 793.784 511.277 793.422 510.503 793.422H507.562C506.788 793.422 506.375 793.061 506.375 792.287V787.695C506.375 786.921 506.788 786.56 507.562 786.56ZM540.064 786.56H561.994C562.768 786.56 563.129 786.921 563.129 787.695V792.287C563.129 793.061 562.768 793.422 561.994 793.422H540.064C534.749 793.422 533.253 795.022 533.253 800.492V801.472H555.493C562.149 801.472 564.523 804.671 564.523 810.192V813.959C564.523 819.429 561.943 822.68 555.131 822.68H540.064C529.641 822.68 525.616 818.964 525.616 809.057V800.182C525.616 790.275 529.641 786.56 540.064 786.56ZM553.945 807.148H533.253V809.006C533.253 814.424 534.749 816.023 540.064 816.023H553.893C556.06 816.023 556.937 815.043 556.937 812.927V810.192C556.937 808.077 556.112 807.148 553.945 807.148ZM571.807 811.328H576.864C577.638 811.328 577.999 811.689 577.999 812.463V817.416C577.999 818.19 577.638 818.552 576.864 818.552H571.807C571.033 818.552 570.62 818.19 570.62 817.416V812.463C570.62 811.689 571.033 811.328 571.807 811.328ZM571.807 795.899H576.864C577.638 795.899 577.999 796.26 577.999 797.034V801.988C577.999 802.762 577.638 803.123 576.864 803.123H571.807C571.033 803.123 570.62 802.762 570.62 801.988V797.034C570.62 796.26 571.033 795.899 571.807 795.899ZM585.047 804.052L608.422 788.108C610.125 786.972 611.26 786.56 613.582 786.56H616.627C619.619 786.56 621.116 787.643 621.116 791.823V808.799H625.347C626.121 808.799 626.482 809.212 626.482 809.986V814.166C626.482 814.94 626.121 815.301 625.347 815.301H621.116V821.544C621.116 822.318 620.755 822.68 619.981 822.68H614.666C613.892 822.68 613.479 822.318 613.479 821.544V815.301H586.337C584.119 815.301 583.035 814.011 583.035 812.153V808.232C583.035 806.322 583.448 805.136 585.047 804.052ZM591.549 808.438C591.549 808.644 591.704 808.799 591.962 808.799H613.479V793.99C613.479 793.577 613.324 793.422 613.066 793.422H612.757C612.344 793.422 612.086 793.526 611.621 793.835L591.859 807.406C591.652 807.561 591.549 807.767 591.549 808.128V808.438ZM645.33 786.56H657.25C667.673 786.56 671.698 790.275 671.698 800.182V809.057C671.698 818.964 667.673 822.68 657.25 822.68H645.33C634.907 822.68 630.882 818.964 630.882 809.057V800.182C630.882 790.275 634.907 786.56 645.33 786.56ZM638.519 800.492V808.748C638.519 814.217 640.015 815.817 645.33 815.817H657.25C662.565 815.817 664.061 814.217 664.061 808.748V800.492C664.061 795.022 662.565 793.422 657.25 793.422H645.33C640.015 793.422 638.519 795.022 638.519 800.492Z" fill="#E0FD48"/>
<g filter="url(#filter7_d_6078_117)">
<path d="M436.148 436.644C436.148 422.395 447.699 410.844 461.948 410.844H711.348C725.597 410.844 737.148 422.395 737.148 436.644V606.924C737.148 621.173 725.597 632.724 711.348 632.724H461.948C447.699 632.724 436.148 621.173 436.148 606.924V436.644Z" fill="url(#paint1_linear_6078_117)"/>
</g>
<path d="M495.709 448.796V455.246H499.841V458.74H495.709V466.03H491.409V448.796H495.709ZM472.697 464.384V450.241H476.997V460.873C480.709 460.789 484.69 460.436 488.923 459.613L489.427 463.107C484.388 464.115 479.634 464.384 475.317 464.384H472.697ZM475.687 478.963V467.407H495.709V478.963H475.687ZM479.886 475.604H491.509V470.733H479.886V475.604ZM529.067 464.384V467.81H501.184V464.384H529.067ZM503.973 455.952C503.973 452.055 508.39 449.67 515.126 449.703C521.811 449.67 526.229 452.055 526.245 455.952C526.229 459.865 521.811 462.267 515.126 462.267C508.39 462.267 503.973 459.865 503.973 455.952ZM504.544 478.795V469.859H508.844V475.369H525.909V478.795H504.544ZM508.441 455.952C508.407 457.85 510.876 458.807 515.126 458.807C519.342 458.807 521.811 457.85 521.811 455.952C521.811 454.104 519.342 453.096 515.126 453.062C510.876 453.096 508.407 454.104 508.441 455.952ZM564.609 448.762V479.333H560.343V464.014H554.263V460.52H560.343V448.762H564.609ZM538.541 470.666C546.267 466.853 549.475 462.015 550.114 455.313H539.985V451.954H554.43C554.414 461.175 551.424 468.734 540.758 474.025L538.541 470.666ZM594.205 448.762V479.4H589.939V448.762H594.205ZM570.186 454.776V451.316H584.732V463.107H574.654V468.717C579.323 468.684 583.271 468.448 587.755 467.709L588.125 471.17C583.103 472.06 578.551 472.245 572.974 472.245H570.22V459.714H580.365V454.776H570.186Z" fill="#0A0C18"/>
<g filter="url(#filter8_d_6078_117)">
<circle cx="683.294" cy="465.349" r="20.1069" fill="#0A0C18"/>
<path d="M682.862 464.977L688.091 461.839H677.633L682.862 464.977Z" fill="#E0FD48"/>
<path d="M682.923 465.147L688.739 469.106C689.68 469.747 690.244 470.812 690.244 471.95V473.7C690.244 474.175 689.859 474.56 689.384 474.56H676.462C675.987 474.56 675.602 474.175 675.602 473.7V471.95C675.602 470.812 676.165 469.747 677.106 469.106L682.923 465.147ZM682.923 465.147L688.739 461.188C689.68 460.547 690.244 459.483 690.244 458.344V456.594C690.244 456.119 689.859 455.734 689.384 455.734H676.462C675.987 455.734 675.602 456.119 675.602 456.594V458.344C675.602 459.483 676.165 460.547 677.106 461.188L682.923 465.147Z" stroke="#E0FD48" stroke-width="1.72" stroke-linecap="round" stroke-linejoin="round"/>
<path d="M686.064 474.275V474.707C686.064 474.849 685.949 474.965 685.806 474.965H680.047C679.905 474.965 679.789 474.849 679.789 474.707V474.275C679.789 474.047 679.88 473.828 680.041 473.667L681.954 471.754C682.491 471.217 683.362 471.217 683.9 471.754L685.812 473.667C685.974 473.828 686.064 474.047 686.064 474.275Z" fill="#E0FD48"/>
<path d="M682.914 471.416V465.141" stroke="#E0FD48" stroke-width="1.72" stroke-linecap="round" stroke-linejoin="round"/>
</g>
<g filter="url(#filter9_d_6078_117)">
<rect x="449.906" y="511.258" width="278.64" height="104.92" rx="25.8" fill="#0B0B0B"/>
</g>
<path d="M524.743 547.255H556.425C557.199 547.255 557.56 547.616 557.56 548.39V552.983C557.56 553.757 557.199 554.118 556.425 554.118H528.613C527.89 554.118 527.581 554.479 527.581 555.201V561.084C527.581 561.806 527.89 562.167 528.613 562.167H549.872C555.806 562.167 558.902 565.367 558.902 570.991V574.964C558.902 579.969 556.012 583.375 549.769 583.375H521.182C520.408 583.375 519.995 583.014 519.995 582.24V577.647C519.995 576.873 520.408 576.512 521.182 576.512H548.53C550.491 576.512 551.265 575.377 551.265 573.571V570.991C551.265 569.082 550.439 568.101 548.582 568.101H524.743C521.285 568.101 519.944 566.76 519.944 563.715V551.641C519.944 548.648 521.285 547.255 524.743 547.255ZM574.387 547.255H579.106C579.829 547.255 580.166 547.592 580.166 548.315V567.386H589.027C591.772 567.386 592.543 567.145 593.795 565.363L599.189 557.754C599.574 557.176 599.912 556.935 600.634 556.935H606.076C606.798 556.935 606.991 557.609 606.558 558.235L600.345 566.76C599.382 568.06 598.419 569.071 597.359 569.842C598.708 570.613 599.815 571.624 600.778 572.924L607.617 582.171C608.002 582.701 607.762 583.375 607.039 583.375H601.645C600.827 583.375 600.538 583.231 600.152 582.701L594.277 574.61C593.121 573.069 592.11 572.587 589.461 572.587H580.166V582.315C580.166 583.038 579.829 583.375 579.106 583.375H574.387C573.664 583.375 573.279 583.038 573.279 582.315V548.315C573.279 547.592 573.664 547.255 574.387 547.255ZM622.881 556.935H647.491C656.16 556.935 658.905 559.728 658.905 566.712V582.315C658.905 583.038 658.568 583.375 657.845 583.375H653.126C652.403 583.375 652.066 583.038 652.066 582.315V568.349C652.066 564.304 651.296 563.051 647.106 563.051H638.63V582.315C638.63 583.038 638.244 583.375 637.522 583.375H632.802C632.08 583.375 631.743 583.038 631.743 582.315V563.051H623.555C619.414 563.051 618.306 564.304 618.306 568.349V582.315C618.306 583.038 617.969 583.375 617.246 583.375H612.527C611.804 583.375 611.419 583.038 611.419 582.315V566.712C611.419 559.728 614.212 556.935 622.881 556.935Z" fill="#E0FD48"/>
<g filter="url(#filter10_d_6078_117)">
<rect x="65" y="6" width="672" height="83.762" rx="22.8442" fill="#101010"/>
</g>
<path d="M135.434 47.8822V66.919C135.434 67.9288 135.033 68.8972 134.319 69.6112C133.605 70.3252 132.637 70.7264 131.627 70.7264H93.5535C92.5437 70.7264 91.5753 70.3252 90.8612 69.6112C90.1472 68.8972 89.7461 67.9288 89.7461 66.919V28.8454C89.7461 27.8356 90.1472 26.8672 90.8612 26.1531C91.5753 25.4391 92.5437 25.038 93.5535 25.038H112.59C113.095 25.038 113.579 25.2386 113.936 25.5956C114.293 25.9526 114.494 26.4368 114.494 26.9417C114.494 27.4466 114.293 27.9308 113.936 28.2878C113.579 28.6448 113.095 28.8454 112.59 28.8454H93.5535V66.919H131.627V47.8822C131.627 47.3773 131.828 46.8931 132.185 46.5361C132.542 46.1791 133.026 45.9785 133.531 45.9785C134.036 45.9785 134.52 46.1791 134.877 46.5361C135.234 46.8931 135.434 47.3773 135.434 47.8822ZM136.781 33.9996L113.937 56.8438C113.76 57.0205 113.55 57.1606 113.319 57.2562C113.088 57.3517 112.84 57.4008 112.59 57.4006H104.976C104.471 57.4006 103.986 57.2 103.629 56.843C103.272 56.486 103.072 56.0018 103.072 55.4969V47.8822C103.072 47.6321 103.121 47.3845 103.216 47.1534C103.312 46.9223 103.452 46.7123 103.629 46.5353L126.473 23.6911C126.65 23.5141 126.86 23.3737 127.091 23.2779C127.322 23.1821 127.57 23.1328 127.82 23.1328C128.07 23.1328 128.318 23.1821 128.549 23.2779C128.78 23.3737 128.99 23.5141 129.167 23.6911L136.781 31.3059C136.958 31.4827 137.099 31.6926 137.195 31.9237C137.29 32.1548 137.34 32.4026 137.34 32.6527C137.34 32.9029 137.29 33.1506 137.195 33.3817C137.099 33.6128 136.958 33.8228 136.781 33.9996ZM132.736 32.6527L127.82 27.7293L124.8 30.749L129.723 35.6724L132.736 32.6527Z" fill="#E0FD48"/>
<path d="M179.454 48.34L192.39 39.5164C193.332 38.8882 193.96 38.6598 195.245 38.6598H196.93C198.586 38.6598 199.414 39.2594 199.414 41.5724V50.9671H201.756C202.184 50.9671 202.384 51.1955 202.384 51.6238V53.9368C202.384 54.3652 202.184 54.565 201.756 54.565H199.414V58.0202C199.414 58.4486 199.214 58.6484 198.786 58.6484H195.845C195.417 58.6484 195.188 58.4486 195.188 58.0202V54.565H180.168C178.94 54.565 178.34 53.8512 178.34 52.8232V50.653C178.34 49.5964 178.569 48.9397 179.454 48.34ZM183.052 50.7672C183.052 50.8814 183.138 50.9671 183.281 50.9671H195.188V42.7717C195.188 42.5433 195.102 42.4576 194.96 42.4576H194.788C194.56 42.4576 194.417 42.5147 194.16 42.6861L183.223 50.1961C183.109 50.2818 183.052 50.396 183.052 50.5959V50.7672ZM212.814 38.6598H219.411C225.179 38.6598 227.406 40.7157 227.406 46.1984V51.1099C227.406 56.5925 225.179 58.6484 219.411 58.6484H212.814C207.046 58.6484 204.819 56.5925 204.819 51.1099V46.1984C204.819 40.7157 207.046 38.6598 212.814 38.6598ZM209.045 46.3697V50.9385C209.045 53.9654 209.873 54.8506 212.814 54.8506H219.411C222.352 54.8506 223.18 53.9654 223.18 50.9385V46.3697C223.18 43.3428 222.352 42.4576 219.411 42.4576H212.814C209.873 42.4576 209.045 43.3428 209.045 46.3697ZM233.295 38.6598H250.828C251.256 38.6598 251.456 38.8597 251.456 39.288V41.8294C251.456 42.2577 251.256 42.4576 250.828 42.4576H235.437C235.037 42.4576 234.866 42.6575 234.866 43.0573V46.3126C234.866 46.7123 235.037 46.9122 235.437 46.9122H247.201C250.485 46.9122 252.199 48.6827 252.199 51.7952V53.9939C252.199 56.7638 250.6 58.6484 247.144 58.6484H231.325C230.896 58.6484 230.668 58.4486 230.668 58.0202V55.4788C230.668 55.0505 230.896 54.8506 231.325 54.8506H246.459C247.544 54.8506 247.972 54.2224 247.972 53.2229V51.7952C247.972 50.7386 247.516 50.1961 246.488 50.1961H233.295C231.382 50.1961 230.639 49.4536 230.639 47.7689V41.087C230.639 39.4308 231.382 38.6598 233.295 38.6598Z" fill="white"/>
<path d="M286.634 34.1545V52.5593H283.985V43.8868H278.798V41.6838H283.985V34.1545H286.634ZM266.166 47.6514C271.729 45.8527 275.507 42.4646 276.051 38.2259H267.448V36.0229H278.965C278.937 42.5482 274.462 47.4562 267.281 49.7707L266.166 47.6514ZM270.544 58.5827V50.663H273.221V56.4354H287.275V58.5827H270.544ZM298.625 35.9114C302.571 35.8974 305.415 38.3374 305.429 41.8511C305.415 45.3647 302.571 47.8047 298.625 47.8187C294.693 47.8047 291.807 45.3647 291.821 41.8511C291.807 38.3374 294.693 35.8974 298.625 35.9114ZM290.622 51.5833C295.167 51.5833 301.469 51.5415 306.935 50.7467L307.13 52.6708C301.483 53.7584 295.418 53.7863 290.956 53.7863L290.622 51.5833ZM294.442 41.8511C294.414 44.068 296.199 45.5041 298.625 45.5041C301.051 45.5041 302.836 44.068 302.836 41.8511C302.836 39.662 301.051 38.198 298.625 38.198C296.199 38.198 294.414 39.662 294.442 41.8511ZM308.496 59.1683V34.1267H311.146V59.1683H308.496ZM342.015 35.6883V37.8913C342.015 40.2616 342.015 42.841 341.318 46.3965H344.916V48.5716H334.793V59.1404H332.116V48.5716H322.133V46.3965H338.641C339.38 42.8271 339.38 40.2197 339.394 37.8913V37.8634H324.921V35.6883H342.015ZM369.678 53.8142V55.9893H346.812V53.8142H356.907V47.9023H359.556V53.8142H369.678ZM347.871 46.759C352.514 45.9782 356.823 42.5064 356.823 38.6721V38.449H348.708V36.2739H367.698V38.449H359.584V38.6721C359.584 42.5064 363.92 45.9085 368.674 46.6475L367.615 48.7389C363.571 47.986 359.849 45.6436 358.217 42.353C356.614 45.6854 352.919 48.0696 348.959 48.8505L347.871 46.759ZM399.237 34.1267V59.1125H396.56V34.1267H399.237ZM378.713 52.4199C385.35 49.2548 388.599 44.7512 389.115 38.923H379.912V36.8037H391.792C391.792 44.1238 388.683 50.4539 380.108 54.5671L378.713 52.4199ZM425.98 47.7629V49.9101H403.114V47.7629H413.236V45.3926H406.042V39.0346H420.459V36.8037H405.986V34.7123H423.108V40.9866H408.663V43.329H423.61V45.3926H415.857V47.7629H425.98ZM405.679 53.7863V51.6669H423.247V58.9173H420.57V53.7863H405.679ZM454.452 34.1545V41.5722H458.021V43.7473H454.452V50.9698H451.803V34.1545H454.452ZM434.625 48.1812C436.563 48.1812 438.808 48.1812 441.15 48.1254V46.4383C438.306 46.1176 436.493 44.7791 436.521 42.7713C436.493 40.4847 438.877 39.0625 442.461 39.0904C446.044 39.0625 448.386 40.4847 448.4 42.7713C448.386 44.7652 446.616 46.1037 443.799 46.4383V48.0278C446.03 47.9163 448.289 47.735 450.38 47.4283L450.603 49.3245C445.235 50.2587 439.31 50.3005 434.904 50.3005L434.625 48.1812ZM435.266 38.2538V36.2739H441.15V33.9315H443.799V36.2739H449.683V38.2538H435.266ZM437.748 54.2046V52.141H454.452V59.1125H451.803V54.2046H437.748ZM439.031 42.7713C439.031 43.9425 440.327 44.7094 442.461 44.6954C444.566 44.7094 445.877 43.9425 445.863 42.7713C445.877 41.5722 444.566 40.8751 442.461 40.903C440.327 40.8751 439.031 41.5722 439.031 42.7713ZM480.19 34.1545V52.3083H477.541V34.1545H480.19ZM459.973 42.0184C459.987 38.4072 462.859 35.8416 466.638 35.8277C470.402 35.8416 473.275 38.4072 473.275 42.0184C473.275 45.6854 470.402 48.237 466.638 48.237C462.859 48.237 459.987 45.6854 459.973 42.0184ZM462.567 42.0184C462.553 44.3748 464.309 45.9224 466.638 45.9224C468.925 45.9224 470.681 44.3748 470.681 42.0184C470.681 39.7178 468.925 38.1422 466.638 38.1422C464.309 38.1422 462.553 39.7178 462.567 42.0184ZM463.849 58.5827V50.4678H466.526V56.4354H480.943V58.5827H463.849ZM503.615 34.1267V44.2493H507.63V46.4523H503.615V59.1125H500.993V34.1267H503.615ZM484.011 40.2058V38.0307H490.174V34.4613H492.823V38.0307H498.818V40.2058H484.011ZM485.294 47.8466C485.294 44.4445 487.915 42.0463 491.512 42.0463C495.096 42.0463 497.717 44.4445 497.731 47.8466C497.717 51.2765 495.096 53.6608 491.512 53.6747C487.915 53.6608 485.294 51.2765 485.294 47.8466ZM487.831 47.8466C487.817 50.0217 489.379 51.4717 491.512 51.4439C493.631 51.4717 495.179 50.0217 495.193 47.8466C495.179 45.7133 493.631 44.2353 491.512 44.2214C489.379 44.2353 487.817 45.7133 487.831 47.8466ZM529.604 34.1267V59.1125H526.927V34.1267H529.604ZM509.08 52.4199C515.717 49.2548 518.966 44.7512 519.482 38.923H510.279V36.8037H522.159C522.159 44.1238 519.05 50.4539 510.475 54.5671L509.08 52.4199Z" fill="white"/>
<mask id="mask0_6078_117" style="mask-type:alpha" maskUnits="userSpaceOnUse" x="666" y="23" width="52" height="52">
<path d="M713.69 23.125H670.858C669.722 23.125 668.632 23.5763 667.829 24.3795C667.025 25.1828 666.574 26.2723 666.574 27.4083V70.2411C666.574 71.3771 667.025 72.4666 667.829 73.2699C668.632 74.0732 669.722 74.5244 670.858 74.5244H713.69C714.826 74.5244 715.916 74.0732 716.719 73.2699C717.522 72.4666 717.974 71.3771 717.974 70.2411V27.4083C717.974 26.2723 717.522 25.1828 716.719 24.3795C715.916 23.5763 714.826 23.125 713.69 23.125ZM704.497 50.3399L695.931 58.9065C695.529 59.3084 694.984 59.5341 694.416 59.5341C693.847 59.5341 693.302 59.3084 692.9 58.9065C692.499 58.5046 692.273 57.9596 692.273 57.3913C692.273 56.823 692.499 56.2779 692.9 55.8761L697.813 50.9664H681.566C680.998 50.9664 680.453 50.7407 680.051 50.3391C679.65 49.9375 679.424 49.3927 679.424 48.8247C679.424 48.2567 679.65 47.712 680.051 47.3103C680.453 46.9087 680.998 46.6831 681.566 46.6831H697.813L692.9 41.7734C692.499 41.3715 692.273 40.8265 692.273 40.2581C692.273 39.6898 692.499 39.1448 692.9 38.7429C693.302 38.3411 693.847 38.1153 694.416 38.1153C694.984 38.1153 695.529 38.3411 695.931 38.7429L704.497 47.3095C704.696 47.5084 704.854 47.7446 704.962 48.0046C705.07 48.2646 705.125 48.5433 705.125 48.8247C705.125 49.1062 705.07 49.3848 704.962 49.6448C704.854 49.9048 704.696 50.141 704.497 50.3399Z" fill="url(#paint2_linear_6078_117)"/>
</mask>
<g mask="url(#mask0_6078_117)">
<g filter="url(#filter11_d_6078_117)">
<rect x="668.477" y="25.0312" width="47.5921" height="47.5921" rx="11.4221" fill="#DCFE2E"/>
</g>
</g>
<g filter="url(#filter12_d_6078_117)">
<path d="M65.1484 438.589C65.1484 423.266 77.5706 410.844 92.8941 410.844H357.403C372.726 410.844 385.148 423.266 385.148 438.589V844.821C385.148 860.144 372.726 872.566 357.403 872.566H92.8941C77.5706 872.566 65.1484 860.144 65.1484 844.821V438.589Z" fill="#101010"/>
</g>
<path d="M130.653 456.336V480.324H126.028V456.336H130.653ZM103.015 472.195C108.525 470.353 110.927 465.783 110.927 461.321V458.142H115.732V461.321C115.696 465.675 118.026 469.919 123.427 471.654L121.079 475.266C117.358 474.038 114.811 471.581 113.348 468.456C111.867 471.816 109.247 474.526 105.4 475.844L103.015 472.195ZM108.615 488.597V478.012H113.276V484.912H131.52V488.597H108.615ZM162.192 459.154V462.261C162.174 466.379 162.174 471.003 160.855 477.976L156.231 477.506C157.495 471.292 157.549 466.668 157.568 462.802H138.203V459.154H162.192ZM135.096 485.165V481.408H145.826V470.1H150.414V481.408H165.082V485.165H135.096ZM188.384 463.742C188.366 469.775 191.112 475.826 196.693 478.193L193.984 481.878C190.226 480.18 187.625 476.892 186.126 472.828C184.645 477.271 181.953 480.848 177.943 482.672L175.161 478.843C180.906 476.422 183.706 470.118 183.724 463.742V458.828H188.384V463.742ZM198.463 489.248V456.3H203.124V489.248H198.463ZM233.651 456.3V465.512H238.095V469.305H233.651V479.854H228.991V456.3H233.651ZM207.351 472.99C214.721 470.949 218.893 467.138 219.616 462.513H208.796V458.756H224.692C224.674 467.643 219.128 473.857 209.265 476.639L207.351 472.99ZM212.264 488.597V477.434H216.924V484.912H234.771V488.597H212.264Z" fill="white"/>
<g filter="url(#filter13_d_6078_117)">
<path fill-rule="evenodd" clip-rule="evenodd" d="M222.508 818.515C277.429 818.515 321.952 773.992 321.952 719.07C321.952 664.148 277.429 619.625 222.508 619.625C167.586 619.625 123.063 664.148 123.063 719.07C123.063 773.992 167.586 818.515 222.508 818.515ZM222.508 841.288C290.007 841.288 344.726 786.569 344.726 719.07C344.726 651.571 290.007 596.852 222.508 596.852C155.008 596.852 100.289 651.571 100.289 719.07C100.289 786.569 155.008 841.288 222.508 841.288Z" fill="#35353F"/>
<path fill-rule="evenodd" clip-rule="evenodd" d="M228.084 819.147C213.62 819.953 199.098 817.617 185.536 812.234C167.82 805.204 152.476 793.268 141.303 777.827C130.13 762.385 123.591 744.078 122.454 725.052C121.317 706.026 125.627 687.07 134.881 670.407C144.135 653.744 157.947 640.065 174.699 630.974C191.452 621.883 210.448 617.757 229.462 619.079C248.476 620.402 266.719 627.118 282.051 638.441C293.789 647.109 303.448 658.202 310.409 670.905C310.787 671.594 311.156 672.288 311.518 672.987C311.826 673.582 312.177 674.146 312.565 674.675C315.694 678.948 321.244 680.995 326.284 679.051C331.949 676.867 334.815 670.476 332.13 665.031C331.775 664.309 331.412 663.592 331.043 662.878C330.441 661.717 329.822 660.566 329.184 659.426C320.737 644.318 309.142 631.116 295.112 620.755C276.417 606.948 254.173 598.759 230.988 597.146C207.803 595.534 184.639 600.565 164.213 611.65C143.786 622.735 126.943 639.415 115.66 659.733C104.376 680.051 99.12 703.165 100.507 726.364C101.894 749.563 109.867 771.886 123.491 790.715C137.114 809.544 155.824 824.098 177.426 832.67C193.638 839.104 210.973 841.968 228.263 841.153C229.568 841.092 230.873 841.009 232.176 840.906C232.977 840.842 233.778 840.771 234.578 840.691C240.62 840.091 244.53 834.281 243.39 828.317C242.376 823.012 237.704 819.382 232.424 818.984C231.769 818.935 231.105 818.935 230.437 818.988C229.653 819.05 228.868 819.103 228.084 819.147Z" fill="url(#paint3_linear_6078_117)"/>
<path fill-rule="evenodd" clip-rule="evenodd" d="M222.512 785.111C258.987 785.111 288.556 755.542 288.556 719.067C288.556 682.592 258.987 653.024 222.512 653.024C186.038 653.024 156.469 682.592 156.469 719.067C156.469 755.542 186.038 785.111 222.512 785.111ZM222.512 807.884C271.565 807.884 311.33 768.119 311.33 719.067C311.33 670.015 271.565 630.25 222.512 630.25C173.46 630.25 133.695 670.015 133.695 719.067C133.695 768.119 173.46 807.884 222.512 807.884Z" fill="#35353F"/>
<path fill-rule="evenodd" clip-rule="evenodd" d="M217.954 785.377C209.134 784.77 200.483 782.407 192.524 778.383C181.108 772.612 171.6 763.668 165.141 752.627C158.682 741.585 155.547 728.914 156.111 716.134C156.676 703.355 160.916 691.009 168.323 680.58C175.73 670.151 185.99 662.081 197.87 657.338C209.751 652.595 222.747 651.382 235.3 653.843C247.853 656.304 259.43 662.335 268.64 671.213C275.061 677.402 280.142 684.792 283.62 692.92C283.67 693.039 283.721 693.157 283.771 693.276C284.142 694.158 284.598 694.994 285.126 695.772C288.005 700.013 293.026 702.531 298.103 701.34C304.112 699.931 307.907 693.881 305.755 688.097C305.318 686.922 304.856 685.757 304.37 684.603C304.013 683.755 303.643 682.913 303.26 682.077C298.654 672.022 292.188 662.868 284.151 655.121C271.844 643.258 256.375 635.198 239.6 631.909C222.826 628.621 205.459 630.242 189.583 636.58C173.708 642.917 159.998 653.701 150.1 667.638C140.202 681.574 134.536 698.071 133.782 715.148C133.028 732.225 137.217 749.157 145.848 763.912C154.479 778.667 167.184 790.618 182.439 798.33C192.401 803.367 203.175 806.456 214.185 807.493C215.101 807.579 216.018 807.651 216.937 807.709C218.186 807.788 219.438 807.84 220.691 807.866C226.862 807.992 231.324 802.416 230.675 796.279C230.126 791.092 226.096 787.181 221.143 785.86C220.234 785.618 219.295 785.462 218.34 785.402C218.211 785.394 218.082 785.386 217.954 785.377Z" fill="url(#paint4_linear_6078_117)"/>
</g>
<path opacity="0.8" d="M103.377 540.961L103.359 539.769L107.82 535.072C109.365 533.428 110.105 532.543 110.114 531.333C110.105 529.987 108.986 529.12 107.513 529.111C105.951 529.12 104.975 530.105 104.966 531.568H103.431C103.413 529.256 105.201 527.702 107.568 527.702C109.943 527.702 111.623 529.301 111.632 531.333C111.623 532.796 110.945 533.934 108.633 536.319L105.635 539.407V539.516H111.867V540.961H103.377ZM118.514 541.142C115.615 541.142 113.935 538.703 113.944 534.422C113.935 530.177 115.633 527.702 118.514 527.702C121.386 527.702 123.084 530.177 123.084 534.422C123.084 538.703 121.413 541.142 118.514 541.142ZM115.515 534.422C115.525 537.809 116.617 539.696 118.514 539.696C120.402 539.696 121.504 537.809 121.495 534.422C121.504 531.035 120.393 529.12 118.514 529.111C116.635 529.12 115.525 531.035 115.515 534.422ZM125.252 540.961L125.234 539.769L129.695 535.072C131.24 533.428 131.98 532.543 131.989 531.333C131.98 529.987 130.861 529.12 129.388 529.111C127.826 529.12 126.85 530.105 126.841 531.568H125.306C125.288 529.256 127.076 527.702 129.443 527.702C131.818 527.702 133.498 529.301 133.507 531.333C133.498 532.796 132.82 533.934 130.508 536.319L127.51 539.407V539.516H133.742V540.961H125.252ZM135.494 538.288V536.951L141.383 527.883H143.388V536.861H145.212V538.288H143.388V540.961H141.834V538.288H135.494ZM137.246 536.861H141.834V529.942H141.672L137.246 536.752V536.861ZM147.885 541.069C147.253 541.06 146.711 540.536 146.729 539.895C146.711 539.263 147.253 538.739 147.885 538.739C148.527 538.739 149.051 539.263 149.042 539.895C149.051 540.536 148.527 541.06 147.885 541.069ZM160.693 527.883V540.961H159.049V529.581H158.976L155.797 531.694V530.051L159.049 527.883H160.693ZM168.46 541.142C165.561 541.142 163.881 538.703 163.89 534.422C163.881 530.177 165.579 527.702 168.46 527.702C171.332 527.702 173.03 530.177 173.03 534.422C173.03 538.703 171.359 541.142 168.46 541.142ZM165.461 534.422C165.47 537.809 166.563 539.696 168.46 539.696C170.348 539.696 171.449 537.809 171.44 534.422C171.449 531.035 170.338 529.12 168.46 529.111C166.581 529.12 165.47 531.035 165.461 534.422ZM175.848 541.069C175.216 541.06 174.674 540.536 174.692 539.895C174.674 539.263 175.216 538.739 175.848 538.739C176.489 538.739 177.013 539.263 177.004 539.895C177.013 540.536 176.489 541.06 175.848 541.069ZM188.312 541.142C185.413 541.142 183.733 538.703 183.742 534.422C183.733 530.177 185.431 527.702 188.312 527.702C191.184 527.702 192.882 530.177 192.882 534.422C192.882 538.703 191.211 541.142 188.312 541.142ZM185.313 534.422C185.322 537.809 186.415 539.696 188.312 539.696C190.199 539.696 191.301 537.809 191.292 534.422C191.301 531.035 190.19 529.12 188.312 529.111C186.433 529.12 185.322 531.035 185.313 534.422ZM194.724 538.288V536.951L200.613 527.883H202.618V536.861H204.443V538.288H202.618V540.961H201.065V538.288H194.724ZM196.476 536.861H201.065V529.942H200.902L196.476 536.752V536.861ZM211.65 535.975C211.668 532.57 212.589 529.734 214.251 527.323H215.624C214.405 529.102 213.267 532.76 213.258 535.975C213.267 539.2 214.405 542.849 215.624 544.646H214.251C212.589 542.225 211.668 539.389 211.65 535.975ZM229.732 527.233V528.425C229.732 529.671 229.732 531.134 229.307 533.139H231.664V534.314H216.961V533.139H227.88C228.332 531.116 228.332 529.671 228.323 528.425V528.407H218.821V527.233H229.732ZM218.767 542.207V536.535H229.804V542.207H218.767ZM220.176 541.051H228.395V537.655H220.176V541.051ZM236.957 535.975C236.939 539.389 236.018 542.225 234.356 544.646H232.983C234.202 542.849 235.34 539.2 235.349 535.975C235.34 532.76 234.202 529.102 232.983 527.323H234.356C236.018 529.734 236.939 532.57 236.957 535.975ZM108.001 552.883V565.961H106.357V554.581H106.285L103.106 556.694V555.051L106.357 552.883H108.001ZM116.039 566.142C113.772 566.114 111.271 564.769 111.271 559.928C111.271 555.294 113.167 552.702 116.238 552.702C118.541 552.702 120.149 554.12 120.483 556.17H118.875C118.577 555.014 117.692 554.147 116.238 554.147C114.088 554.147 112.797 555.981 112.806 559.133H112.969C113.718 558.04 114.919 557.399 116.328 557.399C118.65 557.399 120.591 559.205 120.591 561.734C120.591 564.2 118.794 566.169 116.039 566.142ZM113.023 561.77C113.032 563.306 114.287 564.706 116.039 564.715C117.728 564.706 119.011 563.378 119.02 561.752C119.011 560.144 117.782 558.835 116.075 558.826C114.359 558.835 113.041 560.226 113.023 561.77ZM127.961 555.683C127.952 558.618 129.948 561.562 132.315 562.637L131.448 563.757C129.614 562.872 128.034 560.966 127.266 558.681C126.525 561.102 124.945 563.134 123.066 564.082L122.163 562.89C124.556 561.797 126.534 558.726 126.552 555.683V552.756H127.961V555.683ZM134.067 567.46V551.366H135.494V567.46H134.067ZM148.084 552.883V565.961H146.44V554.581H146.368L143.189 556.694V555.051L146.44 552.883H148.084ZM155.833 566.142C153.476 566.142 151.688 564.687 151.588 562.673H153.16C153.277 563.838 154.415 564.706 155.833 564.715C157.531 564.706 158.76 563.468 158.76 561.824C158.76 560.126 157.486 558.871 155.725 558.862C154.623 558.844 153.765 559.187 153.286 560.036H151.715L152.636 552.883H159.717V554.328H153.991L153.503 558.157H153.63C154.217 557.706 155.093 557.399 156.014 557.399C158.507 557.399 160.34 559.241 160.349 561.788C160.34 564.317 158.444 566.142 155.833 566.142ZM176.715 559.874V561.03H170.176V564.173H168.767V561.03H162.011V559.874H176.715ZM163.89 567.081V562.691H165.299V565.889H175.071V567.081H163.89ZM163.98 558.302V551.889H165.389V553.949H173.337V551.889H174.746V558.302H163.98ZM165.389 557.146H173.337V555.032H165.389V557.146Z" fill="white"/>
<circle cx="148.5" cy="204.898" r="46.5" fill="white"/>
<path d="M130.764 191.316C139.547 192.461 146.244 187.338 148.494 184.633V226.366C132.237 217.474 129.9 199.294 130.764 191.316Z" fill="black"/>
<path d="M166.224 191.386C157.441 192.532 150.745 187.408 148.494 184.703V226.436C164.751 217.544 167.088 199.364 166.224 191.386Z" fill="black"/>
<defs>
<filter id="filter0_d_6078_117" x="0.540169" y="62.617" width="801.217" height="390.24" filterUnits="userSpaceOnUse" color-interpolation-filters="sRGB">
<feFlood flood-opacity="0" result="BackgroundImageFix"/>
<feColorMatrix in="SourceAlpha" type="matrix" values="0 0 0 0 0 0 0 0 0 0 0 0 0 0 0 0 0 0 127 0" result="hardAlpha"/>
<feOffset dy="7.40496"/>
<feGaussianBlur stdDeviation="32.3041"/>
<feComposite in2="hardAlpha" operator="out"/>
<feColorMatrix type="matrix" values="0 0 0 0 0 0 0 0 0 0 0 0 0 0 0 0 0 0 0.25 0"/>
<feBlend mode="normal" in2="BackgroundImageFix" result="effect1_dropShadow_6078_117"/>
<feBlend mode="normal" in="SourceGraphic" in2="effect1_dropShadow_6078_117" result="shape"/>
</filter>
<filter id="filter1_d_6078_117" x="228.056" y="280.876" width="162.908" height="66.6459" filterUnits="userSpaceOnUse" color-interpolation-filters="sRGB">
<feFlood flood-opacity="0" result="BackgroundImageFix"/>
<feColorMatrix in="SourceAlpha" type="matrix" values="0 0 0 0 0 0 0 0 0 0 0 0 0 0 0 0 0 0 127 0" result="hardAlpha"/>
<feOffset dy="1.85124"/>
<feGaussianBlur stdDeviation="3.70248"/>
<feComposite in2="hardAlpha" operator="out"/>
<feColorMatrix type="matrix" values="0 0 0 0 0 0 0 0 0 0 0 0 0 0 0 0 0 0 0.35 0"/>
<feBlend mode="normal" in2="BackgroundImageFix" result="effect1_dropShadow_6078_117"/>
<feBlend mode="normal" in="SourceGraphic" in2="effect1_dropShadow_6078_117" result="shape"/>
</filter>
<filter id="filter2_d_6078_117" x="378.009" y="280.876" width="162.908" height="66.6459" filterUnits="userSpaceOnUse" color-interpolation-filters="sRGB">
<feFlood flood-opacity="0" result="BackgroundImageFix"/>
<feColorMatrix in="SourceAlpha" type="matrix" values="0 0 0 0 0 0 0 0 0 0 0 0 0 0 0 0 0 0 127 0" result="hardAlpha"/>
<feOffset dy="1.85124"/>
<feGaussianBlur stdDeviation="3.70248"/>
<feComposite in2="hardAlpha" operator="out"/>
<feColorMatrix type="matrix" values="0 0 0 0 0 0 0 0 0 0 0 0 0 0 0 0 0 0 0.35 0"/>
<feBlend mode="normal" in2="BackgroundImageFix" result="effect1_dropShadow_6078_117"/>
<feBlend mode="normal" in="SourceGraphic" in2="effect1_dropShadow_6078_117" result="shape"/>
</filter>
<filter id="filter3_d_6078_117" x="527.954" y="280.876" width="162.908" height="66.6459" filterUnits="userSpaceOnUse" color-interpolation-filters="sRGB">
<feFlood flood-opacity="0" result="BackgroundImageFix"/>
<feColorMatrix in="SourceAlpha" type="matrix" values="0 0 0 0 0 0 0 0 0 0 0 0 0 0 0 0 0 0 127 0" result="hardAlpha"/>
<feOffset dy="1.85124"/>
<feGaussianBlur stdDeviation="3.70248"/>
<feComposite in2="hardAlpha" operator="out"/>
<feColorMatrix type="matrix" values="0 0 0 0 0 0 0 0 0 0 0 0 0 0 0 0 0 0 0.35 0"/>
<feBlend mode="normal" in2="BackgroundImageFix" result="effect1_dropShadow_6078_117"/>
<feBlend mode="normal" in="SourceGraphic" in2="effect1_dropShadow_6078_117" result="shape"/>
</filter>
<filter id="filter4_d_6078_117" x="429.268" y="644.988" width="314.76" height="235.643" filterUnits="userSpaceOnUse" color-interpolation-filters="sRGB">
<feFlood flood-opacity="0" result="BackgroundImageFix"/>
<feColorMatrix in="SourceAlpha" type="matrix" values="0 0 0 0 0 0 0 0 0 0 0 0 0 0 0 0 0 0 127 0" result="hardAlpha"/>
<feOffset dy="1.72"/>
<feGaussianBlur stdDeviation="3.44"/>
<feComposite in2="hardAlpha" operator="out"/>
<feColorMatrix type="matrix" values="0 0 0 0 0 0 0 0 0 0 0 0 0 0 0 0 0 0 0.35 0"/>
<feBlend mode="normal" in2="BackgroundImageFix" result="effect1_dropShadow_6078_117"/>
<feBlend mode="normal" in="SourceGraphic" in2="effect1_dropShadow_6078_117" result="shape"/>
</filter>
<filter id="filter5_d_6078_117" x="656.315" y="679.387" width="53.9748" height="53.9709" filterUnits="userSpaceOnUse" color-interpolation-filters="sRGB">
<feFlood flood-opacity="0" result="BackgroundImageFix"/>
<feColorMatrix in="SourceAlpha" type="matrix" values="0 0 0 0 0 0 0 0 0 0 0 0 0 0 0 0 0 0 127 0" result="hardAlpha"/>
<feOffset dy="1.72"/>
<feGaussianBlur stdDeviation="3.44"/>
<feComposite in2="hardAlpha" operator="out"/>
<feColorMatrix type="matrix" values="0 0 0 0 0 0 0 0 0 0 0 0 0 0 0 0 0 0 0.25 0"/>
<feBlend mode="normal" in2="BackgroundImageFix" result="effect1_dropShadow_6078_117"/>
<feBlend mode="normal" in="SourceGraphic" in2="effect1_dropShadow_6078_117" result="shape"/>
</filter>
<filter id="filter6_d_6078_117" x="443.026" y="745.402" width="292.401" height="118.682" filterUnits="userSpaceOnUse" color-interpolation-filters="sRGB">
<feFlood flood-opacity="0" result="BackgroundImageFix"/>
<feColorMatrix in="SourceAlpha" type="matrix" values="0 0 0 0 0 0 0 0 0 0 0 0 0 0 0 0 0 0 127 0" result="hardAlpha"/>
<feOffset dy="1.72"/>
<feGaussianBlur stdDeviation="3.44"/>
<feComposite in2="hardAlpha" operator="out"/>
<feColorMatrix type="matrix" values="0 0 0 0 0 0 0 0 0 0 0 0 0 0 0 0 0 0 0.25 0"/>
<feBlend mode="normal" in2="BackgroundImageFix" result="effect1_dropShadow_6078_117"/>
<feBlend mode="normal" in="SourceGraphic" in2="effect1_dropShadow_6078_117" result="shape"/>
</filter>
<filter id="filter7_d_6078_117" x="429.268" y="405.684" width="314.76" height="235.643" filterUnits="userSpaceOnUse" color-interpolation-filters="sRGB">
<feFlood flood-opacity="0" result="BackgroundImageFix"/>
<feColorMatrix in="SourceAlpha" type="matrix" values="0 0 0 0 0 0 0 0 0 0 0 0 0 0 0 0 0 0 127 0" result="hardAlpha"/>
<feOffset dy="1.72"/>
<feGaussianBlur stdDeviation="3.44"/>
<feComposite in2="hardAlpha" operator="out"/>
<feColorMatrix type="matrix" values="0 0 0 0 0 0 0 0 0 0 0 0 0 0 0 0 0 0 0.35 0"/>
<feBlend mode="normal" in2="BackgroundImageFix" result="effect1_dropShadow_6078_117"/>
<feBlend mode="normal" in="SourceGraphic" in2="effect1_dropShadow_6078_117" result="shape"/>
</filter>
<filter id="filter8_d_6078_117" x="656.307" y="440.082" width="53.9748" height="53.9709" filterUnits="userSpaceOnUse" color-interpolation-filters="sRGB">
<feFlood flood-opacity="0" result="BackgroundImageFix"/>
<feColorMatrix in="SourceAlpha" type="matrix" values="0 0 0 0 0 0 0 0 0 0 0 0 0 0 0 0 0 0 127 0" result="hardAlpha"/>
<feOffset dy="1.72"/>
<feGaussianBlur stdDeviation="3.44"/>
<feComposite in2="hardAlpha" operator="out"/>
<feColorMatrix type="matrix" values="0 0 0 0 0 0 0 0 0 0 0 0 0 0 0 0 0 0 0.25 0"/>
<feBlend mode="normal" in2="BackgroundImageFix" result="effect1_dropShadow_6078_117"/>
<feBlend mode="normal" in="SourceGraphic" in2="effect1_dropShadow_6078_117" result="shape"/>
</filter>
<filter id="filter9_d_6078_117" x="443.026" y="506.098" width="292.401" height="118.682" filterUnits="userSpaceOnUse" color-interpolation-filters="sRGB">
<feFlood flood-opacity="0" result="BackgroundImageFix"/>
<feColorMatrix in="SourceAlpha" type="matrix" values="0 0 0 0 0 0 0 0 0 0 0 0 0 0 0 0 0 0 127 0" result="hardAlpha"/>
<feOffset dy="1.72"/>
<feGaussianBlur stdDeviation="3.44"/>
<feComposite in2="hardAlpha" operator="out"/>
<feColorMatrix type="matrix" values="0 0 0 0 0 0 0 0 0 0 0 0 0 0 0 0 0 0 0.25 0"/>
<feBlend mode="normal" in2="BackgroundImageFix" result="effect1_dropShadow_6078_117"/>
<feBlend mode="normal" in="SourceGraphic" in2="effect1_dropShadow_6078_117" result="shape"/>
</filter>
<filter id="filter10_d_6078_117" x="57.3853" y="0.288952" width="687.229" height="98.9951" filterUnits="userSpaceOnUse" color-interpolation-filters="sRGB">
<feFlood flood-opacity="0" result="BackgroundImageFix"/>
<feColorMatrix in="SourceAlpha" type="matrix" values="0 0 0 0 0 0 0 0 0 0 0 0 0 0 0 0 0 0 127 0" result="hardAlpha"/>
<feOffset dy="1.90368"/>
<feGaussianBlur stdDeviation="3.80737"/>
<feComposite in2="hardAlpha" operator="out"/>
<feColorMatrix type="matrix" values="0 0 0 0 0 0 0 0 0 0 0 0 0 0 0 0 0 0 0.25 0"/>
<feBlend mode="normal" in2="BackgroundImageFix" result="effect1_dropShadow_6078_117"/>
<feBlend mode="normal" in="SourceGraphic" in2="effect1_dropShadow_6078_117" result="shape"/>
</filter>
<filter id="filter11_d_6078_117" x="660.862" y="19.3202" width="62.8232" height="62.8232" filterUnits="userSpaceOnUse" color-interpolation-filters="sRGB">
<feFlood flood-opacity="0" result="BackgroundImageFix"/>
<feColorMatrix in="SourceAlpha" type="matrix" values="0 0 0 0 0 0 0 0 0 0 0 0 0 0 0 0 0 0 127 0" result="hardAlpha"/>
<feOffset dy="1.90368"/>
<feGaussianBlur stdDeviation="3.80737"/>
<feComposite in2="hardAlpha" operator="out"/>
<feColorMatrix type="matrix" values="0 0 0 0 0 0 0 0 0 0 0 0 0 0 0 0 0 0 0.35 0"/>
<feBlend mode="normal" in2="BackgroundImageFix" result="effect1_dropShadow_6078_117"/>
<feBlend mode="normal" in="SourceGraphic" in2="effect1_dropShadow_6078_117" result="shape"/>
</filter>
<filter id="filter12_d_6078_117" x="57.7496" y="405.295" width="334.798" height="476.516" filterUnits="userSpaceOnUse" color-interpolation-filters="sRGB">
<feFlood flood-opacity="0" result="BackgroundImageFix"/>
<feColorMatrix in="SourceAlpha" type="matrix" values="0 0 0 0 0 0 0 0 0 0 0 0 0 0 0 0 0 0 127 0" result="hardAlpha"/>
<feOffset dy="1.84971"/>
<feGaussianBlur stdDeviation="3.69942"/>
<feComposite in2="hardAlpha" operator="out"/>
<feColorMatrix type="matrix" values="0 0 0 0 0 0 0 0 0 0 0 0 0 0 0 0 0 0 0.35 0"/>
<feBlend mode="normal" in2="BackgroundImageFix" result="effect1_dropShadow_6078_117"/>
<feBlend mode="normal" in="SourceGraphic" in2="effect1_dropShadow_6078_117" result="shape"/>
</filter>
<filter id="filter13_d_6078_117" x="92.8902" y="591.302" width="259.235" height="259.235" filterUnits="userSpaceOnUse" color-interpolation-filters="sRGB">
<feFlood flood-opacity="0" result="BackgroundImageFix"/>
<feColorMatrix in="SourceAlpha" type="matrix" values="0 0 0 0 0 0 0 0 0 0 0 0 0 0 0 0 0 0 127 0" result="hardAlpha"/>
<feOffset dy="1.84971"/>
<feGaussianBlur stdDeviation="3.69942"/>
<feComposite in2="hardAlpha" operator="out"/>
<feColorMatrix type="matrix" values="0 0 0 0 0 0 0 0 0 0 0 0 0 0 0 0 0 0 0.35 0"/>
<feBlend mode="normal" in2="BackgroundImageFix" result="effect1_dropShadow_6078_117"/>
<feBlend mode="normal" in="SourceGraphic" in2="effect1_dropShadow_6078_117" result="shape"/>
</filter>
<linearGradient id="paint0_linear_6078_117" x1="586.648" y1="650.148" x2="586.648" y2="872.028" gradientUnits="userSpaceOnUse">
<stop stop-color="#F0F0F0"/>
<stop offset="1" stop-color="white"/>
</linearGradient>
<linearGradient id="paint1_linear_6078_117" x1="586.648" y1="410.844" x2="586.648" y2="632.724" gradientUnits="userSpaceOnUse">
<stop stop-color="#D8FF0E"/>
<stop offset="1" stop-color="#E0FD48"/>
</linearGradient>
<linearGradient id="paint2_linear_6078_117" x1="692.274" y1="23.125" x2="692.274" y2="74.5244" gradientUnits="userSpaceOnUse">
<stop stop-color="#D8FF0E"/>
<stop offset="1" stop-color="#E0FD48"/>
</linearGradient>
<linearGradient id="paint3_linear_6078_117" x1="321.952" y1="659.099" x2="247.559" y2="825.347" gradientUnits="userSpaceOnUse">
<stop stop-color="#E0FD48"/>
<stop offset="1" stop-color="#35353F"/>
</linearGradient>
<linearGradient id="paint4_linear_6078_117" x1="292.482" y1="681.943" x2="231.622" y2="794.22" gradientUnits="userSpaceOnUse">
<stop stop-color="#E0FD48"/>
<stop offset="1" stop-color="#35353F"/>
</linearGradient>
</defs>
</svg>
