<svg width="1276" height="683" viewBox="0 0 1276 683" fill="none" xmlns="http://www.w3.org/2000/svg">
<path d="M1244.2 211.085C1171.02 180.672 1142.06 111.022 1136.72 79.9982L950.04 403.342C1115.77 407.167 1215.2 276.764 1244.2 211.085Z" fill="#101010"/>
<path d="M969.141 53.0319C1032.07 101.197 1106.87 91.4555 1136.4 80.5643L949.721 403.908C863.541 262.292 926.76 110.984 969.141 53.0319Z" fill="#101010"/>
<path d="M18.3719 350.227C104.217 338.821 154.492 273.491 168.898 242.252L274.503 636.373C98.4747 593.534 30.4038 427.759 18.3719 350.227Z" fill="#101010"/>
<path d="M353.422 261.19C273.375 294.234 197.171 262.794 169.074 242.944L274.679 637.065C405.704 511.951 381.768 334.351 353.422 261.19Z" fill="#101010"/>
</svg>
