<svg width="66" height="60" viewBox="0 0 66 60" fill="none" xmlns="http://www.w3.org/2000/svg">
<path fill-rule="evenodd" clip-rule="evenodd" d="M13.3903 0.710938C11.4573 0.710938 9.89027 2.27794 9.89027 4.21094C9.89027 6.14393 11.4573 7.71094 13.3903 7.71094H45.2884C49.0587 7.71094 52.1152 10.7674 52.1152 14.5377C52.1152 18.308 49.0587 21.3644 45.2884 21.3644H15.6851C7.41508 21.3644 0.710938 28.0686 0.710938 36.3386C0.710938 44.6086 7.4151 51.3127 15.6851 51.3127H43.3101C44.7907 55.9367 49.1243 59.2843 54.2398 59.2843C60.5768 59.2843 65.7139 54.1471 65.7139 47.8101C65.7139 41.4731 60.5768 36.3359 54.2398 36.3359C49.1224 36.3359 44.7874 39.686 43.3084 44.3127H15.6851C11.2811 44.3127 7.71094 40.7426 7.71094 36.3386C7.71094 31.9346 11.2811 28.3644 15.6851 28.3644H45.2884C52.9247 28.3644 59.1152 22.174 59.1152 14.5377C59.1152 6.90138 52.9247 0.710938 45.2884 0.710938H13.3903ZM58.7139 47.8101C58.7139 50.2811 56.7108 52.2843 54.2398 52.2843C51.7688 52.2843 49.7656 50.2811 49.7656 47.8101C49.7656 45.3391 51.7688 43.3359 54.2398 43.3359C56.7108 43.3359 58.7139 45.3391 58.7139 47.8101Z" fill="black"/>
</svg>
