<svg width="85" height="43" viewBox="0 0 85 43" fill="none" xmlns="http://www.w3.org/2000/svg">
<path d="M58.7227 7C58.7227 7 66.4439 11.6328 66.4439 22.0565C66.4439 32.4802 58.7227 35.9548 58.7227 35.9548" stroke="white" stroke-width="5" stroke-linecap="round"/>
<path d="M72.4453 3C72.4453 3 82.4453 8.92 82.4453 22.24C82.4453 35.56 72.4453 40 72.4453 40" stroke="white" stroke-width="5" stroke-linecap="round"/>
<path d="M13 3C13 3 3 8.92 3 22.24C3 35.56 13 40 13 40" stroke="white" stroke-width="5" stroke-linecap="round"/>
<path d="M26.7227 7C26.7227 7 19.0014 11.6328 19.0014 22.0565C19.0014 32.4802 26.7227 35.9548 26.7227 35.9548" stroke="white" stroke-width="5" stroke-linecap="round"/>
<circle cx="42.7227" cy="21" r="10" fill="white"/>
</svg>
