<svg width="69" height="92" viewBox="0 0 69 92" fill="none" xmlns="http://www.w3.org/2000/svg">
<path d="M17.629 4H4V28.3181C4 38.5955 12.3315 46.927 22.6089 46.927V46.927C32.8863 46.927 41.2177 38.5955 41.2177 28.3181V4H31.7823" stroke="white" stroke-width="7" stroke-linecap="round"/>
<path d="M22.8711 47.625V68.2905C22.8711 76.7011 26.1697 85.5432 34.415 87.2019C36.0756 87.5359 37.8069 87.7395 39.5765 87.8103C49.3856 88.2027 55.3711 78.5536 55.3711 68.7366V68.7366" stroke="white" stroke-width="7" stroke-linecap="round"/>
<path d="M65.4987 53.2571C65.4987 57.4368 64.2323 61.0843 62.3535 63.6064C60.475 66.1284 58.1537 67.3501 55.8939 67.3501C53.6341 67.3501 51.3128 66.1284 49.4343 63.6064C47.5555 61.0843 46.2891 57.4368 46.2891 53.2571C46.2891 49.0774 47.5555 45.4299 49.4343 42.9077C51.3128 40.3858 53.6341 39.1641 55.8939 39.1641C58.1537 39.1641 60.475 40.3858 62.3535 42.9077C64.2323 45.4299 65.4987 49.0774 65.4987 53.2571Z" stroke="white" stroke-width="7"/>
</svg>
